<?xml version="1.0" encoding="utf-8"?>
<!-- Generator: Adobe Illustrator 27.5.0, SVG Export Plug-In . SVG Version: 6.00 Build 0)  -->
<svg version="1.1" xmlns="http://www.w3.org/2000/svg" xmlns:xlink="http://www.w3.org/1999/xlink" x="0px" y="0px"
	 viewBox="0 0 2200 2200" style="enable-background:new 0 0 2200 2200;" xml:space="preserve">
<g id="background">
	<rect x="0" style="fill:#FFFFFF;" width="2200" height="2200"/>
</g>
<g id="Objects">
	<g>
		<path style="fill:#6ED6FF;" d="M945.568,843.788c79.505,0,143.957-64.452,143.957-143.957s-64.452-143.957-143.957-143.957
			c-4.895,0-9.733,0.247-14.502,0.724c0.445-3.945,0.681-7.953,0.681-12.016c0-58.633-47.532-106.165-106.165-106.165
			c-9.403,0-18.518,1.228-27.199,3.523c-18.473-79.985-90.143-139.613-175.741-139.613c-73.757,0-137.162,44.278-165.114,107.698
			c-8.009-1.66-16.306-2.535-24.807-2.535c-67.173,0-121.628,54.455-121.628,121.628c0,6.238,0.472,12.365,1.377,18.35
			c-9.492-1.888-19.305-2.886-29.352-2.886c-82.623,0-149.603,66.979-149.603,149.603s66.979,149.603,149.603,149.603H945.568z"/>
		<path style="fill:#375F99;" d="M585.826,914.181l-130.668,121.041c-7.532,6.981-19.177,6.981-26.708,0L297.781,914.181
			c-13.112-12.148-4.52-34.073,13.357-34.073h48.938V660.939c0-11.681,9.472-21.146,21.152-21.146h121.149
			c11.681,0,21.152,9.466,21.152,21.146v219.169h48.938C590.346,880.109,598.938,902.033,585.826,914.181z"/>
		<path style="fill:#C93F3F;" d="M925.26,719.385L794.591,598.344c-7.532-6.981-19.177-6.981-26.708,0L637.215,719.385
			c-13.112,12.148-4.52,34.073,13.357,34.073h48.938v219.169c0,11.681,9.472,21.146,21.152,21.146h121.149
			c11.681,0,21.152-9.466,21.152-21.146V753.458h48.938C929.78,753.458,938.371,731.533,925.26,719.385z"/>
	</g>
	<g>
		<polygon style="fill:#BCD1DD;" points="1707.274,997.949 1464.178,997.949 1493.307,912.397 1678.145,912.397 		"/>
		<path style="fill:#CDE1E8;" d="M1963.12,797.8v73.57c0,26.74-21.66,48.42-48.41,48.42h-657.97c-26.74,0-48.41-21.68-48.41-48.42
			V797.8l13.301-23.189h724.374L1963.12,797.8z"/>
		<path style="fill:#375F99;" d="M1963.12,444.48V797.8h-754.79V444.48c0-26.74,21.67-48.41,48.41-48.41h657.97
			C1941.46,396.07,1963.12,417.74,1963.12,444.48z"/>
		<path style="fill:#CDE1E8;" d="M1761.161,1040.458h-350.87c-6.229,0-10.772-5.893-9.187-11.917l3.374-12.825
			c3.9-14.823,17.302-25.156,32.63-25.156h297.237c15.328,0,28.73,10.332,32.63,25.156l3.374,12.825
			C1771.933,1034.565,1767.389,1040.458,1761.161,1040.458z"/>
		<path style="fill:#6ED6FF;" d="M1795.39,642.174c49.901,0,90.354-40.453,90.354-90.354s-40.453-90.354-90.354-90.354
			c-3.073,0-6.109,0.155-9.102,0.454c0.279-2.476,0.427-4.991,0.427-7.542c0-36.801-29.833-66.634-66.634-66.634
			c-5.901,0-11.622,0.771-17.071,2.211c-11.594-50.202-56.578-87.627-110.303-87.627c-46.293,0-86.089,27.791-103.633,67.597
			c-5.027-1.042-10.234-1.591-15.57-1.591c-42.161,0-76.339,34.178-76.339,76.34c0,3.915,0.296,7.761,0.864,11.517
			c-5.958-1.185-12.117-1.812-18.423-1.812c-51.858,0-93.898,42.039-93.898,93.898s42.039,93.898,93.898,93.898H1795.39z"/>
	</g>
	<g>
		<path style="fill:#6ED6FF;" d="M1922.528,1701.002c79.505,0,143.957-64.452,143.957-143.957
			c0-79.505-64.452-143.957-143.957-143.957c-4.895,0-9.733,0.247-14.502,0.724c0.444-3.945,0.681-7.953,0.681-12.016
			c0-58.633-47.532-106.165-106.165-106.165c-9.403,0-18.517,1.228-27.199,3.523c-18.473-79.985-90.143-139.613-175.741-139.613
			c-73.757,0-137.162,44.278-165.114,107.698c-8.009-1.66-16.306-2.535-24.807-2.535c-67.173,0-121.628,54.455-121.628,121.628
			c0,6.238,0.472,12.365,1.377,18.35c-9.492-1.888-19.305-2.886-29.352-2.886c-82.623,0-149.603,66.979-149.603,149.603
			c0,82.623,66.979,149.603,149.603,149.603H1922.528z"/>
		<path style="fill:#2E517A;" d="M1681.528,1582.2v-68.492c0-51.307-41.735-93.054-93.054-93.054
			c-51.307,0-93.042,41.746-93.042,93.054v68.492h-44.888v-68.492c0-76.063,61.879-137.942,137.931-137.942
			c76.063,0,137.942,61.879,137.942,137.942v68.492H1681.528z"/>
		<path style="fill:#487AB5;" d="M1736.19,1564.599h-295.421c-23.989,0-43.437,19.447-43.437,43.437v246.2
			c0,23.989,19.447,43.437,43.437,43.437h295.421c23.989,0,43.437-19.447,43.437-43.437v-246.2
			C1779.627,1584.046,1760.18,1564.599,1736.19,1564.599z"/>
		<path style="fill:#375F99;" d="M1612.753,1746.481l4.837,42.846c1.089,9.685-6.486,18.157-16.227,18.157h-25.755
			c-9.741,0-17.316-8.473-16.227-18.157l4.837-42.846c-15.756-8.596-26.45-25.317-26.45-44.54c0-27.999,22.714-50.713,50.713-50.713
			c28.01,0,50.713,22.714,50.713,50.713C1639.192,1721.153,1628.509,1737.874,1612.753,1746.481z"/>
	</g>
	<g>
		<path style="fill:#375F99;" d="M233.55,1734.276v108.376c0,30.387,177.89,55.02,397.328,55.02s397.328-24.633,397.328-55.02
			v-108.376H233.55z"/>
		<ellipse style="fill:#487AB5;" cx="630.878" cy="1734.276" rx="397.328" ry="55.02"/>
		<path style="fill:#375F99;" d="M233.55,1576.54v108.376c0,30.387,177.89,55.02,397.328,55.02s397.328-24.633,397.328-55.02
			V1576.54H233.55z"/>
		<ellipse style="fill:#487AB5;" cx="630.878" cy="1576.54" rx="397.328" ry="55.02"/>
		<path style="fill:#375F99;" d="M233.55,1418.804v108.376c0,30.387,177.89,55.02,397.328,55.02s397.328-24.633,397.328-55.02
			v-108.376H233.55z"/>
		<ellipse style="fill:#487AB5;" cx="630.878" cy="1418.804" rx="397.328" ry="55.02"/>
		<path style="fill:#6ED6FF;" d="M790.826,1418.804c38.069,0,68.929-30.861,68.929-68.929s-30.861-68.929-68.929-68.929
			c-2.344,0-4.66,0.118-6.944,0.347c0.213-1.889,0.326-3.808,0.326-5.754c0-28.075-22.759-50.834-50.834-50.834
			c-4.502,0-8.867,0.588-13.023,1.687c-8.845-38.298-43.162-66.849-84.148-66.849c-35.316,0-65.676,21.201-79.06,51.568
			c-3.835-0.795-7.808-1.214-11.878-1.214c-32.164,0-58.238,26.074-58.238,58.238c0,2.987,0.226,5.921,0.659,8.786
			c-4.545-0.904-9.244-1.382-14.054-1.382c-39.562,0-71.633,32.071-71.633,71.633s32.071,71.633,71.633,71.633H790.826z"/>
		<circle style="fill:#FFFFFF;" cx="320.771" cy="1507.517" r="16"/>
		<circle style="fill:#FFFFFF;" cx="392.986" cy="1516.739" r="16"/>
		<circle style="fill:#FFFFFF;" cx="320.771" cy="1665.252" r="16"/>
		<circle style="fill:#FFFFFF;" cx="392.986" cy="1674.475" r="16"/>
		<circle style="fill:#FFFFFF;" cx="320.771" cy="1822.988" r="16"/>
		<circle style="fill:#FFFFFF;" cx="392.986" cy="1832.211" r="16"/>
	</g>
</g>
</svg>
