<?xml version="1.0" encoding="utf-8"?>
<!-- Generator: Adobe Illustrator 27.5.0, SVG Export Plug-In . SVG Version: 6.00 Build 0)  -->
<svg version="1.1" xmlns="http://www.w3.org/2000/svg" xmlns:xlink="http://www.w3.org/1999/xlink" x="0px" y="0px"
	 viewBox="0 0 1100 800" style="enable-background:new 0 0 1100 800;" xml:space="preserve">
<g id="background">
	<rect style="fill:#FFFFFF;" width="1100" height="800"/>
</g>
<g id="shadow">
	<g>
		<path style="fill:#F7F7F7;" d="M497.998,663.773c-27.351,0.085-54.701,0.768-82.003,3.927c-10.294,1.191-20.373,3.81-30.69,4.866
			c-20.609,2.11-40.849,6.047-61.532,7.863c-16.655,1.462-33.38,2.325-49.987,4.18c-15.569,1.739-32.806,1.338-48.256-1.536
			c-11.438-2.127-22.928-3.325-34.173-6.742c-12.58-3.823-26.247-6.555-39.354-6.457c-18.69,0.14-36.892,0.157-54.779,6.906
			c-6.279,2.369-13.965,6.264-18.733,11.236c-10.915,11.382-12.392,39.783-1.494,51.589c18.356,19.869,57.534,27.665,83.264,28.033
			c28.195,0.403,55.585-1.773,83.821-3.053c26.238-1.189,52.409-2.881,78.69-2.822c53.676,0.122,107.359,0,160.938-3.729
			c50.339-3.503,100.804-2.301,151.253-2.301c51.733,0,103.117,0.423,154.477,7.573c22.378,3.115,45.177,4.206,67.667,6.389
			c20.142,1.955,39.498-0.039,59.56-1.845c16.846-1.517,33.582-6.017,48.886-13.623c12.115-6.021,33.711-24.726,37.427-39.097
			c10.415-40.29-146.782-39.322-170.918-39.231c-27,0.101-54.215,1.025-81.194-0.045c-11.349-0.45-22.53-2.757-33.607-5.285
			c-11.032-2.518-22.148-1.878-33.336-2.936c-46.656-4.412-93.415-3.768-140.219-3.768
			C528.475,663.865,513.236,663.726,497.998,663.773z"/>
	</g>
</g>
<g id="object">
	<g>
		<g>
			<g>
				<g id="XMLID_110_">
					<polygon style="fill:#3B455A;" points="223.4,720.735 225.306,729.144 243.212,734.282 249.307,724.237 239.401,717.463 
						221.495,712.325 					"/>
				</g>
				<g id="XMLID_109_">
					<polygon style="fill:#3B455A;" points="173.699,712.741 173.22,721.542 156.23,729.396 148.453,720.122 157.188,711.794 					
						"/>
				</g>
				<polygon style="fill:#BCBEC0;" points="241.226,461.552 249.575,488.604 246.066,501.19 246.435,501.136 243.984,573.196 
					238.575,718.287 221.949,718.196 186.911,549.886 184.981,557.784 173.682,714.683 158.413,713.808 128.54,510.423 
					127.267,469.033 				"/>
			</g>
			<g>
				<path style="fill:#587BC9;" d="M168.287,300.293c0,0,19.4-2.22,19.407-2.221c43.366-4.963,48.325,55.56,54.893,85.542
					c9.514,43.427,14.484,88.067,11.673,132.528c-13.904-7.048-32.807-4.91-48.369-4.97c-28.661-0.109-58.315,0.019-85.784,5.272
					c-5.129,0.981-4.017-36.223-3.185-43.158c1.695-14.121,3.39-28.242,5.084-42.363c3.063-25.52,6.126-51.041,9.189-76.561
					c0.09-0.749,0.18-1.497,0.27-2.246c0.33-2.747,1.164-5.41,2.46-7.855l17.049-32.158
					C154.446,305.554,160.923,301.136,168.287,300.293z"/>
			</g>
			<g>
				<g>
					<g>
						<path style="fill:#EFBFA5;" d="M164.235,236.278c1.102-4.304,2.625-8.468,4.862-12.301
							c4.265-7.309,11.553-13.299,19.981-14.059c15.503-1.398,32.938,8.266,34.419,24.824c0.934,10.438,2.399,21.641-0.567,31.882
							c-1.529,5.28-4.521,10.518-8.822,14.029c-3.115,2.543-9.699,3.182-12,6.031c-7.535,9.332,3.347,13.743-10.372,20.104
							c-0.688,0.319-1.402,0.644-2.16,0.656c-1.078,0.017-2.052-0.596-2.954-1.187c-1.743-1.141-3.485-2.283-5.228-3.424
							c-0.205-0.134-0.418-0.276-0.542-0.488c-0.2-0.34-0.125-0.768-0.038-1.154c3.268-14.449-13.322-18.732-17.029-31.838
							c-1.95-6.896-2.643-14.102-1.722-21.166C162.585,244.199,163.237,240.181,164.235,236.278z"/>
					</g>
				</g>
			</g>
		</g>
		<path style="fill:#3B455A;" d="M225.582,243.308c1.098-0.781,0.579-3.206-1.205-3.291c-6.761-0.323-14.553-0.7-21.159,1.067
			c-3.544,0.948-3.328,3.591-3.307,7.006c0.004,0.586,0.012,1.151,0.036,1.696c-0.752-0.049-1.538,0.029-2.277,0.035
			c-2.095,0.017-4.221-0.012-6.303,0.22c-0.014,0.002-0.023,0.009-0.037,0.012c-0.146-2.187-0.605-4.387-1.289-6.112
			c-0.062-0.157-0.171-0.274-0.296-0.366c-0.192-0.41-0.539-0.748-1.072-0.891c-4.879-1.297-9.79-2.114-14.816-2.361
			c-2.564-0.126-7.709-1.085-9.941,0.725c-0.795,0.645-1.295,2.002-1.56,3.642c-0.314-0.296-0.628-0.586-0.93-0.867
			c-0.085-0.079-0.175-0.163-0.261-0.243c-0.092,0.736-0.175,1.473-0.203,2.215c-0.013,0.346-0.072,0.66-0.164,0.947
			c0.438,0.397,0.876,0.793,1.33,1.168c0.014,3.124,0.627,6.342,1.593,7.595c1.705,2.212,4.645,1.899,7.062,1.941
			c5.213,0.091,10.455,0.245,15.666,0.112c2.347-0.06,3.887,0.168,4.538-2.427c0.184-0.734,0.291-1.542,0.35-2.378
			c0.088,0.019,0.164,0.056,0.261,0.058c2.094,0.065,4.209-0.131,6.297-0.28c0.812-0.058,1.633-0.044,2.396-0.186
			c0.458,1.655,1.481,2.834,3.804,3.219c6.65,1.104,13.55,0.881,20.257,1.983c1.103,0.181,1.866-0.673,1.879-1.765
			C226.277,251.922,227.246,246.879,225.582,243.308z M188.451,249.65c-0.487,4.688-2.283,4.936-6.171,4.838
			c-3.46-0.087-13.403,1.332-15.597-1.293c-1.378-1.649-1.062-3.928-1.016-6.063c-0.762-2.53,0.042-3.727,2.412-3.59
			c1.251-0.04,2.5-0.045,3.751-0.014c5.509,0.142,10.913,1.076,16.255,2.474c0.107,0.028,0.209,0.04,0.308,0.048
			C188.451,247.257,188.574,248.461,188.451,249.65z M223.022,253.973c-3.533-0.556-7.075-1.014-10.636-1.31
			c-1.946-0.162-3.894-0.272-5.843-0.369c-2.529-0.126-2.905-0.291-3.326-2.991c-0.93-5.95,5.121-5.482,9.076-5.733
			c2.262-0.143,8.45-1.324,10.124,0.375C224.228,245.784,222.94,251.64,223.022,253.973z"/>
		<g>
			<g>
				<polygon style="fill:#EFBFA5;" points="292.587,213.624 303.831,215.34 308.83,197.096 299.993,189.167 290.191,192.057 
					293.184,200.555 291.076,200.234 289.301,197.769 286.859,199.59 				"/>
			</g>
			<g>
				<g>
					<path style="fill:#587BC9;" d="M211.916,333.895c-5.229-16.23-8.896-31.526-8.635-31.525
						c11.712,0.026,23.429,0.065,35.137-0.283c7.413-0.22,18.031,2.954,22.558-2.806c5.765-7.335,7.592-23.96,10.43-32.951
						c3.165-10.024,6.33-20.049,9.495-30.073c1.871-5.926,4.843-24.386,10.18-26.167c1.131-0.377,15.163,1.961,15.18,1.705
						c-0.932,15.258-1.864,30.516-2.795,45.774c-0.697,11.405-1.393,22.81-2.09,34.216c-1.224,20.043-6.685,27.715-21.336,41.279
						c-14.52,13.442-30.095,25.677-45.64,37.897C227.587,376.316,218.51,354.362,211.916,333.895z"/>
				</g>
			</g>
		</g>
		<g>
			<g>
				<g>
					<path style="fill:#EFBFA5;" d="M838.36,191.364c0.045,0.063,0.089,0.127,0.13,0.192c1.876,2.981-0.699,5.257-0.638,8.074
						c0.057,2.635,4.076,4.555,2.477,6.982c-0.674,1.022-2.482,2.674-3.743,4.632c-1.839,2.855-2.669,7.3-2.636,11.214
						c0.133,15.376-0.024,30.769-1.68,46.133c-0.095,0.876-0.215,1.74,0.141,2.568c0.638,1.483,2.084,1.967,3.469,2.603
						c6.422,2.949,12.667,6.066,18.444,10.199c5.155,3.688,9.944,7.774,12.95,13.415c3.006,5.641,3.685,12.395,0.56,17.892
						c-2.34,4.117-6.19,7.131-10.985,7.079c-11.891-0.13-18.219-12.413-24.894-20.382c-6.316-7.541-11.664-13.977-17.292-21.664
						c-0.695-0.949-1.341-1.85-1.602-3.03c-0.261-1.18-0.025-2.433,0.236-3.6c3.375-15.03,7.05-29.594,7.099-44.994
						c0.014-4.232,1.651-7.753,1.159-11.843c-0.313-2.61-2.46-4.391-3.144-6.874c-0.684-2.484-1.301-5.377-0.942-7.921
						c0.978-6.918,10.721-14.412,17.679-12.596C836.38,189.764,837.619,190.342,838.36,191.364z"/>
				</g>
				<g>
					<path style="fill:#D7E8F4;" d="M832.924,305.575c-7.064-7.85-13.915-15.884-20.41-24.214c-1.22-1.565-2.461-3.211-2.878-5.152
						c-0.297-1.385-0.151-2.823,0.008-4.231c1.325-11.718,3.437-23.346,6.318-34.781c0.11-0.436,0.241-0.903,0.594-1.181
						c0.29-0.228,0.676-0.282,1.042-0.328c3.62-0.459,18.227-4.355,20.524-1.863c2.563,2.781-1.278,10.497-1.784,13.588
						c-0.895,5.467-1.583,10.967-2.061,16.486c-0.169,1.954-0.276,4.064,0.771,5.722c0.988,1.565,2.786,2.381,4.465,3.159
						c9.9,4.585,18.974,11.005,28.481,16.378c6.574,3.716,13.676,7.034,19.876,11.367c12.192,8.524,17.73,10.844,23.147,20.192
						c5.19,8.957,6.259,21.095-2.225,28.461c-8.786,7.627-21.909,5.736-31.423,0.802c-3.926-2.036-7.09-5.249-10.184-8.41
						C855.6,329.736,843.999,317.882,832.924,305.575z"/>
				</g>
			</g>
			<g>
				<g>
					<g>
						<g>
							<g>
								<path style="fill:#EFBFA5;" d="M852.603,714.148c-3.035,0.103-5.952-0.579-8.933-0.854
									c-1.539-29.552,1.254-60.525,2.466-90.218c7.592,0.405,15.184,0.81,22.775,1.215c-5.286,15.869-9.061,32.241-11.268,48.821
									C857.293,675.74,853.035,714.133,852.603,714.148z"/>
							</g>
							<g>
								<path style="fill:#3B455A;" d="M842.751,707.562c-1.874-0.334-2.979,0.5-4.229,1.642c-0.726,0.663-1.219,1.601-2.094,2.076
									c-0.875,0.475-1.734,0.567-2.774,0.672c-5.477,0.55-18.094,0.322-11.372,9.482c6.104,8.318,22.317,5.007,31.682,2.747
									c0.616-0.148,1.266-0.241,1.718-0.718c0.451-0.477,0.756-1.156,0.948-1.859c1.069-3.914,2.53-8.802-2.283-10.442
									c-2.053-0.7-3.944,0.66-6.117-0.094C846.45,710.451,844.625,707.896,842.751,707.562z"/>
							</g>
						</g>
					</g>
					<path style="fill:#305399;" d="M829.113,640.9c15.482-0.3,30.964-0.6,46.447-0.901
						c12.524-59.621,23.553-119.555,33.074-179.729c0.738-4.665,1.457-9.517,0.112-14.045c-2.543-8.564-11.715-13.451-20.497-15.092
						c-13.647-2.55-38.721,1.001-45.719,15.19c-7.396,14.995-6.155,41.777-7.948,58.347
						C829.687,549.888,827.854,595.436,829.113,640.9z"/>
				</g>
				<g>
					<g>
						<g>
							<g>
								<path style="fill:#EFBFA5;" d="M941.141,714.148c3.035,0.103,5.952-0.579,8.933-0.854
									c1.539-29.552-1.254-60.525-2.466-90.218c-7.592,0.405-15.184,0.81-22.775,1.215c5.286,15.869,9.061,32.241,11.268,48.821
									C936.451,675.74,940.709,714.133,941.141,714.148z"/>
							</g>
							<g>
								<path style="fill:#3B455A;" d="M950.993,707.562c1.874-0.334,2.979,0.5,4.229,1.642c0.726,0.663,1.219,1.601,2.094,2.076
									c0.875,0.475,1.734,0.567,2.774,0.672c5.477,0.55,18.094,0.322,11.372,9.482c-6.104,8.318-22.317,5.007-31.682,2.747
									c-0.616-0.148-1.266-0.241-1.718-0.718c-0.451-0.477-0.756-1.156-0.948-1.859c-1.069-3.914-2.53-8.802,2.283-10.442
									c2.053-0.7,3.944,0.66,6.117-0.094C947.294,710.451,949.119,707.896,950.993,707.562z"/>
							</g>
						</g>
					</g>
					<path style="fill:#305399;" d="M964.631,640.9c-15.482-0.3-30.964-0.6-46.447-0.901
						c-12.524-59.621-23.553-119.555-33.074-179.729c-0.738-4.665-1.457-9.517-0.112-14.045
						c2.543-8.564,11.715-13.451,20.497-15.092c13.647-2.55,38.721,1.001,45.719,15.19c7.396,14.995,6.155,41.777,7.948,58.347
						C964.057,549.888,965.89,595.436,964.631,640.9z"/>
				</g>
			</g>
			<g>
				<path style="fill:#D7E8F4;" d="M924.932,313.971c12.412,11.813,21.71,26.988,27.31,42.707
					c9.917,27.836,10.108,57.557,10.199,86.681c0.03,9.693,0.06,19.386,0.091,29.079c0.03,9.537-0.813,11.59-11.178,10.332
					c-19.206-2.33-39.173-6.289-56.575-14.824c-8.281-4.061-16.02-9.191-24.703-12.389c-12.629-4.651-25.578-2.545-38.073-5.572
					c5.425-16.398,9.307-30.364,12.091-47.258c2.867-17.396,5.473-36.372,9.674-53.534c2.521-10.298,7.209-19.919,11.977-29.389
					c3.205-6.365,6.599-12.879,12.042-17.481C894.183,288.466,912.567,302.203,924.932,313.971z"/>
			</g>
			<g>
				<g>
					<g>
						<path style="fill:#EFBFA5;" d="M880.363,269.496c2.584,5.647,6.805,10.353,10.252,15.519
							c3.354,5.025,4.559,9.572,5.449,15.399c0.643,4.208,2.147,7.498,7.216,8.218c9.561,1.359,6.827-6.541,8.999-12.288
							c2.482-6.569,7.776-11.759,11.476-17.622c10.69-16.942,7.639-50.429-14.58-57.575
							C884.881,213.334,872.523,252.359,880.363,269.496z"/>
					</g>
				</g>
				<g>
					<path style="fill:#3B455A;" d="M919.089,253.101c2.758,0.111,5.791,0.329,7.837,2.182c2.045,1.853,1.823,5.893-0.877,6.329
						c-2.448,0.396-5.618-2.159-7.113-0.294c-0.874,1.09-0.107,2.684,0.557,3.958c2.545,4.89,3.307,10.56,2.119,15.77
						c1.007,0.933,2.578-0.035,3.463-1.007c4.392-4.824,7.824-10.46,10.071-16.54c0.882,1.472,2.176,2.724,3.702,3.584
						c-0.915-2.286-0.336-4.787,0.229-7.119c2.076-8.57,3.489-18.611-2.496-25.614c-3.202-3.747-8.072-5.903-12.969-6.809
						c-4.897-0.906-9.888-0.686-14.823-0.462c-2.112,0.096-4.714,0.55-5.221,2.504c4.631,1.857,9.422,5.474,11.741,9.859
						C916.022,240.789,918.808,253.09,919.089,253.101z"/>
				</g>
				<g>
					<path style="fill:#3B455A;" d="M909.302,232.509c0.169,0.123,0.335,0.246,0.498,0.37c2.099,1.598,4.067,3.541,6.608,4.25
						c3.661,1.021,7.595-0.743,11.2,0.504c4.03,1.394,6.679,6.212,9.62,9.065c4.823,4.676,10.804,8.115,17.224,10.069
						c3.279,0.998,6.676,1.611,10.099,1.804c1.551,0.088,3.627,0.382,5.14-0.026c2.03-0.547,1.96-1.47-0.202-2.163
						c-6.783-2.173-8.909-11.7-8.397-18.015c0.405-4.984,2.124-10.195,0.223-14.82c-1.452-3.534-4.571-5.358-7.585-7.379
						c-3.325-2.23-6.93-1.629-10.705-2.701c-3.939-1.118-7.147-4.22-11.164-5.011c-4.243-0.835-8.483,1.045-12.728,1.87
						c-3.507,0.681-7.154,0.636-10.643-0.131c-3.127-0.688-6.178-1.953-9.379-1.924c-4.721,0.044-9.063,2.99-11.817,6.824
						c-3.897,5.423-6.416,14.703-5.043,21.844c-0.213-1.108,3.516-5.123,4.283-5.986c1.619-1.822,3.574-3.531,6.045-3.825
						C898.172,226.46,904.805,229.243,909.302,232.509z"/>
				</g>
			</g>
		</g>
		<g>
			<g>
				<g id="XMLID_104_">
					<g id="XMLID_105_">
						<g id="XMLID_108_">
							<path style="fill:#BCBEC0;" d="M275.583,369.081l2.808,6.805l16.717-6.989l-2.808-6.805
								c-13.893-33.672-52.324-49.724-85.668-35.783c-33.345,13.941-49.17,52.676-35.277,86.348l23.031,55.819l16.717-6.989
								l-23.031-55.819c-10.052-24.364,1.398-52.391,25.526-62.478C237.724,333.102,265.531,344.717,275.583,369.081z"/>
						</g>
						<g id="XMLID_106_">
							<path id="XMLID_107_" style="fill:#305399;" d="M352.124,530.648c0.483,3.883-2.244,7.419-6.092,7.898l-171.08,21.292
								c-3.848,0.479-7.359-2.281-7.842-6.164L153.149,441.5c-0.483-3.883,2.244-7.419,6.092-7.898l171.08-21.292
								c3.848-0.479,7.359,2.281,7.842,6.164L352.124,530.648z"/>
						</g>
					</g>
				</g>
				<path style="opacity:0.15;fill:#1E1E1E;" d="M352.124,530.648l-8.554-68.731c-50.374,55.137-129.39,83.332-174.616,95.698
					c1.486,1.607,3.674,2.512,5.998,2.223l171.08-21.292C349.88,538.068,352.607,534.531,352.124,530.648z"/>
				<path style="fill:#3B455A;" d="M265.56,465.161c-1.06-8.521-8.765-14.577-17.209-13.526s-14.429,8.811-13.369,17.332
					c0.632,5.08,3.635,9.268,7.738,11.612l-0.524,35.495l27.916-3.474l-9.208-34.283
					C264.307,475.037,266.192,470.241,265.56,465.161z"/>
				<path style="opacity:0.15;fill:#1E1E1E;" d="M160.684,446.931l3.006,24.156c-0.643-10.336,1.471-33.266,32.066-37.073
					l-27.774,3.457C163.391,438.042,160.107,442.299,160.684,446.931z"/>
				<path style="opacity:0.2;fill:#1E1E1E;" d="M242.196,516.073c0,0,19.982-8.488,18.708-37.758l9.208,34.283L242.196,516.073z"/>
			</g>
		</g>
		<g>
			<g>
				<g>
					<g>
						<g id="XMLID_102_">
							<path id="XMLID_103_" style="fill:#EFBFA5;" d="M486.674,593.503l-23.526,41.793c-9.69,18.98-22.855,36.191-32.546,55.172
								c-2.228,4.364-3.612,9.499-7.009,13.173c-3.324,3.594-7.055,2.506-9.314-1.475c-3.027-5.334,1.327-11.528,3.204-16.759
								c12.503-34.849,21.55-70.325,32.879-105.64c0.148-0.463,0.349-0.983,0.805-1.154c0.37-0.139,0.781,0.007,1.146,0.16
								C455.64,580.165,486.166,594.406,486.674,593.503z"/>
						</g>
						<polygon style="fill:#3B455A;" points="414.737,693.104 407.892,698.265 413.711,717.619 425.205,725.452 432.896,721.603 
							425.622,697.927 						"/>
					</g>
					<path style="fill:#3B455A;" d="M498.829,580.753c9.618-19.503,18.818-39.046,25.459-59.806
						c3.467-10.837,6.204-21.855,8.426-33.01c2.048-10.286-0.846-19.988-2.726-30.35c-0.278-1.53-0.593-3.142-1.618-4.312
						c-0.933-1.064-2.314-1.601-3.643-2.088c-19.451-7.126-39.831-11.71-60.459-13.599c-1.569-0.144-3.256-0.247-4.612,0.556
						c-1.712,1.015-2.358,3.132-2.863,5.057c-4.217,16.075-11.591,34.283-12.076,50.803c-0.257,8.736,0.498,17.832,0.538,26.635
						c0.071,15.638,0.141,31.277,0.212,46.915l-31.336,113.528l20.052,16.388c14.568-26.045,29.136-52.089,43.706-78.137
						C485.153,606.347,492.234,593.596,498.829,580.753z"/>
				</g>
				<g>
					<g>
						<g id="XMLID_100_">
							<path id="XMLID_101_" style="fill:#EFBFA5;" d="M566.366,582.685l-6.702,47.49c-2.118,21.205-8.116,42.027-10.234,63.234
								c-0.487,4.876,0.093,10.162-1.734,14.82c-1.788,4.557-5.659,4.902-9.212,2.016c-4.761-3.867-2.959-11.22-3.115-16.776
								c-1.038-37.01-5.523-73.345-7.824-110.361c-0.03-0.485-0.033-1.043,0.329-1.367c0.294-0.264,0.73-0.277,1.125-0.268
								C532.606,581.556,566.221,583.71,566.366,582.685z"/>
						</g>
						<polygon style="fill:#3B455A;" points="535.614,701.636 531.116,708.935 543.58,724.844 557.137,727.956 562.9,721.572 
							547.507,702.167 						"/>
					</g>
					<path style="fill:#3B455A;" d="M573.047,566.385c3.208-31.385,4.092-62.333-1.541-94.853
						c-0.751-4.333-1.628-8.762-3.947-12.499c-6.334-10.207-20.574-11.567-32.519-10.294c-10.927,1.164-21.719,3.596-32.089,7.23
						c-18.148,6.36-12.003,31.626-12.155,47.478l27.744,70.066l12.835,123.929l23.939,1.184c4.09-29.561,8.18-59.121,12.27-88.685
						C569.624,595.202,571.579,580.747,573.047,566.385z"/>
				</g>
				<path style="fill:#BCBEC0;" d="M578.642,365.907c-0.024-0.302-0.052-0.605-0.103-0.904c-2.962-17.306,0.078-34.941-2.741-52.211
					c-2.499-15.31-8.757-23.424-21.931-30.471c-12.497-6.685-26.937-9.767-40.711-8.594c-13.98,1.191-28.71,3.622-39.899,12.77
					c-4.797,3.922-7.788,8.454-10.599,13.855c-11.996,23.05-9.675,50.3-8.777,75.662c0.914,25.818-7.513,54.026-14.432,78.707
					c39.573,18.824,84.466,24.447,126.998,15.905c2.392-0.48,5.021-1.172,6.388-3.339c0.925-1.466,1.075-3.326,1.195-5.094
					c0.932-13.645,2.098-27.289,2.794-40.945C577.748,403.152,580.101,384.028,578.642,365.907z"/>
				<g>
					<g>
						<path style="fill:#3B455A;" d="M534.446,219.857c2.725,4.776,4.039,10.278,4.281,15.772c0.064,1.461,0.164,3.148,1.345,4.01
							c1.264,0.923,0.153,2.949,1.115,1.714c0.962-1.235,4.227-5.525,4.374-7.083c0.344-3.651,0.339-7.335-0.016-10.986
							c-0.308-3.174-0.957-6.492-3.034-8.912c-1.232-1.435-2.875-2.443-4.494-3.422c-2.347-1.418-4.767-2.849-7.463-3.351
							c-4.647-0.866-7.497,0.801-3.397,4.042C530.095,213.963,532.579,216.585,534.446,219.857z"/>
						<g>
							<path style="fill:#EFBFA5;" d="M505.41,282.177c0.031,2.248-0.43,4.581,1.554,6.325c0.953,0.838,2.243,1.174,3.496,1.373
								c3.242,0.513,6.6,0.275,9.737-0.691c1.29-0.397,2.576-0.937,3.55-1.872c1.151-1.105,1.209-2.152,1.264-3.599
								c0.065-1.695,0.407-3.418,0.629-5.137c0.485-3.759,0.703-7.548,0.812-11.336c5.568-0.955,12.117-2.756,14.021-8.588
								c0.6-1.837,0.621-3.835,0.635-5.79c0.059-8.081,0.118-16.162,0.177-24.242c0.021-2.795,0.027-5.675-0.93-8.268
								c-1.679-4.551-5.947-7.263-10.131-8.97c-10.679-4.356-23.125-4.182-32.982,2.013c-2.623,1.649-5.099,3.769-6.61,6.648
								c-2.329,4.439-2.036,9.919-1.675,15.042c0.334,4.728,0.668,9.456,1.002,14.184c0.384,5.438,1.201,11.697,5.424,14.569
								c2.242,1.525,5.139,1.805,7.072,3.778c3.373,3.444,1.765,8.59,2.762,12.764C505.357,280.964,505.402,281.568,505.41,282.177z
								"/>
						</g>
						<path style="fill:#3B455A;" d="M543.068,249.64c-0.09-1.498-0.745-5.889-2.998-3.129c-0.589,0.721-0.735,1.742-0.771,2.702
							c-0.036,0.961,0.008,1.95-0.295,2.855c-0.695,2.076-2.993,3.021-5.04,2.985c-0.814-0.014-1.644-0.148-2.364-0.558
							c-0.699-0.398-1.254-1.03-1.795-1.651c-1.314-1.508-2.628-3.015-3.942-4.523c-2.258-2.592-6.738-1.471-9.781-1.074
							c-3.507,0.458-7.016,1.516-9.882,3.824c-0.289,0.233-0.571,0.478-0.854,0.722c-0.691,0.596-1.385,1.186-2.188,1.577
							c-2.709,1.319-6.063-0.057-7.961-2.524c-0.87-1.131-1.682-2.586-3.033-2.775c-1.057-0.148-2.086,0.61-2.629,1.599
							c-0.542,0.989-0.688,2.169-0.762,3.315c-0.267,4.174,0.308,8.478,2.117,12.18c3.923,8.028,11.508,9.014,19.131,8.834
							c3.013-0.071,6.027-0.142,9.04-0.214c5.509-0.13,11.332-0.359,15.972-3.561c4.093-2.825,6.527-7.628,7.524-12.658
							C543.073,254.969,543.227,252.289,543.068,249.64z M522.913,261.02c-2.901,1.951-6.099,2.056-9.332,1.082
							c-1.374-0.414-0.791-2.721,0.585-2.306c2.68,0.807,5.209,0.786,7.624-0.838C523.006,258.14,524.121,260.207,522.913,261.02z"
							/>
						<path style="fill:#3B455A;" d="M544.218,205.854c0.532-1.958,0.925-3.954,1.176-5.968c-1.864,0.654-3.895,0.828-5.843,0.501
							c-0.005-1.162-0.009-2.324-0.014-3.486c-0.009-0.967-13.082-1.643-14.145-1.73c-9.945-0.816-19.04-1.592-28.033,3.746
							c-7.682,4.559-12.607,11.368-13.785,20.23c-1.126,8.466,1.645,19.524,6.541,26.551c-0.028-2.254-1.325-7.571-0.793-9.713
							c0.326-2.147,1.067-4.217,2.09-6.128c2.043-3.816,5.208-7.027,8.865-9.318c5.829-3.653,12.606-5.585,19.375-6.528
							c6.202-0.864,13.759-1.661,19.886-0.018c2.945,0.79,3.434,1.528,5.217-1.444c0.315-0.524,2.808-6.644,2.564-6.648
							C546.285,205.885,545.251,205.869,544.218,205.854z"/>
					</g>
				</g>
			</g>
			<path style="fill:#305399;" d="M583.914,363.393c0.447-9.633,1.547-19.258,1.164-28.894
				c-0.565-14.196-4.386-28.138-10.361-40.988c-2.792-6.004-4.702-9.084-10.911-11.595c-6.098-2.466-12.958-2.421-18.875-5.436
				c4.068-3.456,7.998-7.223,10.612-11.877c4.424-7.878,1.992-16.199,1.434-24.693c-0.615-9.35-1.253-18.886-4.707-27.701
				c-5.096-13.003-16.536-24.954-27.741-33.056c-5.326-3.851-14.668-1.26-20.665,0.308c-7.511,1.964-14.679,5.107-21.534,8.715
				c-7.197,3.787-10.77,7.659-12.861,15.55c-1.957,7.386-2.373,15.079-2.786,22.674c-0.982,18.049,0.599,34.914,11.184,50.187
				c1.454,2.098,3.068,4.188,3.665,6.67c-4.086,0.364-8.228,0.74-12.075,2.163c-8.976,3.322-8.439,10.043-10.73,18.044
				c-2.748,9.597-4.735,19.45-5.237,29.437c-0.429,8.555,0.227,17.144-0.38,25.689c-1.14,16.043-6.692,31.463-8.669,47.425
				c-1.893,15.285-0.47,30.827,2.45,45.95c1.045,5.412,2.52,11.193,6.757,14.72c2.325,1.935,5.251,2.975,8.135,3.89
				c7.969,2.531,16.144,4.411,24.417,5.62c2.77,0.405,10.351,2.591,12.842,1.332c2.148-1.086,3.249-6.55,4.102-9.066
				c5.378-15.859,5.802-32.841,6.611-49.405c0.956-19.588,2.492-39.174,5.66-58.528c2.292-14.007,5.449-28.034,4.87-42.216
				c-0.14-3.426-0.514-6.905-1.87-10.054c-1.229-2.854-3.431-3.951-5.172-6.213c-1.385-1.799-1.688-3.908-2.696-5.991
				c-2.575-5.323-7.222-9.347-10.905-13.868c-8.491-10.421-11.923-24.345-10.53-37.601c0.698-6.648,2.544-13.509,5.853-19.358
				c3.383-5.979,14.68-10.367,21.174-10.156c8.348,0.271,18.216,2.279,23.443,9.422c5.06,6.916,4.211,16.361,3.136,24.863
				c-0.934,7.391-1.868,14.782-2.803,22.172c-0.256,2.028-0.522,4.092-1.365,5.954c-2.523,5.577-9.279,7.763-13.379,12.308
				c-3.709,4.113-4.962,9.82-6.001,15.26c-2.673,14.005-4.833,28.109-6.475,42.273c-4.905,42.316-5.17,85.052-3.615,127.623
				c21.184,2.928,42.638,3.904,64.001,2.911c2.512-0.117,5.264-0.363,7.047-2.135c1.389-1.381,1.882-3.404,2.273-5.324
				C589.537,435.369,582.257,399.105,583.914,363.393z"/>
		</g>
		<g>
			<g>
				<g>
					<g>
						<path style="fill:#3B455A;" d="M642.396,467.183H372.639v-174.64c0-3.011,2.441-5.452,5.452-5.452h258.852
							c3.011,0,5.452,2.441,5.452,5.452V467.183z"/>
					</g>
					<rect x="383.393" y="299.566" style="fill:#7DB5DB;" width="248.321" height="157.676"/>
				</g>
			</g>
			<g>
				<g>
					<path style="fill:#BABCBC;" d="M642.372,490.454l-269.76-0.809c-6.566-0.019-12.647-3.456-16.05-9.071h0l301.911,0.9l0,0.001
						C655.038,487.07,648.937,490.473,642.372,490.454z"/>
					<path style="fill:#C6CAC9;" d="M656.886,482.979H358.148c-1.094,0-1.98-0.886-1.98-1.98V468.72c0-1.094,0.887-1.98,1.98-1.98
						h298.737c1.094,0,1.98,0.887,1.98,1.98v12.279C658.866,482.092,657.979,482.979,656.886,482.979z"/>
				</g>
				<path style="opacity:0.14;fill:#000100;" d="M530.245,477.257h-45.456c-1.236,0-2.239-1.002-2.239-2.239v-1.267
					c0-1.236,1.002-2.239,2.239-2.239h45.457c1.236,0,2.239,1.002,2.239,2.239v1.267
					C532.484,476.255,531.482,477.257,530.245,477.257z"/>
			</g>
		</g>
		<path style="fill:#3B455A;" d="M453.824,140.098l-37.974-24.77c-1.68-1.097-3.816-1.222-5.613-0.331l-33.663,16.691
			c-1.369-8.22-4.647-15.856-9.399-22.513l25.526-23.158l40.201,12.502c2.989,0.931,6.165-0.74,7.094-3.728
			c0.929-2.989-0.74-6.165-3.728-7.094l-43.293-13.464c-1.916-0.595-4.004-0.134-5.491,1.214l-27.77,25.193
			c-11.127-10.479-26.615-16.981-43.746-16.981c-17.131,0-32.619,6.502-43.746,16.981l-27.77-25.193
			c-1.486-1.348-3.574-1.81-5.491-1.214l-43.294,13.464c-2.988,0.929-4.658,4.105-3.728,7.094c0.929,2.989,4.104,4.659,7.094,3.728
			l40.202-12.502l25.526,23.158c-4.751,6.657-8.03,14.293-9.399,22.513L221.7,114.997c-1.798-0.891-3.933-0.765-5.613,0.331
			l-37.974,24.77c-2.621,1.71-3.36,5.221-1.65,7.842c1.087,1.666,2.9,2.571,4.752,2.571c1.062,0,2.136-0.298,3.091-0.921
			l35.262-23.001l35.207,17.456c0.346,5.045,1.406,9.909,3.087,14.509l-24.196-3.124c-1.99-0.259-3.968,0.557-5.199,2.142
			l-27.831,35.792c-1.921,2.471-1.476,6.031,0.995,7.952c1.034,0.804,2.259,1.193,3.475,1.193c1.689,0,3.36-0.752,4.478-2.189
			l25.843-33.236l28.776,3.716c2.64,3.836,5.76,7.36,9.287,10.497l8.718,24.731h17.689v-10.334h4.307v10.334h11.768h11.768v-10.334
			h4.307v10.334h17.689l8.718-24.731c3.527-3.137,6.648-6.662,9.287-10.497l28.776-3.716l25.843,33.236
			c1.117,1.437,2.788,2.189,4.478,2.189c1.216,0,2.441-0.39,3.475-1.193c2.471-1.921,2.917-5.481,0.995-7.952l-27.831-35.792
			c-1.232-1.584-3.21-2.4-5.199-2.142l-24.196,3.125c1.681-4.6,2.74-9.465,3.087-14.509l35.207-17.456l35.262,23.001
			c0.955,0.623,2.029,0.921,3.091,0.921c1.851,0,3.665-0.906,4.752-2.571C457.184,145.319,456.445,141.808,453.824,140.098z
			 M288.069,161.992c-10.022-0.329-17.59-8.532-17.207-18.65c0.215-5.673,2.877-8.514,8.991-9.085
			c3.032-0.283,16.402-0.268,19.904,0.383c5.204,0.968,7.684,4.453,7.557,9.686C307.065,154.528,298.558,162.337,288.069,161.992z
			 M322.276,178.947h-5.589h-5.589c-3.077,0-4.861-3.486-3.06-5.982l5.589-7.745c1.506-2.087,4.614-2.087,6.12,0l5.589,7.745
			C327.137,175.461,325.353,178.947,322.276,178.947z M324.623,144.327c-0.127-5.233,2.353-8.718,7.557-9.686
			c3.502-0.651,16.872-0.666,19.904-0.383c6.114,0.571,8.776,3.412,8.991,9.085c0.383,10.118-7.185,18.321-17.207,18.65
			C333.378,162.337,324.871,154.528,324.623,144.327z"/>
		<g>
			<rect x="383.393" y="353.199" style="fill:#F7F7F7;" width="396.982" height="72.68"/>
			<g>
				<path style="fill:#305399;" d="M438.688,381.195L438.688,381.195c1.087,1.932,0.191,4.377-1.886,5.15l-8.58,3.194l8.57,3.128
					c2.082,0.76,2.993,3.2,1.919,5.138l-0.093,0.168c-1.082,1.953-3.661,2.464-5.406,1.071l-7.093-5.662l1.388,9.212
					c0.329,2.182-1.361,4.145-3.568,4.145h-0.181c-2.187,0-3.871-1.931-3.574-4.098l1.269-9.26l-7.207,5.829
					c-1.734,1.402-4.313,0.911-5.41-1.031l-0.222-0.394c-1.089-1.929-0.199-4.374,1.875-5.152l8.495-3.186l-8.409-3.114
					c-2.073-0.768-2.974-3.203-1.901-5.135l0.042-0.075c1.071-1.928,3.605-2.452,5.353-1.108l7.385,5.681l-1.329-9.236
					c-0.313-2.175,1.374-4.121,3.571-4.121h0.244c2.207,0,3.896,1.963,3.568,4.145l-1.388,9.212l7.217-5.586
					C435.077,378.763,437.608,379.276,438.688,381.195z"/>
			</g>
			<g>
				<path style="fill:#305399;" d="M488.477,381.195L488.477,381.195c1.086,1.932,0.191,4.377-1.886,5.15l-8.58,3.194l8.57,3.128
					c2.082,0.76,2.993,3.2,1.919,5.138l-0.093,0.168c-1.082,1.953-3.661,2.464-5.406,1.071l-7.093-5.662l1.388,9.212
					c0.329,2.182-1.361,4.145-3.568,4.145h-0.181c-2.187,0-3.871-1.931-3.574-4.098l1.269-9.26l-7.207,5.829
					c-1.734,1.402-4.313,0.911-5.41-1.031l-0.222-0.394c-1.089-1.929-0.199-4.374,1.875-5.152l8.495-3.186l-8.409-3.114
					c-2.073-0.768-2.974-3.203-1.901-5.135l0.042-0.075c1.071-1.928,3.605-2.452,5.353-1.108l7.385,5.681l-1.329-9.236
					c-0.313-2.175,1.374-4.121,3.571-4.121h0.244c2.207,0,3.896,1.963,3.568,4.145l-1.388,9.212l7.217-5.586
					C484.866,378.763,487.398,379.276,488.477,381.195z"/>
			</g>
			<g>
				<path style="fill:#305399;" d="M538.503,381.195L538.503,381.195c1.086,1.932,0.191,4.377-1.886,5.15l-8.58,3.194l8.57,3.128
					c2.082,0.76,2.993,3.2,1.918,5.138l-0.093,0.168c-1.082,1.953-3.661,2.464-5.406,1.071l-7.093-5.662l1.388,9.212
					c0.329,2.182-1.361,4.145-3.568,4.145h-0.181c-2.187,0-3.871-1.931-3.575-4.098l1.268-9.26l-7.207,5.829
					c-1.734,1.402-4.313,0.911-5.41-1.031l-0.222-0.394c-1.089-1.929-0.199-4.374,1.875-5.152l8.495-3.186l-8.409-3.114
					c-2.073-0.768-2.974-3.203-1.901-5.135l0.041-0.075c1.071-1.928,3.606-2.452,5.354-1.108l7.385,5.681l-1.329-9.236
					c-0.313-2.175,1.374-4.121,3.571-4.121h0.244c2.207,0,3.896,1.963,3.568,4.145l-1.388,9.212l7.217-5.586
					C534.891,378.763,537.423,379.276,538.503,381.195z"/>
			</g>
			<g>
				<path style="fill:#305399;" d="M588.528,381.195L588.528,381.195c1.086,1.932,0.191,4.377-1.886,5.15l-8.58,3.194l8.57,3.128
					c2.082,0.76,2.993,3.2,1.919,5.138l-0.093,0.168c-1.083,1.953-3.661,2.464-5.406,1.071l-7.093-5.662l1.388,9.212
					c0.329,2.182-1.361,4.145-3.568,4.145h-0.181c-2.187,0-3.871-1.931-3.574-4.098l1.268-9.26l-7.207,5.829
					c-1.734,1.402-4.313,0.911-5.41-1.031l-0.222-0.394c-1.089-1.929-0.199-4.374,1.875-5.152l8.495-3.186l-8.409-3.114
					c-2.073-0.768-2.974-3.203-1.901-5.135l0.041-0.075c1.071-1.928,3.606-2.452,5.354-1.108l7.385,5.681l-1.329-9.236
					c-0.313-2.175,1.374-4.121,3.571-4.121h0.244c2.207,0,3.896,1.963,3.568,4.145l-1.388,9.212l7.217-5.586
					C584.917,378.763,587.449,379.276,588.528,381.195z"/>
			</g>
			<g>
				<path style="fill:#305399;" d="M638.553,381.195L638.553,381.195c1.086,1.932,0.191,4.377-1.886,5.15l-8.58,3.194l8.57,3.128
					c2.082,0.76,2.993,3.2,1.919,5.138l-0.093,0.168c-1.083,1.953-3.661,2.464-5.406,1.071l-7.093-5.662l1.388,9.212
					c0.329,2.182-1.361,4.145-3.568,4.145h-0.181c-2.187,0-3.871-1.931-3.574-4.098l1.269-9.26l-7.207,5.829
					c-1.734,1.402-4.313,0.911-5.41-1.031l-0.222-0.394c-1.089-1.929-0.199-4.374,1.875-5.152l8.495-3.186l-8.409-3.114
					c-2.073-0.768-2.974-3.203-1.901-5.135l0.041-0.075c1.071-1.928,3.605-2.452,5.353-1.108l7.385,5.681l-1.329-9.236
					c-0.313-2.175,1.374-4.121,3.571-4.121h0.244c2.207,0,3.896,1.963,3.568,4.145l-1.388,9.212l7.217-5.586
					C634.942,378.763,637.474,379.276,638.553,381.195z"/>
			</g>
		</g>
		<g>
			<path style="fill:#BABCBE;" d="M821.772,459.967c-0.757,7.688-2.216,15.418-4.435,23.111c-1.773,6.143-3.971,12.048-6.542,17.697
				l59.657,17.242l12.981-40.228L821.772,459.967z M854.906,512.697c-0.004,0.008-0.008,0.016-0.012,0.025
				C854.898,512.714,854.902,512.706,854.906,512.697z"/>
			<path style="fill:#3B455A;" d="M999.269,507.885l-108.804-32.35l-0.12,0.383c0.091,0.496,0.08,1.017-0.08,1.531l-0.662,2.122
				l-12.589,40.341l-0.951,3.048c-0.055,0.175-0.128,0.34-0.209,0.499l109.896,31.264c9.532,2.755,20.255-5.392,23.951-18.197
				l0.135-0.469C1013.533,523.253,1008.801,510.64,999.269,507.885z"/>
			<path style="fill:#5A5A5C;" d="M599.389,398.433c0.127-0.249,0.251-0.5,0.379-0.749
				C599.642,397.934,599.514,398.182,599.389,398.433z"/>
			<path style="fill:#2E3849;" d="M771.151,531.078c-19.564,17.555-44.376,27.758-70.484,29.168
				c-25.49,1.376-51.159-6.461-71.767-21.461c-21.373-15.557-36.686-38.593-43.197-64.292c-6.258-24.702-3.732-51.468,6.667-74.727
				c10.869-24.312,30.268-44.236,54.03-55.964c22.96-11.332,49.376-14.142,74.237-8.741c25.561,5.553,48.584,20.547,64.607,41.225
				c15.886,20.501,24.113,46.213,23.643,72.203c-0.046,2.555-0.191,5.101-0.414,7.635l13.298,3.844
				c5.883-59.757-31.104-116.976-90.449-134.128c-66.98-19.358-137.066,19.653-156.541,87.135
				c-19.476,67.482,19.034,137.88,86.013,157.239c60.882,17.596,124.326-13.037,150-69.438l-13.815-3.993
				C790.602,509.645,781.849,521.338,771.151,531.078z"/>
			<path style="fill:#5A5A5C;" d="M726.396,342.914c8.628,2.494,16.701,5.978,24.146,10.285
				c-8.939-5.294-18.625-9.336-28.725-11.899c-24.742-6.278-51.415-3.069-74.243,8.4c-20.098,10.098-36.63,26.692-47.078,46.612
				C624.295,351.87,676.35,328.45,726.396,342.914z"/>
			<path style="fill:#2E3849;" d="M821.772,459.967l-13.298-3.844c-1.246,14.193-5.214,27.992-11.494,40.658l13.815,3.993
				c2.571-5.649,4.768-11.553,6.542-17.697C819.557,475.385,821.016,467.656,821.772,459.967z"/>
			<path style="opacity:0.3;fill:#7DB5DB;" d="M784.707,385.388c-8.808-13.239-20.62-24.167-34.165-32.189
				c-7.445-4.307-15.518-7.791-24.146-10.285c-50.046-14.464-102.1,8.956-125.901,53.398c-0.24,0.458-0.493,0.91-0.727,1.372
				c-0.128,0.249-0.253,0.5-0.379,0.749c-1.425,2.868-2.731,5.799-3.897,8.788c-9.299,23.834-9.814,50.832-1.508,74.965
				c8.672,25.194,26.723,46.369,49.851,59.236c22.271,12.39,48.832,16.004,73.726,10.81c18.49-3.858,35.653-12.84,49.736-25.476
				c9.927-9.037,18.044-19.778,24.039-31.605c5.723-11.29,9.513-23.569,11.046-36.327c0.174-1.445,0.307-2.892,0.421-4.339
				C804.721,430.118,798.206,405.679,784.707,385.388z M709.134,541.199c-39.137,8.108-79.116-9.812-98.946-44.594
				c-19.542-34.278-13.821-77.771,11.897-107.261c2.487-2.852,5.224-5.474,8.066-7.965c7.366-6.454,17.866,4.547,10.446,11.049
				c-26.178,22.939-34.535,60.891-19.42,92.359c15.076,31.39,50.264,48.649,84.26,41.607
				C715.019,524.409,718.731,539.211,709.134,541.199z M744.014,526.456c-1.542,5.341-7.089,8.429-12.391,6.897
				c-5.302-1.532-8.349-7.104-6.808-12.445c1.542-5.341,7.089-8.429,12.391-6.897C742.507,515.543,745.555,521.115,744.014,526.456z
				"/>
			<path style="opacity:0.66;fill:#FFFFFF;" d="M610.188,496.605c19.83,34.782,59.809,52.702,98.946,44.594
				c9.596-1.988,5.885-16.79-3.697-14.805c-33.996,7.043-69.184-10.216-84.26-41.607c-15.115-31.469-6.758-69.421,19.42-92.359
				c7.42-6.501-3.08-17.503-10.446-11.049c-2.842,2.49-5.579,5.112-8.066,7.965C596.367,418.834,590.646,462.328,610.188,496.605z"
				/>
			<path style="fill:#CCDFE1;" d="M731.623,533.353c5.302,1.532,10.849-1.555,12.391-6.897c1.541-5.341-1.507-10.913-6.808-12.445
				c-5.302-1.532-10.849,1.555-12.391,6.897C723.274,526.249,726.322,531.821,731.623,533.353z"/>
			<path style="opacity:0.66;fill:#FFFFFF;" d="M731.623,533.353c5.302,1.532,10.849-1.555,12.391-6.897
				c1.541-5.341-1.507-10.913-6.808-12.445c-5.302-1.532-10.849,1.555-12.391,6.897
				C723.274,526.249,726.322,531.821,731.623,533.353z"/>
			<path style="fill:#A06652;" d="M890.346,475.918c-0.201-1.092-0.951-2.047-2.064-2.431l-0.06-0.021
				c-1.676-0.579-3.504,0.341-4.052,2.041l-0.736,2.281l5.806,1.678L890.346,475.918z"/>
			<path style="fill:#AAAAAA;" d="M876.65,519.808l-6.198-1.792l-0.942,2.918c-0.584,1.81,0.523,3.724,2.373,4.101l0.517,0.106
				c1.414,0.288,2.816-0.425,3.455-1.682l-0.317-0.091L876.65,519.808z"/>
			<polygon style="fill:#AAAAAA;" points="889.238,479.466 883.432,477.789 870.452,518.016 876.65,519.808 			"/>
			<path style="fill:#A06652;" d="M889.603,479.572l0.662-2.122c0.16-0.514,0.171-1.036,0.08-1.531l-1.107,3.548L889.603,479.572z"
				/>
			<path style="fill:#AAAAAA;" d="M877.015,519.913l-0.365-0.105l-1.111,3.561l0.317,0.091c0.081-0.159,0.154-0.324,0.209-0.499
				L877.015,519.913z"/>
			<polygon style="fill:#AAAAAA;" points="876.65,519.808 877.015,519.913 889.603,479.572 889.238,479.466 			"/>
			<path style="fill:#305399;" d="M771.11,526.845c1.119,1.059,1.527,2.9,0.042,4.233c10.698-9.739,19.45-21.433,25.828-34.296
				l-3.351-0.969C787.9,507.631,780.22,518.072,771.11,526.845z"/>
			<path style="fill:#305399;" d="M771.11,526.845c-1.34,1.291-2.713,2.544-4.114,3.762c0.931,1.217,2.69,1.805,4.156,0.471
				C772.637,529.745,772.229,527.904,771.11,526.845z"/>
			<path style="fill:#305399;" d="M785.245,376.285c-16.023-20.677-39.046-35.671-64.607-41.225
				c-24.861-5.402-51.278-2.591-74.237,8.741c-23.762,11.727-43.161,31.652-54.03,55.964c-10.399,23.259-12.925,50.025-6.667,74.727
				c6.511,25.699,21.824,48.736,43.197,64.292c20.607,15,46.277,22.837,71.767,21.461c26.108-1.41,50.92-11.613,70.484-29.168
				c-1.465,1.334-3.225,0.746-4.156-0.471c-26.919,23.403-64.634,33.122-101.273,22.532c-57.62-16.653-90.748-77.214-73.994-135.266
				c1.973-6.835,4.556-13.326,7.66-19.44c0.125-0.251,0.253-0.499,0.379-0.749c0.238-0.46,0.482-0.916,0.727-1.372
				c10.448-19.92,26.98-36.514,47.078-46.612c22.828-11.469,49.501-14.678,74.243-8.4c10.1,2.563,19.786,6.605,28.725,11.899
				c35.652,20.626,56.751,60.251,53.939,101.771l3.993,1.154c0.223-2.535,0.367-5.08,0.414-7.635
				C809.357,422.498,801.131,396.786,785.245,376.285z"/>
			<path style="fill:#305399;" d="M800.39,478.18c-1.779,6.166-4.054,12.051-6.76,17.633l3.351,0.969
				c6.28-12.665,10.248-26.465,11.494-40.658l-3.993-1.154C803.959,462.678,802.62,470.451,800.39,478.18z"/>
			<path style="fill:#305399;" d="M767.298,526.755c1.302-1.168,2.83-0.839,3.812,0.09c9.11-8.773,16.791-19.214,22.519-31.032
				l-2.293-0.663C785.341,506.978,777.224,517.718,767.298,526.755z"/>
			<path style="fill:#67859A;" d="M599.769,397.684c0.234-0.462,0.486-0.914,0.727-1.372
				C600.251,396.768,600.007,397.224,599.769,397.684z"/>
			<path style="fill:#305399;" d="M767.298,526.755c-1.304,1.187-1.131,2.768-0.302,3.851c1.401-1.218,2.773-2.471,4.114-3.762
				C770.128,525.916,768.6,525.587,767.298,526.755z"/>
			<path style="fill:#474EBB;" d="M784.707,385.388c13.5,20.291,20.014,44.73,18.097,69.097l1.677,0.485
				c2.812-41.519-18.287-81.145-53.939-101.771C764.086,361.221,775.899,372.148,784.707,385.388z"/>
			<path style="fill:#305399;" d="M767.298,526.755c-14.083,12.636-31.246,21.618-49.736,25.476
				c-24.894,5.195-51.455,1.58-73.726-10.81c-23.128-12.867-41.18-34.042-49.851-59.236c-8.306-24.133-7.792-51.131,1.508-74.965
				c1.166-2.99,2.472-5.92,3.897-8.788c-3.104,6.114-5.688,12.605-7.66,19.44c-16.754,58.052,16.374,118.613,73.994,135.266
				c36.639,10.59,74.354,0.871,101.273-22.532C766.167,529.523,765.993,527.943,767.298,526.755z"/>
			<path style="fill:#305399;" d="M802.382,458.824c-1.533,12.758-5.323,25.037-11.046,36.327l2.293,0.663
				c2.706-5.582,4.981-11.467,6.76-17.633c2.231-7.729,3.569-15.502,4.091-23.21l-1.677-0.485
				C802.689,455.932,802.556,457.379,802.382,458.824z"/>
		</g>
		<g>
			<path style="fill:#305399;" d="M817.193,71.98l-75.086,130.053c-2.307,3.997,0.577,8.993,5.192,8.993h150.173
				c4.615,0,7.499-4.996,5.192-8.993L827.576,71.98C825.269,67.983,819.5,67.983,817.193,71.98z"/>
			<g>
				<path style="fill:#FFFFFF;" d="M817.245,169.658l-5.421-54.665l21.12,0.113l-5.308,54.552H817.245z M813.179,177.338h18.41
					v18.184h-18.41V177.338z"/>
			</g>
		</g>
		<g>
			<g>
				<path style="fill:#EFBFA5;" d="M854.736,501.892c0.008-0.073,0.018-0.146,0.03-0.219c0.562-3.296,3.825-3.275,5.567-5.305
					c1.63-1.9,0.004-5.803,2.673-6.507c1.124-0.295,3.449-0.318,5.581-0.904c3.11-0.854,6.514-3.471,8.969-6.26
					c9.648-10.957,19.512-21.743,30.419-31.558c0.622-0.559,1.255-1.094,1.528-1.905c0.489-1.453-0.227-2.711-0.804-4.039
					c-2.673-6.155-5.114-12.315-6.58-18.899c-1.308-5.874-2.106-11.798-0.657-17.692c1.448-5.894,5.248-11.1,10.941-13.007
					c4.263-1.428,8.896-1.121,12.253,1.954c8.326,7.626,5.018,20.322,4.689,30.187c-0.312,9.334-0.608,17.275-1.499,26.277
					c-0.11,1.112-0.224,2.158-0.787,3.158c-0.563,1-1.524,1.737-2.448,2.396c-11.91,8.49-23.737,16.46-33.529,27.319
					c-2.691,2.984-6.08,4.436-8.324,7.64c-1.432,2.044-1.042,4.664-2.133,6.854c-1.09,2.19-2.487,4.627-4.353,6.198
					c-5.074,4.272-16.713,3.398-20.483-2.295C855.122,504.279,854.612,503.084,854.736,501.892z"/>
			</g>
			<g>
				<path style="fill:#D7E8F4;" d="M930.948,424.573c0.022,10.027-0.225,20.049-0.91,30.055c-0.129,1.88-0.294,3.831-1.229,5.467
					c-0.667,1.168-1.682,2.092-2.687,2.987c-8.362,7.447-17.223,14.331-26.506,20.593c-0.354,0.238-0.743,0.486-1.168,0.458
					c-0.35-0.023-0.657-0.229-0.945-0.428c-2.851-1.969-15.649-8.469-15.694-11.687c-0.051-3.591,7.554-6.613,9.872-8.478
					c4.097-3.298,8.069-6.752,11.903-10.352c1.357-1.274,2.77-2.699,3.081-4.535c0.293-1.732-0.461-3.449-1.156-5.063
					c-4.095-9.515-6.444-19.805-9.763-29.628c-2.295-6.793-5.214-13.64-6.853-20.632c-3.22-13.753-5.667-18.902-3.574-28.945
					c2.005-9.623,8.94-18.883,19.607-18.716c11.046,0.173,19.128,9.826,22.729,19.344c1.486,3.927,1.688,8.205,1.873,12.399
					C930.22,393.119,930.914,408.853,930.948,424.573z"/>
			</g>
		</g>
		<g>
			<g>
				<polygon style="fill:#EFBFA5;" points="144.587,473.028 134.298,477.875 140.326,495.806 152.083,497.457 158.607,489.591 
					151.382,484.207 153.311,483.298 156.158,484.353 157.169,481.48 				"/>
			</g>
			<g>
				<g>
					<path style="fill:#587BC9;" d="M137.877,318.601c1.629-1.113,3.261-2.217,4.889-3.317c4.894-3.306,9.945-6.68,15.719-7.919
						c3.833,8.376,7.565,16.914,9.187,25.982c1.622,9.068,0.968,18.832-3.579,26.844c-2.446,4.309-5.902,7.942-9.323,11.527
						c-8.278,8.676-16.556,17.351-24.833,26.027c-1.537,1.611-3.143,3.352-3.553,5.541c-0.318,1.699,0.135,3.44,0.645,5.091
						c2.1,6.793,6.108,12.372,8.754,18.807c2.625,6.387,3.919,13.884,5.876,20.542c1.753,5.962,9.584,22.941,6.148,27.396
						c-0.728,0.944-13.678,6.831-13.55,7.053c-7.738-13.183-15.476-26.366-23.214-39.549c-9.461-16.119-19.314-29.995-19.914-49.264
						c-0.505-16.22,4.297-32.668,13.931-45.779C113.748,335.76,125.716,326.913,137.877,318.601z"/>
				</g>
			</g>
		</g>
		<g>
			<path style="fill:#EFBFA5;" d="M375.891,370.707c0.499-0.278,1.045-0.566,1.61-0.483c0.847,0.125,1.349,1.013,1.585,1.836
				c0.894,3.116-0.373,6.73-3.016,8.607c3.546,2.207,9.442-1.978,11.884,1.41c0.693,0.962,0.758,2.225,0.791,3.411
				c0.133,4.775,0.164,9.553,0.091,14.33c-0.021,1.406-0.106,2.952-1.073,3.973c-0.978,1.033-2.539,1.194-3.959,1.291
				c-2.059,0.14-4.118,0.28-6.177,0.421c-3.42,0.233-7.278,0.318-9.763-2.044c-2.127-2.021-2.552-5.207-2.783-8.132
				c-0.363-4.587-0.557-9.188-0.582-13.791C364.463,374.465,370.634,373.644,375.891,370.707z"/>
			<path style="fill:#305399;" d="M361.037,377.608c-0.793,5.999-1.587,11.998-2.38,17.997c-0.434,3.285-0.861,6.684,0.067,9.865
				c1.199,4.109,4.767,7.433,8.951,8.339c2.592,0.562,6.129-0.54,6.153-3.192c0.009-1.015-0.531-1.942-1.021-2.83
				c-7.062-12.8-3.622-26.41-4.041-40.123C363.096,367.371,361.634,373.093,361.037,377.608z"/>
		</g>
	</g>
</g>
</svg>
