<svg width="750" height="500" viewBox="0 0 750 500" fill="none" xmlns="http://www.w3.org/2000/svg">
<g clip-path="url(#clip0_1010_1839)">
<path d="M750 0H0V500H750V0Z" fill="white"/>
<path d="M635.128 286.812C622.352 280.292 606.172 279.852 596.08 269.658C580.838 254.263 589.187 228.421 584.943 207.177C579.164 178.252 548.725 159.656 519.316 157.389C489.907 155.122 461.156 165.361 433.257 174.938C405.359 184.515 376.01 193.696 346.848 189.265C314.499 184.35 287.265 163.531 259.207 146.697C231.149 129.863 197.111 116.282 166.32 127.353C146.071 134.633 130.068 152.703 125.288 173.683C119.953 197.098 127.845 222.494 120.025 245.2C113.081 265.36 95.1448 279.462 83.4598 297.298C59.6418 333.655 66.7108 386.604 97.9468 416.394H644.473C653.437 395.989 662.232 365.052 663.274 343.623C664.359 321.302 655.034 296.971 635.128 286.812Z" fill="#CEE8F0"/>
<path d="M651.577 281.388C654.941 282.24 658.498 282.687 661.873 281.881C665.248 281.075 668.421 278.838 669.652 275.594C671.096 271.79 669.573 267.319 666.717 264.421C663.861 261.523 659.903 259.972 655.94 259.048C648.458 257.304 640.522 257.547 633.161 259.746C630.808 260.449 626.267 262.011 625.478 264.747C624.426 268.393 628.637 270.017 631.27 271.721C637.582 275.808 644.236 279.528 651.577 281.388Z" fill="#CEE8F0"/>
<path d="M107.694 117.611H186.22C187.862 116.734 189.116 115.093 189.336 113.234C189.652 110.567 187.822 107.807 185.244 107.059C180.067 105.557 173.939 111.388 169.649 108.123C166.394 105.646 167.295 99.6799 163.707 97.7159C159.336 95.3229 154.618 101.717 149.677 101.071C146.877 100.704 144.883 98.1359 143.772 95.5399C142.661 92.9429 142.083 90.0849 140.494 87.7509C136.482 81.8569 126.088 82.3469 122.648 88.5909C121.33 90.9839 120.995 93.7869 119.997 96.3299C118.999 98.8729 116.923 101.366 114.191 101.423C111.178 101.486 108.841 98.6169 105.863 98.1559C100.959 97.3979 97.5406 103.886 99.1756 108.571C100.57 112.565 104.069 115.291 107.694 117.611Z" fill="#CEE8F0"/>
<path d="M608.794 319.444H677.95C679.396 318.672 680.5 317.226 680.694 315.59C680.972 313.241 679.361 310.81 677.09 310.152C672.531 308.83 667.134 313.965 663.356 311.09C660.49 308.909 661.283 303.655 658.123 301.925C654.274 299.817 650.119 305.449 645.767 304.879C643.301 304.556 641.545 302.295 640.567 300.008C639.589 297.721 639.08 295.204 637.68 293.148C634.147 287.958 624.993 288.389 621.963 293.888C620.802 295.995 620.507 298.464 619.628 300.704C618.749 302.944 616.921 305.139 614.515 305.19C611.861 305.246 609.804 302.719 607.18 302.313C602.861 301.645 599.851 307.359 601.291 311.485C602.52 315.001 605.601 317.401 608.794 319.444Z" fill="white"/>
<path d="M421.927 93.8921H324.177V149.142H421.927V93.8921Z" fill="#CEE8F0"/>
<path d="M334.052 118.6L340.204 105.54C340.612 104.673 341.829 104.627 342.301 105.461L350.802 120.475L363.366 110.216C363.925 109.76 364.759 109.906 365.128 110.526L372.177 122.35L384.414 107.2C384.877 106.627 385.745 106.612 386.227 107.169L397.302 119.975L409.561 104.567C410.147 103.831 411.317 104.041 411.609 104.936L414.928 115.1V136.35H334.678L334.052 118.6Z" fill="#629EEB"/>
<path d="M330.385 127.35V108.6L341.427 122.6L352.277 108.924C352.813 108.248 353.87 108.356 354.258 109.127L363.302 127.1L371.797 114.581C372.273 113.88 373.311 113.893 373.769 114.606L383.552 129.85L398.851 108.872C399.386 108.139 400.514 108.257 400.884 109.086L410.052 129.6L415.552 101.35L415.719 141.683L331.802 141.1L330.385 127.35Z" fill="#F16B5F"/>
<path d="M330.385 141.684H415.718V107.35L399.885 123.183L392.106 116.625C391.684 116.269 391.072 116.253 390.632 116.586L371.551 131.017L353.744 115.101C353.204 114.619 352.362 114.731 351.967 115.337L340.885 132.351L330.385 127.351V141.684Z" fill="#FBAC4D"/>
<path d="M479.885 109.184H408.385V180.684H479.885V109.184Z" fill="#0E293A"/>
<path d="M416.843 116.559H412.843V174.309H416.843V116.559Z" fill="white"/>
<path d="M424.843 139.809H420.843V174.309H424.843V139.809Z" fill="white"/>
<path d="M432.843 130.975H428.843V174.308H432.843V130.975Z" fill="white"/>
<path d="M440.843 123.309H436.843V174.309H440.843V123.309Z" fill="white"/>
<path d="M448.843 151.475H444.843V174.308H448.843V151.475Z" fill="white"/>
<path d="M475.427 115.559H454.427V118.059H475.427V115.559Z" fill="white"/>
<path d="M475.427 119.892H459.427V122.392H475.427V119.892Z" fill="white"/>
<path d="M475.427 124.225H466.75V126.725H475.427V124.225Z" fill="white"/>
<path d="M449.823 168.329H372.323V220.829H449.823V168.329Z" fill="#629EEB"/>
<path d="M396.989 203.496H382.156V212.163H396.989V203.496Z" fill="white"/>
<path d="M416.822 196.163H401.989V212.163H416.822V196.163Z" fill="white"/>
<path d="M436.656 188.829H421.823V212.162H436.656V188.829Z" fill="white"/>
<path d="M379.656 198.496C379.47 198.496 379.292 198.392 379.206 198.213C379.086 197.964 379.19 197.666 379.438 197.546L398.771 188.212C398.965 188.119 399.199 188.16 399.349 188.316C399.499 188.472 399.532 188.707 399.43 188.898L397.457 192.596L426.114 179.541C426.323 179.446 426.573 179.506 426.717 179.69C426.859 179.873 426.857 180.13 426.711 180.311L423.748 183.985L439.639 177.603C439.897 177.502 440.187 177.624 440.289 177.88C440.392 178.136 440.268 178.427 440.012 178.53L422.342 185.627C422.131 185.712 421.889 185.643 421.753 185.46C421.618 185.277 421.623 185.026 421.766 184.849L424.606 181.328L396.529 194.118C396.335 194.205 396.105 194.161 395.958 194.005C395.811 193.849 395.78 193.616 395.881 193.427L397.827 189.779L379.874 198.446C379.804 198.48 379.73 198.496 379.656 198.496Z" fill="#FBAC4D"/>
<path d="M440.028 180.134L442.489 176.996L438.541 176.433L440.028 180.134Z" fill="#FBAC4D"/>
<path d="M529.089 112.366V106.246H525.259C525.049 105.526 524.759 104.836 524.399 104.186V104.176L527.109 101.466L522.789 97.146L520.079 99.856C519.419 99.496 518.729 99.206 518.009 98.996V95.166H511.889V98.996C511.169 99.206 510.479 99.496 509.819 99.856L507.109 97.146L502.779 101.466L505.499 104.186C505.139 104.836 504.849 105.526 504.639 106.246H500.799V112.366H504.639C504.849 113.086 505.139 113.776 505.499 114.426V114.436L502.779 117.146L507.109 121.476L509.829 118.756C510.479 119.116 511.169 119.406 511.889 119.616V123.456H518.009V119.616C518.729 119.406 519.419 119.116 520.069 118.756L522.789 121.476L527.109 117.146L524.399 114.436C524.759 113.776 525.049 113.086 525.259 112.366H529.089ZM514.949 114.056C512.319 114.056 510.199 111.936 510.199 109.306C510.199 106.686 512.319 104.556 514.949 104.556C517.569 104.556 519.699 106.686 519.699 109.306C519.699 111.936 517.569 114.056 514.949 114.056Z" fill="#36C2D9"/>
<path d="M648.429 233.676V227.556H644.599C644.389 226.836 644.099 226.146 643.739 225.496V225.486L646.449 222.776L642.129 218.456L639.419 221.166C638.759 220.806 638.069 220.516 637.349 220.306V216.476H631.229V220.306C630.509 220.516 629.819 220.806 629.159 221.166L626.449 218.456L622.119 222.776L624.839 225.496C624.479 226.146 624.189 226.836 623.979 227.556H620.139V233.676H623.979C624.189 234.396 624.479 235.086 624.839 235.736V235.746L622.119 238.456L626.449 242.786L629.169 240.066C629.819 240.426 630.509 240.716 631.229 240.926V244.766H637.349V240.926C638.069 240.716 638.759 240.426 639.409 240.066L642.129 242.786L646.449 238.456L643.739 235.746C644.099 235.086 644.389 234.396 644.599 233.676H648.429ZM634.289 235.366C631.659 235.366 629.539 233.246 629.539 230.616C629.539 227.996 631.659 225.866 634.289 225.866C636.909 225.866 639.039 227.996 639.039 230.616C639.039 233.246 636.909 235.366 634.289 235.366Z" fill="#36C2D9"/>
<path d="M169.748 230.339V224.219H165.919C165.709 223.499 165.419 222.809 165.059 222.159V222.149L167.768 219.439L163.449 215.119L160.738 217.829C160.078 217.469 159.389 217.179 158.669 216.969V213.139H152.548V216.969C151.828 217.179 151.139 217.469 150.479 217.829L147.768 215.119L143.438 219.439L146.158 222.159C145.798 222.809 145.508 223.499 145.298 224.219H141.458V230.339H145.298C145.508 231.059 145.798 231.749 146.158 232.399V232.409L143.438 235.119L147.768 239.449L150.488 236.729C151.138 237.089 151.828 237.379 152.548 237.589V241.429H158.669V237.589C159.389 237.379 160.079 237.089 160.729 236.729L163.449 239.449L167.768 235.119L165.059 232.409C165.419 231.749 165.709 231.059 165.919 230.339H169.748ZM155.608 232.029C152.978 232.029 150.858 229.909 150.858 227.279C150.858 224.659 152.978 222.529 155.608 222.529C158.228 222.529 160.358 224.659 160.358 227.279C160.358 229.909 158.228 232.029 155.608 232.029Z" fill="#36C2D9"/>
<path d="M141.609 212.608V209.289H139.532C139.418 208.898 139.261 208.524 139.066 208.172V208.167L140.536 206.697L138.193 204.354L136.723 205.824C136.365 205.629 135.991 205.472 135.6 205.358V203.281H132.281V205.358C131.89 205.472 131.516 205.629 131.158 205.824L129.688 204.354L127.34 206.697L128.815 208.172C128.62 208.524 128.463 208.899 128.349 209.289H126.266V212.608H128.349C128.463 212.999 128.62 213.373 128.815 213.725V213.73L127.34 215.2L129.688 217.548L131.163 216.073C131.516 216.268 131.89 216.426 132.28 216.539V218.622H135.599V216.539C135.989 216.425 136.364 216.268 136.716 216.073L138.191 217.548L140.534 215.2L139.064 213.73C139.259 213.372 139.417 212.998 139.53 212.607H141.609V212.608ZM133.94 213.525C132.514 213.525 131.364 212.375 131.364 210.949C131.364 209.528 132.514 208.373 133.94 208.373C135.361 208.373 136.516 209.528 136.516 210.949C136.517 212.375 135.361 213.525 133.94 213.525Z" fill="#36C2D9"/>
<path d="M547.426 99.742V95.207H544.588C544.432 94.673 544.218 94.162 543.951 93.681V93.674L545.959 91.666L542.758 88.465L540.75 90.473C540.261 90.206 539.75 89.991 539.216 89.836V86.998H534.681V89.836C534.147 89.992 533.636 90.206 533.147 90.473L531.139 88.465L527.93 91.666L529.946 93.682C529.679 94.164 529.464 94.675 529.309 95.208H526.464V99.743H529.309C529.465 100.277 529.68 100.788 529.946 101.269V101.276L527.93 103.284L531.139 106.493L533.155 104.477C533.637 104.744 534.148 104.959 534.681 105.114V107.959H539.216V105.114C539.75 104.958 540.261 104.744 540.742 104.477L542.758 106.493L545.959 103.284L543.951 101.276C544.218 100.787 544.433 100.276 544.588 99.742H547.426ZM536.948 100.994C534.999 100.994 533.428 99.423 533.428 97.474C533.428 95.533 534.999 93.954 536.948 93.954C538.889 93.954 540.468 95.532 540.468 97.474C540.468 99.423 538.889 100.994 536.948 100.994Z" fill="#36C2D9"/>
<path d="M440.743 360.168C439.768 360.503 463.519 288.797 479.912 290.677C496.304 292.556 480.822 346.393 440.743 360.168Z" fill="#21B789"/>
<path d="M441.679 360.779C441.679 360.779 407.804 305.059 393.497 306.942C379.19 308.824 382.712 343.954 441.679 360.779Z" fill="#3BDBAA"/>
<path d="M441.679 360.779C441.679 360.779 444.012 261.398 404.965 263.968C365.919 266.538 428.682 351.236 441.679 360.779Z" fill="#21B789"/>
<path d="M440.442 362.214C440.442 362.214 491.51 277.117 463.13 265.8C434.75 254.482 436.168 349.458 440.442 362.214Z" fill="#3BDBAA"/>
<path d="M439.864 355.397C431.728 355.276 423.049 355.411 416.486 356.184C415.57 356.292 414.898 357.088 414.95 358.009C415.443 366.629 418.166 407.173 426.197 416.394H428.197H451.53H453.53C461.561 407.173 464.284 366.629 464.777 358.009C464.83 357.088 464.158 356.292 463.241 356.184C456.679 355.412 448 355.276 439.864 355.397Z" fill="#629EEB"/>
<path d="M439.239 353.103L401.989 270.353" stroke="#0E293A" stroke-width="0.5" stroke-miterlimit="10" stroke-linecap="round" stroke-linejoin="round"/>
<path d="M462.739 268.103L442.739 349.603" stroke="#0E293A" stroke-width="0.5" stroke-miterlimit="10" stroke-linecap="round" stroke-linejoin="round"/>
<path d="M392.739 315.603L433.739 353.603" stroke="#0E293A" stroke-width="0.5" stroke-miterlimit="10" stroke-linecap="round" stroke-linejoin="round"/>
<path d="M449.739 350.103L469.989 322.103" stroke="#0E293A" stroke-width="0.5" stroke-miterlimit="10" stroke-linecap="round" stroke-linejoin="round"/>
<path d="M417.906 359.603H461.739" stroke="#0E293A" stroke-width="0.5" stroke-miterlimit="10" stroke-linecap="round" stroke-linejoin="round"/>
<path d="M312.376 113.165C312.376 109.802 309.649 107.075 306.286 107.075C309.649 107.075 312.376 104.348 312.376 100.985C312.376 104.348 315.103 107.075 318.466 107.075C315.103 107.076 312.376 109.802 312.376 113.165Z" fill="#36C2D9"/>
<path d="M306.376 103.093C306.376 101.185 304.829 99.6381 302.921 99.6381C304.829 99.6381 306.376 98.0911 306.376 96.1831C306.376 98.0911 307.923 99.6381 309.831 99.6381C307.923 99.6381 306.376 101.185 306.376 103.093Z" fill="#36C2D9"/>
<path d="M607.293 172.582C607.293 169.219 604.566 166.492 601.203 166.492C604.566 166.492 607.293 163.765 607.293 160.402C607.293 163.765 610.02 166.492 613.383 166.492C610.02 166.492 607.293 169.219 607.293 172.582Z" fill="#36C2D9"/>
<path d="M615.668 175.751C615.668 173.756 614.05 172.138 612.055 172.138C614.05 172.138 615.668 170.52 615.668 168.525C615.668 170.52 617.286 172.138 619.281 172.138C617.286 172.138 615.668 173.756 615.668 175.751Z" fill="#36C2D9"/>
<path d="M190.71 186.999C190.71 183.636 187.983 180.909 184.62 180.909C187.983 180.909 190.71 178.182 190.71 174.819C190.71 178.182 193.436 180.909 196.8 180.909C193.436 180.909 190.71 183.635 190.71 186.999Z" fill="white"/>
<path d="M185.71 174.572C185.71 171.997 183.622 169.909 181.047 169.909C183.622 169.909 185.71 167.821 185.71 165.246C185.71 167.821 187.798 169.909 190.373 169.909C187.797 169.909 185.71 171.997 185.71 174.572Z" fill="white"/>
<path d="M474.376 260.415C474.376 257.052 471.65 254.325 468.286 254.325C471.649 254.325 474.376 251.598 474.376 248.235C474.376 251.598 477.103 254.325 480.466 254.325C477.103 254.326 474.376 257.052 474.376 260.415Z" fill="white"/>
<path d="M468.626 247.405C468.626 245.106 466.762 243.242 464.463 243.242C466.762 243.242 468.626 241.378 468.626 239.079C468.626 241.378 470.49 243.242 472.789 243.242C470.49 243.242 468.626 245.106 468.626 247.405Z" fill="white"/>
<path d="M284.868 193.542C288.01 187.016 286.706 172.806 286.536 171.051C286.527 170.989 286.524 170.935 286.515 170.874L303.785 182.307C303.446 182.789 303.228 183.462 303.097 184.249L303.096 184.256C302.818 185.85 302.898 187.909 303.085 189.793C303.364 192.549 303.881 194.923 303.881 194.923L294.735 196.022L284.868 193.542Z" fill="#AD5735"/>
<path d="M303.086 189.793C293.207 190.318 289.099 178.267 288.949 177.817C290.548 180.817 293.062 182.459 295.572 183.337C298.661 184.426 301.738 184.359 303.035 184.264C303.056 184.259 303.076 184.26 303.096 184.255C302.818 185.85 302.898 187.909 303.086 189.793Z" fill="#0E293A"/>
<path d="M268.068 257.522C268.068 257.522 298.735 265.522 314.568 259.855L312.91 248.354C312.25 243.778 312.569 239.117 313.838 234.672C316.863 224.079 321.627 203.185 320.901 200.521C319.901 196.854 314.234 194.688 304.068 194.021C304.068 194.021 294.068 196.521 285.235 192.188C285.235 192.188 269.735 189.855 267.568 197.355C265.911 203.091 269.015 225.554 270.253 235.96C270.673 239.493 270.576 243.064 269.968 246.57L268.068 257.522Z" fill="#629EEB"/>
<path d="M283.985 192.688C283.985 192.688 292.36 203.063 305.61 194.563" stroke="#0E293A" stroke-width="0.5" stroke-miterlimit="10" stroke-linecap="round" stroke-linejoin="round"/>
<path d="M293.269 219.609C295.488 224.026 298.663 227.959 302.512 231.06" stroke="#0E293A" stroke-width="0.5" stroke-miterlimit="10" stroke-linecap="round" stroke-linejoin="round"/>
<path d="M291.152 221.189C291.19 226.653 293.829 232.042 298.123 235.421" stroke="#0E293A" stroke-width="0.5" stroke-miterlimit="10" stroke-linecap="round" stroke-linejoin="round"/>
<path d="M269.099 229.461C266.137 227.388 263.205 225.272 260.281 223.141C258.583 221.904 256.588 220.564 254.657 219.079C251.235 224.853 247.371 231.251 243.481 237.623C225.064 241.235 209.272 244.135 208.385 244.297C208.385 244.297 208.385 244.297 208.379 244.296C208.355 244.307 208.343 244.306 208.343 244.306V244.307C205.157 242.17 202.077 241.456 200.503 241.126C199.282 240.869 198.783 241.468 198.583 241.921C198.481 242.152 198.604 242.393 198.843 242.46C199.984 242.779 202.05 243.764 202.099 244.63C202.154 245.607 192.895 245.154 192.588 246.464C192.465 246.99 199.045 247.491 199.045 247.491C199.045 247.491 191.874 248.284 192.297 249.116C192.72 249.948 199.113 250.065 199.113 250.065C199.113 250.065 192.041 251.711 192.823 252.368C193.605 253.024 199.24 252.528 199.24 252.528C196.724 253.406 195.816 254.12 195.492 254.548C195.338 254.751 195.46 255.008 195.713 255.01C198.807 255.042 205.318 252.144 208.02 250.875C215.84 253.522 224.177 254.867 232.601 255.315C237.872 255.603 243.171 255.538 248.391 255.224C251.648 255.028 254.649 253.385 256.661 250.664C261.209 244.516 265.214 238.312 268.657 232.546C269.126 231.76 269.582 230.987 270.03 230.22C269.719 229.966 269.405 229.719 269.099 229.461Z" fill="#AD5735"/>
<path d="M250.985 224.064C250.985 224.064 264.735 237.064 266.11 236.814C267.485 236.564 283.86 205.939 283.86 199.689C283.86 193.439 285.235 192.189 285.235 192.189C285.235 192.189 273.235 188.189 267.61 195.439C261.985 202.689 250.985 224.064 250.985 224.064Z" fill="#629EEB"/>
<path d="M266.055 236.809C265.565 237.589 265.065 238.389 264.545 239.179C263.035 239.069 252.415 229.189 249.985 226.909C250.475 226.099 250.955 225.289 251.435 224.489C253.765 226.679 264.555 236.729 266.055 236.809Z" fill="#0E293A"/>
<path d="M266.11 236.813L274.735 223.313" stroke="#0E293A" stroke-width="0.5" stroke-miterlimit="10" stroke-linecap="round" stroke-linejoin="round"/>
<path d="M352.143 179.929C352.101 178.961 350.669 178.287 350.669 178.287C350.29 176.519 348.269 176.771 348.269 176.771C347.469 174.961 345.659 176.266 345.659 176.266C345.659 173.95 344.817 171.382 344.059 171.509C343.301 171.635 343.385 180.055 342.543 180.182C341.701 180.308 340.185 176.056 339.049 177.109C338.081 178.006 340.925 183.959 341.79 185.707L331.484 215.939L327.609 209.189L320.109 232.064C320.109 232.064 326.859 243.314 335.359 242.189C343.816 241.07 351.735 204.816 348.632 185.735C349.776 184.378 352.178 180.724 352.143 179.929Z" fill="#AD5735"/>
<path d="M331.225 215.479C330.285 220.969 324.705 231.259 322.445 235.269C321.995 234.729 321.605 234.219 321.285 233.779C323.455 229.969 329.255 219.349 330.215 213.729L331.225 215.479Z" fill="#0E293A"/>
<path d="M313.11 225.063L320.485 235.188C320.485 235.188 331.626 216.26 330.235 211.313C329.11 207.313 319.36 194.938 311.735 195.063C304.11 195.188 306.485 219.938 313.11 225.063Z" fill="#629EEB"/>
<path d="M315.485 228.438C315.485 228.438 317.485 222.813 316.985 218.813C316.485 214.813 315.485 205.563 315.485 205.563" stroke="#0E293A" stroke-width="0.5" stroke-miterlimit="10" stroke-linecap="round" stroke-linejoin="round"/>
<path d="M350.987 413.052C343.106 414.072 331.495 406.191 331.495 406.191H331.493C331.928 402.949 332.931 395.4 334.195 385.459C334.307 384.58 334.421 383.677 334.537 382.762C328.891 382.486 323.248 382.152 317.607 381.77L317.898 406.657C317.052 409.571 317.172 412.752 317.373 414.138C317.542 415.302 318.539 416.16 319.715 416.16H351.05C351.408 416.16 351.759 416.008 351.981 415.727C352.744 414.762 352.491 413.987 352.141 413.506C351.88 413.146 351.427 412.995 350.987 413.052Z" fill="#AD5735"/>
<path d="M317.485 406.953C318.496 405.8 319.457 405.316 320.844 405.971C321.797 406.42 322.481 407.274 323.247 407.997C324.013 408.72 325.006 409.361 326.048 409.206C327.425 409.001 328.201 407.572 329.21 406.613C330.478 405.407 332.359 404.883 334.068 405.259C336.754 409.009 341.432 411.521 346.041 411.727C347.253 411.781 348.471 411.691 349.677 411.812C350.884 411.932 352.115 412.288 353.011 413.105C353.67 413.705 354.102 414.595 354.101 415.47C354.101 415.985 353.663 416.396 353.149 416.396H318.157C317.727 416.396 317.351 416.112 317.242 415.695C316.765 413.871 315.71 408.978 317.485 406.953Z" fill="#5E2039"/>
<path d="M282.045 378.71C277.334 378.223 272.625 377.715 267.92 377.169C266.769 377.043 265.62 376.904 264.47 376.774C265.157 390.919 265.787 402.056 266.026 406.189C266.026 406.189 253.815 414.07 246.012 413.05C245.576 412.993 245.111 413.144 244.823 413.504C244.437 413.985 244.124 414.76 244.814 415.725C245.015 416.006 245.354 416.158 245.713 416.158H277.048C278.224 416.158 279.287 415.3 279.544 414.136C279.85 412.751 280.212 409.575 279.59 406.663L282.045 378.71Z" fill="#AD5735"/>
<path d="M281.11 406.953C280.099 405.8 279.138 405.316 277.751 405.971C276.798 406.42 276.114 407.274 275.348 407.997C274.582 408.72 273.589 409.361 272.547 409.206C271.17 409.001 270.394 407.572 269.385 406.613C268.117 405.407 266.236 404.883 264.527 405.259C261.841 409.009 257.163 411.521 252.555 411.727C251.343 411.781 250.125 411.691 248.919 411.812C247.712 411.932 246.481 412.288 245.585 413.105C244.926 413.705 244.493 414.595 244.494 415.47C244.495 415.985 244.932 416.396 245.447 416.396H280.439C280.869 416.396 281.245 416.112 281.354 415.695C281.83 413.871 282.885 408.978 281.11 406.953Z" fill="#5E2039"/>
<path d="M269.235 256.188C269.235 256.188 261.735 269.188 260.735 287.438C259.735 305.688 264.985 404.938 264.985 404.938H282.235L292.235 282.438L315.735 342.438L316.985 405.438H333.485C333.485 405.438 340.485 344.938 339.985 339.438C339.485 333.938 313.485 258.938 313.485 258.938L269.235 256.188Z" fill="white"/>
<path d="M268.568 259.855L313.735 262.688" stroke="#0E293A" stroke-width="0.5" stroke-miterlimit="10" stroke-linecap="round" stroke-linejoin="round"/>
<path d="M335.619 342.82C336.3 341.829 336.69 340.64 336.729 339.438" stroke="#0E293A" stroke-width="0.5" stroke-miterlimit="10" stroke-linecap="round" stroke-linejoin="round"/>
<path d="M312.34 152.874C310.428 146.657 299.514 143.499 291.299 149.656C287.481 152.517 286.315 158.121 286.154 163.302C285.974 163.197 285.811 163.114 285.703 163.079C284.158 162.572 282.492 163.643 281.914 165.088C281.453 166.238 281.61 167.588 282.208 168.674C282.704 169.577 283.553 170.446 284.496 170.886C284.733 170.997 285.806 171.255 286.577 171.245C287.068 174.697 288.572 177.961 291.088 180.38C294.26 183.431 298.502 184.87 302.869 184.29C306.265 183.839 311.371 182.055 312.852 178.672C313.237 177.792 313.338 176.817 313.419 175.86C314.041 168.549 314.526 159.983 312.34 152.874Z" fill="#AD5735"/>
<path d="M308.572 164.799C308.49 165.921 308.868 166.862 309.416 166.902C309.964 166.942 310.474 166.065 310.555 164.943C310.637 163.821 310.259 162.88 309.711 162.84C309.164 162.8 308.654 163.677 308.572 164.799Z" fill="#0E293A"/>
<path d="M301.964 164.319C301.882 165.441 301.372 166.318 300.824 166.278C300.276 166.238 299.898 165.297 299.98 164.175C300.062 163.053 300.572 162.176 301.12 162.216C301.668 162.255 302.046 163.197 301.964 164.319Z" fill="#0E293A"/>
<path d="M305.605 174.38C305.304 174.611 304.909 174.673 304.535 174.658C304.161 174.619 303.786 174.489 303.516 174.228C303.878 174.313 304.207 174.409 304.553 174.421C304.896 174.46 305.238 174.424 305.605 174.38Z" fill="#0E293A"/>
<path d="M303.301 157.335C302.868 156.891 302.354 156.719 301.805 156.654C301.26 156.602 300.695 156.625 300.151 156.767C299.604 156.892 299.088 157.157 298.65 157.488C298.195 157.805 297.859 158.243 297.574 158.678C297.43 158.898 297.492 159.193 297.712 159.337C297.888 159.452 298.112 159.436 298.268 159.312L298.311 159.278C298.655 159.004 298.986 158.748 299.347 158.571C299.696 158.371 300.08 158.275 300.461 158.205C300.845 158.145 301.241 158.127 301.641 158.177C302.036 158.219 302.456 158.27 302.899 158.196L303.027 158.175C303.299 158.129 303.481 157.872 303.436 157.6C303.418 157.496 303.37 157.405 303.301 157.335Z" fill="#0E293A"/>
<path d="M308.259 157.695C308.752 157.318 309.285 157.222 309.837 157.237C310.384 157.264 310.939 157.369 311.457 157.588C311.981 157.79 312.452 158.127 312.838 158.518C313.243 158.897 313.511 159.379 313.73 159.851C313.841 160.089 313.737 160.373 313.499 160.483C313.308 160.572 313.089 160.523 312.952 160.378L312.914 160.338C312.613 160.017 312.323 159.716 311.991 159.489C311.674 159.24 311.309 159.09 310.942 158.966C310.571 158.851 310.181 158.775 309.778 158.767C309.381 158.752 308.958 158.741 308.531 158.603L308.408 158.563C308.146 158.478 308.002 158.197 308.087 157.935C308.12 157.837 308.181 157.755 308.259 157.695Z" fill="#0E293A"/>
<path d="M307.51 161.412C307.63 162.19 307.704 162.96 307.791 163.723C307.883 164.484 307.967 165.244 308.129 165.97C308.165 166.152 308.208 166.332 308.259 166.506C308.3 166.649 308.406 166.925 308.384 167.174C308.373 167.683 308.013 168.156 307.585 168.327C307.145 168.533 306.66 168.461 306.285 168.302C305.905 168.133 305.58 167.896 305.304 167.614C305.997 167.933 306.813 168.203 307.342 167.861C307.608 167.688 307.762 167.443 307.746 167.162C307.744 167.018 307.705 166.925 307.63 166.7C307.567 166.504 307.514 166.308 307.471 166.112C307.31 165.323 307.255 164.533 307.268 163.748C307.279 162.964 307.351 162.183 307.51 161.412Z" fill="#0E293A"/>
<path d="M298.86 172.127C298.86 172.127 301.423 167.814 306.798 168.752C312.173 169.69 311.673 173.69 311.673 173.69C311.673 173.69 303.86 174.877 298.86 172.127Z" fill="#0E293A"/>
<path d="M283.009 166.081C283.032 165.614 283.198 165.107 283.636 164.775C284.1 164.449 284.719 164.527 285.179 164.739C285.668 164.949 286.055 165.323 286.35 165.731C286.653 166.144 286.864 166.584 287.025 167.084C287.083 167.262 286.985 167.454 286.806 167.511C286.671 167.554 286.53 167.509 286.443 167.408L286.422 167.383C286.116 167.024 285.728 166.636 285.343 166.496C285.15 166.431 285.004 166.426 284.861 166.514C284.713 166.603 284.59 166.806 284.482 167.016C284.277 167.449 284.134 167.962 284.499 168.196C284.881 168.452 285.469 168.439 285.995 168.408C285.488 168.588 284.931 168.73 284.327 168.51C284.021 168.386 283.798 168.012 283.801 167.689C283.794 167.366 283.861 167.077 283.963 166.797C284.068 166.521 284.208 166.229 284.504 166.002C284.804 165.77 285.251 165.743 285.559 165.863C286.188 166.103 286.595 166.506 286.967 166.967L286.365 167.267C286.111 166.467 285.659 165.621 284.947 165.202C284.591 164.999 284.161 164.878 283.797 165.048C283.418 165.212 283.165 165.644 283.009 166.081Z" fill="#0E293A"/>
<path d="M309.905 145.189C293.655 137.609 286.155 151.269 286.155 151.269C281.445 156.079 280.805 161.879 281.685 167.019C281.605 166.369 281.675 165.699 281.915 165.089C282.495 163.639 284.155 162.569 285.705 163.079C285.729 163.088 285.763 163.105 285.792 163.117C287.119 165.355 288.796 167.605 289.235 167.605C289.985 167.605 290.235 165.022 290.235 165.022C297.402 162.689 296.902 152.689 296.902 152.689C296.902 152.689 302.584 143.029 313.392 157.599C313.987 161.508 314.029 165.643 313.846 169.649C317.275 161.049 319.485 149.659 309.905 145.189Z" fill="#0E293A"/>
<path d="M284.495 170.888C283.555 170.448 282.705 169.578 282.205 168.668C282.025 168.348 281.885 167.988 281.795 167.628C282.935 173.538 285.985 178.488 286.945 179.928C286.955 175.868 286.655 172.368 286.555 171.248C285.785 171.258 284.735 170.998 284.495 170.888Z" fill="#0E293A"/>
<path d="M587.241 323.39C578.627 323.748 570.025 323.216 561.495 322.001L563.225 406.231C563.225 406.231 553.399 413.013 545.519 411.993C545.079 411.936 544.626 412.087 544.365 412.446C544.016 412.928 543.762 413.702 544.525 414.667C544.747 414.948 545.098 415.1 545.457 415.1H576.792C577.968 415.1 578.965 414.242 579.134 413.078C579.334 411.702 579.453 408.561 578.629 405.665C578.983 402.506 583.792 359.483 587.241 323.39Z" fill="#C27559"/>
<path d="M586.955 326.445C586.805 327.955 586.655 329.475 586.505 331.005C584.235 330.755 574.165 329.595 561.615 327.585L561.515 322.915C573.735 324.885 583.795 326.086 586.955 326.445Z" fill="#0E293A"/>
<path d="M564.857 338.377C565.375 339.451 565.894 340.526 566.412 341.6" stroke="#0E293A" stroke-width="0.5" stroke-miterlimit="10" stroke-linecap="round" stroke-linejoin="round"/>
<path d="M578.859 406.433C578.859 406.433 581.503 411.636 579.2 414.791C577.2 417.532 552.874 416.026 546.514 415.583C545.463 415.51 544.543 414.833 544.204 413.836C543.719 412.413 543.65 410.515 546.451 410.1C551.057 409.418 552.259 409.66 555.969 410.086C555.969 410.086 551.467 411.741 552.57 412.594C554.503 414.089 570.928 411.293 575.277 407.37C579.627 403.448 578.859 406.433 578.859 406.433Z" fill="white"/>
<path d="M543.901 318.56C536.219 316.676 528.739 314.384 521.412 311.374C520.581 311.033 519.749 310.692 518.918 310.349C517.07 316.091 515.163 322.2 513.257 328.429C512.928 329.505 512.726 330.616 512.657 331.74C511.162 355.978 510.075 381.324 509.549 394.806C509.396 398.673 509.289 401.56 509.23 403.17C507.691 403.924 499.895 407.552 493.346 407.108C493.435 407.426 493.513 407.747 493.605 408.064C496.518 410.609 501.228 410.847 505.236 411.024C509.199 411.199 513.32 411.492 517.275 411.083C519.892 410.812 521.755 409.994 523.514 408.77C523.389 407.034 523.166 405.151 522.922 403.664L535.213 336.619L543.901 318.56Z" fill="#C27559"/>
<path d="M543.385 319.625L541.325 323.905C532.545 322.095 523.855 319.945 516.645 317.495C517.105 316.015 517.565 314.565 518.025 313.125C525.445 315.625 534.405 317.796 543.385 319.625Z" fill="#0E293A"/>
<path d="M516.984 331.065C516.984 331.815 516.984 332.565 516.984 333.315" stroke="#0E293A" stroke-width="0.5" stroke-miterlimit="10" stroke-linecap="round" stroke-linejoin="round"/>
<path d="M524.943 405.844C524.943 405.844 526.772 411.386 524.02 414.158C521.629 416.566 497.809 411.409 491.588 410.011C490.56 409.78 489.753 408.972 489.567 407.935C489.303 406.455 489.52 404.569 492.351 404.581C497.007 404.601 498.159 405.022 501.762 406.003C501.762 406.003 497.061 406.96 498.024 407.97C499.71 409.739 516.368 409.453 521.26 406.231C526.152 403.009 524.943 405.844 524.943 405.844Z" fill="white"/>
<path d="M580.36 243.941C580.36 243.941 592.86 260.316 592.36 275.941C591.86 291.566 587.985 326.566 587.985 326.566C587.985 326.566 542.735 321.691 517.11 312.816C517.11 312.816 531.485 258.441 547.485 243.566L580.36 243.941Z" fill="#F16B5F"/>
<path d="M546.746 281.331C550.991 278.312 554.81 274.696 558.055 270.621" stroke="#0E293A" stroke-width="0.5" stroke-miterlimit="10" stroke-linecap="round" stroke-linejoin="round"/>
<path d="M559.711 272.055C556.116 280.363 551.593 288.269 546.253 295.578" stroke="#0E293A" stroke-width="0.5" stroke-miterlimit="10" stroke-linecap="round" stroke-linejoin="round"/>
<path d="M583.568 255.899C583.568 255.899 587.568 266.566 588.068 274.732C588.568 282.899 584.235 324.232 584.235 324.232" stroke="#0E293A" stroke-width="0.5" stroke-miterlimit="10" stroke-linecap="round" stroke-linejoin="round"/>
<path d="M555.07 201.789C554.484 194.885 546.697 192.412 542.251 197.619C540.931 199.168 539.509 201.277 538.054 204.126C535.723 208.686 531.473 216.157 526.508 224.617C513.77 217.773 502.318 211.508 497.731 208.989C497.725 208.986 497.72 208.983 497.714 208.98C496.629 205.296 494.715 202.776 493.716 201.516C492.941 200.538 492.175 200.679 491.731 200.9C491.505 201.012 491.445 201.276 491.586 201.481C492.259 202.456 493.219 204.533 492.703 205.231C492.121 206.018 485.289 199.752 484.216 200.562C483.785 200.888 488.526 205.478 488.526 205.478C488.526 205.478 482.504 201.505 482.298 202.415C482.091 203.325 486.933 207.501 486.933 207.501C486.933 207.501 480.442 204.247 480.623 205.252C480.805 206.257 485.456 209.477 485.456 209.477C482.96 208.544 481.805 208.513 481.283 208.635C481.035 208.693 480.965 208.968 481.157 209.132C483.155 210.828 488.394 212.477 491.707 213.398L491.709 213.401C499.2 223.337 508.624 231.656 518.276 238.52C519.236 239.201 520.198 239.868 521.161 240.521C527.507 244.825 536.149 242.854 540.084 236.273C540.764 235.136 541.421 234.013 542.055 232.909C546.898 224.475 550.421 217.086 552.685 212.33C554.76 207.973 555.299 204.504 555.07 201.789Z" fill="#C27559"/>
<path d="M553.61 190.566C553.61 190.566 543.985 194.066 541.485 197.233C538.985 200.4 526.818 223.4 526.818 223.4L540.735 235.65C540.735 235.65 553.568 212.567 553.902 211.15C554.235 209.733 552.402 192.567 552.402 192.567L553.61 190.566Z" fill="white"/>
<path d="M583.958 193.668C582.332 192.14 580.147 191.345 577.916 191.267C575.844 191.194 574.175 190.751 572.818 190.126C570.586 183.15 572.762 169.998 573.048 168.322C573.061 168.261 573.068 168.207 573.082 168.147L555.029 178.298C555.332 178.803 555.5 179.49 555.575 180.285V180.292C555.737 181.902 555.508 183.95 555.184 185.816C554.815 187.923 554.324 189.78 554.118 190.522C553.268 191.549 552.264 192.289 551.064 192.998C551.934 195.256 552.188 197.869 551.582 200.772C556.727 201.675 561.791 203.082 566.934 204.039C573.149 205.196 578.482 205.817 585.022 205.964C585.714 205.98 586.405 205.979 587.096 205.979C587.944 199.334 586.093 195.674 583.958 193.668Z" fill="#C27559"/>
<path d="M555.185 185.816C565 187.056 569.971 175.334 570.153 174.897C568.341 177.773 565.714 179.228 563.147 179.922C559.988 180.784 556.923 180.495 555.636 180.306C555.616 180.299 555.596 180.299 555.575 180.293C555.737 181.902 555.508 183.95 555.185 185.816Z" fill="#0E293A"/>
<path d="M553.61 190.566C553.61 190.566 552.485 197.191 558.735 198.066C564.985 198.941 572.735 189.941 572.735 189.941C572.735 189.941 581.11 190.816 583.36 192.191C585.61 193.566 588.61 199.816 588.36 202.816C588.11 205.816 580.86 240.066 582.235 242.066C583.61 244.066 585.36 247.566 583.61 249.191C581.86 250.816 542.36 251.191 542.235 247.941C542.11 244.691 543.86 228.066 541.985 224.066C540.11 220.066 537.235 214.191 537.86 209.691C538.485 205.191 545.485 195.441 547.86 193.941C550.235 192.441 553.61 190.566 553.61 190.566Z" fill="white"/>
<path d="M544.469 205.138C544.102 207.062 543.133 208.811 542.163 210.513C541.193 212.215 540.195 213.942 539.762 215.852C539.329 217.763 539.544 219.925 540.802 221.426" stroke="#0E293A" stroke-width="0.5" stroke-miterlimit="10" stroke-linecap="round" stroke-linejoin="round"/>
<path d="M551.985 194.316C551.985 194.316 556.112 207.935 569.99 195.804" stroke="#0E293A" stroke-width="0.5" stroke-miterlimit="10" stroke-linecap="round" stroke-linejoin="round"/>
<path d="M529.321 259.806H552.148C554.766 259.806 556.636 257.271 555.864 254.77L546.394 224.097C545.891 222.467 544.384 221.355 542.678 221.355H519.851C517.233 221.355 515.363 223.89 516.135 226.391L525.605 257.064C526.108 258.694 527.615 259.806 529.321 259.806Z" fill="#0E293A"/>
<path d="M604.371 240.586C604.233 240.106 604.094 239.629 603.954 239.154C599.063 222.624 592.469 208.922 588.912 201.553C586.817 197.208 584.453 194.615 582.189 193.092C576.443 189.219 569.64 193.739 570.913 200.475C571.29 202.476 572.045 204.901 573.351 207.817C576.194 214.149 580.99 226.597 585.921 239.78C570.565 240.271 558.167 240.571 557.468 240.588C554.662 237.914 551.713 236.688 550.205 236.097C549.043 235.642 548.452 236.149 548.18 236.563C548.042 236.774 548.122 237.032 548.347 237.138C549.419 237.642 551.293 238.955 551.198 239.817C551.091 240.79 542.034 238.809 541.514 240.049C541.305 240.547 547.711 242.132 547.711 242.132C547.711 242.132 540.508 241.726 540.787 242.616C541.066 243.507 547.351 244.682 547.351 244.682C547.351 244.682 540.104 245.133 540.766 245.91C541.428 246.687 547.068 247.132 547.068 247.132C544.441 247.581 543.428 248.134 543.037 248.503C542.852 248.678 542.929 248.951 543.178 248.996C546.215 249.539 553.103 247.768 555.993 246.96L555.985 246.995C567.49 251.966 579.898 254.519 591.794 255.658C591.85 255.663 591.906 255.669 591.962 255.674C600.244 256.453 606.664 248.582 604.371 240.586Z" fill="#C27559"/>
<path d="M557.434 240.589C557.434 240.589 590.36 239.315 595.235 240.315" stroke="#0E293A" stroke-width="0.5" stroke-miterlimit="10" stroke-linecap="round" stroke-linejoin="round"/>
<path d="M591.152 238.191L585.922 239.781" stroke="#0E293A" stroke-width="0.5" stroke-miterlimit="10" stroke-linecap="round" stroke-linejoin="round"/>
<path d="M571.402 204.316L584.402 236.733C584.402 236.733 599.652 233.483 602.235 232.066C602.235 232.066 589.318 198.233 584.985 193.899C580.652 189.566 573.068 190.482 571.735 193.399C570.402 196.316 569.652 199.816 571.402 204.316Z" fill="white"/>
<path d="M582.86 233.066L574.735 212.441L582.235 237.441L582.86 233.066Z" fill="#0E293A"/>
<path d="M578.091 162.71C577.619 161.227 576.035 160.039 574.458 160.432C574.348 160.459 574.185 160.526 573.997 160.617C574.21 155.439 573.449 149.767 569.85 146.64C562.104 139.904 550.989 142.261 548.631 148.324C546.799 153.033 546.145 158.502 545.95 163.831C545.862 166.101 545.856 168.351 545.883 170.5C545.883 170.722 545.89 170.945 545.89 171.167C545.903 172.13 545.93 173.107 546.254 174.016C547.48 177.499 552.444 179.647 555.799 180.341C560.117 181.237 564.448 180.112 567.836 177.296C570.52 175.067 572.253 171.92 572.996 168.513C573.765 168.579 574.852 168.398 575.096 168.305C576.068 167.935 576.978 167.129 577.539 166.264C578.212 165.225 578.467 163.891 578.091 162.71Z" fill="#C27559"/>
<path d="M550.207 167.172C550.207 169.072 548.664 170.614 546.765 170.614C546.462 170.614 546.165 170.574 545.882 170.499C545.855 168.35 545.862 166.1 545.949 163.83C546.212 163.763 546.481 163.729 546.764 163.729C548.664 163.73 550.207 165.272 550.207 167.172Z" fill="#C26644"/>
<path d="M563.903 170.615C565.806 170.615 567.347 169.073 567.347 167.171C567.347 165.269 565.806 163.727 563.903 163.727C562.001 163.727 560.459 165.269 560.459 167.171C560.459 169.073 562.001 170.615 563.903 170.615Z" fill="#C26644"/>
<path d="M552.021 160.489C552.021 161.614 551.576 162.525 551.026 162.525C550.477 162.525 550.031 161.613 550.031 160.489C550.031 159.364 550.476 158.453 551.026 158.453C551.575 158.452 552.021 159.364 552.021 160.489Z" fill="#0E293A"/>
<path d="M548.996 157.808C549.164 158.138 549.385 158.425 549.669 158.677C549.95 158.928 550.308 159.123 550.71 159.215L550.727 159.219C550.925 159.265 551.123 159.141 551.168 158.943C551.214 158.745 551.09 158.547 550.892 158.502C550.86 158.495 550.826 158.492 550.795 158.493C550.239 158.515 549.621 158.177 549.2 157.685L549.193 157.677C549.15 157.627 549.075 157.622 549.025 157.664C548.982 157.701 548.971 157.761 548.996 157.808Z" fill="#0E293A"/>
<path d="M558.646 160.489C558.646 161.614 559.091 162.525 559.641 162.525C560.191 162.525 560.635 161.613 560.635 160.489C560.635 159.364 560.191 158.453 559.641 158.453C559.091 158.453 558.646 159.364 558.646 160.489Z" fill="#0E293A"/>
<path d="M561.468 157.685C561.047 158.176 560.429 158.515 559.873 158.493C559.67 158.485 559.499 158.643 559.49 158.846C559.482 159.049 559.64 159.22 559.843 159.228C559.876 159.229 559.908 159.226 559.938 159.219L559.956 159.215C560.358 159.123 560.716 158.928 560.997 158.677C561.281 158.425 561.502 158.138 561.67 157.808C561.7 157.75 561.677 157.678 561.618 157.648C561.568 157.623 561.509 157.636 561.474 157.676L561.468 157.685Z" fill="#0E293A"/>
<path d="M551.599 166.649C551.944 167.32 552.469 167.9 553.098 168.354C553.726 168.808 554.513 169.099 555.325 169.093C556.13 169.073 556.922 168.799 557.541 168.328C557.866 168.115 558.12 167.818 558.4 167.564C558.634 167.263 558.863 166.961 559.068 166.649C558.761 166.874 558.481 167.113 558.199 167.345C557.886 167.535 557.606 167.769 557.289 167.929C556.671 168.283 555.996 168.477 555.322 168.488C554.645 168.504 553.97 168.29 553.347 167.955C552.727 167.611 552.142 167.167 551.599 166.649Z" fill="#0E293A"/>
<path d="M554.286 170.259C554.57 170.511 554.958 170.602 555.333 170.614C555.709 170.602 556.092 170.5 556.381 170.259C556.013 170.317 555.679 170.39 555.333 170.377C554.987 170.39 554.648 170.33 554.286 170.259Z" fill="#0E293A"/>
<path d="M557.819 153.426C558.283 153.014 558.808 152.88 559.36 152.855C559.907 152.842 560.469 152.907 561.001 153.088C561.538 153.252 562.033 153.554 562.446 153.916C562.877 154.265 563.18 154.726 563.433 155.181C563.561 155.411 563.478 155.701 563.248 155.828C563.064 155.93 562.842 155.898 562.695 155.763L562.655 155.726C562.331 155.428 562.02 155.149 561.673 154.946C561.339 154.721 560.963 154.598 560.589 154.5C560.211 154.412 559.816 154.365 559.414 154.386C559.017 154.4 558.594 154.42 558.158 154.313L558.032 154.282C557.764 154.217 557.601 153.947 557.666 153.679C557.691 153.578 557.745 153.491 557.819 153.426Z" fill="#0E293A"/>
<path d="M552.847 153.426C552.383 153.014 551.858 152.88 551.306 152.855C550.759 152.842 550.197 152.907 549.665 153.088C549.128 153.252 548.633 153.554 548.22 153.916C547.789 154.265 547.486 154.726 547.233 155.181C547.105 155.411 547.188 155.701 547.418 155.828C547.602 155.93 547.824 155.898 547.971 155.763L548.011 155.726C548.335 155.428 548.646 155.149 548.993 154.946C549.327 154.721 549.702 154.598 550.077 154.5C550.455 154.412 550.849 154.365 551.252 154.386C551.649 154.4 552.072 154.42 552.508 154.313L552.634 154.282C552.901 154.217 553.065 153.947 553 153.679C552.976 153.578 552.921 153.491 552.847 153.426Z" fill="#0E293A"/>
<path d="M555.103 157.378C554.927 158.145 554.798 158.907 554.655 159.662C554.508 160.414 554.369 161.166 554.155 161.879C554.106 162.058 554.05 162.234 553.986 162.405C553.934 162.544 553.808 162.812 553.812 163.062C553.786 163.57 554.111 164.069 554.526 164.27C554.95 164.508 555.44 164.471 555.825 164.339C556.216 164.198 556.558 163.986 556.853 163.724C556.139 163.992 555.305 164.202 554.802 163.822C554.55 163.63 554.412 163.375 554.448 163.096C554.461 162.953 554.507 162.862 554.598 162.644C554.675 162.453 554.741 162.262 554.799 162.069C555.017 161.293 555.129 160.51 555.172 159.726C555.22 158.942 555.205 158.158 555.103 157.378Z" fill="#0E293A"/>
<path d="M576.843 163.811C576.854 163.343 576.725 162.826 576.313 162.464C575.874 162.105 575.25 162.138 574.777 162.316C574.274 162.49 573.861 162.835 573.537 163.221C573.204 163.611 572.963 164.035 572.766 164.521C572.696 164.695 572.78 164.893 572.953 164.963C573.084 165.016 573.229 164.981 573.322 164.887L573.344 164.864C573.675 164.528 574.091 164.169 574.484 164.058C574.681 164.007 574.827 164.013 574.963 164.111C575.104 164.211 575.212 164.422 575.305 164.639C575.479 165.085 575.583 165.608 575.202 165.815C574.803 166.042 574.217 165.987 573.695 165.918C574.188 166.134 574.732 166.316 575.351 166.14C575.665 166.038 575.915 165.681 575.936 165.359C575.966 165.037 575.92 164.744 575.839 164.457C575.754 164.174 575.636 163.873 575.357 163.625C575.074 163.372 574.631 163.312 574.315 163.41C573.671 163.604 573.236 163.976 572.831 164.409L573.41 164.752C573.722 163.972 574.234 163.161 574.973 162.796C575.343 162.619 575.781 162.529 576.131 162.726C576.498 162.914 576.719 163.363 576.843 163.811Z" fill="#0E293A"/>
<path d="M599.532 173.995C597.628 169.596 592.618 167.191 590.6 162.843C588.026 157.299 591.04 150.273 588.2 144.86C586.827 142.244 584.117 140.377 581.184 140.027C578.942 139.759 576.335 140.449 574.396 141.825C572.486 140.115 569.826 139.474 567.266 139.334C565.556 139.234 563.826 139.344 562.146 139.664C559.736 140.124 557.366 141.034 554.916 140.964C551.846 140.884 548.726 139.284 545.826 140.284C543.656 141.034 542.156 143.164 541.656 145.404C541.156 147.654 541.496 150.004 542.066 152.224C542.916 155.544 544.266 158.744 546.056 161.664C546.246 158.655 546.606 155.627 547.275 152.758C548.841 153.117 550.531 153.056 551.984 152.516C553.327 154.274 555.61 155.128 557.822 155.174C560.034 155.22 562.45 154.278 564.509 153.471C565.746 157.125 567.325 160.663 569.22 164.023C569.511 164.539 569.896 165.109 570.486 165.167C571.017 165.218 571.48 164.824 571.839 164.431C572.875 163.297 573.648 161.931 574.114 160.468C574.103 160.503 574.097 160.539 574.085 160.574C574.235 160.504 574.365 160.454 574.455 160.434C576.035 160.034 577.615 161.224 578.095 162.704C578.465 163.894 578.215 165.224 577.535 166.264C576.975 167.124 576.065 167.934 575.095 168.304C574.855 168.394 573.785 168.574 573.015 168.514C572.855 169.484 572.405 172.274 572.115 175.684C575.011 173.468 577.487 170.621 579.063 167.367C579.391 171.626 578.853 175.951 577.388 179.965C576.433 182.583 575.155 185.662 576.746 187.95C578.213 190.059 581.3 190.153 583.81 189.606C586.32 189.06 588.924 188.094 591.381 188.844C592.926 189.316 594.351 190.453 595.955 190.262C597.179 190.116 598.197 189.186 598.776 188.098C599.356 187.01 599.57 185.771 599.777 184.556C600.377 181.033 600.952 177.275 599.532 173.995Z" fill="#0E293A"/>
<path d="M205.601 414.104C205.622 414.112 205.643 414.121 205.663 414.129C209.493 415.654 213.59 416.395 217.713 416.395H269.218C276.167 416.395 282.978 414.264 288.585 410.16C325.483 383.152 328.826 322.538 308.147 315.191C256.627 296.887 256.551 229.475 195.405 235.028C156.764 238.538 147.27 286.034 145.516 320.522C143.478 360.593 166.577 397.925 203.635 413.305C204.283 413.573 204.939 413.84 205.601 414.104Z" fill="#629EEB"/>
<path d="M177.735 339.49C177.735 339.49 193.568 325.823 209.902 326.99C209.902 326.99 185.402 318.823 179.235 310.99" stroke="#0E293A" stroke-width="0.5" stroke-miterlimit="10" stroke-linecap="round" stroke-linejoin="round"/>
<path d="M306.258 414.061C309.76 413.166 313.27 412.302 316.791 411.477C322.95 410.034 329.337 408.968 335.23 406.634C328.264 407.26 320.353 404.02 320.353 404.02C320.353 404.02 319.976 400.016 319.374 393.672C317.852 394.063 316.327 394.433 314.795 394.773C314.185 394.928 313.576 395.088 312.966 395.24C309.753 396.039 306.521 396.7 303.282 397.281L305.197 406.595C304.971 409.622 305.759 412.714 306.258 414.061Z" fill="#F2AE96"/>
<path d="M304.644 406.591C305.408 405.262 306.256 404.599 307.744 404.968C308.766 405.222 309.606 405.925 310.499 406.483C311.392 407.041 312.491 407.475 313.482 407.118C314.792 406.647 315.272 405.093 316.073 403.954C317.08 402.523 318.821 401.639 320.571 401.671C323.942 404.82 329.022 406.364 333.581 405.661C334.78 405.476 335.956 405.149 337.163 405.03C338.37 404.911 339.647 405.018 340.686 405.643C341.45 406.102 342.049 406.89 342.22 407.748C342.321 408.253 341.973 408.742 341.468 408.843L307.158 415.718C306.736 415.803 306.312 415.598 306.123 415.211C305.297 413.516 303.301 408.926 304.644 406.591Z" fill="white"/>
<path d="M241.068 318.163L291.235 342.83L304.068 404.997C304.068 404.997 318.401 401.497 321.068 401.164C323.279 400.888 315.748 351.093 313.112 334.102C312.558 330.53 310.536 327.358 307.535 325.344L247.901 285.331C247.902 285.329 247.402 314.496 241.068 318.163Z" fill="#FBAC4D"/>
<path d="M243.152 318.413L250.985 302.746L254.985 325.079L244.152 319.746L243.152 318.413Z" fill="#0E293A"/>
<path d="M295.735 364.871L320.443 386.579L319.027 374.788L295.485 363.246L295.735 364.871Z" fill="#0E293A"/>
<path d="M308.568 330.663C308.846 331.774 309.124 332.885 309.401 333.996" stroke="#0E293A" stroke-width="0.5" stroke-miterlimit="10" stroke-linecap="round" stroke-linejoin="round"/>
<path d="M250.902 318.329L294.902 340.163L301.902 367.829" stroke="#0E293A" stroke-width="0.5" stroke-miterlimit="10" stroke-linecap="round" stroke-linejoin="round"/>
<path d="M327.812 414.725C330.049 411.37 332.08 407.845 334.107 404.584C335.726 401.98 337.529 399.475 339.346 396.98C339.557 396.618 339.783 396.269 339.999 395.911C336.416 397.618 333.328 398.435 333.328 398.435L322.375 388.982C319.731 393.988 317.108 399.016 314.373 403.971C319.084 407.187 322.172 409.287 322.877 409.765C324.386 412.043 326.546 413.853 327.812 414.725Z" fill="#F2AE96"/>
<path d="M323.158 410.285C322.972 408.763 323.252 407.724 324.664 407.126C325.634 406.715 326.727 406.774 327.776 406.685C328.826 406.596 329.965 406.283 330.544 405.402C331.309 404.239 330.76 402.708 330.718 401.317C330.665 399.568 331.527 397.816 332.946 396.792C337.532 397.288 342.522 395.475 345.747 392.176C346.595 391.309 347.34 390.341 348.234 389.521C349.128 388.701 350.214 388.021 351.42 387.897C352.307 387.806 353.259 388.077 353.91 388.66C354.294 389.004 354.309 389.604 353.966 389.988L330.646 416.076C330.359 416.397 329.897 416.488 329.514 416.291C327.836 415.432 323.484 412.958 323.158 410.285Z" fill="white"/>
<path d="M208.334 287.992C208.334 287.992 201.459 311.265 208.068 324.329C215.235 338.496 322.235 410.496 322.235 410.496L332.735 397.329L243.068 318.662C243.068 318.662 255.068 303.829 248.068 285.829C248.068 285.829 235.1 292.155 208.334 287.992Z" fill="#FBAC4D"/>
<path d="M278.684 354.985C278.836 356.597 278.987 358.21 279.139 359.822" stroke="#0E293A" stroke-width="0.5" stroke-miterlimit="10" stroke-linecap="round" stroke-linejoin="round"/>
<path d="M211.235 289.829C211.235 289.829 206.402 314.996 212.235 323.496C218.068 331.996 315.568 401.996 315.568 401.996" stroke="#0E293A" stroke-width="0.5" stroke-miterlimit="10" stroke-linecap="round" stroke-linejoin="round"/>
<path d="M218.068 291.329C218.068 291.329 212.568 306.329 209.568 306.329" stroke="#0E293A" stroke-width="0.5" stroke-miterlimit="10" stroke-linecap="round" stroke-linejoin="round"/>
<path d="M216.631 236.895C219.101 230.087 216.375 216.079 216.03 214.35C216.015 214.29 216.007 214.236 215.991 214.176L234.322 223.815C234.033 224.329 233.884 225.02 233.832 225.817V225.824C233.716 227.438 234.002 229.478 234.378 231.335C234.933 234.049 235.685 236.359 235.685 236.359L216.631 236.895Z" fill="#F2AE96"/>
<path d="M234.379 231.335C224.603 232.85 219.304 221.274 219.11 220.841C221.002 223.665 223.669 225.046 226.254 225.667C229.436 226.44 232.492 226.064 233.773 225.839C233.793 225.832 233.813 225.831 233.833 225.824C233.717 227.438 234.003 229.479 234.379 231.335Z" fill="#0E293A"/>
<path d="M216.984 235.746C216.984 235.746 226.817 238.913 236.067 235.996C236.067 235.996 244.234 240.829 246.734 242.746C249.234 244.663 247.401 261.079 247.401 266.829C247.401 272.579 248.401 286.329 248.401 286.329C248.401 286.329 228.568 294.079 207.734 287.912C207.734 287.912 203.734 255.829 202.484 252.162C201.234 248.495 203.234 240.662 208.234 238.329C212.231 236.464 216.984 235.746 216.984 235.746Z" fill="white"/>
<path d="M227.568 237.913C227.568 237.913 228.485 234.996 226.818 234.413C225.151 233.83 217.568 231.684 217.568 231.684C217.568 231.684 217.693 230.163 217.651 229.621C217.651 229.621 214.193 230.371 213.88 231.475C213.567 232.579 213.213 236.538 213.359 236.767C213.506 236.996 224.902 239.475 227.568 237.913Z" fill="white"/>
<path d="M228.423 239.559C228.423 239.559 226.642 235.528 227.142 234.684C227.642 233.84 234.767 233.121 234.767 233.121L234.236 230.465C234.236 230.465 236.736 230.621 237.861 231.621C238.986 232.621 238.392 237.746 238.392 237.746C238.392 237.746 232.235 240.59 228.423 239.559Z" fill="white"/>
<path d="M227.319 236.217C227.319 236.217 225.06 239.687 225.119 240.395C225.178 241.104 225.946 244.647 226.596 244.588C227.246 244.529 228.899 244.588 228.899 244.588C228.899 244.588 230.494 241.34 230.198 239.863C229.902 238.386 227.319 236.217 227.319 236.217Z" fill="#0E293A"/>
<path d="M226.568 242.996L224.563 281.632C224.553 281.83 224.593 282.027 224.679 282.205L229.102 291.335C229.561 292.284 230.941 292.195 231.275 291.195L234.482 281.59C234.539 281.418 234.556 281.236 234.531 281.056L229.235 242.829L226.568 242.996Z" fill="#0E293A"/>
<path d="M213.266 236.459C215.12 238.118 217.437 239.15 219.713 240.155C220.712 240.596 221.747 241.045 222.838 241.048C223.93 241.05 225.713 240.113 226.068 239.081" stroke="#0E293A" stroke-width="0.5" stroke-miterlimit="10" stroke-linecap="round" stroke-linejoin="round"/>
<path d="M228.79 238.186C228.933 239.34 230.015 240.211 231.157 240.429C232.299 240.647 233.477 240.337 234.559 239.912C235.875 239.396 237.124 238.707 238.263 237.869" stroke="#0E293A" stroke-width="0.5" stroke-miterlimit="10" stroke-linecap="round" stroke-linejoin="round"/>
<path d="M148.735 267.276C150.04 268.465 151.386 269.601 152.75 270.712C153.759 268.049 154.803 265.4 155.865 262.757C153.863 262.133 152.584 261.733 152.238 261.626C152.232 261.624 152.235 261.625 152.229 261.623C150.415 258.09 147.976 255.932 146.724 254.867C145.768 254.054 145.046 254.35 144.656 254.66C144.458 254.818 144.452 255.092 144.632 255.267C145.488 256.098 146.846 257.966 146.482 258.764C146.071 259.665 138.116 254.832 137.228 255.857C136.871 256.269 142.44 259.862 142.44 259.862C142.44 259.862 135.741 257.143 135.722 258.089C135.703 259.035 141.287 262.197 141.287 262.197C141.287 262.197 134.273 260.288 134.654 261.249C135.035 262.21 140.239 264.46 140.239 264.46C137.606 264.042 136.469 264.247 135.982 264.475C135.751 264.583 135.737 264.871 135.959 264.994C138.677 266.504 145.821 267.027 148.794 267.182L148.735 267.276Z" fill="#F2AE96"/>
<path d="M216.985 235.746C216.985 235.746 207.985 234.746 201.61 244.246C195.235 253.746 182.735 270.121 182.735 270.121L152.735 261.121C152.735 261.121 147.485 269.121 147.485 270.121C147.485 271.121 177.86 290.496 186.485 287.746C195.11 284.996 210.485 262.621 210.485 262.621L216.985 235.746Z" fill="white"/>
<path d="M205.235 269.829C205.235 269.829 211.902 258.412 211.902 258.746C211.902 259.08 206.819 280.913 206.819 280.913L205.235 269.829Z" fill="#0E293A"/>
<path d="M184.318 286.25C185.159 286.339 186.028 286.126 186.733 285.661" stroke="#0E293A" stroke-width="0.5" stroke-miterlimit="10" stroke-linecap="round" stroke-linejoin="round"/>
<path d="M152.735 261.121L186.652 271.246" stroke="#0E293A" stroke-width="0.5" stroke-miterlimit="10" stroke-linecap="round" stroke-linejoin="round"/>
<path d="M186.985 269.413L182.735 270.121" stroke="#0E293A" stroke-width="0.5" stroke-miterlimit="10" stroke-linecap="round" stroke-linejoin="round"/>
<path d="M209.807 238.26C211.25 239.41 212.349 240.986 212.931 242.736" stroke="#0E293A" stroke-width="0.5" stroke-miterlimit="10" stroke-linecap="round" stroke-linejoin="round"/>
<path d="M243.26 216.432C243.143 209.096 242.765 200.524 239.875 193.672C237.348 187.678 226.171 185.634 218.617 192.586C215.107 195.817 214.51 201.509 214.87 206.68C214.68 206.594 214.51 206.527 214.399 206.503C212.811 206.154 211.261 207.387 210.831 208.883C210.488 210.074 210.78 211.401 211.484 212.421C212.069 213.269 213.001 214.049 213.983 214.392C214.23 214.478 215.324 214.628 216.09 214.541C216.925 217.926 218.75 221.021 221.496 223.175C224.959 225.891 229.323 226.897 233.61 225.881C236.943 225.091 241.844 222.803 242.978 219.288C243.274 218.373 243.275 217.393 243.26 216.432Z" fill="#F2AE96"/>
<path d="M237.325 205.915C237.357 207.039 237.827 207.938 238.377 207.923C238.926 207.907 239.346 206.984 239.314 205.859C239.282 204.735 238.812 203.836 238.263 203.852C237.713 203.867 237.293 204.791 237.325 205.915Z" fill="#0E293A"/>
<path d="M230.703 206.101C230.735 207.225 230.315 208.149 229.766 208.164C229.217 208.18 228.746 207.281 228.714 206.157C228.682 205.033 229.102 204.109 229.651 204.093C230.2 204.078 230.671 204.977 230.703 206.101Z" fill="#0E293A"/>
<path d="M235.336 215.745C235.06 216.005 234.674 216.107 234.299 216.129C233.923 216.128 233.537 216.036 233.242 215.804C233.611 215.852 233.947 215.915 234.293 215.892C234.639 215.896 234.976 215.827 235.336 215.745Z" fill="#0E293A"/>
<path d="M234.849 213.057C234.849 213.801 234.623 214.404 234.344 214.404C234.065 214.404 233.839 213.801 233.839 213.057C233.839 212.313 234.065 211.71 234.344 211.71C234.623 211.71 234.849 212.313 234.849 213.057Z" fill="#0E293A"/>
<path d="M231.33 200.59C230.855 200.191 230.326 200.072 229.773 200.063C229.226 200.066 228.666 200.146 228.139 200.342C227.607 200.521 227.121 200.837 226.718 201.21C226.297 201.571 226.007 202.041 225.767 202.502C225.646 202.735 225.737 203.023 225.97 203.144C226.157 203.241 226.378 203.202 226.521 203.063L226.56 203.025C226.875 202.718 227.178 202.43 227.52 202.218C227.847 201.984 228.219 201.85 228.592 201.742C228.968 201.644 229.36 201.585 229.763 201.595C230.16 201.597 230.583 201.606 231.016 201.487L231.141 201.453C231.406 201.38 231.563 201.106 231.49 200.84C231.463 200.738 231.405 200.653 231.33 200.59Z" fill="#0E293A"/>
<path d="M236.3 198.261C236.752 197.836 237.274 197.687 237.825 197.647C238.371 197.619 238.935 197.667 239.472 197.834C240.013 197.983 240.517 198.271 240.94 198.621C241.381 198.958 241.697 199.41 241.962 199.857C242.096 200.083 242.022 200.375 241.795 200.509C241.614 200.616 241.391 200.59 241.24 200.459L241.199 200.423C240.867 200.134 240.548 199.864 240.195 199.671C239.855 199.455 239.476 199.343 239.098 199.256C238.717 199.179 238.322 199.143 237.92 199.175C237.524 199.2 237.102 199.232 236.663 199.138L236.536 199.111C236.267 199.053 236.095 198.788 236.153 198.519C236.176 198.417 236.228 198.328 236.3 198.261Z" fill="#0E293A"/>
<path d="M235.928 202.652C236.125 203.414 236.276 204.172 236.44 204.923C236.608 205.671 236.768 206.418 237.002 207.125C237.057 207.303 237.117 207.477 237.186 207.646C237.241 207.784 237.374 208.048 237.377 208.298C237.417 208.805 237.106 209.313 236.697 209.525C236.28 209.774 235.79 209.751 235.401 209.631C235.006 209.501 234.659 209.298 234.356 209.045C235.077 209.293 235.917 209.479 236.408 209.085C236.655 208.886 236.784 208.627 236.74 208.349C236.723 208.206 236.676 208.117 236.578 207.901C236.496 207.713 236.423 207.523 236.36 207.332C236.12 206.563 235.986 205.783 235.921 205.001C235.854 204.219 235.847 203.435 235.928 202.652Z" fill="#0E293A"/>
<path d="M212.02 209.76C211.995 209.293 212.11 208.772 212.512 208.398C212.94 208.027 213.565 208.042 214.043 208.207C214.551 208.367 214.973 208.7 215.308 209.077C215.651 209.458 215.905 209.874 216.115 210.355C216.19 210.527 216.112 210.727 215.94 210.802C215.81 210.859 215.665 210.828 215.569 210.736L215.546 210.714C215.206 210.387 214.78 210.04 214.384 209.94C214.186 209.894 214.04 209.905 213.907 210.006C213.769 210.11 213.667 210.324 213.58 210.544C213.419 210.995 213.329 211.52 213.716 211.716C214.122 211.932 214.705 211.86 215.225 211.777C214.738 212.007 214.199 212.204 213.576 212.046C213.259 211.953 212.999 211.603 212.97 211.282C212.931 210.961 212.969 210.667 213.041 210.378C213.118 210.093 213.228 209.788 213.499 209.533C213.774 209.272 214.216 209.2 214.534 209.289C215.183 209.465 215.629 209.825 216.045 210.246L215.476 210.605C215.142 209.834 214.608 209.038 213.858 208.693C213.483 208.527 213.043 208.449 212.699 208.656C212.34 208.855 212.132 209.31 212.02 209.76Z" fill="#3D1525"/>
<path d="M242.452 203.733C242.586 204.7 242.702 205.672 242.794 206.646C244.264 201.086 244.394 195.146 243.064 189.536C242.504 187.166 241.434 184.576 239.144 183.766C237.594 183.216 235.794 183.676 234.524 184.716C233.944 185.196 233.324 185.826 232.584 185.686C231.874 185.556 231.524 184.786 231.134 184.176C230.084 182.556 228.084 181.686 226.154 181.786C224.234 181.886 222.414 182.876 221.084 184.266C219.744 185.656 218.854 187.416 218.264 189.256C217.064 187.836 214.674 187.976 213.224 189.156C211.784 190.336 211.134 192.226 210.854 194.066C210.484 196.406 210.634 198.756 211.224 201.046C210.484 200.496 209.364 200.776 208.724 201.436C208.084 202.096 207.824 203.036 207.674 203.946C207.014 208.056 208.164 212.306 210.184 215.956C212.094 219.406 214.744 222.386 217.504 225.206C217.164 220.306 216.324 215.816 216.074 214.536C215.304 214.626 214.234 214.476 213.984 214.396C213.004 214.046 212.064 213.266 211.484 212.416C210.784 211.396 210.484 210.076 210.834 208.886C211.264 207.386 212.814 206.156 214.404 206.506C214.514 206.526 214.684 206.596 214.874 206.676C214.873 206.662 214.873 206.647 214.872 206.633C215.548 207.071 216.269 207.425 216.939 207.652C217.985 208.007 219.272 207.99 220.047 207.203C220.56 206.682 220.75 205.931 220.894 205.213C221.405 202.65 221.711 200.113 221.544 197.504C222.403 199.861 224.912 201.505 227.416 201.352C229.92 201.199 232.21 199.263 232.776 196.819C233.296 198.3 233.901 199.455 235.214 200.315C236.527 201.175 238.249 201.468 239.709 200.894C240.506 200.58 241.187 199.983 241.633 199.255C241.804 199.994 241.962 200.738 242.098 201.493C242.179 202.39 242.304 203.204 242.452 203.733Z" fill="#F16B5F"/>
<path d="M296.662 297.872C296.609 296.517 287.38 295.317 287.622 294.357C287.836 293.506 290.064 292.897 291.252 292.784C291.501 292.76 291.668 292.543 291.612 292.295C291.501 291.809 291.123 291.127 289.869 291.164C288.127 291.215 284.579 291.389 280.693 293.306C279.511 292.844 277.967 292.24 276.122 291.517C276.025 292.159 275.924 292.8 275.829 293.441C275.452 295.995 275.103 298.538 274.734 301.075C277.291 301.115 279.857 301.065 282.422 300.901L282.436 300.798C285.283 302.74 289.507 305.385 291.942 305.798C292.192 305.84 292.361 305.608 292.248 305.378C292.01 304.895 291.251 304.025 288.934 302.705C288.934 302.705 294.403 304.201 295.301 303.689C296.199 303.177 289.531 300.282 289.531 300.282C289.531 300.282 295.866 301.305 296.442 300.554C297.019 299.804 290.09 297.739 290.09 297.739C290.09 297.739 296.684 298.416 296.662 297.872Z" fill="#F2AE96"/>
<path d="M235.656 237.019C235.656 237.019 251.575 239.365 254.738 247.024C257.901 254.682 261.717 280.557 261.717 280.557L281.685 292.044C281.685 292.044 280.378 302.238 279.64 303.02C278.902 303.802 251.231 293.958 244.49 286.24C237.749 278.52 235.656 237.019 235.656 237.019Z" fill="white"/>
<path d="M259.735 293.288L248.277 285.58C248.277 285.58 245.277 258.163 245.277 258.288C245.277 258.413 250.569 285.08 250.569 285.08L259.735 293.288Z" fill="#0E293A"/>
<path d="M242.948 242.562C243.362 241.648 244.051 240.861 244.902 240.329" stroke="#0E293A" stroke-width="0.5" stroke-miterlimit="10" stroke-linecap="round" stroke-linejoin="round"/>
<path d="M272.959 312.808H230.526C229.4 312.808 228.488 311.895 228.488 310.77C228.488 309.644 229.401 308.732 230.526 308.732H272.959V312.808Z" fill="#0E293A"/>
<path d="M300.87 308.731H256.398L263.453 275.867C263.607 275.149 264.242 274.636 264.977 274.636H306.26C307.253 274.636 307.992 275.551 307.784 276.522L300.87 308.731Z" fill="#0E293A"/>
<path d="M298.808 312.808H256.375V308.732H300.847V310.77C300.847 311.895 299.934 312.808 298.808 312.808Z" fill="#0E293A"/>
<path d="M657.043 416.395H82.4358C81.8668 416.395 81.4058 415.948 81.4058 415.395C81.4058 414.842 81.8668 414.395 82.4358 414.395H657.043C657.612 414.395 658.073 414.842 658.073 415.395C658.073 415.948 657.612 416.395 657.043 416.395Z" fill="#048FA6"/>
</g>
<defs>
<clipPath id="clip0_1010_1839">
<rect width="750" height="500" fill="white"/>
</clipPath>
</defs>
</svg>
