<?xml version="1.0" encoding="utf-8"?>
<!-- Generator: Adobe Illustrator 27.5.0, SVG Export Plug-In . SVG Version: 6.00 Build 0)  -->
<svg version="1.1" id="Слой_1" xmlns="http://www.w3.org/2000/svg" xmlns:xlink="http://www.w3.org/1999/xlink" x="0px" y="0px"
	 viewBox="0 0 530 500" style="enable-background:new 0 0 530 500;" xml:space="preserve">
<g>
	<rect style="fill:#EAEAEB;" width="530" height="500"/>
	<g>
		<g>
			
				<linearGradient id="SVGID_1_" gradientUnits="userSpaceOnUse" x1="-12543.6035" y1="-158.1088" x2="-12449.5918" y2="-158.1088" gradientTransform="matrix(-0.9986 -0.0538 -0.0538 0.9986 -12341.7412 -317.9048)">
				<stop  offset="0.0052" style="stop-color:#3C6127"/>
				<stop  offset="1" style="stop-color:#639C38"/>
			</linearGradient>
			<path style="fill:url(#SVGID_1_);" d="M184.258,201.506c6.094,13.299,9.519,25.882,5.031,31.494
				c-0.265,0.332-0.554,0.637-0.868,0.914c-3.457,3.044-10.254,3.113-21.731-1.42c-30.543-12.065-31.993-32.888-38.17-53.221
				c-6.09-20.079-27.363-16.686-27.905-16.596C150.182,145.412,173.919,178.96,184.258,201.506z"/>
			<g>
				
					<linearGradient id="SVGID_00000097475557537744371790000007465412644697742006_" gradientUnits="userSpaceOnUse" x1="-4019.071" y1="3233.2698" x2="-4019.071" y2="3167.1643" gradientTransform="matrix(0.7495 -0.662 0.662 0.7495 1067.5205 -4842.9028)">
					<stop  offset="0.0052" style="stop-color:#3C6127"/>
					<stop  offset="1" style="stop-color:#639C38"/>
				</linearGradient>
				<path style="fill:url(#SVGID_00000097475557537744371790000007465412644697742006_);" d="M189.289,233
					c-0.265,0.332-0.554,0.637-0.868,0.914c-5.738-3.456-16.723-10.784-21.903-19.012c-2.443-3.883-4.496-8.248-6.675-12.865
					c-4.109-8.736-8.368-17.768-15.797-24.695l0.829-0.894c7.599,7.093,11.902,16.232,16.065,25.072
					c2.159,4.587,4.197,8.917,6.606,12.733C172.597,222.279,183.697,229.635,189.289,233z"/>
			</g>
		</g>
		<g>
			
				<linearGradient id="SVGID_00000147192952478969550840000006043090207687779518_" gradientUnits="userSpaceOnUse" x1="-12534.6064" y1="-186.4858" x2="-12490.1045" y2="-186.4858" gradientTransform="matrix(-0.9986 -0.0538 -0.0538 0.9986 -12341.7412 -317.9048)">
				<stop  offset="0.0052" style="stop-color:#3C6127"/>
				<stop  offset="1" style="stop-color:#639C38"/>
			</linearGradient>
			<path style="fill:url(#SVGID_00000147192952478969550840000006043090207687779518_);" d="M178.951,206.939
				c-0.359,0.885-0.592,1.385-0.617,1.441c-0.094-0.488-0.185-0.973-0.278-1.441c-4.075-20.878-9.523-23.059-25.861-41.321
				c-16.708-18.679-7.099-36.081-7.099-36.081C201.07,145.711,182.755,197.605,178.951,206.939z"/>
			<g>
				
					<linearGradient id="SVGID_00000165207395994309681410000003520295745076737691_" gradientUnits="userSpaceOnUse" x1="-2378.0793" y1="2735.9983" x2="-2378.0793" y2="2671.0886" gradientTransform="matrix(0.8707 -0.4917 0.4917 0.8707 908.6667 -3346.51)">
					<stop  offset="0.0052" style="stop-color:#3C6127"/>
					<stop  offset="1" style="stop-color:#639C38"/>
				</linearGradient>
				<path style="fill:url(#SVGID_00000165207395994309681410000003520295745076737691_);" d="M178.951,206.939
					c-0.359,0.885-0.592,1.385-0.617,1.441c-0.094-0.488-0.185-0.973-0.278-1.441c1.813-18.049-9.075-39.228-12.497-43.027
					c-3.54-3.936-5.722-9.348-6.545-11.387c-0.14-0.338-0.269-0.66-0.312-0.735l0.79-0.446c0.069,0.123,0.159,0.348,0.361,0.843
					c0.805,1.997,2.946,7.302,6.381,11.114C170.57,168.121,180.616,189.401,178.951,206.939z"/>
			</g>
		</g>
		<path style="fill:#F5F5F5;" d="M426.896,199.446H183.773c-7.725,0-13.987-6.263-13.987-13.987V112.78
			c0-7.726,6.262-13.987,13.987-13.987h243.123c7.724,0,13.985,6.262,13.985,13.987v72.679
			C440.881,193.184,434.619,199.446,426.896,199.446z"/>
		<rect x="183.982" y="317.107" style="fill:#FFFFFF;" width="101.642" height="3.398"/>
		
			<linearGradient id="SVGID_00000101798493532723514870000004430666290755571131_" gradientUnits="userSpaceOnUse" x1="296.5666" y1="302.9399" x2="151.454" y2="302.9399">
			<stop  offset="0" style="stop-color:#FFC05C"/>
			<stop  offset="1" style="stop-color:#FF3857"/>
		</linearGradient>
		
			<rect x="183.982" y="301.24" style="fill:url(#SVGID_00000101798493532723514870000004430666290755571131_);" width="75.486" height="3.399"/>
		
			<linearGradient id="SVGID_00000088849514737032127200000002124168683226558871_" gradientUnits="userSpaceOnUse" x1="296.5665" y1="310.873" x2="151.4543" y2="310.873">
			<stop  offset="0" style="stop-color:#FFC05C"/>
			<stop  offset="1" style="stop-color:#FF3857"/>
		</linearGradient>
		
			<rect x="183.982" y="309.173" style="fill:url(#SVGID_00000088849514737032127200000002124168683226558871_);" width="81.564" height="3.4"/>
		
			<linearGradient id="SVGID_00000175295289257920948060000016514335062834659456_" gradientUnits="userSpaceOnUse" x1="296.5661" y1="318.8066" x2="151.4544" y2="318.8066">
			<stop  offset="0" style="stop-color:#FFC05C"/>
			<stop  offset="1" style="stop-color:#FF3857"/>
		</linearGradient>
		
			<rect x="183.982" y="317.107" style="fill:url(#SVGID_00000175295289257920948060000016514335062834659456_);" width="52.924" height="3.398"/>
		<g>
			<path style="fill:#F5F5F5;" d="M281.773,360.898H132.169c-5.731,0-10.378-4.646-10.378-10.377V215.277
				c0-5.73,4.646-10.377,10.378-10.377h149.605c5.732,0,10.378,4.646,10.378,10.377v135.244
				C292.151,356.252,287.505,360.898,281.773,360.898z"/>
			<g>
				<g>
					<path style="fill:#78C3FF;" d="M184.929,252.152c3.452-9.652,0.336-20.057-7.036-26.328c-1.757-1.496-3.756-2.756-5.966-3.715
						c-0.487-0.211-0.986-0.408-1.494-0.59c-5.102-1.824-10.412-1.814-15.212-0.313c-6.926,2.169-12.789,7.446-15.422,14.807
						c-0.869,2.43-1.321,4.906-1.395,7.354c-0.304,10.104,5.857,19.692,15.89,23.28
						C166.756,271.103,180.471,264.615,184.929,252.152z M156.313,261c-7.522-2.69-12.142-9.879-11.914-17.454
						c0.056-1.834,0.395-3.69,1.047-5.513c1.973-5.52,6.369-9.476,11.563-11.102c3.598-1.125,7.58-1.133,11.404,0.234
						c0.381,0.137,0.755,0.285,1.12,0.443c1.657,0.719,3.156,1.664,4.474,2.785c5.526,4.701,7.862,12.502,5.274,19.739
						C175.939,259.477,165.656,264.342,156.313,261z"/>
				</g>
				<g>
					<path style="fill:#1173C2;" d="M157.009,226.932l-1.788-5.725c-6.926,2.169-12.789,7.446-15.422,14.807
						c-0.869,2.43-1.321,4.906-1.395,7.354l5.995,0.179c0.056-1.834,0.395-3.69,1.047-5.513
						C147.419,232.514,151.815,228.558,157.009,226.932z"/>
				</g>
				<g>
					<path style="fill:#1487E3;" d="M169.533,227.609l2.394-5.5c-0.487-0.211-0.986-0.408-1.494-0.59
						c-5.102-1.824-10.412-1.814-15.212-0.313l1.788,5.725c3.598-1.125,7.58-1.133,11.404,0.234
						C168.794,227.303,169.168,227.451,169.533,227.609z"/>
				</g>
				<g>
					<path style="fill:#4AAFFF;" d="M177.893,225.824c-1.757-1.496-3.756-2.756-5.966-3.715l-2.394,5.5
						c1.657,0.719,3.156,1.664,4.474,2.785L177.893,225.824z"/>
				</g>
			</g>
			<g>
				<rect x="252.885" y="300.802" style="fill:#4AAFFF;" width="8.317" height="28.485"/>
			</g>
			<g>
				<rect x="240.521" y="308.791" style="fill:#4AAFFF;" width="8.317" height="20.496"/>
			</g>
			<g>
				<rect x="264.879" y="287.6" style="fill:#4AAFFF;" width="8.316" height="41.688"/>
			</g>
			<g>
				<polygon style="fill:#4AAFFF;" points="271.854,266.773 271.707,265.874 249.76,269.469 242.645,284.633 218.982,286.24 
					211.317,297.546 193.226,297.098 193.204,298.008 211.792,298.47 219.487,287.118 243.242,285.506 250.381,270.29 				"/>
			</g>
			<path style="fill:#1487E3;" d="M245.033,228.814h23.65c1.493,0,2.703-1.211,2.703-2.703l0,0c0-1.494-1.21-2.704-2.703-2.704
				h-23.65c-1.493,0-2.704,1.21-2.704,2.704l0,0C242.33,227.604,243.54,228.814,245.033,228.814z"/>
			<path style="fill:#4AAFFF;" d="M245.033,238.247h23.65c1.493,0,2.703-1.21,2.703-2.703l0,0c0-1.493-1.21-2.704-2.703-2.704
				h-23.65c-1.493,0-2.704,1.211-2.704,2.704l0,0C242.33,237.037,243.54,238.247,245.033,238.247z"/>
			<path style="fill:#4AAFFF;" d="M245.033,247.68h23.65c1.493,0,2.703-1.211,2.703-2.703l0,0c0-1.494-1.21-2.704-2.703-2.704
				h-23.65c-1.493,0-2.704,1.21-2.704,2.704l0,0C242.33,246.469,243.54,247.68,245.033,247.68z"/>
			<g>
				<polygon style="fill:#4AAFFF;" points="202.222,233.49 188.694,233.49 188.694,232.972 202.007,232.972 209.129,225.85 
					217.852,225.85 217.852,226.369 209.344,226.369 				"/>
			</g>
			<g>
				<polygon style="fill:#4AAFFF;" points="215.042,257.119 197.634,257.119 191.993,251.479 192.36,251.111 197.849,256.601 
					215.042,256.601 				"/>
			</g>
			<rect x="210.416" y="229.287" style="fill:#1487E3;" width="18.044" height="2.214"/>
			<rect x="204.913" y="251.863" style="fill:#1487E3;" width="14.525" height="2.215"/>
		</g>
		<g>
			
				<linearGradient id="SVGID_00000160181737554906275680000000985978645727089309_" gradientUnits="userSpaceOnUse" x1="79.0426" y1="332.1338" x2="131.7617" y2="332.1338">
				<stop  offset="0" style="stop-color:#40D5E6"/>
				<stop  offset="1" style="stop-color:#5577FF"/>
			</linearGradient>
			<path style="fill:url(#SVGID_00000160181737554906275680000000985978645727089309_);" d="M83.649,262.471
				c4.545-2.174,9.07,12.297,9.07,12.297c7.727,10.211,18.524-3.373,17.468,11.891c-1.848,26.705,30.74,8.398,15.706,36.279
				c-15.034,27.882,13.274,15.766,3.932,38.248c-9.343,22.483,2.767,49.297-11.291,38.277c0,0-12.378-27.145-25.143-35.541
				c-12.765-8.398,7.647-18.363,3.654-29.771c-5.801-16.567-19.778-15.917-9.701-33.721
				C97.422,282.627,68.196,269.861,83.649,262.471z"/>
			<g>
				<path style="fill:#FFFFFF;" d="M122.985,389.248c-6.093-4.285-13.225-34.15-13.65-51.938
					c-0.219-9.111-2.912-12.907-5.288-16.256c-2.271-3.202-4.233-5.967-3.09-12.314c2.184-12.133-3.558-17.37-3.616-17.421
					l0.664-0.758c0.256,0.224,6.235,5.626,3.943,18.357c-1.067,5.933,0.692,8.412,2.92,11.553c2.338,3.296,5.248,7.396,5.473,16.816
					c0.456,19.089,7.747,47.285,13.223,51.136L122.985,389.248z"/>
			</g>
			<g>
				
					<linearGradient id="SVGID_00000171000981963236541980000015725817063743040940_" gradientUnits="userSpaceOnUse" x1="117.716" y1="361.5516" x2="165.3909" y2="361.5516">
					<stop  offset="0" style="stop-color:#40D5E6"/>
					<stop  offset="1" style="stop-color:#5577FF"/>
				</linearGradient>
				<path style="fill:url(#SVGID_00000171000981963236541980000015725817063743040940_);" d="M125.265,391.462
					c-0.786,0-1.64-0.091-2.576-0.28c-2.349-0.475-3.889-1.713-4.577-3.683c-1.643-4.697,2.164-12.329,5.253-16.008
					c0.051-0.062,5.222-6.38,4.67-15.139c-0.092-1.468-0.245-2.827-0.379-4.025c-0.389-3.467-0.669-5.972,0.82-7.643
					c1.312-1.475,3.844-2.113,8.468-2.135c8.109-0.037,11.316-3.395,13.893-6.093c1.094-1.146,2.128-2.228,3.383-2.913l0,0
					c4.042-2.207,8.322-2.531,10.179-0.771c0.882,0.836,1.626,2.473,0.165,5.525c-1.335,2.791-3.066,4.559-4.457,5.977
					c-1.872,1.91-3.108,3.172-2.465,5.688c0.151,0.59,0.326,1.186,0.501,1.785c1.25,4.275,2.667,9.121-4.651,12.41
					c-1.553,0.698-2.968,1.253-4.216,1.743c-5.108,2.005-8.192,3.216-11.673,10.563c-0.673,1.422-1.269,2.771-1.843,4.073
					C133.014,386.758,130.937,391.461,125.265,391.462z M154.703,334.428c-1.118,0.609-2.054,1.59-3.138,2.725
					c-2.708,2.836-6.079,6.365-14.617,6.405c-4.251,0.02-6.633,0.573-7.72,1.796c-1.19,1.338-0.931,3.654-0.571,6.861
					c0.136,1.211,0.289,2.582,0.383,4.074c0.578,9.172-4.679,15.581-4.903,15.85c-3.058,3.641-6.521,10.889-5.074,15.027
					c0.563,1.61,1.85,2.629,3.826,3.028c6.892,1.393,8.795-2.919,11.947-10.064c0.578-1.31,1.176-2.665,1.855-4.099
					c3.652-7.709,7.059-9.047,12.216-11.07c1.238-0.485,2.641-1.035,4.171-1.723c6.518-2.93,5.342-6.953,4.097-11.211
					c-0.178-0.608-0.355-1.216-0.509-1.816c-0.784-3.065,0.763-4.645,2.721-6.643c1.409-1.438,3.005-3.066,4.268-5.706
					c0.662-1.384,1.208-3.263,0.05-4.359C162.183,332.06,158.311,332.456,154.703,334.428L154.703,334.428z"/>
			</g>
			<g>
				
					<linearGradient id="SVGID_00000060008072043622608540000002230304628822001554_" gradientUnits="userSpaceOnUse" x1="121.791" y1="368.4844" x2="157.5742" y2="368.4844">
					<stop  offset="0" style="stop-color:#40D5E6"/>
					<stop  offset="1" style="stop-color:#5577FF"/>
				</linearGradient>
				<path style="fill:url(#SVGID_00000060008072043622608540000002230304628822001554_);" d="M122.797,397.279l-1.006-0.053
					c0.05-0.946,1.319-23.232,10.268-29.756c9.817-7.155,12.913-14.846,14.387-20.008c1.737-6.082,10.579-7.707,10.954-7.773
					l0.175,0.992c-0.085,0.016-8.596,1.583-10.16,7.059c-1.515,5.305-4.694,13.207-14.762,20.545
					C124.088,374.528,122.81,397.053,122.797,397.279z"/>
			</g>
			
				<linearGradient id="SVGID_00000081649390831163005320000017212853929178357409_" gradientUnits="userSpaceOnUse" x1="108.8695" y1="339.6886" x2="150.5424" y2="339.6886">
				<stop  offset="0" style="stop-color:#40D5E6"/>
				<stop  offset="1" style="stop-color:#5577FF"/>
			</linearGradient>
			<path style="fill:url(#SVGID_00000081649390831163005320000017212853929178357409_);" d="M143.258,284.961
				c-6.361-2.18-5.039,10.078-7.727,19.15c-2.688,9.069-29.898,3.956-18.476,26.668c11.421,22.713-14.445,7.597-6.719,27.417
				c7.727,19.818,0.672,41.017,9.07,35.624c8.398-5.392,4.718-30.35,13.452-33.315c8.734-2.966,10.159-6.426,1.511-14.487
				c-8.647-8.061,22.661-16.065,14.934-32.346C141.578,297.392,150.605,287.481,143.258,284.961z"/>
			<g>
				<path style="fill:#FFFFFF;" d="M123.303,392.869c-0.8-3.393-7.63-33.252-1.257-36.861c5.618-3.181,5.479-15.554,4.603-27.238
					c-0.775-10.342,12.507-15.176,13.073-15.377l0.337,0.95c-0.131,0.046-13.123,4.779-12.405,14.353
					c0.9,11.999,0.997,24.73-5.111,28.189c-4.84,2.742-0.384,26.738,1.742,35.754L123.303,392.869z"/>
			</g>
			
				<linearGradient id="SVGID_00000124146727588760358070000012708741839298671538_" gradientUnits="userSpaceOnUse" x1="99.3066" y1="399.4634" x2="137.7617" y2="399.4634">
				<stop  offset="0" style="stop-color:#FF9340"/>
				<stop  offset="1" style="stop-color:#FFCE45"/>
			</linearGradient>
			<polygon style="fill:url(#SVGID_00000124146727588760358070000012708741839298671538_);" points="137.762,382.238 
				128.681,416.689 108.387,416.689 99.307,382.238 			"/>
			
				<linearGradient id="SVGID_00000003065483852661269280000014714495503069379735_" gradientUnits="userSpaceOnUse" x1="99.3066" y1="399.4634" x2="137.7617" y2="399.4634">
				<stop  offset="0" style="stop-color:#C97332"/>
				<stop  offset="1" style="stop-color:#FFCE45"/>
			</linearGradient>
			<path style="fill:url(#SVGID_00000003065483852661269280000014714495503069379735_);" d="M137.762,382.238
				c0,0-19.992,3.752-19.992,34.45h-9.383l-9.081-34.45H137.762z"/>
		</g>
		<g>
			<polygon style="fill:#B8D6FF;" points="192.665,85.092 192.665,88.014 164.184,88.014 164.184,116.495 161.261,116.495 
				161.261,85.092 			"/>
		</g>
		<rect x="427.265" y="76.579" style="fill:#B8D6FF;" width="23.183" height="1.624"/>
		<rect x="427.265" y="79.641" style="fill:#B8D6FF;" width="23.183" height="6.834"/>
		<rect x="411.366" y="82.24" style="fill:#B8D6FF;" width="13.676" height="1.021"/>
		<rect x="411.366" y="83.709" style="fill:#B8D6FF;" width="13.676" height="2.766"/>
		<rect x="449.936" y="76.579" style="fill:#B8D6FF;" width="1.02" height="19.143"/>
		<g>
			<g>
				<rect x="165.943" y="337.483" style="fill:#E2D2CA;" width="28.609" height="1.698"/>
			</g>
			<g>
				
					<rect x="169.777" y="343.602" transform="matrix(-1 -1.224647e-16 1.224647e-16 -1 342.0611 764.4366)" style="fill:#706865;" width="2.507" height="77.233"/>
			</g>
			<g>
				<rect x="190.074" y="337.002" style="fill:#CCBDB7;" width="19.886" height="2.426"/>
			</g>
			<g>
				<rect x="196.252" y="316.31" style="fill:#998E89;" width="7.53" height="22.872"/>
			</g>
			<g>
				<rect x="155.681" y="339.211" style="fill:#B59074;" width="110.179" height="4.391"/>
			</g>
			<g>
				<path style="fill:#FFB555;" d="M134.535,312.631c0,0-1.206,16.898,2.097,18.922c2.068,1.267,10.316,5.54,10.071,6.342
					c-0.245,0.801-4.657,7.131-4.657,7.131s-15.842-10.434-16.353-13.721c-0.499-3.211,0.78-24.743,2.957-25.735
					c1.631-0.743,2.492-0.129,4.547,1.397C136.082,309.109,134.535,312.631,134.535,312.631z"/>
			</g>
			<g>
				<g>
					<g>
						<path style="fill:#424773;" d="M154.025,410.289c0,0-0.492,3.42-0.554,3.934c-0.062,0.514-5.48-0.303-5.48-0.303l-0.439-4.071
							C147.552,409.849,153.348,409.808,154.025,410.289z"/>
					</g>
				</g>
			</g>
			<g>
				<g>
					<g>
						<path style="fill:#292C47;" d="M153.529,413.787c0,0,1.717,2.061,3.377,2.959c1.661,0.898,4.27,1.254,5.251,2.184
							c0.708,0.67,2.581,3.56-4.315,3.502c-6.896-0.059-10.221,0.408-10.96-0.7c-0.739-1.108,1.069-8.175,1.069-8.175
							S149.585,414.145,153.529,413.787z"/>
					</g>
				</g>
			</g>
			<g>
				<g>
					<g>
						<path style="fill:#424773;" d="M188.741,410.322c0,0-0.493,3.419-0.555,3.933c-0.061,0.514-5.48-0.303-5.48-0.303
							l-0.439-4.071C182.268,409.881,188.064,409.84,188.741,410.322z"/>
					</g>
				</g>
			</g>
			<g>
				<g>
					<g>
						<path style="fill:#292C47;" d="M188.244,413.82c0,0,1.717,2.061,3.378,2.957c1.661,0.898,7.771,1.637,8.753,2.566
							c0.708,0.671,1.887,3.373-7.816,3.119c-6.894-0.178-10.221,0.409-10.96-0.699c-0.739-1.107,1.069-8.175,1.069-8.175
							S184.206,414.217,188.244,413.82z"/>
					</g>
				</g>
			</g>
			<g>
				<g>
					<g>
						<path style="fill:#292C47;" d="M136.549,351.225c0,0,19.699,3.333,24.149,4.031c4.449,0.699,28.574,6.703,31.591,8.531
							c2.401,1.457-1.26,36.428-2.115,49.77h-9.502l-0.689-40.022c-11.402,0.284-19.539-2.667-27.843-1.406
							c-8.303,1.261-15.227,3.054-20.502-4.024C131.637,368.103,131.441,352.772,136.549,351.225z"/>
					</g>
				</g>
			</g>
			<g>
				<g>
					<g>
						<path style="fill:#292C47;" d="M155.965,413.589l-9.26-0.573l-0.902-39.481c-4.909,0.122-6.591-0.189-10.563-0.671
							l-7.477-17.379c6.552,1.31,27.546,6.605,30.346,8.303C160.51,365.244,156.821,400.246,155.965,413.589z"/>
					</g>
				</g>
			</g>
			<g>
				<g>
					<g>
						<path style="fill:#EEA886;" d="M145.617,277.384c0,0,7.222-1.997,9.977,3.61c2.755,5.605,1.506,16.232-2.134,17.232
							c-3.64,1-8.873-0.151-10.384-3.641c-1.51-3.488-2.716-8.447-2.354-11.657C141.083,279.719,143.7,278.15,145.617,277.384z"/>
					</g>
				</g>
			</g>
			<g>
				<g>
					<g>
						<path style="fill:#EEA886;" d="M151.573,297.107c0,0-0.079,4.264,0.391,5.174c0.471,0.908-10.055,0.681-10.055,0.681
							s1.659-5.12,0.718-9.481C141.694,289.163,151.573,297.107,151.573,297.107z"/>
					</g>
				</g>
			</g>
			<g>
				<g>
					<g>
						<path style="fill:#3A3F47;" d="M142.059,291.865c0,0,0.563,1.145,3.287,0.959c2.725-0.184,6.318-3.471,7.475-3.765
							c1.157-0.293,1.225-0.951,1.225-0.951l0.612,1.087l1.185,0.182c0,0-0.805-3.295,0.95-4.455
							c1.754-1.16-0.79-10.502-9.674-8.248c0,0-6.78,1.241-6.871,5.027C140.156,285.486,140.743,289.859,142.059,291.865z"/>
					</g>
				</g>
			</g>
			<g>
				<g>
					<g>
						<path style="fill:#E2D2CA;" d="M152.517,302.172c0,0-0.029-1.736-0.817-1.904c-0.787-0.166-8.274-1.195-9.24-0.816
							l-0.415,2.293C142.046,301.744,143.908,302.891,152.517,302.172z"/>
					</g>
				</g>
			</g>
			<g>
				<g>
					<g>
						<path style="fill:#EEA886;" d="M154.684,287.332c-0.202-1.424-1.82-3.059-2.747-0.842c-0.927,2.217,0.626,5.445,1.666,5.272
							C154.642,291.59,154.958,289.263,154.684,287.332z"/>
					</g>
				</g>
			</g>
			<g>
				<g>
					<g>
						<path style="fill:#323657;" d="M183.876,322.69c-0.004-0.002-0.008-0.002-0.013-0.002
							C183.917,322.711,183.924,322.714,183.876,322.69z"/>
					</g>
				</g>
			</g>
			<g>
				<g>
					<g>
						<path style="fill:#3A3F47;" d="M143.511,278.4c0,0-8.805-0.414-1.537,13.33L143.511,278.4z"/>
					</g>
				</g>
			</g>
			<g>
				<g>
					<polygon style="fill:#918783;" points="123.893,418.272 124.547,420.115 152.223,411.539 150.896,407.808 					"/>
				</g>
			</g>
			<g>
				<g>
					<rect x="150.026" y="380.138" style="fill:#918783;" width="3.145" height="30.089"/>
				</g>
			</g>
			<g>
				<g>
					<rect x="142.323" y="378.539" style="fill:#5E5854;" width="18.553" height="1.773"/>
				</g>
			</g>
			<g>
				<g>
					<polygon style="fill:#918783;" points="179.549,418.272 178.894,420.115 151.219,411.539 152.436,407.574 					"/>
				</g>
			</g>
			<g>
				<g>
					<polygon style="fill:#918783;" points="160.05,419.917 160.05,422.06 151.219,411.539 152.436,407.574 					"/>
				</g>
			</g>
			<g>
				<g>
					<path style="fill:#BFB2AC;" d="M182.135,420.835c0,1.428-1.158,2.586-2.587,2.586c-1.428,0-2.586-1.158-2.586-2.586
						c0-1.429,1.158-2.587,2.586-2.587C180.977,418.248,182.135,419.406,182.135,420.835z"/>
				</g>
			</g>
			<g>
				<g>
					<path style="fill:#BFB2AC;" d="M160.27,420.835c0,1.428-1.158,2.586-2.586,2.586c-1.429,0-2.586-1.158-2.586-2.586
						c0-1.429,1.158-2.587,2.586-2.587C159.112,418.248,160.27,419.406,160.27,420.835z"/>
				</g>
			</g>
			<g>
				<g>
					<path style="fill:#BFB2AC;" d="M126.479,420.835c0,1.428-1.158,2.586-2.586,2.586c-1.429,0-2.586-1.158-2.586-2.586
						c0-1.429,1.158-2.587,2.586-2.587C125.321,418.248,126.479,419.406,126.479,420.835z"/>
				</g>
			</g>
			<g>
				<path style="fill:#E2D2CA;" d="M170.382,378.539H133.06c-1.831,0-3.315-1.484-3.315-3.315v-0.085
					c0-1.831,1.484-3.315,3.315-3.315h37.322c1.831,0,3.315,1.483,3.315,3.315v0.085
					C173.697,377.055,172.213,378.539,170.382,378.539z"/>
			</g>
			<g>
				<rect x="249.256" y="343.602" style="fill:#706865;" width="2.507" height="77.233"/>
			</g>
			<g>
				<path style="fill:#B8ABA5;" d="M229.222,327.328h-58.409c-1.827,0-3.308-1.481-3.308-3.308v-39.257
					c0-1.826,1.481-3.307,3.308-3.307h58.409c1.827,0,3.307,1.48,3.307,3.307v39.257
					C232.529,325.847,231.049,327.328,229.222,327.328z"/>
			</g>
			<g>
				<rect x="170.052" y="283.935" style="fill:#F5F7FF;" width="59.931" height="36.204"/>
			</g>
			<g>
				<path style="fill:#918681;" d="M227.319,323.555c0,1.029-1.082,1.863-2.416,1.863s-2.415-0.834-2.415-1.863
					c0-1.029,1.081-1.864,2.415-1.864S227.319,322.525,227.319,323.555z"/>
			</g>
			<g>
				<path style="fill:#998E89;" d="M213.479,339.27v-0.816c0,0-1.148-5.078-9.265-5.078c-8.117,0-7.953,5.895-7.953,5.895H213.479z"
					/>
			</g>
			<g>
				<g>
					<path style="fill:#EEA886;" d="M196.162,334.13c0,0,1.763-0.137,2.409-0.527c0.646-0.39,4.512-2.989,5.419-2.573
						c0.908,0.416,6.95,2.268,6.74,3.15c-0.21,0.885-0.769,0.799-1.195,0.643c-0.426-0.156-4.814-1.077-5.201-0.922
						c0,0,4.309,1.572,4.327,2.719c0.017,1.147-0.902,1.428-1.311,1.861c-0.409,0.434-0.899,1.512-2.01,1.593
						c-1.111,0.084-6.53-1.803-7.646-1.888c-1.115-0.087-3.18,0.068-3.32-0.113C194.235,337.891,196.162,334.13,196.162,334.13z"/>
				</g>
			</g>
			<g>
				<g>
					<g>
						<path style="fill:#FFB555;" d="M164.058,304.578c-5.623-0.988-11.541-2.407-11.541-2.407l-10.472-0.427
							c0,0-9.61,2.116-13.395,3.825c-0.359,0.163-0.36,8.573-1.346,10.78l3.138,6.619c0,0,1.813,13.113,2.189,18.945
							c0.173,2.678-0.488,25.877-0.488,25.877s0.94,0.463,8.087,1.251c7.146,0.788,25.003-0.284,25.116-1.128
							c0.112-0.845-3.459-31.432-3.616-33.016c-0.243-2.432,0.702-13.665,0.702-13.665c1.347,1.809,4.779,9.978,8.357,13.864
							c2.105,2.285,12.527,3.688,14.491,3.752c4.276,0.143,12.077,0.994,12.305,0.579c0.182-0.25,0.679-6.925,0.19-7.088
							c-0.428-0.143-14.913-0.976-18.625-2.944c-1.357-0.721-5.416-9.57-5.416-9.57S167.16,305.972,164.058,304.578z"/>
					</g>
				</g>
			</g>
			<g>
				<path style="fill:#E2D2CA;" d="M143.421,367.119h-17.579c-3.516,0-6.365-2.85-6.365-6.365v-29.248
					c0-3.516,2.85-6.367,6.365-6.367h17.579c3.516,0,6.366,2.852,6.366,6.367v29.248
					C149.788,364.27,146.938,367.119,143.421,367.119z"/>
			</g>
			<g>
				<path style="fill:#E2D2CA;" d="M144.417,376.868c-4.468,0-8.093-1.501-10.774-4.462c-6.059-6.69-4.971-18.449-4.921-18.945
					c0.092-0.928,0.919-1.605,1.844-1.513c0.927,0.093,1.603,0.917,1.512,1.844c-0.014,0.134-0.979,10.794,4.071,16.358
					c2.042,2.25,4.747,3.345,8.268,3.345c0.931,0,1.686,0.755,1.686,1.687C146.102,376.112,145.348,376.868,144.417,376.868z"/>
			</g>
			<g>
				<g>
					<g>
						<path style="fill:#DFE1E8;" d="M191.382,288.732h-16.607c-0.262,0-0.474-0.213-0.474-0.475v-0.965
							c0-0.262,0.212-0.474,0.474-0.474h16.607c0.262,0,0.474,0.212,0.474,0.474v0.965
							C191.856,288.52,191.644,288.732,191.382,288.732z"/>
					</g>
				</g>
			</g>
			<g>
				<g>
					<g>
						<path style="fill:#DFE1E8;" d="M191.382,292.834h-16.607c-0.262,0-0.474-0.211-0.474-0.473v-0.965
							c0-0.262,0.212-0.475,0.474-0.475h16.607c0.262,0,0.474,0.213,0.474,0.475v0.965
							C191.856,292.623,191.644,292.834,191.382,292.834z"/>
					</g>
				</g>
			</g>
			<g>
				<g>
					<g>
						<path style="fill:#DFE1E8;" d="M190.262,317.256h-14.367c-0.881,0-1.594-0.714-1.594-1.595v-18.44
							c0-0.879,0.713-1.594,1.594-1.594h14.367c0.88,0,1.594,0.715,1.594,1.594v18.44
							C191.856,316.542,191.142,317.256,190.262,317.256z"/>
					</g>
				</g>
			</g>
			<g>
				<g>
					<g>
						<path style="fill:#DFE1E8;" d="M224.139,317.256h-26.215c-1.394,0-2.523-1.13-2.523-2.523v-25.389
							c0-1.395,1.129-2.525,2.523-2.525h26.215c1.393,0,2.524,1.13,2.524,2.525v25.389
							C226.663,316.126,225.533,317.256,224.139,317.256z"/>
					</g>
				</g>
			</g>
		</g>
		<g>
			<g>
				<g>
					<path style="fill:#4AAFFF;" d="M250.702,139.679c-5.271-14.739-19.358-23.793-34.205-23.347
						c-3.594,0.109-7.233,0.773-10.803,2.051c-10.814,3.867-18.569,12.482-21.755,22.658c-2.208,7.053-2.222,14.855,0.459,22.35
						c0.267,0.746,0.556,1.48,0.867,2.195c1.411,3.247,3.26,6.184,5.458,8.766c9.213,10.832,24.502,15.409,38.684,10.338
						C247.717,178.14,257.25,157.988,250.702,139.679z M226.439,176.391c-10.633,3.804-22.095,0.371-29.003-7.748
						c-1.646-1.936-3.035-4.139-4.091-6.572c-0.233-0.537-0.451-1.088-0.651-1.646c-2.01-5.619-1.998-11.47-0.343-16.757
						c2.389-7.63,8.202-14.089,16.309-16.987c2.676-0.958,5.405-1.455,8.1-1.539c11.13-0.335,21.693,6.453,25.646,17.504
						C247.315,156.373,240.167,171.48,226.439,176.391z"/>
				</g>
			</g>
			<g>
				<g>
					<path style="fill:#1A598C;" d="M192.351,143.667l-8.412-2.626c3.186-10.177,10.941-18.791,21.755-22.658
						c3.57-1.277,7.21-1.941,10.803-2.051l0.263,8.809c-2.694,0.084-5.423,0.581-8.1,1.539
						C200.553,129.578,194.74,136.037,192.351,143.667z"/>
				</g>
			</g>
			<g>
				<g>
					<path style="fill:#2273B5;" d="M193.345,162.07l-8.081,3.516c-0.311-0.716-0.6-1.449-0.867-2.195
						c-2.681-7.494-2.667-15.297-0.459-22.35l8.412,2.626c-1.655,5.287-1.667,11.138,0.343,16.757
						C192.895,160.982,193.112,161.533,193.345,162.07z"/>
				</g>
			</g>
			<g>
				<g>
					<path style="fill:#3788CC;" d="M190.723,174.352c-2.198-2.582-4.047-5.519-5.458-8.766l8.081-3.516
						c1.056,2.434,2.445,4.637,4.091,6.572L190.723,174.352z"/>
				</g>
			</g>
		</g>
		<g>
			<g>
				<g>
					<rect x="264.623" y="141.83" style="fill:#E0E0E0;" width="6.234" height="44.408"/>
				</g>
				<g>
					<rect x="280.103" y="150.854" style="fill:#E0E0E0;" width="6.235" height="35.385"/>
				</g>
				<g>
					<rect x="295.585" y="144.215" style="fill:#E0E0E0;" width="6.234" height="42.023"/>
				</g>
				<g>
					<rect x="311.065" y="157.323" style="fill:#E0E0E0;" width="6.235" height="28.915"/>
				</g>
				<g>
					<rect x="326.546" y="145.576" style="fill:#E0E0E0;" width="6.234" height="40.662"/>
				</g>
				<g>
					<rect x="342.026" y="139.447" style="fill:#E0E0E0;" width="6.234" height="46.791"/>
				</g>
				<g>
					<rect x="357.507" y="136.893" style="fill:#E0E0E0;" width="6.234" height="49.346"/>
				</g>
				<g>
					<rect x="264.623" y="158.378" style="fill:#FF6559;" width="6.234" height="27.86"/>
				</g>
				<g>
					<rect x="280.103" y="164.039" style="fill:#FF6559;" width="6.235" height="22.199"/>
				</g>
				<g>
					<rect x="295.585" y="159.873" style="fill:#FF6559;" width="6.234" height="26.365"/>
				</g>
				<g>
					<rect x="311.065" y="168.098" style="fill:#FF6559;" width="6.235" height="18.141"/>
				</g>
				<g>
					<rect x="326.546" y="160.727" style="fill:#FF6559;" width="6.234" height="25.511"/>
				</g>
				<g>
					<rect x="342.026" y="156.883" style="fill:#FF6559;" width="6.234" height="29.355"/>
				</g>
				<g>
					<rect x="357.507" y="155.28" style="fill:#FF6559;" width="6.234" height="30.958"/>
				</g>
			</g>
			<g>
				<rect x="374.588" y="141.83" style="fill:#E0E0E0;" width="6.235" height="44.408"/>
			</g>
			<g>
				<rect x="390.068" y="150.854" style="fill:#E0E0E0;" width="6.234" height="35.385"/>
			</g>
			<g>
				<rect x="405.549" y="144.215" style="fill:#E0E0E0;" width="6.235" height="42.023"/>
			</g>
			<g>
				<rect x="421.03" y="157.323" style="fill:#E0E0E0;" width="6.234" height="28.915"/>
			</g>
			<g>
				<rect x="374.588" y="158.378" style="fill:#FF6559;" width="6.235" height="27.86"/>
			</g>
			<g>
				<rect x="390.068" y="164.039" style="fill:#FF6559;" width="6.234" height="22.199"/>
			</g>
			<g>
				<rect x="405.549" y="159.873" style="fill:#FF6559;" width="6.235" height="26.365"/>
			</g>
			<g>
				<rect x="421.03" y="168.098" style="fill:#FF6559;" width="6.234" height="18.141"/>
			</g>
		</g>
		<path style="fill:#4AAFFF;" d="M263.216,119.897h161.996c1.133,0,2.053-0.919,2.053-2.053v-2.237c0-1.134-0.92-2.053-2.053-2.053
			H263.216c-1.133,0-2.052,0.919-2.052,2.053v2.237C261.164,118.979,262.083,119.897,263.216,119.897z"/>
		<path style="fill:#B8D6FF;" d="M263.216,130.963h161.996c1.133,0,2.053-0.92,2.053-2.053v-2.238c0-1.133-0.92-2.053-2.053-2.053
			H263.216c-1.133,0-2.052,0.92-2.052,2.053v2.238C261.164,130.043,262.083,130.963,263.216,130.963z"/>
		<g>
			<path style="fill:#F5F5F5;" d="M364.689,333.375h-62.571c-3.607,0-6.532-2.924-6.532-6.533V211.547
				c0-3.607,2.925-6.533,6.532-6.533h62.571c3.607,0,6.532,2.926,6.532,6.533v115.295
				C371.221,330.451,368.296,333.375,364.689,333.375z"/>
		</g>
		<g>
			<g>
				<rect x="300.853" y="281.578" style="fill:#4AAFFF;" width="0.331" height="42.433"/>
			</g>
			<g>
				<rect x="316.94" y="281.578" style="fill:#4AAFFF;" width="0.33" height="42.433"/>
			</g>
			<g>
				<rect x="333.026" y="281.578" style="fill:#4AAFFF;" width="0.33" height="42.433"/>
			</g>
			<g>
				<rect x="349.112" y="281.578" style="fill:#4AAFFF;" width="0.331" height="42.433"/>
			</g>
			<g>
				<rect x="365.198" y="281.578" style="fill:#4AAFFF;" width="0.331" height="42.433"/>
			</g>
		</g>
		
			<linearGradient id="SVGID_00000153668138464126479370000001964840641959795333_" gradientUnits="userSpaceOnUse" x1="301.0176" y1="304.3115" x2="365.3643" y2="304.3115">
			<stop  offset="0" style="stop-color:#40D5E6"/>
			<stop  offset="1" style="stop-color:#5577FF"/>
		</linearGradient>
		<path style="fill:url(#SVGID_00000153668138464126479370000001964840641959795333_);" d="M301.018,306.807
			c0,0,6.556,5.52,12.89-1.019c6.336-6.538,13.644-8.723,20.103-3.217c6.459,5.505,8.974-2.05,15.434-8.244
			c6.459-6.193,6.355-9.715,15.921-9.715v39.398h-64.347V306.807z"/>
		<rect x="317.104" y="278.044" style="fill:#4AAFFF;" width="3.997" height="1.545"/>
		<rect x="300.853" y="278.044" style="fill:#4AAFFF;" width="5.439" height="1.545"/>
		<rect x="333.191" y="278.044" style="fill:#4AAFFF;" width="4.927" height="1.545"/>
		<rect x="349.112" y="278.044" style="fill:#4AAFFF;" width="4.926" height="1.545"/>
		<rect x="360.438" y="278.044" style="fill:#4AAFFF;" width="4.927" height="1.545"/>
		
			<linearGradient id="SVGID_00000183226450960601782390000015643912824345328044_" gradientUnits="userSpaceOnUse" x1="341.04" y1="251.5044" x2="362.5518" y2="251.5044">
			<stop  offset="0" style="stop-color:#40D5E6"/>
			<stop  offset="1" style="stop-color:#5577FF"/>
		</linearGradient>
		
			<rect x="341.04" y="250.145" style="fill:url(#SVGID_00000183226450960601782390000015643912824345328044_);" width="21.512" height="2.72"/>
		
			<linearGradient id="SVGID_00000026880850385622402390000008858700952348681879_" gradientUnits="userSpaceOnUse" x1="341.04" y1="262.9091" x2="360.7861" y2="262.9091">
			<stop  offset="0" style="stop-color:#40D5E6"/>
			<stop  offset="1" style="stop-color:#5577FF"/>
		</linearGradient>
		
			<rect x="341.04" y="261.549" style="fill:url(#SVGID_00000026880850385622402390000008858700952348681879_);" width="19.746" height="2.721"/>
		
			<linearGradient id="SVGID_00000085211071518356519890000002783668566659444651_" gradientUnits="userSpaceOnUse" x1="341.04" y1="257.2076" x2="358.125" y2="257.2076">
			<stop  offset="0" style="stop-color:#40D5E6"/>
			<stop  offset="1" style="stop-color:#5577FF"/>
		</linearGradient>
		
			<rect x="341.04" y="255.847" style="fill:url(#SVGID_00000085211071518356519890000002783668566659444651_);" width="17.085" height="2.722"/>
		<path style="fill:#4AAFFF;" d="M321.755,246.261c0,2.077-1.684,3.761-3.761,3.761c-2.077,0-3.762-1.684-3.762-3.761
			c0-2.077,1.685-3.761,3.762-3.761C320.071,242.5,321.755,244.184,321.755,246.261z"/>
		<path style="fill:#4AAFFF;" d="M324.778,258.522v7.152c-2.077,0.945-4.387,1.471-6.817,1.471c-2.431,0-4.74-0.525-6.817-1.471
			v-7.152c0-3.764,3.051-6.817,6.817-6.817S324.778,254.758,324.778,258.522z"/>
		<g>
			
				<linearGradient id="SVGID_00000145037316180917294170000003027816604711535019_" gradientUnits="userSpaceOnUse" x1="301.0176" y1="250.6485" x2="334.9043" y2="250.6485">
				<stop  offset="0" style="stop-color:#D3DAE0"/>
				<stop  offset="1" style="stop-color:#FFFFFF"/>
			</linearGradient>
			<path style="fill:url(#SVGID_00000145037316180917294170000003027816604711535019_);" d="M317.961,267.592
				c-2.443,0-4.799-0.509-7.002-1.51c-6.039-2.745-9.941-8.803-9.941-15.434c0-9.342,7.602-16.943,16.943-16.943
				c9.343,0,16.943,7.602,16.943,16.943c0,6.631-3.901,12.689-9.94,15.434C322.761,267.083,320.405,267.592,317.961,267.592z
				 M317.961,234.6c-8.85,0-16.049,7.199-16.049,16.049c0,6.281,3.697,12.02,9.416,14.619c2.087,0.949,4.318,1.43,6.633,1.43
				c2.315,0,4.546-0.48,6.633-1.43c5.721-2.6,9.416-8.338,9.416-14.619C334.01,241.799,326.81,234.6,317.961,234.6z"/>
		</g>
		<g>
			<path style="fill:#4AAFFF;" d="M351.575,243.49c-5.644,0-10.235-4.593-10.235-10.236c0-5.645,4.592-10.236,10.235-10.236
				c5.643,0,10.236,4.592,10.236,10.236C361.811,238.898,357.219,243.49,351.575,243.49z M351.575,225.067
				c-4.515,0-8.186,3.673-8.186,8.187c0,4.514,3.672,8.186,8.186,8.186c4.515,0,8.186-3.673,8.186-8.186
				C359.762,228.74,356.09,225.067,351.575,225.067z"/>
		</g>
		<rect x="317.193" y="212.852" style="fill:#4AAFFF;" width="15.425" height="2.459"/>
		<rect x="319.469" y="219.189" style="fill:#4AAFFF;" width="13.149" height="2.461"/>
		<rect x="311.475" y="225.529" style="fill:#4AAFFF;" width="21.144" height="2.459"/>
		<g>
			<path style="fill:#F5F5F5;" d="M425.617,241.289h-47.96c-0.909,0-1.647-0.738-1.647-1.647v-33.247
				c0-0.91,0.738-1.647,1.647-1.647h47.96c0.91,0,1.647,0.737,1.647,1.647v33.247C427.265,240.551,426.527,241.289,425.617,241.289z
				"/>
		</g>
		
			<linearGradient id="SVGID_00000025438657624334839510000001184850401960733578_" gradientUnits="userSpaceOnUse" x1="380.1494" y1="215.6875" x2="398.0352" y2="215.6875">
			<stop  offset="0" style="stop-color:#4AAFFF"/>
			<stop  offset="1" style="stop-color:#2388D9"/>
		</linearGradient>
		<path style="fill:url(#SVGID_00000025438657624334839510000001184850401960733578_);" d="M397.114,216.99H381.07
			c-0.509,0-0.921-0.412-0.921-0.92v-0.766c0-0.508,0.412-0.92,0.921-0.92h16.044c0.509,0,0.921,0.412,0.921,0.92v0.766
			C398.035,216.578,397.623,216.99,397.114,216.99z"/>
		
			<linearGradient id="SVGID_00000085939431239184872980000002046566783052788630_" gradientUnits="userSpaceOnUse" x1="380.1494" y1="209.793" x2="394.166" y2="209.793">
			<stop  offset="0" style="stop-color:#4AAFFF"/>
			<stop  offset="1" style="stop-color:#2388D9"/>
		</linearGradient>
		<path style="fill:url(#SVGID_00000085939431239184872980000002046566783052788630_);" d="M393.352,211.096h-12.387
			c-0.45,0-0.815-0.365-0.815-0.814v-0.976c0-0.45,0.365-0.815,0.815-0.815h12.387c0.45,0,0.814,0.365,0.814,0.815v0.976
			C394.166,210.73,393.802,211.096,393.352,211.096z"/>
		<polygon style="fill:#4AAFFF;" points="380.149,236.242 390.516,225.877 393.614,228.975 404.989,217.599 410.036,222.646 
			423.246,209.439 423.246,236.242 		"/>
		<polygon style="fill:#278CDD;" points="423.125,236.242 423.125,215.688 409.502,229.311 404.623,224.432 396.489,232.566 
			390.325,230.115 380.149,236.242 		"/>
		<g>
			<g>
				<path style="fill:#363A5E;" d="M392.186,415.159c0,0-3.82,5.366-3.296,6.217c0.524,0.851,4.541,0.973,6.986,0
					c2.446-0.972,2.504-7.262,3.61-9.964c0.463-1.131-0.528-4.471-1.922-4.713c-1.393-0.242-2.909,0.469-2.909,0.469
					S396.102,410.976,392.186,415.159z"/>
			</g>
			<g>
				<g>
					<path style="fill:#EEA886;" d="M394.631,407.125c0,0-0.804,2.285-1.098,4.467c-0.243,1.811-2.722,5.652-2.605,6.139
						c0.116,0.486,3.261,0.927,4.541-0.326c1.282-1.253,2.105-4.896,2.388-7.077c0.263-2.03,0.595-3.032,0.595-3.032
						S395.853,405.789,394.631,407.125z"/>
				</g>
			</g>
			<g>
				<path style="fill:#363A5E;" d="M425.438,415.248c0,0-3.684,5.277-3.159,6.128c0.524,0.851,4.542,0.973,6.987,0
					c2.445-0.972,2.504-7.262,3.609-9.964c0.464-1.131-0.528-4.471-1.921-4.713c-1.394-0.242-3.028,0.522-3.028,0.522
					S429.354,411.065,425.438,415.248z"/>
			</g>
			<g>
				<g>
					<path style="fill:#EEA886;" d="M427.927,407.221c0,0-0.291,2.49-0.757,4.252c-0.465,1.762-2.97,5.771-2.853,6.258
						c0.116,0.486,3.261,0.927,4.542-0.326c1.28-1.253,2.27-4.881,2.387-7.077c0.116-2.195-0.291-3.628-0.291-3.628
						S429.149,405.883,427.927,407.221z"/>
				</g>
			</g>
			<g>
				<g>
					<path style="fill:#EEA886;" d="M409.525,319.848c0,0-3.278,15.914-4.031,19.922c-0.752,4.007-2.861,23.411-3.087,26.711
						c-0.226,3.3-3.421,15.732-3.27,16.91c0.15,1.18-4.736,24.852-4.736,24.852s1.668,1.402,3.429,0.127
						c0.904-0.656,10.722-22.162,10.722-28.055c0-8.145,5.771-18.776,6.517-20.599c6.919-16.928,5.557-22.102,6.46-23.202
						c0.904-1.101,0.981,0.679,1.509,3.113c0.526,2.435,1.655,23.492,2.333,26.162c0.678,2.672,0.151,11.705,0.528,16.263
						c0.376,4.557,2.028,25.169,2.028,25.169s1.281,2.092,3.076,0.054c0.386-0.439,3.101-22.96,3.177-28.382
						c0.074-5.42,0.154-12.897,0.3-15.24c1.396-22.465,4.823-25.672-0.576-41.57C423.794,292.315,409.525,319.848,409.525,319.848z"
						/>
				</g>
			</g>
			<g>
				<path style="fill:#3F446E;" d="M431.54,315.401c0,0,9.34,13.64,5.318,42.653c0,0-22.151,3.145-34.019-3.637
					c0,0,4.907-29.914,6.686-34.57C411.304,315.193,431.54,315.401,431.54,315.401z"/>
			</g>
			<g>
				<polygon style="fill:#363A5E;" points="399.59,410.94 399.59,416.559 398.891,416.559 398.891,412.217 				"/>
			</g>
			<g>
				<polygon style="fill:#363A5E;" points="432.979,410.94 432.979,416.559 432.28,416.559 432.28,412.217 				"/>
			</g>
			<path style="fill:#EEA886;" d="M420.468,254.922c0,0-6.254,6.3-4.124,14.412c2.13,8.113,5.553,8.159,9.325,4.669
				c3.772-3.49,5.994-7.161,6.492-11.24C432.66,258.684,426.179,249.301,420.468,254.922z"/>
			<path style="fill:#EEA886;" d="M419.244,281.978c0,0,0.928-2.121,1.578-4.51c0.114-0.422,0.22-0.852,0.311-1.279
				c0.319-1.503,0.45-2.984,0.105-3.999c-0.997-2.946,6.255-0.907,6.255-0.907s-1.405,7.796,0,10.424
				C428.897,284.337,419.244,281.978,419.244,281.978z"/>
			<path style="fill:#EDDAD3;" d="M437.623,285.693c-1.142-2.279-1.994-3.012-4.201-3.709c-1.234-0.389-6.75-1.826-6.75-1.826
				l-6.625-0.242c0,0-4.557,0.758-8.091,1.982c-3.535,1.225-8.167,7.921-8.167,7.921s6.391,15.003,7.614,19.308
				c1.224,4.306,0.407,10.969,0.407,10.969c7.66,4.17,19.943-0.408,19.943-0.408c-0.932-3.364-0.971-7.292-0.481-10.078
				c0.058-0.328,0.122-0.641,0.194-0.936c0.065-0.267,0.157-0.651,0.263-1.082c0.005-0.018,0.01-0.037,0.014-0.057
				c4.872,0.499,9.439,0.701,9.56-0.275C441.84,302.858,439.193,288.824,437.623,285.693z M434.248,302.799
				c-0.196-0.029-0.614-0.031-1.056-0.071c0.541-1.509,1.145-2.847,1.145-2.847C434.683,300.844,435.995,303.06,434.248,302.799z"/>
			<path style="fill:#E8734D;" d="M422.508,259.454c0,0,2.991,5.439,4.85,7.388c1.857,1.949,1.64,3.496,1.64,3.496
				s7.243-8.936,2.076-14.328c-5.166-5.394-11.829-3.219-13.778,1.495c-1.948,4.714-1.234,10.472-1.234,10.472
				S416.117,262.445,422.508,259.454z"/>
			<path style="fill:#E8734D;" d="M424.481,253.76c0,0-0.724-3.982,5.521-5.565c6.244-1.583,9.049,5.61,8.279,9.999
				c-0.769,4.389-6.107,15.518-3.212,16.967c2.896,1.447,4.026-1.675,4.026-1.675s-0.905,5.475-4.932,4.208
				c-4.026-1.268-3.484-10.164-2.876-13.709C431.896,260.439,424.481,253.76,424.481,253.76z"/>
			<path style="fill:#A77860;" d="M426.493,273.213c-0.025,0.058-1.604,3.691-5.671,4.256c0.114-0.422,0.22-0.852,0.311-1.279
				C421.133,276.19,423.362,276.639,426.493,273.213z"/>
			<path style="fill:#CFBEB8;" d="M434.248,299.934c0,0-0.298,0.629-1.116,3.105c-0.831-6.955-0.396-10.574-0.396-10.574
				C432.826,296.182,434.248,299.934,434.248,299.934z"/>
			<path style="fill:#EDDAD3;" d="M425.454,252.924c0,0,4.431,0.852,6.642,4.461c0,0-0.448-3.268-2.654-4.211
				C427.236,252.232,425.454,252.924,425.454,252.924z"/>
			<path style="fill:#CFBEB8;" d="M431.729,307.592c-0.105,0.431-0.197,0.815-0.263,1.082c-0.072,0.295-0.137,0.608-0.194,0.936
				c-2.745-1.492-4.715-2.659-4.715-2.659C427.295,307.115,431.729,307.592,431.729,307.592z"/>
			<path style="fill:#EEA886;" d="M427.043,280.256l-7.799,6.357l0.803-6.697C420.047,279.916,424.595,278.935,427.043,280.256z"/>
			<polygon style="fill:#D6C5BE;" points="421.498,285.533 419.244,286.613 426.903,279.02 			"/>
			<path style="fill:#494F80;" d="M432.188,307.043c-1.073,4.448,2.898,14.459,2.898,14.459l-7.871,2.461
				c-1.133,0.354-2.325-0.341-2.575-1.501c-1.054-4.898-3.524-16.956-3.819-23.659c-0.377-8.553,5.851-18.645,5.851-18.645
				c11.068,1.899,8.034,18.645,8.034,18.645s-0.401,1.055-0.938,2.703c0,0,0,0,0,0.002c-0.136,0.413-0.278,0.865-0.427,1.347
				C432.962,304.092,432.554,305.53,432.188,307.043z"/>
			<path style="fill:#494F80;" d="M419.264,280.281l0.136-0.365c0,0-5.668,0.861-8.549,2.301c-2.881,1.44-8.395,8.872-8.395,8.872
				l7.213,9.522c0.009,7.318-1.179,20.331-1.179,20.331l3.299,1.9c0.886,0.511,1.996-0.115,2.015-1.139
				c0.094-4.948,0.315-16.698,0.432-22.39c0.15-7.318,5.372-19.156,5.372-19.156C419.49,280.197,419.377,280.24,419.264,280.281z"/>
			<path style="fill:#EEA886;" d="M408.986,314.597c0,0,5.44,0.212,6.285,0c0.846-0.212,6.488-2.659,6.828-5.077
				c0.339-2.416-13.113,2.168-13.113,2.168V314.597z"/>
			<polygon style="fill:#6A77BF;" points="425.861,307.043 403.789,304.459 413.761,312.572 			"/>
			<polygon style="fill:#323657;" points="413.761,312.572 425.861,308.447 425.861,307.043 413.353,311.055 			"/>
			<g>
				<path style="fill:#EEA886;" d="M419.45,302.989c0,0-1.827,0.001-2.849-0.208c-0.791-0.16-2.758,0.061-3.259,0.506
					c-0.502,0.443-2.095,3.537-2.396,3.726c-0.302,0.189,0.154,0.626,0.684,0.407c0,0,0.485,1.354,1.685,0.847
					s2.013-1.614,2.642-1.809c0.628-0.194,4.285-1.178,4.285-1.178S420.392,302.66,419.45,302.989z"/>
			</g>
			<polygon style="fill:#FAE6DE;" points="420.464,278.681 416.262,285.334 414.234,286.613 418.961,279.987 			"/>
			<polygon style="fill:#D6C5BE;" points="416.262,285.334 419.244,286.613 420.047,279.916 420.464,278.681 			"/>
			<path style="fill:#494F80;" d="M409.651,311.484c0,0-0.228,2.81,0,3.399c0,0-13.612-1.36-14.882-3.264
				c-1.268-1.903-1.223-4.215-1.223-4.215L409.651,311.484z"/>
			<polygon style="fill:#252740;" points="413.761,312.572 407.324,288.642 382.851,286.059 389.558,308.086 			"/>
			<polygon style="fill:#FAE6DE;" points="426.903,279.02 421.498,285.533 424.456,288.172 427.647,280.374 			"/>
			<path style="fill:#3D426B;" d="M433.948,300.955c0,0-0.181,0.551-0.181,0.553c-0.136,0.413-0.278,0.865-0.427,1.347
				c-1.045,0.329-10.086-0.335-10.086-0.335S430.822,300.744,433.948,300.955z"/>
			<path style="fill:#494F80;" d="M433.428,302.678c-1.458-0.109-3.843-0.266-5.796-0.273c-3.037-0.014-8.232,0.325-8.232,0.325
				l0.619,3.246c0,0,9.203,1.495,14.229,1.847l0,0c0,0,6.633,0.762,7.125-0.228c0.494-0.989-0.163-7.343-1.242-13.068
				c-1.079-5.725-2.188-9.021-3.507-10.79c-1.318-1.769-8.286-3.148-8.286-3.148l5.911,19.346c0,0,0.847,1.726,0.804,2.471
				c-0.014,0.227-0.171,0.333-0.383,0.373c-0.148-0.012-0.476-0.04-0.927-0.075L433.428,302.678z"/>
		</g>
	</g>
</g>
</svg>
