<svg width="417" height="388" viewBox="0 0 417 388" fill="none" xmlns="http://www.w3.org/2000/svg">
<g opacity="0.4">
<path d="M42.1888 295.906C41.8178 295.906 41.4658 295.767 41.2068 295.498C40.9378 295.239 40.7988 294.887 40.7988 294.516C40.7988 294.155 40.9468 293.793 41.2068 293.533C41.7158 293.015 42.6528 293.015 43.1708 293.533C43.4308 293.793 43.5788 294.155 43.5788 294.516C43.5788 294.887 43.4308 295.239 43.1708 295.498C42.9018 295.767 42.5588 295.906 42.1888 295.906Z" fill="#EDA940"/>
<path d="M37.7961 292.412C37.2401 291.884 37.2121 291.004 37.7401 290.448C38.2681 289.892 39.1481 289.863 39.7051 290.392C40.2611 290.921 40.2891 291.801 39.7611 292.357C39.4921 292.644 39.1221 292.792 38.7511 292.792C38.4081 292.792 38.0651 292.672 37.7961 292.412ZM34.4511 289.123C33.9141 288.576 33.9321 287.696 34.4791 287.158C35.0261 286.62 35.9061 286.631 36.4441 287.177C36.9821 287.733 36.9721 288.613 36.4161 289.15C36.1471 289.41 35.8041 289.539 35.4521 289.539C35.0911 289.54 34.7291 289.401 34.4511 289.123ZM31.2451 285.704C30.7351 285.129 30.7821 284.249 31.3471 283.739C31.9221 283.22 32.8021 283.267 33.3121 283.84C33.8311 284.415 33.7841 285.286 33.2101 285.804C32.9421 286.046 32.6171 286.156 32.2831 286.156C31.9031 286.158 31.5231 286.01 31.2451 285.704ZM28.1781 282.155C27.6871 281.561 27.7701 280.691 28.3631 280.2C28.9471 279.709 29.8271 279.783 30.3191 280.376C30.8101 280.969 30.7271 281.849 30.1331 282.33C29.8741 282.553 29.5581 282.655 29.2531 282.655C28.8551 282.656 28.4561 282.488 28.1781 282.155ZM25.2501 278.495C24.7871 277.883 24.8981 277.013 25.5101 276.55C26.1211 276.077 26.9921 276.188 27.4561 276.8C27.9291 277.412 27.8081 278.282 27.2061 278.745C26.9471 278.94 26.6501 279.033 26.3541 279.033C25.9361 279.033 25.5281 278.847 25.2501 278.495ZM22.4701 274.723C22.0251 274.093 22.1741 273.222 22.8031 272.778C23.4331 272.343 24.2951 272.49 24.7401 273.112C25.1851 273.742 25.0361 274.603 24.4061 275.048C24.1651 275.224 23.8871 275.307 23.6091 275.307C23.1751 275.307 22.7391 275.104 22.4701 274.723ZM19.8391 270.841C19.4221 270.192 19.5981 269.331 20.2471 268.914C20.8861 268.497 21.7481 268.682 22.1651 269.321C22.5911 269.97 22.4061 270.822 21.7671 271.248C21.5261 271.396 21.2671 271.471 21.0071 271.471C20.5521 271.471 20.1071 271.249 19.8391 270.841ZM17.3551 266.866C16.9661 266.208 17.1791 265.356 17.8371 264.957C18.4951 264.568 19.3471 264.781 19.7461 265.439C20.1351 266.097 19.9221 266.949 19.2641 267.347C19.0421 267.477 18.7921 267.542 18.5501 267.542C18.0781 267.542 17.6151 267.302 17.3551 266.866ZM15.0301 262.798C14.6601 262.122 14.9091 261.279 15.5771 260.908C16.2531 260.538 17.0971 260.788 17.4671 261.465C17.8381 262.141 17.5871 262.975 16.9111 263.346C16.7071 263.466 16.4761 263.522 16.2441 263.522C15.7621 263.521 15.2801 263.261 15.0301 262.798ZM345.515 259.824C345.079 259.194 345.236 258.333 345.867 257.897C346.497 257.462 347.358 257.61 347.804 258.25C348.239 258.88 348.082 259.741 347.452 260.177C347.452 260.177 347.452 260.177 347.452 260.187C347.201 260.354 346.933 260.428 346.655 260.428C346.219 260.426 345.784 260.223 345.515 259.824ZM12.8521 258.647C12.8521 258.647 12.8521 258.647 12.8611 258.647C12.5091 257.961 12.7961 257.118 13.4821 256.785C14.1671 256.433 15.0011 256.72 15.3441 257.406C15.6871 258.091 15.4091 258.925 14.7231 259.268C14.5191 259.37 14.3061 259.416 14.1021 259.416C13.5931 259.416 13.1021 259.129 12.8521 258.647ZM349.304 257.164C348.841 256.543 348.961 255.673 349.582 255.219C350.194 254.756 351.064 254.876 351.528 255.497C351.982 256.109 351.862 256.98 351.25 257.433C351.25 257.433 351.25 257.433 351.25 257.443C351 257.628 350.703 257.721 350.417 257.721C349.99 257.721 349.573 257.526 349.304 257.164ZM10.8411 254.412C10.5261 253.717 10.8311 252.893 11.5361 252.568C12.2311 252.253 13.0551 252.568 13.3711 253.263C13.6861 253.968 13.3801 254.792 12.6851 255.107C12.5001 255.19 12.3051 255.227 12.1111 255.227C11.5831 255.228 11.0731 254.922 10.8411 254.412ZM352.992 254.348C352.501 253.754 352.594 252.884 353.186 252.402V252.393C353.789 251.911 354.66 252.004 355.151 252.597C355.633 253.2 355.54 254.07 354.947 254.553C354.687 254.766 354.372 254.868 354.067 254.868C353.66 254.867 353.261 254.69 352.992 254.348ZM356.569 251.401C356.06 250.826 356.115 249.947 356.689 249.446V249.436C357.273 248.936 358.153 248.992 358.654 249.566C359.163 250.15 359.108 251.03 358.525 251.53C358.265 251.762 357.931 251.872 357.607 251.872C357.227 251.873 356.838 251.716 356.569 251.401ZM8.9881 250.104C8.7011 249.399 9.0441 248.584 9.7481 248.297C10.4621 248.009 11.2771 248.343 11.5641 249.056C11.8511 249.77 11.5081 250.576 10.8041 250.863C10.6281 250.937 10.4521 250.974 10.2761 250.974C9.7291 250.975 9.2101 250.651 8.9881 250.104ZM360.026 248.325C359.497 247.768 359.526 246.888 360.081 246.36C360.637 245.832 361.517 245.85 362.046 246.415C362.575 246.971 362.546 247.851 361.99 248.38C361.721 248.63 361.379 248.76 361.036 248.76C360.674 248.76 360.303 248.612 360.026 248.325ZM7.3011 245.73C7.3011 245.73 7.3011 245.73 7.3011 245.74C7.0421 245.017 7.41209 244.22 8.13509 243.951C8.84809 243.692 9.65409 244.062 9.91409 244.785C10.1731 245.498 9.80309 246.304 9.08009 246.564C8.92209 246.619 8.76509 246.647 8.60709 246.647C8.04309 246.647 7.5061 246.295 7.3011 245.73ZM363.37 245.118C362.823 244.581 362.814 243.692 363.361 243.154C363.899 242.597 364.769 242.597 365.326 243.135C365.873 243.673 365.873 244.553 365.335 245.1C365.066 245.378 364.705 245.517 364.343 245.517C363.991 245.517 363.639 245.378 363.37 245.118ZM5.78209 241.301C5.55009 240.569 5.9491 239.79 6.6801 239.549C7.4121 239.317 8.1901 239.716 8.4311 240.449C8.6631 241.18 8.26409 241.959 7.53209 242.2C7.38409 242.246 7.2451 242.265 7.1061 242.265C6.5141 242.265 5.96709 241.894 5.78209 241.301ZM366.595 241.792C366.03 241.265 365.992 240.393 366.512 239.827C367.03 239.253 367.902 239.216 368.476 239.735C369.042 240.254 369.079 241.134 368.56 241.7C368.291 241.997 367.911 242.154 367.531 242.154C367.197 242.154 366.864 242.033 366.595 241.792ZM369.699 238.345C369.115 237.845 369.041 236.964 369.542 236.38C370.033 235.796 370.914 235.722 371.497 236.222C372.081 236.722 372.155 237.594 371.655 238.187C371.386 238.511 370.997 238.668 370.598 238.668C370.283 238.669 369.959 238.568 369.699 238.345ZM4.4291 236.807C4.2251 236.075 4.65109 235.306 5.39309 235.102C6.13409 234.889 6.9031 235.325 7.1071 236.066C7.3111 236.798 6.88509 237.567 6.14309 237.78C6.02309 237.808 5.8931 237.827 5.7721 237.827C5.1611 237.826 4.6051 237.427 4.4291 236.807ZM372.673 234.787C372.071 234.315 371.96 233.434 372.441 232.832C372.913 232.23 373.785 232.128 374.387 232.609C374.998 233.082 375.1 233.953 374.628 234.555C374.35 234.907 373.942 235.083 373.534 235.083C373.23 235.084 372.924 234.99 372.673 234.787ZM3.2521 232.276C3.0761 231.525 3.5391 230.775 4.2801 230.598C5.0311 230.422 5.7811 230.886 5.9571 231.627C6.1331 232.377 5.6791 233.119 4.9291 233.304C4.8181 233.332 4.7151 233.341 4.6051 233.341C3.9751 233.341 3.4101 232.915 3.2521 232.276ZM375.518 231.127C374.897 230.673 374.758 229.802 375.212 229.181C375.666 228.569 376.537 228.43 377.158 228.884C377.779 229.338 377.909 230.209 377.455 230.82C377.455 230.82 377.455 230.82 377.455 230.829C377.186 231.2 376.76 231.395 376.334 231.395C376.046 231.395 375.759 231.312 375.518 231.127ZM2.2521 227.698C2.1041 226.939 2.59509 226.207 3.34509 226.058C4.10509 225.91 4.82809 226.401 4.97609 227.151C5.12409 227.902 4.64309 228.634 3.89209 228.782C3.79909 228.801 3.70609 228.81 3.61409 228.81C2.96509 228.81 2.3821 228.356 2.2521 227.698ZM378.224 227.365C377.584 226.939 377.418 226.067 377.853 225.438C378.279 224.798 379.151 224.632 379.78 225.067C380.42 225.493 380.586 226.355 380.151 226.994C379.882 227.392 379.447 227.606 379.002 227.606C378.733 227.606 378.465 227.531 378.224 227.365ZM1.42709 223.084C1.30709 222.324 1.8261 221.611 2.5851 221.49C3.3451 221.37 4.0581 221.889 4.1791 222.648C4.2991 223.408 3.7801 224.112 3.0211 224.233C2.9471 224.242 2.8731 224.251 2.7981 224.251C2.1311 224.251 1.53809 223.76 1.42709 223.084ZM380.79 223.51C380.142 223.102 379.948 222.24 380.355 221.592C380.763 220.943 381.616 220.749 382.264 221.157C382.922 221.564 383.116 222.417 382.708 223.065C382.448 223.491 381.995 223.723 381.532 223.723C381.282 223.723 381.022 223.649 380.79 223.51ZM383.227 219.563C382.56 219.183 382.328 218.331 382.718 217.663C383.098 217.005 383.95 216.774 384.608 217.154C385.276 217.543 385.508 218.386 385.117 219.053C384.867 219.498 384.395 219.748 383.913 219.748C383.681 219.748 383.441 219.692 383.227 219.563ZM0.787095 218.432C0.704095 217.673 1.25009 216.978 2.01009 216.885C2.77009 216.802 3.4651 217.348 3.5481 218.108C3.6411 218.868 3.0941 219.563 2.3341 219.655C2.2781 219.655 2.2231 219.664 2.1671 219.664C1.4731 219.664 0.871095 219.137 0.787095 218.432ZM385.508 215.532C384.831 215.171 384.571 214.337 384.933 213.651C385.294 212.975 386.128 212.715 386.813 213.076C387.49 213.437 387.749 214.271 387.388 214.957C387.138 215.42 386.656 215.689 386.155 215.689C385.943 215.689 385.72 215.643 385.508 215.532ZM0.333097 213.762C0.278097 213.002 0.852096 212.335 1.6121 212.27C2.3811 212.215 3.0481 212.789 3.1131 213.549C3.1691 214.318 2.5951 214.985 1.8251 215.04C1.7971 215.05 1.7601 215.05 1.7231 215.05C1.0011 215.05 0.398097 214.494 0.333097 213.762ZM387.648 211.418C386.962 211.085 386.666 210.26 386.999 209.565H387.008C387.342 208.879 388.166 208.583 388.861 208.917C389.547 209.25 389.835 210.084 389.51 210.779C389.269 211.27 388.769 211.557 388.25 211.557C388.046 211.556 387.842 211.52 387.648 211.418ZM0.0740941 209.082C0.0460941 208.313 0.639098 207.674 1.4081 207.646C2.1771 207.618 2.8161 208.211 2.8531 208.98C2.8721 209.749 2.2781 210.397 1.5091 210.426C1.4901 210.426 1.47209 210.426 1.46309 210.426C0.713094 210.426 0.0930941 209.833 0.0740941 209.082ZM389.64 207.239C388.935 206.924 388.611 206.108 388.926 205.404C389.232 204.7 390.047 204.385 390.751 204.69C391.456 204.996 391.78 205.82 391.465 206.525C391.233 207.044 390.733 207.35 390.195 207.35C390.01 207.35 389.816 207.313 389.64 207.239ZM1.3811 205.793C0.612097 205.783 -0.00890339 205.163 9.66049e-05 204.394C9.66049e-05 203.625 0.630096 203.004 1.3901 203.014C2.1591 203.014 2.7801 203.644 2.7801 204.413C2.7711 205.173 2.1501 205.793 1.3811 205.793ZM391.474 202.976C390.751 202.698 390.408 201.892 390.687 201.178V201.168C390.974 200.454 391.78 200.112 392.493 200.39C393.207 200.677 393.559 201.484 393.272 202.197C393.058 202.744 392.53 203.077 391.983 203.077C391.808 203.078 391.641 203.041 391.474 202.976ZM1.4451 201.16C0.676096 201.113 0.0920944 200.465 0.129094 199.696C0.175094 198.927 0.824095 198.343 1.5931 198.38C2.3621 198.426 2.9461 199.075 2.9091 199.844C2.8621 200.585 2.2511 201.16 1.5191 201.16C1.5011 201.16 1.4731 201.16 1.4451 201.16ZM393.142 198.658C392.42 198.399 392.04 197.602 392.299 196.879C392.559 196.157 393.347 195.776 394.069 196.036C394.801 196.296 395.172 197.083 394.921 197.815C394.717 198.38 394.18 198.742 393.605 198.742C393.457 198.742 393.299 198.714 393.142 198.658ZM1.7421 196.527C0.973097 196.453 0.417097 195.767 0.500097 195.007C0.583097 194.238 1.2601 193.691 2.0291 193.765C2.7891 193.848 3.34509 194.525 3.26109 195.294C3.18709 196.008 2.5851 196.536 1.8811 196.536C1.8351 196.536 1.7881 196.536 1.7421 196.527ZM394.662 194.275C393.92 194.043 393.513 193.265 393.745 192.533C393.977 191.801 394.755 191.393 395.487 191.625C396.219 191.847 396.627 192.635 396.396 193.367C396.21 193.96 395.664 194.34 395.07 194.34C394.931 194.34 394.792 194.322 394.662 194.275ZM2.2701 191.931C1.5101 191.801 1.00009 191.088 1.12109 190.337C1.24109 189.577 1.9551 189.058 2.7151 189.179C3.4751 189.309 3.98509 190.022 3.86409 190.773C3.75309 191.459 3.1691 191.95 2.4931 191.94C2.4181 191.94 2.3441 191.94 2.2701 191.931ZM396.005 189.846C395.264 189.642 394.829 188.882 395.032 188.141C395.227 187.4 395.996 186.965 396.737 187.159C397.469 187.363 397.914 188.123 397.711 188.864C397.544 189.485 396.979 189.893 396.367 189.893C396.247 189.893 396.126 189.874 396.005 189.846ZM3.06709 187.363C2.31609 187.187 1.8441 186.446 2.0201 185.695C2.1871 184.944 2.9281 184.481 3.6791 184.648C4.4301 184.814 4.90209 185.565 4.72609 186.306C4.58709 186.955 4.0131 187.391 3.3731 187.391C3.2711 187.391 3.16909 187.381 3.06709 187.363ZM397.182 185.361C396.431 185.185 395.968 184.444 396.144 183.693C396.311 182.942 397.062 182.479 397.812 182.655C398.563 182.822 399.026 183.572 398.85 184.323C398.702 184.962 398.127 185.398 397.497 185.398C397.395 185.398 397.294 185.389 397.182 185.361ZM4.1511 182.85C3.4101 182.628 2.9931 181.859 3.2151 181.118C3.4371 180.386 4.2061 179.969 4.9471 180.191C5.6791 180.404 6.0961 181.182 5.8741 181.914C5.6981 182.516 5.1421 182.905 4.5491 182.905C4.4111 182.906 4.2811 182.887 4.1511 182.85ZM398.192 180.839C397.442 180.691 396.941 179.968 397.09 179.208C397.229 178.457 397.961 177.966 398.712 178.105C399.462 178.253 399.963 178.976 399.814 179.736C399.694 180.394 399.11 180.857 398.452 180.857C398.369 180.858 398.285 180.858 398.192 180.839ZM5.5411 178.43C4.8281 178.152 4.4671 177.346 4.7441 176.632C5.0131 175.918 5.8191 175.557 6.5331 175.835C7.2551 176.104 7.6081 176.91 7.3391 177.624V177.633C7.1261 178.18 6.5981 178.522 6.0331 178.522C5.8741 178.523 5.7081 178.495 5.5411 178.43ZM399.027 176.281C398.267 176.161 397.738 175.456 397.85 174.696C397.97 173.936 398.675 173.417 399.435 173.529C400.195 173.64 400.714 174.353 400.602 175.104C400.501 175.799 399.907 176.29 399.231 176.29C399.165 176.29 399.091 176.29 399.027 176.281ZM7.2741 174.131C6.5791 173.797 6.2921 172.963 6.6251 172.268C6.9591 171.582 7.7931 171.295 8.4781 171.629C9.1731 171.962 9.4601 172.787 9.1271 173.482C8.8861 173.973 8.3951 174.27 7.8761 174.27C7.6721 174.27 7.4681 174.224 7.2741 174.131ZM399.674 171.694C398.915 171.602 398.358 170.916 398.442 170.156C398.525 169.396 399.21 168.84 399.979 168.924C400.739 169.007 401.286 169.693 401.202 170.462C401.128 171.176 400.526 171.694 399.831 171.694C399.777 171.694 399.731 171.694 399.674 171.694ZM9.3681 169.989C8.7101 169.591 8.4971 168.738 8.8961 168.08C9.2951 167.432 10.1471 167.218 10.8051 167.617C11.4631 168.016 11.6761 168.868 11.2771 169.526C11.0181 169.952 10.5541 170.193 10.0821 170.193C9.8411 170.193 9.5901 170.128 9.3681 169.989ZM400.148 167.079C399.379 167.024 398.804 166.365 398.85 165.597C398.906 164.828 399.573 164.253 400.342 164.309C401.101 164.355 401.676 165.023 401.63 165.792C401.575 166.524 400.963 167.08 400.24 167.08C400.212 167.079 400.175 167.079 400.148 167.079ZM11.8421 166.079C11.2301 165.616 11.1101 164.744 11.5731 164.133C12.0361 163.521 12.9071 163.401 13.5181 163.864C14.1301 164.318 14.2501 165.189 13.7871 165.81C13.5181 166.171 13.1011 166.357 12.6751 166.357C12.3891 166.357 12.0921 166.264 11.8421 166.079ZM14.7141 162.446C14.1491 161.918 14.1301 161.038 14.6491 160.482C15.1771 159.916 16.0571 159.889 16.6231 160.417C17.1791 160.945 17.2071 161.825 16.6791 162.381C16.4011 162.677 16.0311 162.817 15.6691 162.817C15.3261 162.817 14.9831 162.696 14.7141 162.446ZM400.426 162.456C399.666 162.428 399.054 161.789 399.082 161.02C399.101 160.26 399.74 159.648 400.509 159.676C401.278 159.694 401.881 160.334 401.862 161.103C401.834 161.854 401.213 162.456 400.472 162.456C400.454 162.456 400.444 162.456 400.426 162.456ZM17.9671 159.148C17.4761 158.555 17.5411 157.684 18.1251 157.183C18.7181 156.692 19.5891 156.757 20.0891 157.35C20.5801 157.934 20.5151 158.805 19.9221 159.305C19.6631 159.527 19.3471 159.629 19.0241 159.629C18.6341 159.63 18.2451 159.463 17.9671 159.148ZM399.119 156.451C399.11 155.682 399.722 155.052 400.491 155.042C401.26 155.033 401.89 155.644 401.899 156.413C401.908 157.173 401.287 157.812 400.528 157.822C400.518 157.822 400.518 157.822 400.509 157.822C399.749 157.823 399.128 157.211 399.119 156.451ZM21.5621 156.22C21.1271 155.59 21.2751 154.728 21.9141 154.293C22.5351 153.848 23.4061 154.006 23.8411 154.636C24.2861 155.266 24.1281 156.128 23.4981 156.572C23.2571 156.739 22.9791 156.822 22.7011 156.822C22.2671 156.822 21.8311 156.609 21.5621 156.22ZM25.4071 153.634C25.0181 152.976 25.2311 152.124 25.8891 151.735C26.5561 151.345 27.4091 151.559 27.7981 152.217C28.1871 152.875 27.9741 153.727 27.3161 154.125C27.0841 154.255 26.8441 154.32 26.6021 154.32C26.1301 154.32 25.6671 154.079 25.4071 153.634ZM398.961 151.874C398.915 151.105 399.499 150.456 400.268 150.41C401.037 150.364 401.695 150.956 401.732 151.717C401.778 152.486 401.194 153.144 400.425 153.19C400.397 153.19 400.369 153.19 400.342 153.19C399.61 153.189 398.999 152.615 398.961 151.874ZM29.4201 151.318C29.0581 150.642 29.3181 149.798 29.9951 149.437C30.6711 149.076 31.5151 149.335 31.8761 150.011C32.2291 150.697 31.9781 151.531 31.3021 151.892C31.0891 152.003 30.8661 152.059 30.6441 152.059C30.1521 152.059 29.6701 151.79 29.4201 151.318ZM33.5251 149.177C33.1821 148.492 33.4601 147.657 34.1551 147.315C34.8411 146.962 35.6751 147.25 36.0181 147.936C36.3611 148.622 36.0741 149.455 35.3881 149.798C35.1931 149.9 34.9801 149.946 34.7771 149.946C34.2661 149.946 33.7751 149.659 33.5251 149.177ZM398.6 147.315C398.526 146.555 399.081 145.869 399.851 145.795C400.611 145.721 401.287 146.277 401.37 147.037C401.444 147.806 400.889 148.483 400.128 148.557C400.082 148.566 400.027 148.566 399.98 148.566C399.276 148.565 398.675 148.028 398.6 147.315ZM37.6851 147.12C37.3421 146.425 37.6201 145.6 38.3151 145.257C39.0001 144.914 39.8351 145.201 40.1771 145.887C40.5111 146.582 40.2331 147.406 39.5381 147.749C39.3431 147.851 39.1301 147.897 38.9271 147.897C38.4171 147.899 37.9261 147.611 37.6851 147.12ZM41.8361 145.063C41.4841 144.377 41.7531 143.534 42.4291 143.191C43.1151 142.839 43.9491 143.108 44.3011 143.784C44.6531 144.47 44.3841 145.303 43.7081 145.656C43.5041 145.767 43.2821 145.813 43.0691 145.813C42.5681 145.814 42.0771 145.535 41.8361 145.063ZM398.044 142.784C397.933 142.024 398.452 141.311 399.211 141.2C399.971 141.089 400.675 141.617 400.796 142.377C400.796 142.377 400.796 142.377 400.786 142.377C400.906 143.137 400.379 143.841 399.619 143.952C399.554 143.962 399.48 143.971 399.415 143.971C398.739 143.97 398.146 143.469 398.044 142.784ZM45.9411 142.914C45.5611 142.247 45.7931 141.394 46.4601 141.014C47.1361 140.634 47.9801 140.875 48.3591 141.542C48.7391 142.209 48.5071 143.052 47.8401 143.432C47.6181 143.553 47.3861 143.618 47.1551 143.618C46.6731 143.618 46.2011 143.358 45.9411 142.914ZM49.9441 140.578C49.5271 139.939 49.7031 139.077 50.3521 138.651C50.9921 138.234 51.8531 138.41 52.2701 139.059C52.6961 139.698 52.5111 140.56 51.8711 140.977C51.6391 141.135 51.3711 141.209 51.1111 141.209C50.6581 141.208 50.2131 140.986 49.9441 140.578ZM397.275 138.281C397.127 137.521 397.618 136.798 398.369 136.65C399.119 136.502 399.851 136.993 400 137.744C400.148 138.495 399.657 139.227 398.907 139.375C398.814 139.394 398.721 139.403 398.638 139.403C397.98 139.402 397.395 138.938 397.275 138.281ZM53.7801 137.984C53.3081 137.382 53.4181 136.501 54.0211 136.029C54.6231 135.556 55.4941 135.658 55.9671 136.261C56.4401 136.863 56.3381 137.744 55.7351 138.216C55.4851 138.42 55.1791 138.513 54.8741 138.513C54.4661 138.512 54.0581 138.327 53.7801 137.984ZM57.3661 135.046C56.8291 134.49 56.8471 133.61 57.3941 133.072C57.3941 133.072 57.3941 133.072 57.3941 133.081C57.9501 132.544 58.8311 132.553 59.3591 133.1C59.8971 133.656 59.8871 134.537 59.3311 135.074C59.0621 135.333 58.7191 135.463 58.3671 135.463C58.0061 135.464 57.6441 135.324 57.3661 135.046ZM396.284 133.823C396.098 133.072 396.562 132.322 397.303 132.136C398.044 131.951 398.804 132.405 398.99 133.155C399.166 133.897 398.712 134.647 397.97 134.832C397.859 134.86 397.748 134.878 397.637 134.878C397.006 134.88 396.441 134.453 396.284 133.823ZM60.6191 131.739C60.0351 131.248 59.9521 130.377 60.4431 129.783C60.9431 129.19 61.8141 129.116 62.4081 129.607C62.9921 130.098 63.0751 130.978 62.5841 131.571V131.562C62.3061 131.895 61.9171 132.062 61.5181 132.062C61.2031 132.063 60.8871 131.961 60.6191 131.739ZM395.079 129.422C394.866 128.68 395.273 127.911 396.015 127.689C396.747 127.466 397.525 127.884 397.738 128.616C397.738 128.616 397.738 128.616 397.748 128.616C397.97 129.348 397.544 130.126 396.811 130.349C396.682 130.386 396.542 130.414 396.413 130.414C395.811 130.413 395.264 130.024 395.079 129.422ZM63.5191 128.125C62.8891 127.698 62.7221 126.827 63.1571 126.198C63.5921 125.568 64.4541 125.401 65.0931 125.836C65.7231 126.272 65.8811 127.133 65.4541 127.764C65.1851 128.162 64.7501 128.375 64.3051 128.375C64.0381 128.366 63.7601 128.291 63.5191 128.125ZM393.651 125.085C393.392 124.362 393.772 123.565 394.494 123.306C395.208 123.046 396.004 123.426 396.264 124.149C396.524 124.871 396.153 125.668 395.431 125.928C395.273 125.984 395.115 126.002 394.958 126.002C394.394 126.003 393.856 125.65 393.651 125.085ZM66.0671 124.26C65.4001 123.88 65.1591 123.037 65.5391 122.361C65.9091 121.694 66.7621 121.453 67.4291 121.833C68.0961 122.213 68.3371 123.056 67.9571 123.723C67.7071 124.177 67.2351 124.436 66.7441 124.436C66.5121 124.436 66.2811 124.381 66.0671 124.26ZM391.994 120.841C391.697 120.127 392.03 119.312 392.735 119.016C393.448 118.719 394.263 119.053 394.56 119.757C394.857 120.471 394.523 121.286 393.819 121.583C393.642 121.657 393.457 121.694 393.281 121.694C392.735 121.694 392.215 121.37 391.994 120.841ZM68.2631 120.184C67.5681 119.86 67.2721 119.035 67.5871 118.34C67.9111 117.636 68.7361 117.339 69.4401 117.664C70.1351 117.979 70.4321 118.804 70.1161 119.508C69.8751 120.008 69.3751 120.314 68.8471 120.314C68.6521 120.313 68.4581 120.267 68.2631 120.184ZM390.112 116.69C389.778 116.004 390.056 115.17 390.751 114.837C391.437 114.494 392.271 114.781 392.604 115.467C392.947 116.162 392.66 116.996 391.974 117.329C391.77 117.422 391.566 117.468 391.362 117.468C390.845 117.469 390.353 117.182 390.112 116.69ZM70.1531 115.949C69.4301 115.671 69.0691 114.874 69.3471 114.151C69.3471 114.151 69.3471 114.151 69.3471 114.16C69.6161 113.437 70.4221 113.076 71.1361 113.354C71.8591 113.623 72.2201 114.429 71.9421 115.142C71.7291 115.698 71.2001 116.041 70.6451 116.041C70.4781 116.042 70.3111 116.014 70.1531 115.949ZM387.991 112.659C387.62 111.992 387.852 111.149 388.52 110.769C389.187 110.389 390.039 110.63 390.419 111.298C390.789 111.965 390.557 112.808 389.89 113.188C389.667 113.308 389.436 113.373 389.204 113.373C388.723 113.373 388.25 113.114 387.991 112.659ZM71.7381 111.594C71.0061 111.372 70.5981 110.593 70.8301 109.861C71.0621 109.12 71.8401 108.712 72.5721 108.944C73.3041 109.176 73.7121 109.954 73.4801 110.686C73.2941 111.279 72.7481 111.659 72.1551 111.659C72.0161 111.659 71.8771 111.64 71.7381 111.594ZM385.646 108.758C385.229 108.119 385.414 107.257 386.054 106.84C386.702 106.423 387.564 106.617 387.981 107.257C388.397 107.905 388.203 108.767 387.564 109.184C387.332 109.332 387.073 109.397 386.813 109.397C386.35 109.398 385.906 109.175 385.646 108.758ZM73.0721 107.155C72.3221 106.97 71.8771 106.21 72.0621 105.469C72.2481 104.728 73.0071 104.274 73.7481 104.468C74.4991 104.654 74.9431 105.404 74.7581 106.154C74.6011 106.784 74.0351 107.201 73.4141 107.201C73.3041 107.202 73.1841 107.183 73.0721 107.155ZM383.07 105.006C382.617 104.385 382.746 103.514 383.367 103.069C383.988 102.615 384.859 102.745 385.313 103.365C385.767 103.986 385.629 104.857 385.008 105.311C384.766 105.496 384.479 105.58 384.192 105.58C383.765 105.58 383.338 105.376 383.07 105.006ZM74.1661 102.652C73.4151 102.504 72.9241 101.763 73.0721 101.012C73.2301 100.261 73.9621 99.7797 74.7121 99.9277C75.4631 100.076 75.9541 100.818 75.8061 101.568C75.6671 102.226 75.0831 102.68 74.4441 102.68C74.3511 102.68 74.2581 102.671 74.1661 102.652ZM380.281 101.411C379.79 100.818 379.874 99.9367 380.467 99.4547C381.06 98.9637 381.931 99.0467 382.422 99.6407C382.913 100.234 382.829 101.114 382.237 101.596C381.977 101.809 381.662 101.92 381.348 101.92C380.948 101.92 380.55 101.744 380.281 101.411ZM377.278 97.9817C376.76 97.4257 376.788 96.5457 377.352 96.0167C377.918 95.4977 378.789 95.5257 379.317 96.0907C379.836 96.6557 379.808 97.5367 379.243 98.0557C378.974 98.3057 378.641 98.4257 378.298 98.4257C377.927 98.4267 377.557 98.2777 377.278 97.9817ZM75.0461 98.1017C74.2861 97.9817 73.7671 97.2677 73.8881 96.5087C74.0081 95.7487 74.7221 95.2387 75.4811 95.3597C76.2411 95.4797 76.7511 96.1847 76.6301 96.9437C76.5281 97.6297 75.9351 98.1207 75.2681 98.1207C75.1941 98.1207 75.1201 98.1117 75.0461 98.1017ZM374.082 94.7477C373.525 94.2197 373.507 93.3397 374.035 92.7837C374.563 92.2277 375.444 92.2087 375.999 92.7367C376.556 93.2647 376.583 94.1447 376.045 94.7007C375.777 94.9877 375.406 95.1267 375.045 95.1267C374.703 95.1277 374.351 95.0077 374.082 94.7477ZM75.7411 93.5157C74.9721 93.4227 74.4341 92.7277 74.5271 91.9687C74.6201 91.2087 75.3051 90.6617 76.0741 90.7547C76.8341 90.8467 77.3711 91.5417 77.2781 92.3017C77.1951 93.0057 76.5921 93.5247 75.9071 93.5247C75.8521 93.5247 75.7971 93.5247 75.7411 93.5157ZM370.7 91.7087C370.107 91.2177 370.033 90.3467 370.533 89.7537C371.024 89.1697 371.895 89.0957 372.488 89.5867C373.072 90.0777 373.146 90.9577 372.655 91.5417C372.376 91.8757 371.987 92.0417 371.589 92.0417C371.274 92.0417 370.959 91.9307 370.7 91.7087ZM367.133 88.9007C366.512 88.4467 366.382 87.5757 366.836 86.9547C367.29 86.3427 368.161 86.2037 368.782 86.6677C369.394 87.1217 369.524 87.9927 369.07 88.6047C368.801 88.9757 368.384 89.1697 367.958 89.1697C367.67 89.1697 367.373 89.0857 367.133 88.9007ZM76.2601 88.9097C75.5001 88.8357 74.9351 88.1587 74.9991 87.3997C75.0731 86.6307 75.7501 86.0747 76.5191 86.1397C77.2791 86.2137 77.8441 86.8907 77.7701 87.6497C77.7051 88.3717 77.1031 88.9197 76.3891 88.9197C76.3431 88.9197 76.3061 88.9097 76.2601 88.9097ZM363.389 86.3247C362.74 85.9167 362.555 85.0547 362.963 84.4067C363.379 83.7577 364.242 83.5727 364.88 83.9897C365.529 84.3977 365.723 85.2597 365.306 85.9077C365.037 86.3247 364.593 86.5467 364.13 86.5467C363.88 86.5477 363.621 86.4727 363.389 86.3247ZM246.358 85.5557C245.59 85.5467 244.968 84.9167 244.987 84.1567C244.996 83.3877 245.626 82.7667 246.395 82.7857C247.155 82.7947 247.776 83.4157 247.767 84.1847C247.748 84.9537 247.127 85.5557 246.377 85.5557C246.367 85.5557 246.358 85.5557 246.358 85.5557ZM249.62 84.1657C249.592 83.4057 250.195 82.7667 250.964 82.7387C251.733 82.7207 252.372 83.3227 252.4 84.0917C252.418 84.8607 251.816 85.5007 251.047 85.5187C251.038 85.5187 251.019 85.5187 251.01 85.5187C250.25 85.5187 249.638 84.9257 249.62 84.1657ZM241.66 85.3887C240.891 85.3417 240.307 84.6747 240.353 83.9147C240.399 83.1457 241.057 82.5617 241.826 82.6087C242.595 82.6547 243.179 83.3227 243.133 84.0817C243.087 84.8227 242.466 85.3887 241.743 85.3887C241.715 85.3887 241.687 85.3887 241.66 85.3887ZM254.253 83.9997C254.197 83.2307 254.771 82.5727 255.541 82.5167C256.31 82.4707 256.968 83.0537 257.024 83.8137C257.07 84.5827 256.495 85.2407 255.726 85.2967C255.698 85.2967 255.661 85.2967 255.634 85.2967C254.911 85.2967 254.299 84.7317 254.253 83.9997ZM236.962 84.9717C236.202 84.8787 235.655 84.1937 235.748 83.4337C235.831 82.6647 236.526 82.1177 237.286 82.2107C238.055 82.2937 238.593 82.9887 238.509 83.7487C238.426 84.4527 237.823 84.9807 237.128 84.9807C237.073 84.9817 237.018 84.9717 236.962 84.9717ZM258.867 83.6657C258.794 82.8967 259.349 82.2207 260.118 82.1467C260.878 82.0727 261.563 82.6287 261.637 83.3977C261.711 84.1577 261.156 84.8337 260.386 84.9077C260.34 84.9167 260.293 84.9167 260.247 84.9167C259.544 84.9167 258.941 84.3787 258.867 83.6657ZM263.482 83.1837C263.38 82.4237 263.926 81.7287 264.686 81.6267C265.446 81.5337 266.141 82.0717 266.233 82.8407C266.335 83.6007 265.789 84.2957 265.029 84.3877C264.974 84.3967 264.918 84.3967 264.852 84.3967C264.168 84.3977 263.565 83.8877 263.482 83.1837ZM232.301 84.2867C231.542 84.1477 231.041 83.4247 231.18 82.6647C231.31 81.9137 232.032 81.4137 232.784 81.5437C233.544 81.6827 234.044 82.4047 233.914 83.1557C233.794 83.8317 233.201 84.3047 232.543 84.3047C232.468 84.3047 232.385 84.2957 232.301 84.2867ZM76.6681 84.2957C75.8991 84.2397 75.3241 83.5727 75.3801 82.8037C75.4361 82.0437 76.1031 81.4697 76.8631 81.5247C77.6321 81.5797 78.2061 82.2387 78.1511 83.0067C78.0961 83.7387 77.4841 84.2947 76.7711 84.2947C76.7321 84.2957 76.6951 84.2957 76.6681 84.2957ZM359.488 84.0087C358.811 83.6477 358.561 82.7947 358.932 82.1277C359.303 81.4517 360.146 81.2007 360.822 81.5717C361.489 81.9427 361.74 82.7857 361.369 83.4617C361.119 83.9247 360.637 84.1847 360.146 84.1847C359.923 84.1847 359.692 84.1287 359.488 84.0087ZM268.078 82.5817C267.967 81.8217 268.486 81.1177 269.245 81.0067C270.005 80.8957 270.709 81.4147 270.83 82.1737C270.941 82.9337 270.413 83.6477 269.654 83.7587C269.589 83.7677 269.515 83.7677 269.45 83.7677C268.773 83.7677 268.18 83.2757 268.078 82.5817ZM227.678 83.2947C226.927 83.1097 226.483 82.3587 226.667 81.6087C226.844 80.8677 227.604 80.4137 228.345 80.5987C229.095 80.7837 229.549 81.5437 229.364 82.2847C229.207 82.9147 228.632 83.3417 228.011 83.3417C227.899 83.3417 227.788 83.3227 227.678 83.2947ZM272.655 81.8867C272.534 81.1267 273.044 80.4137 273.803 80.2837C274.554 80.1637 275.267 80.6727 275.398 81.4327C275.527 82.1837 275.018 82.9057 274.258 83.0257C274.184 83.0447 274.1 83.0447 274.026 83.0447C273.359 83.0447 272.776 82.5627 272.655 81.8867ZM277.223 81.1077C277.094 80.3567 277.593 79.6247 278.344 79.4947C279.104 79.3557 279.826 79.8567 279.966 80.6167C280.095 81.3667 279.595 82.0897 278.845 82.2287C278.762 82.2477 278.678 82.2477 278.594 82.2477C277.936 82.2477 277.353 81.7847 277.223 81.1077ZM355.429 81.9697H355.439C354.734 81.6547 354.429 80.8297 354.753 80.1257C355.068 79.4307 355.892 79.1247 356.597 79.4497C357.292 79.7647 357.598 80.5897 357.273 81.2937C357.041 81.8027 356.541 82.0997 356.013 82.0997C355.819 82.0997 355.624 82.0627 355.429 81.9697ZM223.128 81.9887C222.396 81.7477 221.997 80.9597 222.239 80.2277C222.48 79.5047 223.267 79.1067 223.999 79.3477C224.722 79.5887 225.12 80.3667 224.879 81.0987C224.684 81.6827 224.147 82.0527 223.563 82.0527C223.415 82.0537 223.266 82.0347 223.128 81.9887ZM281.782 80.2747C281.643 79.5147 282.134 78.7917 282.894 78.6527C283.644 78.5047 284.376 79.0047 284.516 79.7557C284.654 80.5067 284.164 81.2387 283.413 81.3777C283.321 81.3967 283.237 81.4057 283.144 81.4057C282.495 81.4047 281.912 80.9407 281.782 80.2747ZM286.341 79.4127C286.193 78.6527 286.693 77.9297 287.444 77.7817C288.194 77.6427 288.926 78.1337 289.066 78.8937C289.213 79.6447 288.713 80.3767 287.963 80.5157C287.871 80.5347 287.787 80.5437 287.703 80.5437C287.045 80.5427 286.461 80.0697 286.341 79.4127ZM218.68 80.3297C217.975 80.0427 217.642 79.2267 217.938 78.5137C218.226 77.8097 219.041 77.4757 219.754 77.7627C220.459 78.0687 220.792 78.8747 220.496 79.5877C220.273 80.1157 219.764 80.4397 219.216 80.4397C219.041 80.4407 218.856 80.4037 218.68 80.3297ZM351.25 80.2277C350.528 79.9587 350.166 79.1527 350.435 78.4397C350.704 77.7167 351.51 77.3557 352.223 77.6247C352.946 77.8927 353.308 78.6897 353.039 79.4127C352.825 79.9687 352.297 80.3207 351.732 80.3207C351.575 80.3207 351.407 80.2837 351.25 80.2277ZM290.891 78.5507C290.752 77.7907 291.252 77.0677 292.003 76.9287C292.762 76.7897 293.485 77.2897 293.624 78.0407C293.762 78.8007 293.262 79.5237 292.512 79.6627C292.429 79.6817 292.345 79.6907 292.261 79.6907C291.595 79.6907 291.011 79.2177 290.891 78.5507ZM76.9831 79.6717C76.2141 79.6247 75.6391 78.9677 75.6861 78.1977C75.7321 77.4287 76.3901 76.8447 77.1501 76.8917C77.9191 76.9377 78.5031 77.6057 78.4561 78.3647C78.4101 79.1057 77.7981 79.6717 77.0661 79.6717C77.0381 79.6717 77.0101 79.6717 76.9831 79.6717ZM295.45 77.7167C295.321 76.9567 295.821 76.2347 296.58 76.1047C297.34 75.9747 298.053 76.4757 298.193 77.2347C298.322 77.9947 297.813 78.7087 297.063 78.8467C296.98 78.8557 296.896 78.8657 296.821 78.8657C296.154 78.8657 295.57 78.3927 295.45 77.7167ZM346.951 78.7917C346.21 78.5787 345.793 77.8097 346.005 77.0687C346.228 76.3367 346.997 75.9107 347.738 76.1237C347.738 76.1237 347.738 76.1237 347.729 76.1237C348.47 76.3457 348.887 77.1147 348.675 77.8567C348.499 78.4587 347.943 78.8477 347.34 78.8477C347.211 78.8467 347.08 78.8377 346.951 78.7917ZM214.38 78.3287C213.694 77.9767 213.425 77.1427 213.778 76.4567C214.13 75.7807 214.973 75.5117 215.649 75.8637C216.335 76.2157 216.604 77.0497 216.252 77.7357C216.001 78.2087 215.52 78.4867 215.02 78.4867C214.798 78.4857 214.584 78.4397 214.38 78.3287ZM300.018 76.9297C299.898 76.1697 300.417 75.4557 301.176 75.3357C301.927 75.2157 302.64 75.7347 302.76 76.4847C302.88 77.2447 302.362 77.9587 301.612 78.0787C301.538 78.0877 301.464 78.0977 301.389 78.0977C300.713 78.0967 300.129 77.6147 300.018 76.9297ZM342.558 77.6707C341.808 77.5037 341.326 76.7627 341.493 76.0117C341.66 75.2607 342.401 74.7887 343.151 74.9547C343.902 75.1217 344.374 75.8627 344.208 76.6137C344.069 77.2627 343.494 77.6977 342.855 77.6977C342.753 77.6977 342.652 77.6887 342.558 77.6707ZM304.596 76.2157C304.494 75.4557 305.022 74.7517 305.782 74.6407C306.541 74.5387 307.245 75.0667 307.347 75.8267C307.458 76.5867 306.93 77.2907 306.161 77.3927L306.171 77.4017C306.106 77.4107 306.041 77.4107 305.976 77.4107C305.29 77.4107 304.697 76.9107 304.596 76.2157ZM338.083 76.8367C337.333 76.7257 336.804 76.0117 336.925 75.2517C337.045 74.4917 337.75 73.9727 338.509 74.0937C339.269 74.2047 339.788 74.9177 339.667 75.6777C339.566 76.3637 338.972 76.8547 338.296 76.8547C338.231 76.8547 338.157 76.8457 338.083 76.8367ZM309.191 75.5947C309.098 74.8257 309.654 74.1397 310.414 74.0567C311.173 73.9637 311.868 74.5107 311.951 75.2707C312.044 76.0397 311.488 76.7257 310.728 76.8177C310.672 76.8177 310.626 76.8267 310.571 76.8267C309.877 76.8267 309.275 76.2987 309.191 75.5947ZM313.797 75.0847C313.732 74.3247 314.297 73.6487 315.067 73.5837C315.836 73.5187 316.503 74.0937 316.568 74.8537C316.633 75.6227 316.068 76.2897 315.298 76.3547H315.307C315.261 76.3637 315.224 76.3637 315.187 76.3637C314.473 76.3637 313.862 75.8077 313.797 75.0847ZM333.57 76.2897C332.801 76.2157 332.245 75.5397 332.32 74.7707C332.385 74.0107 333.061 73.4457 333.83 73.5197C334.59 73.5937 335.155 74.2707 335.081 75.0297C335.017 75.7527 334.414 76.2897 333.701 76.2897C333.653 76.2897 333.617 76.2897 333.57 76.2897ZM210.257 75.9927C209.599 75.5847 209.405 74.7327 209.813 74.0747C210.211 73.4257 211.073 73.2227 211.721 73.6297C212.379 74.0277 212.573 74.8897 212.175 75.5387C211.906 75.9647 211.452 76.1967 210.989 76.1967C210.739 76.1977 210.488 76.1317 210.257 75.9927ZM318.42 74.7237C318.383 73.9637 318.976 73.3057 319.736 73.2687C320.505 73.2317 321.163 73.8247 321.2 74.5937C321.237 75.3537 320.644 76.0117 319.875 76.0487C319.856 76.0487 319.828 76.0487 319.81 76.0487C319.069 76.0487 318.458 75.4747 318.42 74.7237ZM329.02 75.9837C328.252 75.9557 327.658 75.3077 327.686 74.5377C327.714 73.7777 328.362 73.1757 329.131 73.2127C329.9 73.2407 330.494 73.8887 330.466 74.6487C330.429 75.3997 329.817 75.9837 329.076 75.9837C329.057 75.9837 329.039 75.9837 329.02 75.9837ZM323.054 74.5387C323.045 73.7697 323.666 73.1397 324.435 73.1397C325.194 73.1307 325.825 73.7517 325.834 74.5107C325.843 75.2797 325.222 75.9097 324.453 75.9097C324.444 75.9097 324.444 75.9187 324.435 75.9187C323.674 75.9097 323.054 75.2987 323.054 74.5387ZM77.2601 75.0477C76.4911 75.0017 75.8981 74.3437 75.9441 73.5747C75.9911 72.8147 76.6481 72.2217 77.4081 72.2677C78.1771 72.3137 78.7611 72.9627 78.7241 73.7317C78.6781 74.4727 78.0661 75.0477 77.3341 75.0477C77.3071 75.0477 77.2791 75.0477 77.2601 75.0477ZM206.329 73.3527C205.708 72.8987 205.578 72.0277 206.023 71.4067C206.476 70.7857 207.348 70.6467 207.969 71.1017C208.59 71.5557 208.729 72.4267 208.275 73.0477C207.997 73.4187 207.58 73.6137 207.145 73.6137C206.866 73.6117 206.578 73.5287 206.329 73.3527ZM202.603 70.4517C202.01 69.9607 201.936 69.0807 202.418 68.4967C202.909 67.9037 203.789 67.8207 204.383 68.3107C204.966 68.8017 205.05 69.6817 204.559 70.2657C204.29 70.5997 203.892 70.7757 203.493 70.7757C203.178 70.7767 202.863 70.6647 202.603 70.4517ZM77.5201 70.4147C76.7511 70.3687 76.1671 69.7107 76.2131 68.9507C76.2501 68.1817 76.9081 67.5977 77.6771 67.6447C78.4461 67.6817 79.0301 68.3397 78.9841 69.1087C78.9371 69.8507 78.3261 70.4157 77.5941 70.4157C77.5661 70.4147 77.5391 70.4147 77.5201 70.4147ZM199.073 67.3387C198.508 66.8107 198.471 65.9297 198.999 65.3737C199.518 64.8087 200.398 64.7807 200.963 65.2997C201.519 65.8277 201.556 66.7087 201.037 67.2647C200.759 67.5607 200.389 67.7097 200.018 67.7097C199.675 67.7097 199.332 67.5887 199.073 67.3387ZM77.7891 65.7917C77.0291 65.7357 76.4451 65.0687 76.5011 64.3087C76.5571 63.5397 77.2151 62.9647 77.9841 63.0207C78.7531 63.0667 79.3271 63.7347 79.2811 64.4937C79.2251 65.2357 78.6141 65.7917 77.8911 65.7917C77.8541 65.7917 77.8261 65.7917 77.7891 65.7917ZM195.709 64.0487C195.171 63.4927 195.181 62.6127 195.737 62.0847C196.284 61.5477 197.164 61.5567 197.701 62.1037C198.239 62.6597 198.22 63.5397 197.673 64.0677C197.404 64.3367 197.052 64.4667 196.7 64.4667C196.34 64.4657 195.978 64.3277 195.709 64.0487ZM78.1221 61.1677C77.3621 61.1027 76.7971 60.4267 76.8621 59.6577C76.9271 58.8977 77.6031 58.3327 78.3631 58.3977C79.1321 58.4627 79.6971 59.1387 79.6321 59.8987C79.5671 60.6307 78.9651 61.1687 78.2521 61.1687C78.2061 61.1677 78.1691 61.1677 78.1221 61.1677ZM192.503 60.6207C191.994 60.0457 192.04 59.1657 192.614 58.6557C193.179 58.1467 194.06 58.1927 194.569 58.7577C195.088 59.3327 195.042 60.2127 194.467 60.7227C194.207 60.9637 193.874 61.0837 193.54 61.0837C193.161 61.0837 192.782 60.9267 192.503 60.6207ZM189.436 57.0907C188.945 56.4977 189.019 55.6267 189.603 55.1257C190.187 54.6347 191.067 54.7087 191.558 55.2927C191.558 55.2927 191.558 55.2927 191.567 55.2927C192.058 55.8857 191.984 56.7567 191.391 57.2567C191.131 57.4707 190.816 57.5807 190.501 57.5807C190.103 57.5817 189.714 57.4147 189.436 57.0907ZM78.5491 56.5527C77.7801 56.4697 77.2331 55.7747 77.3261 55.0147C77.3261 55.0147 77.3261 55.0147 77.3171 55.0147C77.4101 54.2547 78.0961 53.6987 78.8551 53.7917C79.6151 53.8747 80.1711 54.5607 80.0871 55.3207C80.0031 56.0337 79.4011 56.5617 78.7061 56.5617C78.6501 56.5617 78.5951 56.5527 78.5491 56.5527ZM186.471 53.4767C185.998 52.8737 186.091 52.0027 186.684 51.5217C187.286 51.0397 188.167 51.1417 188.639 51.7447C189.121 52.3377 189.028 53.2177 188.426 53.6907C188.167 53.8947 187.861 53.9967 187.555 53.9967C187.148 53.9957 186.749 53.8197 186.471 53.4767ZM79.0951 51.9477C78.3351 51.8367 77.8071 51.1327 77.9181 50.3727C78.0291 49.6127 78.7341 49.0847 79.4931 49.1957C80.2531 49.3067 80.7811 50.0107 80.6701 50.7707C80.5681 51.4657 79.9751 51.9657 79.2901 51.9657C79.2251 51.9657 79.1601 51.9567 79.0951 51.9477ZM183.589 49.8167C183.126 49.2147 183.237 48.3337 183.839 47.8707C184.451 47.3987 185.322 47.5097 185.785 48.1117C186.258 48.7227 186.146 49.5947 185.544 50.0667C185.284 50.2607 184.988 50.3537 184.692 50.3537C184.275 50.3537 183.867 50.1687 183.589 49.8167ZM79.7901 47.3697C79.0401 47.2217 78.5391 46.4987 78.6871 45.7477C78.8261 44.9877 79.5491 44.4967 80.3091 44.6357C81.0601 44.7747 81.5601 45.4967 81.4211 46.2577C81.2911 46.9247 80.7081 47.3877 80.0501 47.3877C79.9671 47.3887 79.8831 47.3797 79.7901 47.3697ZM180.763 46.1287C180.3 45.5167 180.42 44.6457 181.032 44.1737C181.644 43.7107 182.515 43.8307 182.978 44.4427C183.441 45.0537 183.32 45.9247 182.709 46.3887C182.459 46.5837 182.162 46.6757 181.875 46.6757C181.458 46.6747 181.041 46.4807 180.763 46.1287ZM177.974 42.4217C177.511 41.8097 177.631 40.9387 178.242 40.4757C178.854 40.0127 179.725 40.1327 180.188 40.7447C180.188 40.7447 180.188 40.7447 180.188 40.7537C180.651 41.3647 180.531 42.2357 179.91 42.6987C179.66 42.8847 179.372 42.9767 179.076 42.9767C178.66 42.9787 178.243 42.7837 177.974 42.4217ZM80.6891 42.8207C79.9381 42.6447 79.4851 41.8937 79.6611 41.1437C79.8371 40.4017 80.5881 39.9387 81.3291 40.1147C82.0801 40.2907 82.5431 41.0417 82.3671 41.7917C82.2091 42.4307 81.6441 42.8577 81.0141 42.8577C80.9021 42.8577 80.8001 42.8487 80.6891 42.8207ZM175.176 38.7337C174.713 38.1217 174.833 37.2507 175.444 36.7787C176.056 36.3157 176.927 36.4357 177.39 37.0477C177.853 37.6587 177.733 38.5297 177.121 38.9937C176.871 39.1877 176.574 39.2807 176.287 39.2807C175.861 39.2807 175.444 39.0867 175.176 38.7337ZM81.8101 38.3267C81.0691 38.1037 80.6611 37.3257 80.8831 36.5937C81.1061 35.8527 81.8841 35.4447 82.6161 35.6667C83.3481 35.8897 83.7651 36.6677 83.5431 37.3997C83.3571 38.0017 82.8111 38.3817 82.2091 38.3817C82.0791 38.3817 81.9401 38.3637 81.8101 38.3267ZM172.359 35.0647C171.896 34.4627 171.998 33.5917 172.609 33.1187C173.211 32.6467 174.082 32.7567 174.555 33.3597C175.028 33.9617 174.916 34.8417 174.314 35.3147C174.054 35.5087 173.758 35.6017 173.462 35.6017C173.044 35.6027 172.637 35.4167 172.359 35.0647ZM83.2191 33.9067C82.4961 33.6377 82.1351 32.8317 82.4131 32.1187C82.6821 31.3957 83.4881 31.0347 84.2021 31.3127C84.9251 31.5817 85.2861 32.3877 85.0081 33.1017C84.7951 33.6577 84.2661 34.0007 83.7101 34.0007C83.5431 33.9997 83.3761 33.9717 83.2191 33.9067ZM169.505 31.4507C169.014 30.8577 169.116 29.9867 169.709 29.5047C170.302 29.0137 171.183 29.1057 171.664 29.7087C172.146 30.3017 172.053 31.1827 171.451 31.6637C171.201 31.8677 170.895 31.9697 170.58 31.9697C170.181 31.9697 169.774 31.7937 169.505 31.4507ZM84.9241 29.5977C84.2201 29.2737 83.9241 28.4487 84.2391 27.7537C84.5631 27.0587 85.3881 26.7527 86.0831 27.0777C86.7871 27.3927 87.0841 28.2177 86.7691 28.9217C86.5281 29.4217 86.0271 29.7277 85.4991 29.7277C85.3041 29.7277 85.1091 29.6807 84.9241 29.5977ZM166.568 27.9397C166.058 27.3557 166.123 26.4847 166.707 25.9747C167.282 25.4747 168.162 25.5297 168.662 26.1137C169.162 26.6887 169.107 27.5687 168.523 28.0787C168.263 28.3007 167.939 28.4117 167.615 28.4117C167.226 28.4117 166.836 28.2537 166.568 27.9397ZM86.9251 25.4187C86.2491 25.0487 86.0081 24.1957 86.3791 23.5287C86.3791 23.5287 86.3791 23.5287 86.3881 23.5287C86.7591 22.8527 87.6021 22.6117 88.2691 22.9817C88.9451 23.3617 89.1861 24.2047 88.8161 24.8717C88.5571 25.3347 88.0841 25.5857 87.5931 25.5857C87.3701 25.5857 87.1381 25.5297 86.9251 25.4187ZM163.491 24.5477C162.963 23.9917 162.982 23.1117 163.538 22.5827C164.094 22.0547 164.974 22.0827 165.502 22.6387C166.03 23.1947 166.012 24.0757 165.456 24.6037C165.187 24.8537 164.844 24.9837 164.502 24.9837C164.13 24.9837 163.76 24.8347 163.491 24.5477ZM160.266 21.3047C159.71 20.7767 159.691 19.8967 160.229 19.3407C160.757 18.7847 161.637 18.7667 162.193 19.3037C162.749 19.8327 162.758 20.7127 162.23 21.2687C161.952 21.5467 161.591 21.6947 161.229 21.6947C160.887 21.6937 160.535 21.5647 160.266 21.3047ZM89.2331 21.3977C88.5931 20.9717 88.4171 20.1097 88.8431 19.4707C89.2691 18.8317 90.1311 18.6557 90.7701 19.0817C91.4091 19.5077 91.5851 20.3697 91.1591 21.0087C90.8901 21.4067 90.4551 21.6297 90.0011 21.6297C89.7421 21.6287 89.4731 21.5547 89.2331 21.3977ZM156.894 18.2187C156.319 17.7097 156.264 16.8287 156.764 16.2537C157.273 15.6797 158.144 15.6147 158.728 16.1247C159.302 16.6247 159.367 17.5047 158.857 18.0797C158.579 18.3947 158.199 18.5617 157.81 18.5617C157.487 18.5617 157.162 18.4417 156.894 18.2187ZM91.8641 17.5707C91.2621 17.0977 91.1601 16.2177 91.6411 15.6247C92.1231 15.0227 92.9941 14.9197 93.5961 15.4017C94.1981 15.8837 94.2911 16.7547 93.8181 17.3577C93.5401 17.6997 93.1321 17.8757 92.7251 17.8757C92.4291 17.8757 92.1231 17.7737 91.8641 17.5707ZM153.382 15.3097C152.779 14.8277 152.678 13.9567 153.15 13.3547C153.622 12.7527 154.493 12.6407 155.105 13.1137C155.707 13.5957 155.809 14.4667 155.337 15.0687C155.059 15.4207 154.651 15.5967 154.243 15.5967C153.938 15.5967 153.641 15.5047 153.382 15.3097ZM94.8201 14.0027C94.2731 13.4657 94.2551 12.5847 94.7921 12.0387C95.3201 11.4827 96.2001 11.4737 96.7561 12.0017C97.3031 12.5397 97.3221 13.4197 96.7841 13.9667C96.5151 14.2537 96.1541 14.3927 95.7831 14.3927C95.4411 14.3917 95.0891 14.2627 94.8201 14.0027ZM149.722 12.5947C149.092 12.1587 148.944 11.2877 149.379 10.6577C149.815 10.0277 150.686 9.87866 151.316 10.3147C151.946 10.7497 152.094 11.6207 151.659 12.2517C151.39 12.6407 150.955 12.8447 150.519 12.8447C150.241 12.8447 149.962 12.7617 149.722 12.5947ZM98.1091 10.7417C97.6181 10.1487 97.7011 9.26867 98.2851 8.77667C98.8781 8.28567 99.7581 8.36867 100.249 8.96267C100.74 9.54667 100.657 10.4267 100.073 10.9177C99.8141 11.1307 99.4981 11.2427 99.1841 11.2427C98.7861 11.2417 98.3881 11.0657 98.1091 10.7417ZM145.913 10.1207C145.255 9.72167 145.051 8.86967 145.44 8.21167C145.839 7.55367 146.691 7.34067 147.349 7.73867C147.349 7.73867 147.349 7.73867 147.359 7.73867C148.007 8.13767 148.22 8.98967 147.822 9.64767C147.562 10.0837 147.108 10.3237 146.636 10.3237C146.386 10.3247 146.145 10.2597 145.913 10.1207ZM101.742 7.84966C101.315 7.21066 101.501 6.34867 102.14 5.93167C102.789 5.50567 103.65 5.69067 104.067 6.32967C104.484 6.97867 104.308 7.84067 103.659 8.25667C103.427 8.40467 103.159 8.47967 102.899 8.47967C102.446 8.48067 102.001 8.25766 101.742 7.84966ZM141.957 7.91467C141.271 7.57267 141.002 6.72867 141.355 6.05267C141.697 5.36667 142.541 5.08867 143.217 5.44067C143.903 5.79367 144.181 6.62667 143.829 7.31267C143.579 7.79467 143.097 8.07267 142.587 8.07267C142.373 8.07267 142.16 8.01667 141.957 7.91467ZM105.68 5.42267C105.346 4.72767 105.633 3.90367 106.328 3.56067C107.014 3.22767 107.848 3.52367 108.181 4.20867C108.514 4.90367 108.228 5.72866 107.533 6.07166V6.06267C107.338 6.16467 107.134 6.20167 106.93 6.20167C106.412 6.20067 105.921 5.91367 105.68 5.42267ZM137.852 6.02467C137.139 5.73767 136.805 4.92166 137.092 4.21766C137.388 3.50466 138.195 3.16167 138.908 3.45767C139.612 3.74467 139.955 4.56067 139.668 5.27367C139.446 5.81067 138.927 6.13467 138.38 6.13467C138.204 6.13567 138.028 6.09867 137.852 6.02467ZM133.608 4.51467C132.876 4.29267 132.468 3.51367 132.691 2.77267C132.913 2.04067 133.692 1.63267 134.424 1.85567C135.156 2.07767 135.573 2.85567 135.351 3.58767C135.165 4.19067 134.619 4.56967 134.016 4.56967C133.886 4.56967 133.747 4.55167 133.608 4.51467ZM109.905 3.51367C109.664 2.78167 110.063 2.00367 110.785 1.76267C111.517 1.52167 112.305 1.91967 112.545 2.65167C112.777 3.37467 112.388 4.16167 111.655 4.40367C111.507 4.44967 111.368 4.46867 111.22 4.46867C110.637 4.46767 110.09 4.09767 109.905 3.51367ZM129.262 3.42167C128.502 3.28267 128.011 2.55067 128.159 1.79967C128.307 1.03967 129.03 0.548665 129.79 0.696665C130.54 0.844665 131.032 1.56767 130.893 2.32767C130.763 2.98567 130.179 3.44867 129.531 3.44867C129.438 3.44867 129.355 3.43967 129.262 3.42167ZM114.343 2.18867C114.204 1.43767 114.696 0.705667 115.455 0.567667C116.206 0.428667 116.938 0.928667 117.077 1.67967C117.216 2.43967 116.716 3.16267 115.965 3.30167C115.873 3.32067 115.789 3.32967 115.706 3.32967C115.048 3.32867 114.464 2.85567 114.343 2.18867ZM124.833 2.82767C124.064 2.77167 123.499 2.10467 123.554 1.34467C123.61 0.575667 124.277 0.00166539 125.046 0.0566654C125.806 0.112665 126.38 0.779666 126.325 1.54867C126.269 2.28067 125.658 2.83667 124.944 2.83667C124.907 2.83667 124.87 2.83667 124.833 2.82767ZM118.921 1.46567C118.884 0.696666 119.468 0.0386651 120.237 0.00166509C121.006 -0.0353349 121.654 0.548667 121.692 1.31767C121.738 2.08667 121.145 2.73467 120.385 2.78167H120.376C120.357 2.78167 120.329 2.78167 120.311 2.78167C119.57 2.78167 118.958 2.20767 118.921 1.46567Z" fill="#EDA940"/>
<path d="M342.688 263.058C342.318 263.058 341.966 262.92 341.706 262.651C341.567 262.521 341.474 262.372 341.4 262.206C341.326 262.03 341.289 261.854 341.289 261.668C341.289 261.576 341.308 261.492 341.326 261.399C341.335 261.307 341.363 261.224 341.4 261.139C341.437 261.056 341.483 260.972 341.529 260.898C341.576 260.824 341.64 260.75 341.705 260.685C342.02 260.36 342.502 260.212 342.956 260.305C343.049 260.323 343.133 260.351 343.216 260.388C343.299 260.416 343.383 260.462 343.457 260.508C343.531 260.564 343.605 260.619 343.671 260.685C343.931 260.944 344.078 261.306 344.078 261.667C344.078 261.853 344.042 262.028 343.968 262.205C343.903 262.372 343.801 262.52 343.671 262.65C343.402 262.919 343.059 263.058 342.688 263.058Z" fill="#EDA940"/>
</g>
<path opacity="0.4" d="M74.695 72.9249C61.868 78.8489 48.262 83.8329 37.632 93.1409C27.002 102.449 19.919 117.608 24.799 130.867C30.396 146.075 48.741 152.793 56.78 166.863C67.015 184.778 57.42 207.03 48.406 225.589C40.139 242.61 32.277 260.138 29.358 278.834C26.44 297.53 28.961 317.769 39.993 333.143C51.025 348.517 71.64 357.641 89.667 351.89C101.655 348.066 111.433 338.404 123.82 336.192C134.343 334.313 145.16 338.207 154.152 343.987C163.144 349.767 170.788 357.378 179.135 364.056C200.375 381.046 228.637 392.112 254.894 385.012C273.496 379.982 288.581 366.689 305.682 357.808C324.748 347.907 346.17 343.576 366.105 335.567C386.04 327.558 405.654 314.412 413.065 294.247C419.098 277.829 416.032 259.437 410.475 242.852C404.918 226.267 396.95 210.457 393.006 193.416C386.643 165.925 391.141 137.15 388.732 109.035C386.323 80.9199 373.873 50.2139 347.44 40.3369C326.512 32.5169 303.233 40.0069 282.493 48.3119C261.753 56.6169 239.746 65.9599 217.826 61.6359C204.423 58.9929 192.584 51.4579 180.973 44.2609C169.362 37.0639 157.192 29.9029 143.643 28.1609C128.49 26.2129 116.198 32.2649 107.889 44.4759C98.731 57.9319 89.933 65.8869 74.695 72.9249Z" fill="#EDA940"/>
<path opacity="0.7" d="M135.482 267.45C160.75 267.582 186.17 265.956 211.18 269.557C217.214 270.426 223.255 271.641 229.189 273.242C227.909 267.022 225.091 261.064 220.099 257.255C214.022 252.618 205.366 250.351 200.45 256.204C200.383 253.213 198.226 250.386 195.36 249.53C192.493 248.675 190.591 247.56 188.897 250.025C186.604 243.937 180.717 239.362 174.252 238.642C167.786 237.922 162.681 239.266 159.105 244.7C156.155 238.836 149.82 234.834 143.257 234.69C136.694 234.546 130.921 235.99 127.717 241.719C124.575 234.002 116.616 228.499 108.286 228.287C99.9562 228.074 92.5992 230.811 89.0672 238.358C85.3102 231.619 76.4012 228.277 69.1392 230.882C61.8772 233.487 57.8842 239.984 59.2682 247.574C54.8852 246.682 50.0952 248.136 46.9482 251.314C44.4022 253.886 42.9962 257.522 43.0472 261.134C73.7812 264.485 104.582 267.289 135.482 267.45Z" fill="#EDA940"/>
<path opacity="0.4" d="M110.376 145.302H11.002C12.066 142.003 14.879 139.308 18.239 138.43C21.77 137.507 25.617 138.584 28.153 141.209C29.011 137.803 31.978 135.026 35.432 134.393C38.887 133.76 43.253 135.269 45.263 138.15C44.32 135.961 45.266 133.245 47.138 131.77C49.01 130.295 51.6 129.948 53.934 130.433C56.268 130.918 58.717 132.443 60.631 133.864C55.47 125.909 56.533 114.468 63.072 107.601C69.611 100.734 80.987 99.1118 89.184 103.878C97.381 108.644 101.269 119.946 98.5369 129.026C101.48 126.731 105.742 126.275 109.104 127.894C112.466 129.513 114.766 133.131 114.806 136.863C114.841 140.172 113.094 143.428 110.376 145.302Z" fill="#EDA940"/>
<path d="M200.444 265.598C197.565 265.978 194.686 266.357 191.808 266.737C188.112 233.455 201.182 200.918 226.104 179.625C227.132 180.778 228.16 181.931 229.187 183.084C206.302 204.404 195.766 235.387 200.444 265.598Z" fill="#B06D00"/>
<path d="M233.835 189.956C233.821 191.07 233.827 192.182 233.853 193.292C234.888 193.396 235.91 193.518 236.925 193.647C237.329 193.246 237.711 192.826 238.054 192.382C238.101 192.858 238.149 193.333 238.197 193.809C238.849 193.898 239.496 193.993 240.142 194.091C240.964 192.865 241.689 191.568 242.227 190.217C243.215 191.606 243.716 193.158 244.033 194.739C244.639 194.848 245.245 194.96 245.851 195.077C246.877 192.847 247.768 190.539 248.287 188.158C249.031 190.709 249.461 193.287 249.652 195.855C249.782 195.883 249.91 195.918 250.041 195.947C251.097 196.179 252.14 196.41 253.177 196.659C253.414 196.161 253.639 195.657 253.835 195.143C254.032 195.732 254.173 196.33 254.279 196.928C254.854 197.07 255.428 197.217 256.001 197.365C256.314 196.828 256.61 196.281 256.865 195.715C256.941 196.36 257.002 197.003 257.047 197.643C257.272 197.703 257.498 197.763 257.723 197.824C258.131 197.056 258.542 196.29 258.955 195.525C259.076 196.436 259.166 197.344 259.224 198.246C259.514 198.328 259.805 198.404 260.095 198.488C261.135 196.973 262.073 195.39 262.823 193.71C262.811 195.571 262.693 197.407 262.471 199.207C263.03 199.381 263.59 199.558 264.152 199.742C265.394 197.706 266.509 195.585 267.39 193.337C267.303 195.81 267.029 198.228 266.579 200.569C267.496 200.892 268.417 201.223 269.341 201.576C269.997 200.753 270.647 199.925 271.291 199.092C271.141 200.117 270.958 201.128 270.742 202.123C273.609 203.263 276.508 204.575 279.416 206.033C279.45 194.849 269.617 181.18 253.992 177.928C238.44 174.34 223.789 182.639 219.139 192.81C223.323 192.672 227.384 192.765 231.277 193.069C232.13 192.037 232.991 191.003 233.835 189.956Z" fill="#3C9E7C"/>
<path d="M228.898 197.444C228.408 198.149 227.931 198.863 227.469 199.583C228.085 200.096 228.685 200.616 229.278 201.137C229.709 201.055 230.135 200.952 230.545 200.817C230.37 201.141 230.195 201.466 230.02 201.79C230.398 202.128 230.771 202.469 231.141 202.81C232.196 202.382 233.219 201.866 234.145 201.236C234.177 202.55 233.826 203.757 233.345 204.905C233.685 205.236 234.024 205.57 234.36 205.906C235.979 204.925 237.544 203.836 238.904 202.538C238.278 204.489 237.439 206.321 236.451 208.044C236.522 208.119 236.589 208.196 236.66 208.271C237.234 208.875 237.801 209.473 238.356 210.08C238.722 209.864 239.083 209.64 239.431 209.396C239.302 209.857 239.134 210.3 238.944 210.728C239.25 211.067 239.553 211.408 239.855 211.751C240.287 211.543 240.712 211.321 241.12 211.07C240.89 211.515 240.651 211.951 240.404 212.38C240.522 212.516 240.64 212.651 240.758 212.788C241.35 212.474 241.943 212.162 242.538 211.852C242.222 212.487 241.887 213.105 241.535 213.706C241.685 213.884 241.838 214.058 241.987 214.237C243.305 213.718 244.588 213.112 245.793 212.363C244.982 213.547 244.113 214.668 243.194 215.722C243.476 216.075 243.757 216.43 244.037 216.79C245.71 216.026 247.338 215.153 248.871 214.098C247.748 215.64 246.528 217.066 245.23 218.367C245.676 218.969 246.122 219.578 246.559 220.203C247.333 219.96 248.106 219.712 248.877 219.458C248.339 220.048 247.785 220.615 247.217 221.157C248.556 223.124 249.841 225.214 251.069 227.4C255.921 220.271 255.544 207.294 246.968 198.468C238.584 189.46 225.642 188.433 218.279 192.921C221.011 194.64 223.564 196.453 225.92 198.329C226.91 198.036 227.907 197.748 228.898 197.444Z" fill="#3C9E7C"/>
<path d="M217.649 177.098C216.567 177.364 215.482 177.61 214.395 177.835C214.059 176.851 213.709 175.883 213.354 174.923C213.653 174.439 213.976 173.971 214.331 173.537C213.857 173.599 213.383 173.66 212.909 173.72C212.675 173.106 212.436 172.496 212.194 171.889C213.202 170.81 214.302 169.811 215.495 168.982C213.919 168.333 212.293 168.197 210.681 168.247C210.438 167.681 210.191 167.116 209.941 166.553C211.881 165.049 213.927 163.659 216.13 162.614C213.477 162.466 210.869 162.631 208.323 163.026C208.266 162.905 208.203 162.789 208.146 162.668C207.681 161.692 207.22 160.728 206.743 159.774C207.175 159.431 207.614 159.098 208.071 158.79C207.453 158.732 206.839 158.729 206.232 158.761C205.963 158.233 205.691 157.707 205.417 157.183C205.869 156.756 206.335 156.344 206.828 155.968C206.183 156.04 205.543 156.126 204.909 156.227C204.799 156.021 204.69 155.815 204.58 155.609C205.236 155.038 205.889 154.464 206.541 153.889C205.626 153.977 204.721 154.095 203.83 154.243C203.684 153.979 203.545 153.713 203.397 153.449C204.637 152.093 205.968 150.821 207.434 149.711C205.624 150.144 203.862 150.674 202.159 151.298C201.863 150.793 201.564 150.287 201.258 149.782C202.96 148.111 204.774 146.545 206.764 145.179C204.375 145.823 202.082 146.637 199.903 147.605C199.381 146.785 198.85 145.963 198.297 145.143C198.951 144.318 199.61 143.498 200.276 142.681C199.311 143.059 198.368 143.466 197.448 143.902C195.689 141.367 193.755 138.84 191.677 136.337C202.563 133.773 218.103 140.258 224.806 154.742C231.82 169.079 227.051 185.228 218.196 192.059C217.383 187.952 216.374 184.018 215.197 180.295C216.008 179.23 216.82 178.157 217.649 177.098Z" fill="#3C9E7C"/>
<path d="M226.199 179.41C225.156 179.018 224.122 178.607 223.099 178.179C223.378 177.177 223.637 176.181 223.886 175.188C224.406 174.958 224.936 174.754 225.475 174.597C225.049 174.38 224.623 174.162 224.198 173.944C224.352 173.305 224.5 172.667 224.643 172.029C226.085 171.709 227.556 171.506 229.01 171.497C228.076 170.071 226.813 169.04 225.455 168.169C225.574 167.564 225.69 166.959 225.802 166.353C228.253 166.209 230.726 166.219 233.133 166.602C231.028 164.98 228.783 163.642 226.46 162.529C226.481 162.397 226.495 162.266 226.516 162.133C226.684 161.066 226.849 160.009 226.994 158.953C227.544 158.914 228.095 158.887 228.646 158.892C228.169 158.494 227.664 158.145 227.145 157.829C227.222 157.241 227.294 156.654 227.364 156.066C227.978 155.97 228.596 155.893 229.215 155.861C228.642 155.556 228.065 155.265 227.486 154.99C227.512 154.758 227.539 154.526 227.564 154.294C228.428 154.193 229.291 154.09 230.154 153.983C229.349 153.538 228.536 153.125 227.718 152.742C227.747 152.442 227.783 152.143 227.81 151.842C229.599 151.425 231.416 151.128 233.253 151.04C231.515 150.374 229.762 149.816 228.005 149.367C228.046 148.783 228.086 148.197 228.119 147.607C230.468 147.191 232.849 146.924 235.263 146.922C232.928 146.103 230.576 145.478 228.232 145.045C228.265 144.074 228.292 143.095 228.299 142.106C229.304 141.795 230.312 141.491 231.323 141.194C230.314 140.96 229.305 140.763 228.3 140.603C228.281 137.518 228.114 134.34 227.816 131.101C238.245 135.139 247.399 149.272 244.741 165.01C242.423 180.801 229.361 191.427 218.195 192.057C219.846 188.21 221.237 184.394 222.371 180.657C223.641 180.241 224.917 179.815 226.199 179.41Z" fill="#3C9E7C"/>
<path d="M211.47 183.601C210.894 184.238 210.307 184.864 209.71 185.477C209.071 184.993 208.429 184.526 207.787 184.067C207.769 183.629 207.773 183.191 207.812 182.76C207.536 183.004 207.259 183.248 206.983 183.492C206.568 183.201 206.152 182.914 205.736 182.631C205.914 181.507 206.185 180.394 206.589 179.348C205.302 179.614 204.205 180.23 203.197 180.957C202.797 180.701 202.396 180.447 201.992 180.195C202.582 178.396 203.288 176.625 204.244 175.006C202.486 176.058 200.891 177.289 199.436 178.641C199.347 178.589 199.257 178.541 199.168 178.489C198.45 178.066 197.739 177.65 197.022 177.247C197.149 176.841 197.286 176.439 197.445 176.045C197.025 176.275 196.632 176.538 196.258 176.821C195.858 176.6 195.457 176.382 195.056 176.165C195.161 175.697 195.28 175.233 195.433 174.779C195.052 175.103 194.681 175.435 194.319 175.773C194.16 175.689 194.001 175.604 193.842 175.521C194.014 174.873 194.184 174.225 194.351 173.575C193.805 174.027 193.278 174.493 192.772 174.972C192.565 174.866 192.361 174.756 192.152 174.652C192.359 173.251 192.659 171.864 193.116 170.521C192.147 171.579 191.251 172.679 190.432 173.813C190.025 173.618 189.615 173.424 189.202 173.234C189.568 171.431 190.05 169.648 190.731 167.916C189.484 169.359 188.37 170.87 187.396 172.429C186.709 172.131 186.014 171.835 185.307 171.55C185.368 170.741 185.435 169.932 185.508 169.123C185.055 169.781 184.628 170.449 184.229 171.124C182.01 170.265 179.684 169.486 177.276 168.785C183.122 162.446 195.848 159.876 206.385 166.233C217.057 172.361 220.986 184.735 218.28 192.923C215.987 190.651 213.643 188.574 211.284 186.704C211.343 185.672 211.398 184.635 211.47 183.601Z" fill="#3C9E7C"/>
<path d="M107.594 276.769C109.67 276.742 111.746 276.714 113.822 276.687C113.015 252.757 100.422 231.079 80.5985 218.574C79.9895 219.495 79.3815 220.417 78.7725 221.339C97.1575 234.071 107.798 254.911 107.594 276.769Z" fill="#B06D00"/>
<path d="M76.1912 226.679C76.3162 227.466 76.4262 228.253 76.5212 229.041C75.8002 229.221 75.0892 229.413 74.3842 229.608C74.0572 229.366 73.7432 229.108 73.4552 228.829C73.4702 229.17 73.4862 229.512 73.5002 229.853C73.0482 229.983 72.5992 230.117 72.1532 230.253C71.4452 229.47 70.7992 228.627 70.2802 227.726C69.7232 228.81 69.5292 229.96 69.4672 231.112C69.0492 231.251 68.6322 231.393 68.2152 231.538C67.2602 230.065 66.3922 228.524 65.7802 226.892C65.5162 228.774 65.4772 230.642 65.6062 232.479C65.5172 232.512 65.4302 232.55 65.3402 232.584C64.6172 232.856 63.9022 233.127 63.1942 233.41C62.9752 233.082 62.7642 232.749 62.5732 232.405C62.4942 232.842 62.4562 233.279 62.4422 233.714C62.0502 233.874 61.6592 234.036 61.2692 234.2C60.9922 233.852 60.7272 233.496 60.4882 233.122C60.5012 233.586 60.5242 234.047 60.5572 234.505C60.4042 234.571 60.2502 234.636 60.0972 234.703C59.7292 234.202 59.3602 233.702 58.9892 233.203C58.9972 233.86 59.0272 234.512 59.0792 235.156C58.8822 235.244 58.6842 235.327 58.4872 235.417C57.5962 234.452 56.7692 233.428 56.0662 232.317C56.2662 233.633 56.5382 234.919 56.8802 236.171C56.5022 236.352 56.1242 236.534 55.7462 236.722C54.6572 235.409 53.6512 234.023 52.7962 232.523C53.1122 234.264 53.5542 235.947 54.1132 237.557C53.4972 237.88 52.8802 238.209 52.2622 238.554C51.7132 238.039 51.1682 237.52 50.6272 236.997C50.8382 237.707 51.0722 238.404 51.3282 239.085C49.4172 240.187 47.5002 241.413 45.5922 242.743C44.4182 234.833 49.9702 224.15 60.6922 220.243C71.3272 216.106 82.5472 220.471 86.8842 227.19C83.9092 227.523 81.0462 228.006 78.3222 228.621C77.6112 227.976 76.8962 227.333 76.1912 226.679Z" fill="#3C9E7C"/>
<path d="M80.453 231.47C80.872 231.919 81.283 232.374 81.684 232.836C81.301 233.263 80.93 233.692 80.564 234.121C80.251 234.108 79.939 234.078 79.634 234.025C79.791 234.236 79.948 234.448 80.105 234.66C79.873 234.938 79.644 235.217 79.417 235.497C78.627 235.303 77.85 235.043 77.129 234.692C77.242 235.625 77.614 236.443 78.072 237.205C77.865 237.475 77.66 237.745 77.457 238.018C76.211 237.49 74.991 236.88 73.895 236.102C74.539 237.418 75.321 238.628 76.196 239.746C76.153 239.806 76.114 239.867 76.072 239.928C75.728 240.414 75.389 240.896 75.058 241.383C74.777 241.268 74.498 241.146 74.227 241.009C74.366 241.322 74.53 241.618 74.709 241.901C74.527 242.173 74.348 242.445 74.17 242.718C73.843 242.615 73.519 242.502 73.205 242.366C73.413 242.657 73.627 242.941 73.846 243.219C73.777 243.327 73.707 243.435 73.638 243.544C73.187 243.383 72.735 243.223 72.282 243.065C72.571 243.481 72.872 243.885 73.183 244.274C73.095 244.415 73.005 244.554 72.918 244.696C71.932 244.465 70.962 244.167 70.033 243.762C70.729 244.516 71.459 245.22 72.217 245.872C72.054 246.151 71.891 246.431 71.73 246.714C70.468 246.345 69.226 245.895 68.032 245.306C68.986 246.281 69.995 247.165 71.047 247.953C70.793 248.425 70.541 248.902 70.295 249.389C69.722 249.297 69.15 249.201 68.578 249.1C69.02 249.462 69.47 249.806 69.927 250.131C69.182 251.66 68.488 253.271 67.843 254.945C63.677 250.4 62.609 241.178 67.77 234.052C72.776 226.816 81.828 224.758 87.5 227.177C85.744 228.674 84.123 230.22 82.65 231.789C81.921 231.685 81.186 231.583 80.453 231.47Z" fill="#3C9E7C"/>
<path d="M86.3218 215.917C87.1148 215.994 87.9078 216.056 88.6998 216.104C88.8358 215.373 88.9848 214.652 89.1368 213.936C88.8758 213.624 88.5988 213.327 88.3028 213.056C88.6448 213.051 88.9858 213.045 89.3278 213.04C89.4308 212.581 89.5368 212.125 89.6458 211.671C88.8218 211.011 87.9408 210.418 87.0108 209.954C88.0598 209.333 89.1958 209.069 90.3408 208.939C90.4548 208.514 90.5708 208.089 90.6908 207.664C89.1628 206.799 87.5728 206.026 85.9068 205.514C87.7688 205.136 89.6308 204.985 91.4728 205.003C91.5008 204.912 91.5328 204.823 91.5618 204.732C91.7898 203.994 92.0178 203.264 92.2568 202.54C91.9158 202.341 91.5708 202.151 91.2158 201.98C91.6478 201.875 92.0818 201.81 92.5138 201.77C92.6498 201.369 92.7888 200.969 92.9288 200.57C92.5648 200.315 92.1928 200.071 91.8048 199.855C92.2688 199.839 92.7308 199.835 93.1898 199.841C93.2458 199.684 93.3018 199.527 93.3588 199.37C92.8358 199.033 92.3148 198.695 91.7948 198.354C92.4518 198.322 93.1038 198.313 93.7498 198.326C93.8258 198.124 93.8968 197.921 93.9748 197.719C92.9578 196.887 91.8858 196.124 90.7338 195.489C92.0598 195.609 93.3598 195.803 94.6298 196.069C94.7878 195.681 94.9468 195.293 95.1118 194.904C93.7358 193.897 92.2908 192.975 90.7428 192.213C92.4998 192.423 94.2058 192.763 95.8468 193.224C96.1318 192.59 96.4228 191.954 96.7298 191.316C96.1828 190.8 95.6318 190.287 95.0768 189.778C95.7988 189.946 96.5078 190.137 97.2038 190.351C98.1878 188.376 99.2968 186.39 100.509 184.405C92.5428 183.71 82.2138 189.896 78.9598 200.834C75.4708 211.699 80.5058 222.636 87.4738 226.559C87.6268 223.57 87.9358 220.682 88.3858 217.927C87.7018 217.257 87.0168 216.581 86.3218 215.917Z" fill="#3C9E7C"/>
<path d="M80.5089 218.432C81.2069 218.047 81.8959 217.651 82.5759 217.242C82.2749 216.562 81.9899 215.883 81.7119 215.207C81.3199 215.098 80.9239 215.008 80.5269 214.952C80.8059 214.755 81.0849 214.557 81.3629 214.359C81.1879 213.922 81.0179 213.486 80.8509 213.05C79.7979 212.972 78.7359 212.98 77.7069 213.123C78.2209 212.018 79.0089 211.158 79.8799 210.403C79.7339 209.988 79.5899 209.571 79.4479 209.154C77.6989 209.304 75.9499 209.565 74.2859 210.084C75.6089 208.72 77.0589 207.542 78.5889 206.516C78.5599 206.425 78.5369 206.333 78.5089 206.242C78.2799 205.504 78.0549 204.774 77.8439 204.041C77.4509 204.07 77.0579 204.108 76.6689 204.168C76.9659 203.837 77.2869 203.539 77.6219 203.261C77.5069 202.853 77.3959 202.445 77.2859 202.036C76.8409 202.031 76.3969 202.04 75.9549 202.082C76.3289 201.807 76.7069 201.542 77.0889 201.288C77.0469 201.127 77.0039 200.965 76.9619 200.804C76.3409 200.822 75.7189 200.837 75.0979 200.85C75.6219 200.453 76.1539 200.076 76.6939 199.722C76.6429 199.512 76.5869 199.305 76.5359 199.095C75.2269 198.984 73.9109 198.96 72.6019 199.087C73.7629 198.437 74.9459 197.862 76.1439 197.364C76.0549 196.955 75.9669 196.544 75.8829 196.13C74.1779 196.077 72.4659 196.133 70.7579 196.38C72.3259 195.561 73.9259 194.876 75.5399 194.329C75.4169 193.645 75.2969 192.955 75.1899 192.256C74.4469 192.139 73.7019 192.028 72.9569 191.922C73.6469 191.653 74.3409 191.41 75.0349 191.193C74.7309 189.008 74.5219 186.742 74.4009 184.419C67.4369 188.349 62.4129 199.29 65.9119 210.152C69.1759 221.087 79.5109 227.263 87.4759 226.561C85.9119 224.009 84.5349 221.452 83.3489 218.924C82.4049 218.757 81.4569 218.587 80.5089 218.432Z" fill="#3C9E7C"/>
<path d="M91.3626 219.883C91.8356 220.274 92.3156 220.657 92.8006 221.029C93.2036 220.621 93.6096 220.224 94.0156 219.833C93.9836 219.521 93.9356 219.212 93.8636 218.911C94.0846 219.055 94.3046 219.199 94.5256 219.343C94.7896 219.094 95.0546 218.849 95.3196 218.606C95.0776 217.829 94.7716 217.069 94.3786 216.371C95.3166 216.427 96.1556 216.75 96.9446 217.161C97.2016 216.938 97.4586 216.717 97.7186 216.498C97.1166 215.286 96.4346 214.105 95.5916 213.058C96.9436 213.621 98.1986 214.329 99.3676 215.136C99.4246 215.09 99.4836 215.047 99.5416 215.001C100.007 214.628 100.467 214.26 100.933 213.901C100.801 213.627 100.663 213.356 100.51 213.094C100.831 213.214 101.136 213.36 101.43 213.521C101.69 213.323 101.951 213.128 102.213 212.933C102.091 212.613 101.958 212.296 101.804 211.991C102.107 212.182 102.404 212.378 102.695 212.58C102.799 212.504 102.902 212.428 103.007 212.352C102.819 211.911 102.632 211.47 102.447 211.028C102.88 211.291 103.301 211.567 103.708 211.854C103.844 211.758 103.977 211.659 104.113 211.564C103.823 210.594 103.467 209.643 103.006 208.74C103.801 209.389 104.548 210.075 105.244 210.793C105.512 210.613 105.782 210.434 106.055 210.257C105.611 209.019 105.086 207.807 104.427 206.651C105.458 207.544 106.401 208.498 107.251 209.501C107.707 209.219 108.168 208.938 108.639 208.664C108.513 208.098 108.382 207.532 108.247 206.967C108.635 207.386 109.006 207.815 109.358 208.252C110.84 207.416 112.406 206.626 114.037 205.882C109.249 201.998 99.9796 201.488 93.1776 207.069C86.2566 212.502 84.7486 221.662 87.5046 227.177C88.8936 225.334 90.3386 223.623 91.8156 222.057C91.6656 221.335 91.5196 220.607 91.3626 219.883Z" fill="#3C9E7C"/>
<path d="M278.295 301.389C261.356 282.64 236.191 273.158 211.181 269.557C186.171 265.956 160.75 267.582 135.483 267.45C101.513 267.273 67.6626 263.904 33.8886 260.124C31.9286 266.243 30.3526 272.469 29.3586 278.834C28.0676 287.107 27.8466 295.681 28.9516 304.003C31.4726 304.255 34.0206 304.283 36.5066 304.122C46.3256 303.483 55.8436 300.44 65.6296 299.416C80.5526 297.855 95.5026 301.02 110.403 302.787C165.984 309.378 222.429 297.971 278.295 301.389Z" fill="#3B41C4"/>
<path d="M28.5417 285.732C27.1847 302.394 30.3067 319.643 39.9927 333.142C51.0247 348.516 71.6397 357.64 89.6667 351.889C101.655 348.065 111.433 338.403 123.82 336.191C134.343 334.312 145.16 338.206 154.152 343.986C163.144 349.766 170.788 357.377 179.135 364.055C200.375 381.045 228.637 392.111 254.894 385.011C273.496 379.981 288.581 366.688 305.682 357.807C324.748 347.905 346.17 343.575 366.105 335.566C386.04 327.557 405.654 314.411 413.065 294.246C414.089 291.46 414.845 288.615 415.377 285.733H28.5417V285.732Z" fill="url(#paint0_linear_1028_878)"/>
<mask id="mask0_1028_878" style="mask-type:luminance" maskUnits="userSpaceOnUse" x="23" y="27" width="394" height="361">
<path d="M74.695 72.9249C61.868 78.8489 48.262 83.8329 37.632 93.1409C27.002 102.449 19.919 117.608 24.799 130.867C30.396 146.075 48.741 152.793 56.78 166.863C67.015 184.778 57.42 207.03 48.406 225.589C40.139 242.61 32.277 260.138 29.358 278.834C26.44 297.53 28.961 317.769 39.993 333.143C51.025 348.517 71.64 357.641 89.667 351.89C101.655 348.066 111.433 338.404 123.82 336.192C134.343 334.313 145.16 338.207 154.152 343.987C163.144 349.767 170.788 357.378 179.135 364.056C200.375 381.046 228.637 392.112 254.894 385.012C273.496 379.982 288.581 366.689 305.682 357.808C324.748 347.907 346.17 343.576 366.105 335.567C386.04 327.558 405.654 314.412 413.065 294.247C419.098 277.829 416.032 259.437 410.475 242.852C404.918 226.267 396.95 210.457 393.006 193.416C386.643 165.925 391.141 137.15 388.732 109.035C386.323 80.9199 373.873 50.2139 347.44 40.3369C326.512 32.5169 303.233 40.0069 282.493 48.3119C261.753 56.6169 239.746 65.9599 217.826 61.6359C204.423 58.9929 192.584 51.4579 180.973 44.2609C169.362 37.0639 157.192 29.9029 143.643 28.1609C128.49 26.2129 116.198 32.2649 107.889 44.4759C98.731 57.9319 89.933 65.8869 74.695 72.9249Z" fill="white"/>
</mask>
<g mask="url(#mask0_1028_878)">
<path d="M356.448 221.592C323.774 192.989 290.987 164.347 255.265 139.656C252.637 137.84 249.89 136.002 246.745 135.442C243.6 134.883 239.935 135.954 238.421 138.767C236.506 142.326 238.709 146.633 240.958 149.991C247.026 159.051 253.837 167.613 261.298 175.565C254.277 173.961 247.107 176.814 240.681 180.066C234.255 183.319 229.024 188.871 226.159 195.479C234.097 202.593 247.102 204.143 256.369 198.875C250.557 200.991 242.66 207.115 239.619 212.501C237.724 215.858 237.399 219.853 237.261 223.705C237.082 228.711 237.145 233.726 237.452 238.726C244.797 239.673 252.635 240.405 259.318 237.214C254.713 240.303 246.95 242.91 241.852 245.093C240.401 255.142 244.917 266.057 253.606 271.311C257.375 273.59 261.075 272.201 265.47 272.481C267.24 285.019 276.743 295.455 285.857 304.244C294.972 313.033 305.478 320.29 314.511 329.162C328.422 342.825 338.543 360.124 344.725 378.616C354.775 380.748 368.2 374.804 372.92 365.679C377.371 357.073 376.157 346.704 374.113 337.233C368.173 309.71 356.141 283.181 355.726 255.027C355.558 243.546 358.248 232.933 356.448 221.592Z" fill="#B9C1FC"/>
<path d="M356.448 221.592C323.774 192.989 290.987 164.347 255.265 139.656C252.637 137.84 249.89 136.002 246.745 135.442C243.6 134.883 239.935 135.954 238.421 138.767C236.506 142.326 238.709 146.633 240.958 149.991C247.026 159.051 253.837 167.613 261.298 175.565C254.277 173.961 247.107 176.814 240.681 180.066C234.255 183.319 229.024 188.871 226.159 195.479C234.097 202.593 247.102 204.143 256.369 198.875C250.557 200.991 242.66 207.115 239.619 212.501C237.724 215.858 237.399 219.853 237.261 223.705C237.082 228.711 237.145 233.726 237.452 238.726C244.797 239.673 252.635 240.405 259.318 237.214C254.713 240.303 246.95 242.91 241.852 245.093C240.401 255.142 244.917 266.057 253.606 271.311C257.375 273.59 261.075 272.201 265.47 272.481C267.24 285.019 276.743 295.455 285.857 304.244C294.972 313.033 305.478 320.29 314.511 329.162C328.422 342.825 338.543 360.124 344.725 378.616C354.775 380.748 368.2 374.804 372.92 365.679C377.371 357.073 376.157 346.704 374.113 337.233C368.173 309.71 356.141 283.181 355.726 255.027C355.558 243.546 358.248 232.933 356.448 221.592Z" fill="#FF8ECD"/>
<path opacity="0.1" d="M356.448 221.592C323.774 192.989 290.987 164.347 255.265 139.656C252.637 137.84 249.89 136.002 246.745 135.442C243.6 134.883 239.935 135.954 238.421 138.767C236.506 142.326 238.709 146.633 240.958 149.991C247.026 159.051 253.837 167.613 261.298 175.565C254.277 173.961 247.107 176.814 240.681 180.066C234.255 183.319 229.024 188.871 226.159 195.479C234.097 202.593 247.102 204.143 256.369 198.875C250.557 200.991 242.66 207.115 239.619 212.501C237.724 215.858 237.399 219.853 237.261 223.705C237.082 228.711 237.145 233.726 237.452 238.726C244.797 239.673 252.635 240.405 259.318 237.214C254.713 240.303 246.95 242.91 241.852 245.093C240.401 255.142 244.917 266.057 253.606 271.311C257.375 273.59 261.075 272.201 265.47 272.481C267.24 285.019 276.743 295.455 285.857 304.244C294.972 313.033 305.478 320.29 314.511 329.162C328.422 342.825 338.543 360.124 344.725 378.616C354.775 380.748 368.2 374.804 372.92 365.679C377.371 357.073 376.157 346.704 374.113 337.233C368.173 309.71 356.141 283.181 355.726 255.027C355.558 243.546 358.248 232.933 356.448 221.592Z" fill="black"/>
<path d="M261.752 325.422H347.117C356.257 325.422 363.667 318.012 363.667 308.872V123.789C363.667 114.649 356.257 107.239 347.117 107.239H261.752C252.612 107.239 245.202 114.649 245.202 123.789V308.872C245.202 318.013 252.612 325.422 261.752 325.422Z" fill="#1F1A4F"/>
<path d="M261.753 110.278H268.973C270.367 110.278 271.497 111.408 271.497 112.802C271.497 117.176 275.043 120.722 279.417 120.722H329.454C333.828 120.722 337.374 117.176 337.374 112.802C337.374 111.408 338.504 110.278 339.898 110.278H347.118C354.58 110.278 360.629 116.327 360.629 123.789V308.872C360.629 316.334 354.58 322.383 347.118 322.383H261.752C254.29 322.383 248.242 316.334 248.242 308.873V123.789C248.242 116.327 254.291 110.278 261.753 110.278Z" fill="#E1E5FB"/>
<path opacity="0.3" d="M277.55 317.941H331.319C332.264 317.941 333.03 317.175 333.03 316.23C333.03 315.285 332.264 314.519 331.319 314.519H277.55C276.605 314.519 275.839 315.285 275.839 316.23C275.839 317.175 276.605 317.941 277.55 317.941Z" fill="white"/>
<path d="M304.435 116.804C305.699 116.804 306.723 115.779 306.723 114.515C306.723 113.25 305.699 112.226 304.435 112.226C303.17 112.226 302.146 113.25 302.146 114.515C302.146 115.779 303.17 116.804 304.435 116.804Z" fill="#1F1A4F"/>
<path d="M316.597 114.516C316.597 115.409 317.321 116.133 318.214 116.133C319.107 116.133 319.831 115.409 319.831 114.516C319.831 113.623 319.107 112.898 318.214 112.898C317.321 112.898 316.597 113.622 316.597 114.516Z" fill="#1F1A4F"/>
<path d="M289.037 114.516C289.037 115.409 289.761 116.133 290.654 116.133C291.547 116.133 292.271 115.409 292.271 114.516C292.271 113.623 291.547 112.898 290.654 112.898C289.761 112.898 289.037 113.622 289.037 114.516Z" fill="#1F1A4F"/>
<g opacity="0.3">
<path d="M248.242 179.833L360.628 292.219V308.871C360.628 309.855 360.517 310.813 360.317 311.737L248.242 199.661V179.833Z" fill="white"/>
<path d="M360.627 284.367L248.242 171.982V132.326L360.627 244.712V284.367Z" fill="white"/>
</g>
<path opacity="0.5" d="M260.858 215.696H350.546C352.588 215.696 354.244 214.04 354.244 211.998C354.244 209.955 352.588 208.3 350.546 208.3H260.858C258.816 208.3 257.16 209.956 257.16 211.998C257.16 214.04 258.816 215.696 260.858 215.696Z" fill="#E1E5FB"/>
<path opacity="0.5" d="M260.858 229.522H350.546C352.588 229.522 354.244 227.866 354.244 225.824C354.244 223.781 352.588 222.126 350.546 222.126H260.858C258.816 222.126 257.16 223.782 257.16 225.824C257.16 227.867 258.816 229.522 260.858 229.522Z" fill="#E1E5FB"/>
<path opacity="0.5" d="M260.858 243.349H350.546C352.588 243.349 354.244 241.693 354.244 239.651C354.244 237.608 352.588 235.953 350.546 235.953H260.858C258.816 235.953 257.16 237.609 257.16 239.651C257.16 241.693 258.816 243.349 260.858 243.349Z" fill="#E1E5FB"/>
<path opacity="0.5" d="M260.858 257.175H350.546C352.588 257.175 354.244 255.519 354.244 253.477C354.244 251.434 352.588 249.779 350.546 249.779H260.858C258.816 249.779 257.16 251.435 257.16 253.477C257.16 255.519 258.816 257.175 260.858 257.175Z" fill="#E1E5FB"/>
<path opacity="0.5" d="M260.858 271.002H350.546C352.588 271.002 354.244 269.346 354.244 267.304C354.244 265.261 352.588 263.606 350.546 263.606H260.858C258.816 263.606 257.16 265.262 257.16 267.304C257.16 269.346 258.816 271.002 260.858 271.002Z" fill="#E1E5FB"/>
<path opacity="0.5" d="M260.858 284.828H350.546C352.588 284.828 354.244 283.172 354.244 281.13C354.244 279.087 352.588 277.432 350.546 277.432H260.858C258.816 277.432 257.16 279.088 257.16 281.13C257.16 283.172 258.816 284.828 260.858 284.828Z" fill="#E1E5FB"/>
<path d="M280.479 308.346H330.926C334.045 308.346 336.573 305.818 336.573 302.699V298.872C336.573 295.753 334.045 293.225 330.926 293.225H280.479C277.36 293.225 274.832 295.753 274.832 298.872V302.699C274.832 305.818 277.36 308.346 280.479 308.346Z" fill="#C03039"/>
<path d="M283.472 302.806V297.669H285.879C286.496 297.669 286.965 297.791 287.288 298.035C287.611 298.275 287.773 298.598 287.773 299.004C287.773 299.278 287.709 299.513 287.582 299.709C287.455 299.899 287.283 300.049 287.068 300.156C286.858 300.259 286.628 300.31 286.378 300.31L286.51 300.046C286.799 300.046 287.058 300.1 287.288 300.208C287.518 300.31 287.699 300.462 287.831 300.663C287.968 300.863 288.037 301.113 288.037 301.411C288.037 301.852 287.868 302.194 287.53 302.439C287.193 302.683 286.691 302.806 286.026 302.806H283.472ZM284.426 302.057H285.967C286.324 302.057 286.598 301.998 286.789 301.881C286.98 301.764 287.075 301.575 287.075 301.316C287.075 301.061 286.98 300.876 286.789 300.758C286.598 300.636 286.324 300.575 285.967 300.575H284.353V299.833H285.776C286.109 299.833 286.364 299.775 286.54 299.657C286.721 299.54 286.811 299.364 286.811 299.129C286.811 298.889 286.721 298.711 286.54 298.593C286.364 298.476 286.109 298.417 285.776 298.417H284.426V302.057ZM291.462 302.879C291.061 302.879 290.692 302.813 290.354 302.681C290.016 302.549 289.723 302.365 289.473 302.13C289.224 301.891 289.031 301.612 288.894 301.294C288.757 300.971 288.688 300.619 288.688 300.237C288.688 299.855 288.757 299.506 288.894 299.188C289.031 298.865 289.224 298.586 289.473 298.351C289.723 298.111 290.016 297.925 290.354 297.793C290.692 297.661 291.059 297.595 291.455 297.595C291.856 297.595 292.223 297.661 292.556 297.793C292.893 297.925 293.187 298.111 293.436 298.351C293.686 298.586 293.879 298.865 294.016 299.188C294.153 299.506 294.222 299.855 294.222 300.237C294.222 300.619 294.153 300.971 294.016 301.294C293.879 301.617 293.686 301.896 293.436 302.13C293.187 302.365 292.893 302.549 292.556 302.681C292.223 302.813 291.858 302.879 291.462 302.879ZM291.455 302.042C291.714 302.042 291.954 301.998 292.174 301.91C292.394 301.822 292.585 301.698 292.746 301.536C292.908 301.37 293.033 301.179 293.121 300.964C293.214 300.743 293.26 300.501 293.26 300.237C293.26 299.973 293.214 299.733 293.121 299.518C293.033 299.298 292.908 299.107 292.746 298.945C292.585 298.779 292.394 298.652 292.174 298.564C291.954 298.476 291.714 298.432 291.455 298.432C291.195 298.432 290.956 298.476 290.736 298.564C290.52 298.652 290.33 298.779 290.163 298.945C290.002 299.107 289.875 299.298 289.782 299.518C289.693 299.733 289.649 299.973 289.649 300.237C289.649 300.496 289.693 300.736 289.782 300.956C289.875 301.176 290.002 301.37 290.163 301.536C290.325 301.698 290.515 301.822 290.736 301.91C290.956 301.998 291.195 302.042 291.455 302.042ZM297.64 302.879C297.239 302.879 296.869 302.813 296.532 302.681C296.194 302.549 295.901 302.365 295.651 302.13C295.402 301.891 295.208 301.612 295.071 301.294C294.934 300.971 294.866 300.619 294.866 300.237C294.866 299.855 294.934 299.506 295.071 299.188C295.208 298.865 295.402 298.586 295.651 298.351C295.901 298.111 296.194 297.925 296.532 297.793C296.869 297.661 297.236 297.595 297.633 297.595C298.034 297.595 298.401 297.661 298.733 297.793C299.071 297.925 299.365 298.111 299.614 298.351C299.864 298.586 300.057 298.865 300.194 299.188C300.331 299.506 300.399 299.855 300.399 300.237C300.399 300.619 300.331 300.971 300.194 301.294C300.057 301.617 299.864 301.896 299.614 302.13C299.365 302.365 299.071 302.549 298.733 302.681C298.401 302.813 298.036 302.879 297.64 302.879ZM297.633 302.042C297.892 302.042 298.132 301.998 298.352 301.91C298.572 301.822 298.763 301.698 298.924 301.536C299.086 301.37 299.21 301.179 299.298 300.964C299.391 300.743 299.438 300.501 299.438 300.237C299.438 299.973 299.391 299.733 299.298 299.518C299.21 299.298 299.086 299.107 298.924 298.945C298.763 298.779 298.572 298.652 298.352 298.564C298.132 298.476 297.892 298.432 297.633 298.432C297.373 298.432 297.134 298.476 296.913 298.564C296.698 298.652 296.507 298.779 296.341 298.945C296.179 299.107 296.052 299.298 295.959 299.518C295.871 299.733 295.827 299.973 295.827 300.237C295.827 300.496 295.871 300.736 295.959 300.956C296.052 301.176 296.179 301.37 296.341 301.536C296.502 301.698 296.693 301.822 296.913 301.91C297.134 301.998 297.373 302.042 297.633 302.042ZM302.262 301.595L302.21 300.465L304.904 297.669H305.975L303.737 300.046L303.209 300.626L302.262 301.595ZM301.411 302.806V297.669H302.365V302.806H301.411ZM304.992 302.806L303.025 300.465L303.656 299.767L306.107 302.806H304.992ZM308.785 302.806V297.669H309.57L312.792 301.624H312.403V297.669H313.35V302.806H312.565L309.343 298.85H309.732V302.806H308.785ZM317.134 302.879C316.732 302.879 316.363 302.813 316.025 302.681C315.688 302.549 315.394 302.365 315.145 302.13C314.895 301.891 314.702 301.612 314.565 301.294C314.428 300.971 314.36 300.619 314.36 300.237C314.36 299.855 314.428 299.506 314.565 299.188C314.702 298.865 314.895 298.586 315.145 298.351C315.394 298.111 315.688 297.925 316.025 297.793C316.363 297.661 316.73 297.595 317.126 297.595C317.527 297.595 317.894 297.661 318.227 297.793C318.565 297.925 318.858 298.111 319.108 298.351C319.357 298.586 319.551 298.865 319.688 299.188C319.824 299.506 319.893 299.855 319.893 300.237C319.893 300.619 319.824 300.971 319.688 301.294C319.551 301.617 319.357 301.896 319.108 302.13C318.858 302.365 318.565 302.549 318.227 302.681C317.894 302.813 317.53 302.879 317.134 302.879ZM317.126 302.042C317.386 302.042 317.625 301.998 317.845 301.91C318.066 301.822 318.256 301.698 318.418 301.536C318.579 301.37 318.704 301.179 318.792 300.964C318.885 300.743 318.932 300.501 318.932 300.237C318.932 299.973 318.885 299.733 318.792 299.518C318.704 299.298 318.579 299.107 318.418 298.945C318.256 298.779 318.066 298.652 317.845 298.564C317.625 298.476 317.386 298.432 317.126 298.432C316.867 298.432 316.627 298.476 316.407 298.564C316.192 298.652 316.001 298.779 315.835 298.945C315.673 299.107 315.546 299.298 315.453 299.518C315.365 299.733 315.321 299.973 315.321 300.237C315.321 300.496 315.365 300.736 315.453 300.956C315.546 301.176 315.673 301.37 315.835 301.536C315.996 301.698 316.187 301.822 316.407 301.91C316.627 301.998 316.867 302.042 317.126 302.042ZM321.957 302.806L320.255 297.669H321.246L322.765 302.314H322.273L323.851 297.669H324.732L326.265 302.314H325.788L327.344 297.669H328.254L326.552 302.806H325.539L324.137 298.615H324.401L322.978 302.806H321.957Z" fill="white"/>
<path d="M352.326 127.652H259.077V198.956H352.326V127.652Z" fill="#E1E5FB"/>
<path d="M268.677 153.288L271.219 157.568L276.075 158.663L272.789 162.402L273.25 167.359L268.677 165.39L264.105 167.359L264.565 162.402L261.28 158.663L266.136 157.568L268.677 153.288Z" fill="#EDA940"/>
<path d="M286.67 153.288L289.211 157.568L294.068 158.663L290.782 162.402L291.242 167.359L286.67 165.39L282.098 167.359L282.558 162.402L279.272 158.663L284.129 157.568L286.67 153.288Z" fill="#EDA940"/>
<path d="M304.664 153.288L307.205 157.568L312.062 158.663L308.776 162.402L309.236 167.359L304.664 165.39L300.092 167.359L300.552 162.402L297.266 158.663L302.123 157.568L304.664 153.288Z" fill="#EDA940"/>
<path d="M322.656 153.288L325.197 157.568L330.053 158.663L326.767 162.402L327.228 167.359L322.656 165.39L318.084 167.359L318.544 162.402L315.258 158.663L320.114 157.568L322.656 153.288Z" fill="#EDA940"/>
<path d="M340.648 153.288L343.19 157.568L348.046 158.663L344.76 162.402L345.22 167.359L340.648 165.39L336.076 167.359L336.536 162.402L333.251 158.663L338.107 157.568L340.648 153.288Z" fill="#EDA940"/>
<path d="M410.27 358.277C397.988 339.361 385.228 318.778 386.298 296.25C387.004 281.387 393.791 266.806 391.407 252.118C389.854 242.55 384.563 234.085 380.371 225.346C369.413 202.5 365.696 176.246 369.88 151.256C359.773 148.52 348.351 154.943 344.662 164.742C340.973 174.541 342.461 185.46 344.479 195.734C346.497 206.008 349.005 216.518 347.2 226.831C345.027 239.249 336.906 249.718 332.322 261.462C326.861 275.453 326.567 291.107 329.615 305.813C332.663 320.52 338.911 334.389 346.206 347.517C351.211 356.525 358.116 365.413 365.673 372.419C378.205 384.038 396.075 367.791 410.27 358.277Z" fill="#FF8ECD"/>
<path d="M365.64 175.906C363.124 174.548 360.894 172.426 360.022 169.703C359.432 167.86 359.495 165.877 359.646 163.948C359.993 159.526 360.777 155.138 361.978 150.868C364.596 150.459 367.281 150.553 369.879 151.256C368.451 159.783 367.945 168.458 368.331 177.094C367.409 176.758 366.506 176.373 365.64 175.906Z" fill="#FF8ECD"/>
</g>
<path opacity="0.4" d="M260.153 95.1745H375.569C374.333 91.3425 371.066 88.2125 367.164 87.1925C363.063 86.1195 358.595 87.3715 355.65 90.4205C354.653 86.4655 351.208 83.2395 347.196 82.5035C343.184 81.7685 338.113 83.5215 335.778 86.8665C336.874 84.3235 335.774 81.1695 333.6 79.4565C331.425 77.7425 328.418 77.3405 325.707 77.9035C322.996 78.4665 320.152 80.2375 317.929 81.8885C323.923 72.6495 322.688 59.3615 315.094 51.3855C307.5 43.4095 294.287 41.5255 284.766 47.0615C275.245 52.5965 270.73 65.7235 273.904 76.2695C270.486 73.6045 265.535 73.0735 261.631 74.9545C257.726 76.8355 255.055 81.0375 255.009 85.3715C254.968 89.2165 256.997 92.9985 260.153 95.1745Z" fill="#EDA940"/>
<path d="M145.817 65.0903C147.696 56.867 142.553 48.6772 134.33 46.7979C126.107 44.9185 117.917 50.0613 116.038 58.2847C114.158 66.508 119.301 74.6978 127.524 76.5771C135.748 78.4565 143.938 73.3136 145.817 65.0903Z" fill="#FAFAFA"/>
<path opacity="0.4" d="M95.7228 64.7504C97.8215 64.7504 99.5228 63.0491 99.5228 60.9504C99.5228 58.8517 97.8215 57.1504 95.7228 57.1504C93.6242 57.1504 91.9229 58.8517 91.9229 60.9504C91.9229 63.0491 93.6242 64.7504 95.7228 64.7504Z" fill="#EDA940"/>
<path opacity="0.4" d="M159.838 57.4863C162.888 57.4863 165.359 55.0145 165.359 51.9653C165.359 48.9162 162.888 46.4443 159.838 46.4443C156.789 46.4443 154.317 48.9162 154.317 51.9653C154.317 55.0145 156.789 57.4863 159.838 57.4863Z" fill="#EDA940"/>
<path opacity="0.4" d="M401.091 148.464C401.091 149.292 401.762 149.963 402.59 149.963C403.418 149.963 404.089 149.292 404.089 148.464C404.089 147.636 403.418 146.965 402.59 146.965C401.762 146.965 401.091 147.636 401.091 148.464Z" fill="#EDA940"/>
<path opacity="0.4" d="M269.181 31.2565C269.181 32.5935 270.265 33.6775 271.602 33.6775C272.939 33.6775 274.023 32.5935 274.023 31.2565C274.023 29.9195 272.939 28.8354 271.602 28.8354C270.265 28.8364 269.181 29.9195 269.181 31.2565Z" fill="#EDA940"/>
<path opacity="0.4" d="M32.7158 222.175C32.7158 224.541 34.6338 226.459 36.9998 226.459C39.3658 226.459 41.2838 224.541 41.2838 222.175C41.2838 219.809 39.3658 217.891 36.9998 217.891C34.6338 217.891 32.7158 219.809 32.7158 222.175Z" fill="#EDA940"/>
<path opacity="0.4" d="M405.555 294.974C405.555 296.207 406.554 297.206 407.787 297.206C409.02 297.206 410.019 296.207 410.019 294.974C410.019 293.741 409.02 292.742 407.787 292.742C406.554 292.742 405.555 293.741 405.555 294.974Z" fill="#EDA940"/>
<path opacity="0.4" d="M386.16 42.6187L385.999 43.1816C385.223 45.9016 383.096 48.0286 380.376 48.8046L379.813 48.9657L380.376 49.1266C383.096 49.9036 385.223 52.0296 385.999 54.7496L386.16 55.3127L386.321 54.7496C387.097 52.0296 389.224 49.9026 391.944 49.1266L392.507 48.9657L391.944 48.8046C389.224 48.0286 387.097 45.9016 386.321 43.1816L386.16 42.6187Z" fill="#EDA940"/>
<path opacity="0.4" d="M211.771 53.8706L211.61 54.4336C210.834 57.1536 208.707 59.2806 205.987 60.0566L205.424 60.2176L205.987 60.3786C208.707 61.1556 210.834 63.2816 211.61 66.0016L211.771 66.5646L211.932 66.0016C212.708 63.2816 214.835 61.1546 217.555 60.3786L218.118 60.2176L217.555 60.0566C214.835 59.2796 212.708 57.1536 211.932 54.4336L211.771 53.8706Z" fill="#EDA940"/>
<path opacity="0.4" d="M410.018 215.828L409.857 216.391C409.08 219.111 406.954 221.238 404.234 222.014L403.671 222.175L404.234 222.336C406.954 223.112 409.081 225.239 409.857 227.959L410.018 228.522L410.179 227.959C410.955 225.239 413.082 223.112 415.802 222.336L416.365 222.175L415.802 222.014C413.082 221.238 410.955 219.111 410.179 216.391L410.018 215.828Z" fill="#EDA940"/>
<path opacity="0.4" d="M26.3685 96.1562L26.2075 96.7193C25.4305 99.4393 23.3045 101.566 20.5845 102.342L20.0215 102.503L20.5845 102.664C23.3045 103.44 25.4315 105.567 26.2075 108.287L26.3685 108.85L26.5295 108.287C27.3065 105.567 29.4325 103.44 32.1525 102.664L32.7155 102.503L32.1525 102.342C29.4325 101.566 27.3055 99.4393 26.5295 96.7193L26.3685 96.1562Z" fill="#EDA940"/>
<path d="M211.732 179.152H105.125V285.759H211.732V179.152Z" fill="#ED7D40"/>
<path d="M211.732 112.385H105.125V179.152H211.732V112.385Z" fill="#EDAD89"/>
<path opacity="0.1" d="M211.732 127.974V112.385H105.125V116.176L211.732 127.974Z" fill="black"/>
<path d="M172.119 232.456H144.738V285.759H172.119V232.456Z" fill="white"/>
<path d="M216.414 172.83H100.443V179.153H216.414V172.83Z" fill="#ED7D40"/>
<path opacity="0.2" d="M216.414 172.83H100.443V179.153H216.414V172.83Z" fill="black"/>
<path d="M217.424 109.224H99.4316V115.547H217.424V109.224Z" fill="#ED7D40"/>
<path opacity="0.2" d="M217.424 109.224H99.4316V115.547H217.424V109.224Z" fill="black"/>
<g opacity="0.1">
<path d="M157.079 237.455H149.738V257.758H157.079V237.455Z" fill="black"/>
<path d="M167.118 237.455H159.777V257.758H167.118V237.455Z" fill="black"/>
<path d="M167.118 260.457H159.777V280.76H167.118V260.457Z" fill="black"/>
<path d="M157.079 260.457H149.738V280.76H157.079V260.457Z" fill="black"/>
</g>
<path d="M171.14 259.107C171.14 259.852 170.536 260.456 169.791 260.456C169.046 260.456 168.442 259.852 168.442 259.107C168.442 258.362 169.046 257.758 169.791 257.758C170.536 257.758 171.14 258.362 171.14 259.107Z" fill="#EDA940"/>
<path d="M139.247 232.456H109.901V266.474H139.247V232.456Z" fill="white"/>
<path d="M136.747 234.955H112.401V263.973H136.747V234.955Z" fill="#CDC2FF"/>
<g opacity="0.4">
<path d="M112.401 263.312L136.747 238.966V234.955H128.423L112.401 250.977V263.312Z" fill="white"/>
<path d="M136.748 247.006V242.943L115.718 263.973H119.781L136.748 247.006Z" fill="white"/>
</g>
<path d="M139.247 189.458H109.901V223.476H139.247V189.458Z" fill="white"/>
<path d="M136.747 191.958H112.401V220.977H136.747V191.958Z" fill="#CDC2FF"/>
<g opacity="0.4">
<path d="M112.401 220.314L136.747 195.969V191.958H128.423L112.401 207.979V220.314Z" fill="white"/>
<path d="M136.748 204.008V199.945L115.718 220.975H119.781L136.748 204.008Z" fill="white"/>
</g>
<path d="M206.718 189.458H177.372V223.476H206.718V189.458Z" fill="white"/>
<path d="M204.217 191.958H179.871V220.977H204.217V191.958Z" fill="#CDC2FF"/>
<g opacity="0.4">
<path d="M179.871 220.314L204.217 195.969V191.958H195.893L179.871 207.979V220.314Z" fill="white"/>
<path d="M204.217 204.008V199.945L183.188 220.975H187.25L204.217 204.008Z" fill="white"/>
</g>
<path d="M173.101 189.458H143.755V223.476H173.101V189.458Z" fill="white"/>
<path d="M170.601 191.958H146.255V220.977H170.601V191.958Z" fill="#CDC2FF"/>
<g opacity="0.4">
<path d="M146.255 220.314L170.601 195.969V191.958H162.277L146.255 207.979V220.314Z" fill="white"/>
<path d="M170.601 204.008V199.945L149.571 220.975H153.634L170.601 204.008Z" fill="white"/>
</g>
<path d="M139.247 128.505H109.901V162.523H139.247V128.505Z" fill="white"/>
<path d="M136.747 131.004H112.401V160.023H136.747V131.004Z" fill="#CDC2FF"/>
<g opacity="0.4">
<path d="M112.401 159.361L136.747 135.015V131.004H128.423L112.401 147.026V159.361Z" fill="white"/>
<path d="M136.748 143.056V138.992L115.718 160.023H119.781L136.748 143.056Z" fill="white"/>
</g>
<path d="M206.718 128.505H177.372V162.523H206.718V128.505Z" fill="white"/>
<path d="M204.217 131.004H179.871V160.023H204.217V131.004Z" fill="#CDC2FF"/>
<g opacity="0.4">
<path d="M179.871 159.361L204.217 135.015V131.004H195.893L179.871 147.026V159.361Z" fill="white"/>
<path d="M204.217 143.056V138.992L183.188 160.023H187.25L204.217 143.056Z" fill="white"/>
</g>
<path d="M173.101 128.505H143.755V162.523H173.101V128.505Z" fill="white"/>
<path d="M170.601 131.004H146.255V160.023H170.601V131.004Z" fill="#CDC2FF"/>
<g opacity="0.4">
<path d="M146.255 159.361L170.601 135.015V131.004H162.277L146.255 147.026V159.361Z" fill="white"/>
<path d="M170.601 143.056V138.992L149.571 160.023H153.634L170.601 143.056Z" fill="white"/>
</g>
<path d="M206.718 232.456H177.372V266.474H206.718V232.456Z" fill="white"/>
<path d="M204.217 234.955H179.871V263.973H204.217V234.955Z" fill="#CDC2FF"/>
<g opacity="0.4">
<path d="M179.871 263.312L204.217 238.966V234.955H195.893L179.871 250.977V263.312Z" fill="white"/>
<path d="M204.217 247.006V242.943L183.188 263.973H187.25L204.217 247.006Z" fill="white"/>
</g>
<path d="M210.451 99.8984H106.406H90.0439C90.0439 99.8984 96.3309 102.9 96.3309 109.223H106.405H210.45H220.524C220.524 102.9 226.811 99.8984 226.811 99.8984H210.451Z" fill="#ED7D40"/>
<path opacity="0.2" d="M193.702 182.004H183.187V186.11H193.702V182.004Z" fill="white"/>
<path opacity="0.2" d="M149.013 120.99H138.498V125.096H149.013V120.99Z" fill="white"/>
<path opacity="0.2" d="M204.217 225.347H193.702V229.453H204.217V225.347Z" fill="white"/>
<path opacity="0.2" d="M131.489 225.347H120.974V229.453H131.489V225.347Z" fill="white"/>
<path opacity="0.2" d="M144.504 182.004H133.989V186.11H144.504V182.004Z" fill="white"/>
<path opacity="0.1" d="M211.732 194.74V179.152H105.125V182.943L211.732 194.74Z" fill="black"/>
<path d="M105.125 131.722H87.2432V135.707H105.125V131.722Z" fill="#ED8240"/>
<path d="M105.125 178.019H87.2432V182.004H105.125V178.019Z" fill="#ED8240"/>
<path d="M96.3638 118.422C93.1628 118.422 90.2468 116.707 88.5638 113.985C86.7568 111.063 84.7378 109.425 82.6068 109.425C80.4758 109.425 78.4568 111.062 76.6498 113.985C74.9668 116.707 72.0498 118.422 68.8498 118.422H68.6348V196.018H68.8498C72.0508 196.018 74.9668 197.733 76.6498 200.456C78.4568 203.378 80.4758 205.016 82.6068 205.016C84.7378 205.016 86.7568 203.379 88.5638 200.456C90.2468 197.733 93.1638 196.018 96.3638 196.018H96.5788V118.422H96.3638Z" fill="#E0E4FC"/>
<g opacity="0.1">
<path d="M96.5799 119.294V118.422H96.3649C95.7719 118.422 95.1949 118.345 94.6279 118.232C95.2349 118.663 95.8879 119.022 96.5799 119.294Z" fill="black"/>
<path d="M80.1265 201.956C78.7545 199.738 76.5585 198.207 74.0625 197.709C75.0815 198.433 75.9685 199.357 76.6485 200.456C78.4555 203.378 80.4745 205.016 82.6055 205.016C82.6105 205.016 82.6155 205.015 82.6205 205.015C81.7555 204.257 80.9195 203.239 80.1265 201.956Z" fill="black"/>
<path d="M72.1108 119.923H72.3258C75.5268 119.923 78.4428 118.208 80.1258 115.485C81.9288 112.57 83.9418 110.935 86.0678 110.927C84.9598 109.958 83.8018 109.425 82.6048 109.425C80.4728 109.425 78.4548 111.062 76.6478 113.985C74.9648 116.707 72.0478 118.422 68.8468 118.422H68.6318V196.018H68.8468C69.9858 196.018 71.0848 196.244 72.1088 196.647V119.923H72.1108Z" fill="black"/>
</g>
<path d="M82.6058 206.516C79.9698 206.516 77.5358 204.743 75.3728 201.245C73.9298 198.912 71.4908 197.518 68.8488 197.518H68.6328C67.8038 197.518 67.1328 196.847 67.1328 196.018V118.422C67.1328 117.593 67.8038 116.922 68.6328 116.922H68.8488C71.4918 116.922 73.9308 115.529 75.3728 113.196C77.5358 109.698 79.9688 107.925 82.6058 107.925C85.2428 107.925 87.6768 109.698 89.8388 113.195C91.2808 115.529 93.7198 116.922 96.3628 116.922H96.5788C97.4078 116.922 98.0788 117.593 98.0788 118.422V196.018C98.0788 196.847 97.4078 197.518 96.5788 197.518H96.3628C93.7198 197.518 91.2818 198.911 89.8388 201.245C87.6768 204.743 85.2428 206.516 82.6058 206.516ZM70.1328 194.597C73.3158 194.988 76.1648 196.821 77.9248 199.667C79.0108 201.423 80.7038 203.516 82.6058 203.516C84.5078 203.516 86.2018 201.423 87.2878 199.667C89.0478 196.821 91.8978 194.988 95.0798 194.597V119.844C91.8968 119.453 89.0468 117.62 87.2878 114.774C86.2028 113.019 84.5088 110.926 82.6058 110.926C80.7028 110.926 79.0098 113.019 77.9248 114.775C76.1658 117.621 73.3158 119.454 70.1328 119.845V194.597Z" fill="#ED8240"/>
<path d="M84.0288 130.884V121.747H87.1095V130.884H84.0288ZM78.1025 130.884V121.747H81.1831V130.884H78.1025ZM80.9743 127.516V124.984H84.2377V127.516H80.9743Z" fill="#3B41C4"/>
<path d="M82.6061 146.758C81.8663 146.758 81.1789 146.641 80.5436 146.406C79.917 146.171 79.3731 145.84 78.9119 145.414C78.4506 144.979 78.0895 144.469 77.8284 143.886C77.576 143.303 77.4498 142.668 77.4498 141.981C77.4498 141.284 77.576 140.649 77.8284 140.075C78.0895 139.492 78.4506 138.987 78.9119 138.56C79.3731 138.125 79.917 137.79 80.5436 137.555C81.1789 137.32 81.8663 137.203 82.6061 137.203C83.3545 137.203 84.042 137.32 84.6685 137.555C85.2951 137.79 85.839 138.125 86.3003 138.56C86.7615 138.987 87.1183 139.492 87.3707 140.075C87.6317 140.649 87.7623 141.284 87.7623 141.981C87.7623 142.668 87.6317 143.303 87.3707 143.886C87.1183 144.469 86.7615 144.979 86.3003 145.414C85.839 145.84 85.2951 146.171 84.6685 146.406C84.042 146.641 83.3545 146.758 82.6061 146.758ZM82.6061 144.265C82.8932 144.265 83.1587 144.213 83.4023 144.108C83.6547 144.004 83.8723 143.856 84.055 143.664C84.2465 143.464 84.3944 143.225 84.4988 142.946C84.6033 142.659 84.6555 142.337 84.6555 141.981C84.6555 141.624 84.6033 141.306 84.4988 141.028C84.3944 140.74 84.2465 140.501 84.055 140.31C83.8723 140.109 83.6547 139.957 83.4023 139.853C83.1587 139.748 82.8932 139.696 82.6061 139.696C82.3189 139.696 82.0491 139.748 81.7967 139.853C81.5531 139.957 81.3355 140.109 81.144 140.31C80.9613 140.501 80.8177 140.74 80.7133 141.028C80.6088 141.306 80.5566 141.624 80.5566 141.981C80.5566 142.337 80.6088 142.659 80.7133 142.946C80.8177 143.225 80.9613 143.464 81.144 143.664C81.3355 143.856 81.5531 144.004 81.7967 144.108C82.0491 144.213 82.3189 144.265 82.6061 144.265Z" fill="#3B41C4"/>
<path d="M81.0651 162.213V155.465H78.3891V153.076H86.8218V155.465H84.1458V162.213H81.0651Z" fill="#3B41C4"/>
<path d="M78.957 177.877V168.74H86.3845V171.063H81.9854V175.554H86.5542V177.877H78.957ZM81.7766 174.353V172.134H85.8493V174.353H81.7766Z" fill="#3B41C4"/>
<path d="M79.3232 193.542V184.405H82.4038V191.154H86.5288V193.542H79.3232Z" fill="#3B41C4"/>
<defs>
<linearGradient id="paint0_linear_1028_878" x1="221.809" y1="387.193" x2="221.809" y2="285.732" gradientUnits="userSpaceOnUse">
<stop stop-color="#4829D3"/>
<stop offset="1" stop-color="#8F62BA"/>
</linearGradient>
</defs>
</svg>
