<?xml version="1.0" encoding="utf-8"?>
<!-- Generator: Adobe Illustrator 27.5.0, SVG Export Plug-In . SVG Version: 6.00 Build 0)  -->
<svg version="1.1" xmlns="http://www.w3.org/2000/svg" xmlns:xlink="http://www.w3.org/1999/xlink" x="0px" y="0px"
	 viewBox="0 0 1122 1122" style="enable-background:new 0 0 1122 1122;" xml:space="preserve">
<g id="BG">
	<rect x="0" style="fill:#F7FCFB;" width="1122" height="1122"/>
</g>
<g id="Object">
	<g>
		<g>
			<path style="fill:#EDD5BE;" d="M653.394,388.559c0.529,1.874,1.42,3.659,2.328,5.42c2.398,4.65,4.955,9.234,7.664,13.743
				c0.354,0.589,0.834,1.255,1.528,1.302c0.434,0.029,0.815-0.203,1.157-0.434c2.132-1.442,4.025-3.19,5.601-5.173
				c1.201-1.511,2.249-3.258,2.252-5.212c0.003-2.267-1.377-4.381-2.394-6.5c-1.926-4.016-2.629-8.486-1.996-12.697
				c-0.781-0.816-2.24-0.582-2.956,0.19c-0.716,0.771-0.89,1.875-1.037,2.919c-1.936-1.426-1.942-4.079-2.787-6.232
				c-0.724-1.845-2.133-3.399-3.512-4.904c-0.382-0.417-0.797-0.855-1.345-1.016c-1.413-0.415-2.357,1.165-2.764,2.459
				C653.503,377.613,651.864,383.133,653.394,388.559z"/>
			<path style="fill:#EBEFEB;" d="M796.418,539.354c6.051,1.814,12.353,3.43,18.622,2.651c6.269-0.779,10.063-11.921,12.189-17.87
				c1.892-5.295,0.127-11.378-3.311-15.827c-3.439-4.449-8.336-7.524-13.302-10.162c-21.313-11.323-45.669-16.293-66.39-28.667
				c-30.424-18.168-49.512-49.929-71.559-77.672c-0.612-0.77-1.286-1.579-2.23-1.854c-1.068-0.311-2.194,0.139-3.215,0.581
				c-3.768,1.632-7.537,3.263-11.305,4.895c7.241,19.028,15.494,37.671,24.713,55.824c9.788,19.272,21.335,38.718,39.491,50.447
				c6.96,4.497,22.656,16.024,30.311,19.197C767.374,527.922,778.85,534.089,796.418,539.354z"/>
		</g>
		<path style="opacity:0.17;" d="M729.017,987.966c-4.285,16.88,59.606,21.743,71.264,22.276
			c48.621,2.22,95.745-2.813,143.238-11.951c5.26-1.012,10.684-2.106,15.029-4.912c15.858-10.238-1.701-17.981-12.666-20.317
			c-16.143-3.438-32.989-3.207-49.472-3.749c-17.893-0.589-36.306,2.18-53.922,0.633c-0.61-0.052-1.219-0.105-1.829-0.157
			c-30.829-2.612-63.274-2.957-92.643,6.923c-5.075,1.707-17.238,5.676-18.906,10.927
			C729.076,987.747,729.045,987.855,729.017,987.966z"/>
		<path style="opacity:0.17;" d="M248.044,991.414c-4.285,16.88,59.606,21.744,71.264,22.276
			c48.621,2.22,95.745-2.813,143.238-11.951c5.26-1.012,10.684-2.106,15.029-4.912c15.858-10.239-1.701-17.981-12.666-20.317
			c-16.143-3.438-32.989-3.207-49.472-3.749c-17.893-0.589-36.306,2.18-53.923,0.633c-0.609-0.052-1.219-0.105-1.828-0.157
			c-30.829-2.612-63.274-2.957-92.643,6.923c-5.075,1.707-17.238,5.676-18.906,10.926
			C248.104,991.194,248.073,991.302,248.044,991.414z"/>
		<g>
			<path style="fill:#EDD5BE;" d="M526.55,378.203c-0.449,1.682-1.177,3.204-1.919,4.702c-1.957,3.952-4.036,7.81-6.231,11.564
				c-0.287,0.49-0.673,1.029-1.213,0.933c-0.337-0.06-0.629-0.359-0.889-0.649c-1.625-1.809-3.057-3.861-4.239-6.074
				c-0.901-1.686-1.678-3.566-1.64-5.432c0.044-2.164,1.159-3.903,1.992-5.72c1.577-3.443,2.215-7.567,1.811-11.715
				c0.623-0.62,1.75-0.101,2.29,0.78c0.54,0.882,0.652,1.97,0.745,2.997c1.531-0.968,1.591-3.5,2.291-5.384
				c0.6-1.615,1.726-2.812,2.826-3.969c0.305-0.321,0.636-0.655,1.064-0.697c1.105-0.109,1.805,1.59,2.094,2.908
				C526.692,367.732,527.85,373.334,526.55,378.203z"/>
			<path style="fill:#E6E8E6;" d="M396.414,509.094c-4.733,0.504-9.657,0.769-14.505-1.245c-4.849-2.015,8.473-29.369,6.946-35.479
				c-1.359-5.438,0.136-10.887,2.897-14.437c2.76-3.55,6.624-5.492,10.532-7.003c16.773-6.487,35.775-6.292,52.11-13.901
				c23.984-11.173,39.453-37.621,57.134-59.633c0.491-0.611,1.031-1.246,1.769-1.317c0.835-0.081,1.7,0.578,2.483,1.207
				c2.89,2.322,5.781,4.643,8.671,6.965c-6.012,16.696-12.801,32.818-20.33,48.277c-7.993,16.412-33.391,48.581-47.722,56.096
				c-5.494,2.881-17.912,10.702-23.918,12.179C419.189,504.071,410.156,507.63,396.414,509.094z"/>
		</g>
		<g>
			<path style="fill:#4D4D4D;" d="M420.695,732.689c-0.487,10.131-1.256,20.246-2.025,30.359
				c-1.151,15.13-2.301,30.259-3.452,45.388c-0.368,4.839-0.855,9.994-3.866,13.799c-0.31,0.392-0.665,0.78-1.134,0.954
				c-1.579,0.587-2.804-1.421-3.317-3.026c-6.116-19.109-15.322-37.226-27.151-53.432c-3.019-4.136-6.314-8.244-10.725-10.845
				c-3.318-1.957-7.097-2.958-10.822-3.938c-7.46-1.962-14.919-3.924-22.379-5.886c-4.373-1.15-8.915-2.387-12.329-5.352
				c-2.691-2.337-4.441-5.546-6.133-8.682c-8.571-15.883-17.228-31.985-21.497-49.521c-3.114-12.79-3.813-26.063-3.467-39.222
				c0.034-1.31,0.085-2.651,0.569-3.869c0.666-1.675,2.085-2.94,3.597-3.922c5.672-3.682,12.8-4.065,19.558-4.296
				c25.657-0.879,51.828-1.145,76.906,5.13c7.718,1.931,20.867,3.934,24.524,12.179c4.494,10.132,2.926,25.722,3.353,36.612
				C421.524,700.971,421.456,716.846,420.695,732.689z"/>
			<g>
				<path style="fill:#4D4D4D;" d="M274.772,963.443c-8.005,0.71-10.854-4.587-17.532-8.609
					c11.788-24.248,12.988-48.497,24.776-72.745c3.728-7.668,10.728-18.973,12.988-27.096c2.778-9.987,5.298-16.848,5.752-27.118
					c1.76-39.824,3.519-79.649,5.279-119.473c0.148-3.339,0.323-6.787,1.897-9.817c4.521-8.705,17.322-9.601,27.695-9.223
					c2.274,0.083,4.754,0.241,6.408,1.662c1.891,1.624,2.044,4.307,2.072,6.71c0.355,31.407,20.347,2.101,20.702,33.508
					c0.125,11.044-11.222,83.51-13.754,94.343c-4.475,19.147-17.208,41.156-28.501,57.828
					C305.166,909.082,291.995,933.153,274.772,963.443z"/>
				<path style="fill:#4D4D4D;" d="M368.503,714.587c14.367-1.779,28.734-3.557,43.101-5.336c0.729-1.806-2.854,0.044-2.636,1.947
					c6.893,60.034,3.393,120.853-3.219,181.112c-2.849,25.968-3.312,52.05-0.853,77.975c-5.911,0.576-16.091,1.401-22.002,1.978
					c-10.043-80.862-15.815-161.973-25.858-242.835c-0.508-4.09-0.793-8.81,2.38-11.759
					C361.742,715.506,365.252,714.989,368.503,714.587z"/>
			</g>
			<path style="fill:#4D4D4D;" d="M403.355,968.023c0.35-0.005,0.71-0.008,1.036,0.081c0.443,0.121,0.756,0.395,1.031,0.665
				c1.259,1.237,2.166,2.645,2.654,4.121c0.455,1.375,0.57,2.844,1.585,4.066c1.13,1.359,3.196,2.196,5.226,2.886
				c5.249,1.784,10.896,3.003,16.677,3.6c1.282,0.132,2.6,0.24,3.758,0.644c3.276,1.142,4.072,4.082,4.477,6.611
				c0.117,0.733,0.134,1.626-0.756,2.029c-0.48,0.217-1.092,0.218-1.665,0.211c-16.539-0.201-23.602-0.286-40.141-0.487
				c-4.038-0.049-8.201-0.217-12.102-0.946c-0.527-0.098-1.071-0.218-1.46-0.483c-0.427-0.291-0.603-0.711-0.752-1.113
				c-2.124-5.728-2.326-11.91-1.77-17.79c0.173-1.829,0.505-3.329,3.414-3.709c4.138-0.54-0.404-0.136,3.811-0.192
				C393.371,968.154,398.363,968.088,403.355,968.023z"/>
			<path style="fill:#4D4D4D;" d="M274.706,962.165c0.636,0.332,1.288,0.692,1.71,1.272c0.35,0.481,0.511,1.075,0.597,1.663
				c0.5,3.416-1.289,6.94-0.433,10.285c0.565,2.207,2.196,3.964,3.817,5.564c2.651,2.618,5.438,5.1,8.344,7.432
				c1.227,0.984,2.536,2.025,3.051,3.511c0.909,2.618-1.678,5.743-4.42,5.338c-1.017-0.15-1.923-0.695-2.821-1.197
				c-10.835-6.069-20.715-12.095-35.428-22.747c-1.4-1.013-2.964-2.235-3.036-3.962c-0.038-0.91,0.359-1.776,0.759-2.594
				c1.421-2.908,2.996-5.74,4.716-8.481c0.899-1.432,1.799-2.911,2.835-4.25c1.381-1.785,1.407-1.926,3.34-0.899
				C263.375,956.095,269.012,959.195,274.706,962.165z"/>
		</g>
		<path style="fill:#EDD5BE;" d="M393.906,424.951c-0.115,3.222-0.251,6.465-0.95,9.612c-1.655,7.451-6.622,14.135-13.357,17.726
			c-6.735,3.592-15.129,3.975-22.1,0.866c-6.876-3.067-11.968-9.115-16.008-15.469c-8.453-13.297-13.381-29.121-12.195-44.833
			c0.176-2.335,0.537-4.789,1.993-6.622c2.095-2.636,5.787-3.239,9.128-3.654c10.954-1.36,41.39-10.757,50.422-3.561
			C399.769,386.131,394.363,415.011,393.906,424.951z"/>
		<path style="fill:#EBEFEB;" d="M380.817,458.123c3.558-0.423,7.24-0.785,10.704,0.008c9.229,2.112,12.976,11.04,14.97,18.752
			c8.328,32.212,10.775,65.23,13.198,98.103c2.145,29.088,4.289,67.509,6.433,96.597c0.141,1.908,0.213,4.008-1.225,5.509
			c-1.393,1.454-3.79,1.911-5.998,2.264c-36.403,5.823-85.305,8.729-122.389,8.663c-1.788-0.003-3.681-0.037-5.198-0.818
			c-2.268-1.168-2.962-3.583-3.402-5.755c-3.62-17.868-3.466-36.096-2.91-54.205c1.154-37.584,15.808-84.467,20.334-121.878
			c1.467-12.13-1.1-27.281,13.328-33.722C336.547,463.659,360.93,460.49,380.817,458.123z"/>
		<path style="fill:#EDCB91;" d="M397.763,380.883c-0.605-1.074-1.366-2.089-1.671-3.283c-0.424-1.663,0.099-3.422-0.07-5.129
			c-0.261-2.641-2.128-4.841-4.155-6.555c-6.054-5.12-14.379-7.449-22.211-6.213c-1.877,0.296-3.894,0.767-5.6-0.07
			c-0.608-0.298-1.13-0.746-1.724-1.071c-1.995-1.091-4.443-0.648-6.667-0.177c-6.345,1.344-12.69,2.689-19.035,4.033
			c-4.094,0.867-8.421,1.855-11.421,4.774c-4.261,4.146-4.536,10.79-4.477,16.735c0.059,5.945-0.074,12.555-4.179,16.856
			c-0.673,0.705-1.49,1.437-1.522,2.41c-0.031,0.954,0.706,1.73,1.3,2.477c1.357,1.706,2.091,3.849,2.222,6.023
			c-0.03,0.427-0.036,0.854,0.005,1.27c-0.036,0.608-0.075,1.218-0.218,1.811c0.305,0.514,0.854,0.586,1.4,0.411
			c0.545,0.437,1.176,0.779,1.799,1.116c4.973,2.687,7.722,9.077,13.258,10.22c0.262-3.591-1.419-7.065-1.488-10.665
			c-0.033-1.757,0.319-3.494,0.629-5.223c0.93-5.182,1.5-10.427,1.705-15.688l-0.163-0.089c3.067-6.252,9.642-5.589,15.681-7.908
			c1.859-0.714,3.692-1.562,5.66-1.872c2.043-0.323,4.127-0.05,6.177,0.223c4.618,0.615,9.235,1.23,13.853,1.845
			c-2.126-0.717,0.83-2.54,1.341-4.724c4.602-0.169,5.882,1.573,9.106,4.86c2.011,2.05,4.29,4.492,7.151,4.238
			c2.202-0.195,4-2.115,4.504-4.267C399.455,385.098,398.848,382.808,397.763,380.883z"/>
		<path style="fill:#5A9B73;" d="M380.124,476.201c1.202,3.556-1.258,7.286-1.345,11.038c-0.045,1.962,0.564,3.874,1.168,5.742
			c4.34,13.442,8.68,26.884,13.019,40.325c1.529,4.737,3.072,9.504,5.429,13.888c2.457,4.568,5.748,8.625,9.019,12.65
			c4.155,5.114,8.309,10.227,12.464,15.341c1.164,1.432,2.355,2.916,2.869,4.689c0.444,1.528,0.349,3.154,0.25,4.742
			c-0.429,6.898-0.858,13.796-1.288,20.694c-3.814-2.154-8.011-3.631-12.334-4.34c-2.659-0.436-5.421-0.6-7.862-1.742
			c-7.413-3.466-8.22-13.391-9.265-21.508c-3.573-27.722-21.93-53.127-19.573-80.979c0.287-3.392,0.589-7.495-2.179-9.475
			C359.396,479.326,370.59,474.631,380.124,476.201z"/>
		<g>
			<path id="XMLID_84_" style="fill:#5A9B73;" d="M713.624,129.771c-7.819-11.087-21.654-16.657-35.005-14.86
				c-9.443,1.271-18.635,4.839-27.65,7.786c-15.563,5.087-31.093,10.279-46.59,15.565c-7.33,0.594-14.691,0.81-22.056,0.64
				c-8.349-0.462-16.665-1.399-24.9-2.868c-13.8-2.462-29.083-3.726-40.604,6.188c-4.865,4.187-8.238,8.379-11.717,13.6
				c-2.497,3.749-5.135,7.404-7.906,10.955c-3.979,5.099-8.238,9.969-12.73,14.617c-11.164,4.226-22.31,8.499-33.434,12.829
				c-2.89,1.125-5.777,2.258-8.665,3.39c-1.344-0.239-2.79-0.162-4.256,0.26c-14.158,4.076-27.593,10.372-39.932,18.414
				c-2.778,1.81-3.874,5.723-2.906,8.88c-1.355,2.027-1.79,4.6-0.857,7.113c13.41,36.116,27.695,71.905,42.841,107.326
				c2.148,6.184,4.31,12.364,6.498,18.535c5.533,15.606,10.733,31.487,17.452,46.634c7.595,17.121,17.614,33.735,32.721,45.279
				c13.258,10.13,28.559,16.004,44.246,21.128c16.635,5.434,33.277,10.848,49.916,16.272l25.307,8.249
				c5.245,1.71,10.614,4.023,16.165,4.41c5.882,0.41,10.155,0.155,15.852-1.54c3.511-1.045,6.988-3.008,9.955-5.07
				c7.778-5.406,12.794-13.517,18.024-21.17c4.356-6.373,8.685-12.764,12.928-19.212c17.692-26.889,34.602-54.854,44.959-85.496
				c5.313-15.72,9.37-31.752,11.438-48.227c2.042-16.266,2.579-32.823,1.942-49.198c-1.236-31.762-7.478-63.075-15.248-93.818
				c-1.846-7.303-3.815-14.575-5.876-21.821C721.083,145.936,718.891,137.241,713.624,129.771z"/>
			<g>
				<path id="XMLID_83_" style="fill:#FFFFFF;" d="M619.375,405.207c0,0-55.783-4.72-61.756-82.436
					c-5.974-77.715-16.389-97.379-16.389-97.379s2.185-5.298,13.678,4.364c11.493,9.662,90.732,49.355,89.768,96.156
					S629.126,396.85,619.375,405.207z"/>
				<path style="fill:#51924B;" d="M607.54,366.22c2.428,9.21,4.199,18.538,5.218,27.757c1.37,12.392,0.365,24.857,2.106,37.197
					c0.279,1.978,0.687,4.1,2.144,5.467c1.457,1.366,4.306,1.336,5.076-0.507c0.295-0.705,0.229-1.501,0.159-2.262
					c-0.64-6.926,0.609-12.798,0.5-19.598c-0.115-7.231-2.077-14.373-3.062-21.575c-1.183-8.652-3.057-17.201-5.422-25.605
					c-4.731-16.811-11.425-33.016-18.941-48.758c-1.11-2.325-3.169-8.312-6.476-6.493c-4.541,2.498,1.714,10.699,2.915,13.042
					C598.376,337.804,603.756,351.869,607.54,366.22z"/>
			</g>
		</g>
		<path style="fill:#3F3F3F;" d="M909.508,969.885c7.069-0.079,14.088-2.607,19.585-7.053c-12.423-21.91-24.847-43.821-37.27-65.731
			c-3.929-6.929-7.877-13.901-10.561-21.4c-3.299-9.22-4.608-19.012-5.896-28.719c-4.996-37.641-9.993-75.281-14.989-112.922
			c-0.419-3.156-0.872-6.413-2.512-9.141c-4.713-7.839-15.997-7.484-25.046-6.149c-1.984,0.293-4.141,0.676-5.466,2.181
			c-1.514,1.72-1.416,4.281-1.231,6.565c2.414,29.849-5.363,3.419-2.949,33.268c0.849,10.496,11.909,77.374,15.066,87.42
			c5.579,17.756,13.114,36.112,24.447,50.876C880.136,921.811,891.801,942.751,909.508,969.885z"/>
		<path style="fill:#3F3F3F;" d="M801.809,735.068c-12.732-0.337-25.463-0.673-38.195-1.01c-0.795-1.646,2.503-0.227,2.477,1.601
			c-0.825,57.64,4.326,115.364,15.343,171.947c4.748,24.384,10.607,48.785,10.704,73.627c5.224-0.009,10.448-0.018,15.673-0.027
			c1.775-77.71,3.549-155.419,5.324-233.129c0.09-3.93-0.07-8.439-3.104-10.939C807.806,735.305,804.69,735.144,801.809,735.068z"/>
		<path style="fill:#3F3F3F;" d="M795.683,992.987c-2.172,1.823,0.781,3.268,2.199,3.404c2.58,0.247,5.26,0.102,7.783-0.505
			c0.669-0.161,1.35-0.364,1.888-0.794c0.423-0.338,0.731-0.794,1.032-1.244c0.832-1.242,2.803-3.207,3.115-4.648
			c0.257-1.188-0.457-2.344-1.015-3.428c-1.184-2.303-3.211-4.67-3.109-7.408c-5.595,0.616-10.961-1.314-15.597,0.195
			c-0.39,1.95-1.849,3.543-1.17,5.069c-0.448-1.007-13.961,2.394-15.562,2.707c-2.578,0.505-5.168,0.932-7.786,1.164
			c-2.038,0.18-5.942-0.76-7.089,1.274c-0.407,0.722-0.541,1.565-0.602,2.392c-0.046,0.629-0.053,1.277,0.152,1.874
			c0.353,1.029,1.296,1.768,2.317,2.144C773.342,999.267,784.408,992.825,795.683,992.987z"/>
		<path style="fill:#3F3F3F;" d="M921.928,980.248c-1.349,2.747,2.198,2.885,3.657,2.401c2.655-0.882,5.237-2.195,7.462-3.896
			c0.59-0.451,1.174-0.949,1.517-1.607c0.27-0.518,0.374-1.103,0.475-1.678c0.279-1.589,1.368-4.389,1.046-5.948
			c-0.265-1.285-1.474-2.114-2.498-2.941c-2.174-1.757-5.988-4.963-7.082-7.71c-5.254,3.05-13.239,6.624-17.157,10.138
			c2.145,1.56,2.347,2.922,3.683,4.132c-0.882-0.799-12.736,8.457-14.18,9.466c-2.324,1.623-4.695,3.176-7.177,4.548
			c-1.933,1.068-6.198,1.844-6.442,4.352c-0.087,0.891,0.15,1.781,0.45,2.624c0.229,0.641,0.505,1.283,0.968,1.783
			c0.797,0.862,2.052,1.18,3.224,1.105C902.616,996.2,910.727,985.01,921.928,980.248z"/>
		<path style="fill:#EDD5BE;" d="M839.57,439.733c-0.027-0.987-0.374-1.933-0.717-2.858c-3.782-10.202-7.564-20.404-11.346-30.606
			c-2.708-7.305-5.996-15.277-12.986-18.718c-9.369-4.612-20.192,1.044-30.109,4.315c0.289,12.942-0.307,25.904-1.783,38.766
			c-0.833,7.256-1.946,14.581-1.038,21.828c0.908,7.247,4.17,14.579,10.297,18.553c10.387,6.737,24.708,1.392,33.589-7.234
			c6.038-5.865,10.69-13.148,13.474-21.092C839.286,441.732,839.598,440.744,839.57,439.733z"/>
		<path style="fill:#333333;" d="M824.665,433.99c0.552-2.759,2.734-5.228,5.501-5.739c2.766-0.511,5.877,1.265,6.508,4.007
			c0.764,3.319-1.871,6.319-3.553,9.281c-5.458,9.607-1.188,21.6,3.144,31.764c3.973-7.058,9.35-13.32,15.727-18.314
			c4.995-3.913,11.053-7.717,12.292-13.941c0.672-3.375-0.259-6.914,0.405-10.291c0.92-4.68,4.769-8.434,5.44-13.156
			c0.733-5.161-2.479-9.998-5.791-14.023c-7.71-9.37-16.851-17.561-27.008-24.201c-2.903-1.898-6.126-3.976-7.047-7.319
			c-0.467-1.696-0.279-3.574-1.073-5.144c-1.369-2.704-4.899-3.298-7.918-3.565c-9.326-0.823-18.936-1.617-27.871,1.178
			c-2.271,0.711-4.53,1.658-6.91,1.664c-4.641,0.013-8.666-3.519-13.297-3.821c-5.179-0.337-9.896,3.609-11.994,8.356
			c-2.098,4.747-2.095,10.133-1.791,15.314c3.172,1.385,6.343,2.77,9.515,4.154c-2.812,4.254-2.978,10.112-0.41,14.518
			c6.286,0.791,12.792-0.249,18.519-2.958c3.945-1.867,7.962-4.588,12.264-3.855c4.359,0.743,7.256,4.73,10.473,7.763
			c3.217,3.034,8.572,5.22,11.81,2.208C824.591,416.193,825.648,425.202,824.665,433.99z"/>
		<path style="fill:#EBEFEB;" d="M839.16,475.699c13.89,1.786,24.664,9.676,30.069,18.479c5.406,8.804,6.353,18.515,7.233,28.024
			c1.131,12.212,2.261,24.425,3.391,36.638c2.704,29.211,5.409,58.472,4.145,87.727c-0.576,13.334-1.976,26.644-3.375,39.95
			c-2.88,27.378-5.759,54.755-8.639,82.133c-38.023-2.497-76.046-4.993-114.069-7.49c-4.561-0.299-9.394-0.669-13.006-2.571
			c-6.565-3.456-6.172-10.111-5.124-15.68c13.096-69.608,23.567-139.261,29.809-209.49c0.861-9.689-1.678-39.108,4.296-46.387
			C780.878,478.521,826.13,474.024,839.16,475.699z"/>
		<path style="fill:#5A9B73;" d="M749.29,597.208c13.856-25.719,19.756-55.093,21.429-84.259c0.349-6.089,0.307-12.833-3.7-17.431
			c-0.599-0.687-1.321-1.425-1.274-2.336c0.031-0.602,0.402-1.126,0.76-1.611c1.632-2.219,3.263-4.439,4.895-6.658
			c2.968,1.158,5.936,2.317,8.904,3.475c1.198,3.889-2.051,7.611-3.138,11.532c-0.536,1.936-0.538,3.974-0.539,5.983
			c-0.005,17.029,2.765,35.959,0.395,52.823c-2.37,16.863-3.188,33.208-11.44,48.104c-4.448,8.028-9.939,15.478-16.291,22.102
			c-0.826,0.861-1.678,1.718-2.706,2.323c-3.285,1.936-14.414-0.521-17.773,1.283c0.257-3.486-0.1-8.43,1.272-11.683
			c1.131-2.682,3.525-3.813,5.691-5.659C741.53,610.292,745.733,603.809,749.29,597.208z"/>
		<g>
			<path style="fill:#EDD5BE;" d="M509.188,445.155c-1.186,1.504-2.636,2.761-4.091,3.988c-3.841,3.24-7.787,6.347-11.83,9.315
				c-0.528,0.388-1.191,0.79-1.784,0.52c-0.37-0.169-0.593-0.558-0.783-0.927c-1.187-2.306-2.053-4.787-2.564-7.344
				c-0.39-1.949-0.559-4.047,0.22-5.867c0.903-2.109,2.89-3.452,4.577-4.963c3.198-2.864,5.565-6.703,6.724-10.906
				c0.971-0.405,2.085,0.472,2.369,1.513c0.284,1.041-0.013,2.146-0.309,3.184c2.17-0.45,3.236-2.915,4.795-4.536
				c1.336-1.389,3.123-2.196,4.863-2.973c0.482-0.215,1.001-0.435,1.518-0.337c1.335,0.254,1.484,2.15,1.303,3.537
				C513.472,434.925,512.622,440.801,509.188,445.155z"/>
			<path style="fill:#EBEFEB;" d="M338.948,514.911c-5.729-1.05-11.586-2.397-16.459-5.956c-4.873-3.559-8.598-9.829-7.979-16.324
				c0.551-5.781,4.442-10.64,9.063-13.223c4.621-2.583,9.9-3.228,15.061-3.436c22.15-0.893,44.277,5.5,66.358,3.364
				c32.42-3.137,60.897-24.045,90.215-39.877c0.813-0.439,1.695-0.886,2.585-0.715c1.008,0.194,1.759,1.122,2.427,1.995
				c2.464,3.222,4.928,6.444,7.393,9.666c-13.591,14.423-27.866,28.029-42.744,40.743c-15.795,13.497-33.115,26.361-52.816,29.059
				c-7.553,1.034-15.201,0.526-22.799,0.016C372.433,519.092,355.581,517.959,338.948,514.911z"/>
		</g>
		<g>
			<path style="fill:#EDD5BE;" d="M641.531,418.928c0.887,1.734,2.112,3.307,3.349,4.855c3.266,4.087,6.675,8.078,10.219,11.965
				c0.463,0.508,1.064,1.066,1.755,0.975c0.431-0.057,0.76-0.36,1.049-0.653c1.807-1.834,3.318-3.92,4.473-6.174
				c0.88-1.718,1.564-3.637,1.182-5.554c-0.443-2.223-2.213-4.024-3.626-5.902c-2.679-3.558-4.248-7.802-4.456-12.055
				c-0.926-0.646-2.31-0.13-2.861,0.768c-0.55,0.897-0.504,2.013-0.442,3.066c-2.178-1.017-2.707-3.617-3.959-5.562
				c-1.073-1.667-2.761-2.913-4.408-4.117c-0.456-0.334-0.95-0.682-1.518-0.731c-1.467-0.128-2.082,1.606-2.226,2.955
				C639.483,408.175,638.962,413.91,641.531,418.928z"/>
			<path style="fill:#EBEFEB;" d="M807.53,531.798c6.29,0.587,12.787,0.931,18.78-1.066c5.993-1.997,11.43-6.848,12.343-13.099
				c0.813-5.564-2.115-11.181-6.362-14.866c-4.247-3.685-9.654-5.736-15.042-7.345c-23.125-6.906-47.983-6.984-70.734-15.037
				c-33.406-11.823-58.372-39.206-85.448-62.066c-0.751-0.634-1.572-1.294-2.552-1.378c-1.109-0.095-2.124,0.568-3.038,1.203
				c-3.373,2.342-6.747,4.683-10.12,7.025c10.845,17.231,22.606,33.884,35.218,49.867c13.39,16.968,28.539,33.76,48.648,41.686
				c7.709,3.038,15.891,4.658,24.021,6.263C771.238,526.536,789.269,530.093,807.53,531.798z"/>
		</g>
	</g>
</g>
</svg>
