<?xml version="1.0" encoding="utf-8"?>
<!-- Generator: Adobe Illustrator 27.5.0, SVG Export Plug-In . SVG Version: 6.00 Build 0)  -->
<svg version="1.1" xmlns="http://www.w3.org/2000/svg" xmlns:xlink="http://www.w3.org/1999/xlink" x="0px" y="0px"
	 viewBox="0 0 750 500" style="enable-background:new 0 0 750 500;" xml:space="preserve">
<g id="BACKGROUND">
	<rect style="fill:#FFFFFF;" width="750" height="500"/>
	<g>
		<g>
			<path style="fill:#DEEDFF;" d="M417.67,91.176c-9.92-3.917-20.613-6.192-31.22-6.666c-29.016-1.298-56.265,10.804-84.683,14.464
				c-18.962,2.442-38.269,2.187-57.16-0.754c-18.704-2.912-36.179-12.352-55.35-9.563c-22.36,3.252-41.256,19.639-48.533,40.906
				c-3.601,10.525-4.251,21.98-1.585,32.798c1.213,4.92,4.62,9.577,2.608,14.591c-1.882,4.691-8.172,7.444-12.251,9.78
				c-8.732,5.001-15.9,11.075-22.201,19.02c-16.059,20.249-23.128,46.964-17.249,72.336c9.644,41.623,51.191,69.461,93.289,63.338
				c31.324-4.556,56.043-25.942,66.333-53.664c13.674-10.887,26.729-22.426,39.331-32.261c30.833-24.063,61.539-33.326,99.663-38.93
				c23.617-3.471,48.895-9.874,63.771-28.543C480.743,152.5,454.861,105.862,417.67,91.176z"/>
			<g>
				<path style="fill:#FFFFFF;" d="M159.096,310.151l-3.835,0.558c-0.619-2.025-1.442-3.945-2.456-5.737l3.034-2.394
					c0.389-0.307,0.455-0.871,0.149-1.26l-4.342-5.503c-0.307-0.389-0.871-0.455-1.26-0.149l-3.028,2.389
					c-1.53-1.422-3.208-2.674-5.007-3.736l1.427-3.583c0.183-0.46-0.041-0.982-0.501-1.165l-6.512-2.594
					c-0.46-0.183-0.982,0.041-1.165,0.501l-1.43,3.59c-2.007-0.462-4.081-0.703-6.199-0.72l-0.558-3.835
					c-0.071-0.49-0.526-0.83-1.017-0.758l-6.936,1.009c-0.49,0.071-0.83,0.527-0.759,1.017l0.558,3.835
					c-2.025,0.619-3.944,1.442-5.737,2.456l-2.394-3.034c-0.307-0.389-0.871-0.455-1.26-0.148l-5.503,4.342
					c-0.389,0.307-0.455,0.871-0.149,1.26l2.389,3.027c-1.422,1.53-2.674,3.208-3.735,5.007l-1.857-0.74
					c2.807,4.318,6.005,8.345,9.533,12.047c1.378-7.101,7.085-12.889,14.647-13.989c9.565-1.391,18.447,5.235,19.838,14.799
					c1.066,7.33-2.586,14.246-8.651,17.71c4.081,1.901,8.31,3.495,12.66,4.732l-0.22-0.279c1.422-1.53,2.674-3.208,3.736-5.007
					l3.583,1.428c0.46,0.183,0.982-0.041,1.165-0.501l2.595-6.512c0.183-0.46-0.041-0.982-0.501-1.165l-3.59-1.43
					c0.462-2.007,0.703-4.081,0.72-6.199l3.835-0.558c0.49-0.071,0.83-0.526,0.758-1.017l-1.009-6.937
					C160.042,310.42,159.587,310.08,159.096,310.151z"/>
				<path style="fill:#FFFFFF;" d="M127.294,316.274c-1.596,0.232-2.702,1.714-2.469,3.31c0.232,1.596,1.714,2.702,3.31,2.469
					c1.596-0.232,2.702-1.714,2.469-3.31C130.372,317.148,128.89,316.042,127.294,316.274z"/>
				<path style="fill:#FFFFFF;" d="M103.914,289.473l-0.558-3.835c2.025-0.619,3.945-1.442,5.737-2.456l2.394,3.034
					c0.307,0.389,0.871,0.455,1.26,0.148l5.503-4.342c0.389-0.307,0.455-0.871,0.149-1.26l-2.389-3.028
					c1.422-1.53,2.674-3.208,3.736-5.007l3.583,1.428c0.46,0.183,0.982-0.041,1.165-0.501l2.594-6.512
					c0.183-0.46-0.041-0.982-0.501-1.165l-3.59-1.43c0.462-2.007,0.703-4.081,0.72-6.199l3.835-0.558
					c0.49-0.071,0.83-0.526,0.758-1.017l-1.009-6.937c-0.071-0.49-0.526-0.83-1.017-0.758l-3.835,0.558
					c-0.619-2.025-1.442-3.945-2.456-5.737l3.034-2.394c0.389-0.307,0.455-0.871,0.148-1.26l-4.342-5.503
					c-0.307-0.389-0.871-0.455-1.26-0.149l-3.028,2.389c-1.53-1.422-3.208-2.674-5.007-3.736l1.427-3.583
					c0.183-0.46-0.041-0.982-0.501-1.165l-6.512-2.594c-0.46-0.183-0.982,0.041-1.165,0.501l-1.43,3.59
					c-2.007-0.462-4.081-0.703-6.199-0.72l-0.353-2.424c-1.964,4.668-3.523,9.492-4.653,14.411c0.725-0.204,1.464-0.379,2.229-0.491
					c9.565-1.391,18.447,5.235,19.838,14.799c1.391,9.565-5.235,18.447-14.8,19.838c-2.811,0.409-5.556,0.109-8.076-0.738
					c0.212,1.141,0.44,2.28,0.703,3.416c0.691,2.984,1.565,5.888,2.573,8.724c0.671,0.052,1.344,0.089,2.025,0.094l0.558,3.835
					c0.071,0.49,0.527,0.83,1.017,0.758l6.937-1.009C103.646,290.418,103.986,289.963,103.914,289.473z"/>
				<path style="fill:#FFFFFF;" d="M97.792,257.67c-0.232-1.596-1.714-2.702-3.31-2.469c-1.596,0.232-2.702,1.714-2.469,3.31
					c0.232,1.596,1.714,2.702,3.31,2.469C96.918,260.748,98.024,259.266,97.792,257.67z"/>
			</g>
		</g>
		<g>
			<g>
				<g>
					<path style="fill:#242D80;" d="M246.523,353.114c-8.163,0-14.805-6.641-14.805-14.805V131.301
						c0-8.164,6.642-14.805,14.805-14.805H555.6c8.163,0,14.805,6.641,14.805,14.805V338.31c0,8.164-6.642,14.805-14.805,14.805
						H246.523z"/>
					<path style="fill:#39439E;" d="M555.599,351.115H246.523c-7.072,0-12.805-5.733-12.805-12.805V131.301
						c0-7.072,5.733-12.805,12.805-12.805h309.077c7.072,0,12.805,5.733,12.805,12.805V338.31
						C568.404,345.382,562.671,351.115,555.599,351.115z"/>
					<path style="fill:#4C6CF1;" d="M246.523,343.114c-2.649,0-4.805-2.155-4.805-4.805V131.301c0-2.649,2.155-4.805,4.805-4.805
						H555.6c2.649,0,4.805,2.155,4.805,4.805V338.31c0,2.649-2.155,4.805-4.805,4.805H246.523z"/>
					<path style="fill:#FFFFFF;" d="M560.404,154.337v-23.036c0-2.649-2.155-4.805-4.805-4.805H246.523
						c-2.649,0-4.805,2.155-4.805,4.805v23.036H560.404z"/>
				</g>
			</g>
			<path style="opacity:0.25;fill:#FFFFFF;" d="M246.523,343.114c-2.649,0-4.805-2.155-4.805-4.805V131.301
				c0-2.649,2.155-4.805,4.805-4.805H555.6c2.649,0,4.805,2.155,4.805,4.805l-310.892,3.036L246.523,343.114z"/>
		</g>
		<g>
			<g>
				<rect x="426.271" y="288.482" style="fill:#1E2778;" width="123.321" height="59.112"/>
				<rect x="426.271" y="338.859" style="fill:#141B5E;" width="123.321" height="8.736"/>
				<g>
					<g>
						<path style="fill:#39439E;" d="M468.874,292.947h-28.37c-5.386,0-9.768,4.382-9.768,9.768v24.711h38.138V292.947z"/>
						<path style="fill:#39439E;" d="M535.36,292.947h-64.44v34.479h74.207v-24.711C545.128,297.329,540.746,292.947,535.36,292.947
							z"/>
						<g>
							<g>
								<g>
									<rect x="476.214" y="297.164" style="fill:#F2CF31;" width="3.721" height="3.721"/>
									<rect x="476.214" y="304.605" style="fill:#64DECC;" width="3.721" height="3.721"/>
									<rect x="476.214" y="312.047" style="fill:#F2CF31;" width="3.721" height="3.721"/>
									<rect x="476.214" y="319.489" style="fill:#64DECC;" width="3.721" height="3.721"/>
								</g>
								<g>
									<rect x="483.097" y="297.164" style="fill:#FFFFFF;" width="3.721" height="3.721"/>
									<rect x="483.097" y="304.605" style="fill:#F2CF31;" width="3.721" height="3.721"/>
									<rect x="483.097" y="312.047" style="fill:#64DECC;" width="3.721" height="3.721"/>
									<rect x="483.097" y="319.489" style="fill:#FFFFFF;" width="3.721" height="3.721"/>
								</g>
								<g>
									<rect x="489.981" y="297.164" style="fill:#64DECC;" width="3.721" height="3.721"/>
									<rect x="489.981" y="304.605" style="fill:#FFFFFF;" width="3.721" height="3.721"/>
									<rect x="489.981" y="312.047" style="fill:#64DECC;" width="3.721" height="3.721"/>
									<rect x="489.981" y="319.489" style="fill:#F2CF31;" width="3.721" height="3.721"/>
								</g>
							</g>
							<g>
								<rect x="496.864" y="297.164" style="fill:#1E2778;" width="35.653" height="3.721"/>
								<rect x="496.864" y="304.605" style="fill:#1E2778;" width="35.653" height="3.721"/>
								<rect x="496.864" y="312.047" style="fill:#1E2778;" width="35.653" height="3.721"/>
								<rect x="496.864" y="319.489" style="fill:#1E2778;" width="35.653" height="3.721"/>
							</g>
						</g>
						
							<ellipse transform="matrix(0.7071 -0.7071 0.7071 0.7071 -87.5902 408.9119)" style="fill:#FFFFFF;" cx="449.805" cy="310.187" rx="13.891" ry="13.891"/>
						
							<ellipse transform="matrix(0.7071 -0.7071 0.7071 0.7071 -87.5902 408.9119)" style="fill:#1E2778;" cx="449.805" cy="310.187" rx="11.886" ry="11.886"/>
						<path style="fill:#141B5E;" d="M444.224,310.187c0-3.082,2.499-5.581,5.581-5.581c3.082,0,5.581,2.499,5.581,5.581
							c0,3.082-2.499,5.581-5.581,5.581C446.723,315.768,444.224,313.269,444.224,310.187z"/>
					</g>
					<g>
						<rect x="430.736" y="331.829" style="fill:#F2CF31;" width="12.345" height="2.232"/>
						<rect x="451.146" y="331.829" style="fill:#F2CF31;" width="12.345" height="2.232"/>
						<rect x="471.555" y="331.829" style="fill:#39439E;" width="12.345" height="2.232"/>
						<rect x="491.964" y="331.829" style="fill:#39439E;" width="12.345" height="2.232"/>
						<rect x="512.373" y="331.829" style="fill:#39439E;" width="12.345" height="2.232"/>
						<rect x="532.782" y="331.829" style="fill:#39439E;" width="12.345" height="2.232"/>
					</g>
				</g>
			</g>
			<g>
				<rect x="426.271" y="347.595" style="fill:#1E2778;" width="123.321" height="59.112"/>
				<rect x="426.271" y="397.971" style="fill:#141B5E;" width="123.321" height="8.736"/>
				<g>
					<g>
						<path style="fill:#39439E;" d="M468.874,352.059h-28.37c-5.386,0-9.768,4.382-9.768,9.768v24.711h38.138V352.059z"/>
						<path style="fill:#39439E;" d="M535.36,352.059h-64.44v34.479h74.207v-24.711C545.128,356.441,540.746,352.059,535.36,352.059
							z"/>
						<g>
							<g>
								<g>
									<rect x="476.214" y="356.276" style="fill:#F2CF31;" width="3.721" height="3.721"/>
									<rect x="476.214" y="363.718" style="fill:#64DECC;" width="3.721" height="3.721"/>
									<rect x="476.214" y="371.159" style="fill:#F2CF31;" width="3.721" height="3.721"/>
									<rect x="476.214" y="378.601" style="fill:#64DECC;" width="3.721" height="3.721"/>
								</g>
								<g>
									<rect x="483.097" y="356.276" style="fill:#FFFFFF;" width="3.721" height="3.721"/>
									<rect x="483.097" y="363.718" style="fill:#F2CF31;" width="3.721" height="3.721"/>
									<rect x="483.097" y="371.159" style="fill:#64DECC;" width="3.721" height="3.721"/>
									<rect x="483.097" y="378.601" style="fill:#FFFFFF;" width="3.721" height="3.721"/>
								</g>
								<g>
									<rect x="489.981" y="356.276" style="fill:#64DECC;" width="3.721" height="3.721"/>
									<rect x="489.981" y="363.718" style="fill:#FFFFFF;" width="3.721" height="3.721"/>
									<rect x="489.981" y="371.159" style="fill:#64DECC;" width="3.721" height="3.721"/>
									<rect x="489.981" y="378.601" style="fill:#F2CF31;" width="3.721" height="3.721"/>
								</g>
							</g>
							<g>
								<rect x="496.864" y="356.276" style="fill:#1E2778;" width="35.653" height="3.721"/>
								<rect x="496.864" y="363.718" style="fill:#1E2778;" width="35.653" height="3.721"/>
								<rect x="496.864" y="371.159" style="fill:#1E2778;" width="35.653" height="3.721"/>
								<rect x="496.864" y="378.601" style="fill:#1E2778;" width="35.653" height="3.721"/>
							</g>
						</g>
						
							<ellipse transform="matrix(0.7071 -0.7071 0.7071 0.7071 -129.3889 426.2255)" style="fill:#FFFFFF;" cx="449.805" cy="369.299" rx="13.891" ry="13.891"/>
						
							<ellipse transform="matrix(0.7071 -0.7071 0.7071 0.7071 -129.3889 426.2255)" style="fill:#1E2778;" cx="449.805" cy="369.299" rx="11.886" ry="11.886"/>
						<path style="fill:#141B5E;" d="M444.224,369.299c0-3.082,2.499-5.581,5.581-5.581c3.082,0,5.581,2.499,5.581,5.581
							c0,3.082-2.499,5.581-5.581,5.581C446.723,374.88,444.224,372.381,444.224,369.299z"/>
					</g>
					<g>
						<rect x="430.736" y="390.941" style="fill:#F2CF31;" width="12.345" height="2.232"/>
						<rect x="451.146" y="390.941" style="fill:#F2CF31;" width="12.345" height="2.232"/>
						<rect x="471.555" y="390.941" style="fill:#39439E;" width="12.345" height="2.232"/>
						<rect x="491.964" y="390.941" style="fill:#39439E;" width="12.345" height="2.232"/>
						<rect x="512.373" y="390.941" style="fill:#39439E;" width="12.345" height="2.232"/>
						<rect x="532.782" y="390.941" style="fill:#39439E;" width="12.345" height="2.232"/>
					</g>
				</g>
			</g>
			<g>
				<g>
					<g>
						<g>
							<g>
								<path style="fill:#FFFFFF;" d="M436.221,268.053c-4.071-4.071-6.312-9.484-6.312-15.242c0-6.086,2.593-11.918,7.115-16.001
									l1.475,1.633c-4.06,3.666-6.389,8.903-6.389,14.367c0,5.17,2.013,10.03,5.669,13.685L436.221,268.053z"/>
							</g>
							<g>
								<path style="fill:#FFFFFF;" d="M442.852,261.422c-2.3-2.3-3.566-5.358-3.566-8.61c0-3.428,1.468-6.719,4.028-9.03
									l0.59,0.653c-2.375,2.145-3.737,5.198-3.737,8.377c0,3.018,1.175,5.854,3.309,7.988L442.852,261.422z"/>
							</g>
							<g>
								<path style="fill:#FFFFFF;" d="M439.661,264.613c-3.153-3.152-4.889-7.344-4.889-11.802c0-4.698,2.012-9.209,5.52-12.377
									l1.18,1.306c-3.139,2.835-4.939,6.87-4.939,11.071c0,3.988,1.553,7.738,4.373,10.558L439.661,264.613z"/>
							</g>
							<g>
								<path style="fill:#FFFFFF;" d="M442.541,261.733c-2.383-2.383-3.696-5.552-3.696-8.922c0-3.552,1.521-6.963,4.173-9.357
									l1.18,1.307c-2.283,2.061-3.592,4.995-3.592,8.05c0,2.9,1.129,5.626,3.179,7.677L442.541,261.733z"/>
							</g>
						</g>
						<g>
							<g>
								<path style="fill:#FFFFFF;" d="M462.878,268.053l-1.556-1.556c3.655-3.655,5.669-8.515,5.669-13.685
									c0-5.464-2.329-10.701-6.389-14.367l1.475-1.633c4.521,4.083,7.115,9.915,7.115,16.001
									C469.192,258.569,466.949,263.982,462.878,268.053z"/>
							</g>
							<g>
								<path style="fill:#FFFFFF;" d="M456.247,261.422l-0.623-0.622c2.134-2.134,3.309-4.971,3.309-7.988
									c0-3.179-1.362-6.232-3.737-8.377l0.59-0.653c2.56,2.312,4.028,5.603,4.028,9.03
									C459.814,256.064,458.547,259.122,456.247,261.422z"/>
							</g>
							<g>
								<path style="fill:#FFFFFF;" d="M459.439,264.613l-1.245-1.245c2.82-2.82,4.373-6.569,4.373-10.558
									c0-4.201-1.801-8.236-4.94-11.071l1.18-1.307c3.509,3.168,5.521,7.68,5.521,12.378
									C464.328,257.27,462.592,261.461,459.439,264.613z"/>
							</g>
							<g>
								<path style="fill:#FFFFFF;" d="M456.558,261.733l-1.245-1.245c2.05-2.051,3.18-4.777,3.18-7.677
									c0-3.054-1.309-5.988-3.592-8.051l1.18-1.306c2.652,2.395,4.173,5.805,4.173,9.357
									C460.255,256.182,458.941,259.35,456.558,261.733z"/>
							</g>
						</g>
					</g>
					<g>
						<circle style="fill:#FFFFFF;" cx="449.55" cy="252.451" r="3.411"/>
					</g>
				</g>
				<g>
					<polygon style="fill:#FFFFFF;" points="452.637,288.482 446.462,288.482 448.45,252.451 450.65,252.451 					"/>
				</g>
			</g>
		</g>
		<g>
			<g>
				<path style="fill:#28D1B8;" d="M661.941,371.759c-0.898-6.121-9.934-4.505-14.314-3.617
					c-10.911,2.211-19.746,8.403-27.339,16.089l19.748-28.624c2.634-3.818,5.267-7.635,7.901-11.453
					c1.977-2.866,5.075-6.276,5.135-10.002c0.079-4.933-4.945-7.356-9.309-6.695c-6.138,0.929-12.069,6.319-16.268,10.61
					c-5.175,5.289-9.297,11.577-12.459,18.249c-6.198,13.077-7.544,19.232-9.223,33.52c-1.299-7.682-7.839-23.91-13.924-20.638
					c-9.94,5.344,11.335,37.511,11.335,37.511h13.3C616.524,406.707,663.95,385.457,661.941,371.759z"/>
				<path style="fill:#28D1B8;" d="M99.039,386.809c0.511-3.485,5.656-2.565,8.15-2.059c6.212,1.259,11.242,4.785,15.566,9.16
					l-11.244-16.297c-1.499-2.174-2.999-4.347-4.499-6.521c-1.126-1.632-2.89-3.573-2.924-5.695c-0.045-2.809,2.815-4.188,5.3-3.812
					c3.495,0.529,6.872,3.597,9.263,6.041c2.946,3.011,5.293,6.592,7.093,10.39c3.529,7.446,4.295,10.95,5.251,19.085
					c0.74-4.374,4.463-13.613,7.928-11.751c5.659,3.043-6.453,21.357-6.453,21.357h-7.572
					C124.897,406.707,97.895,394.608,99.039,386.809z"/>
			</g>
			<rect x="99.003" y="406.068" style="fill:#28D1B8;" width="563" height="9.519"/>
		</g>
		<g>
			<g>
				<rect x="265.112" y="138.615" style="fill:#28D1B8;" width="39.779" height="9.667"/>
				<rect x="317.749" y="138.615" style="fill:#28D1B8;" width="39.779" height="9.667"/>
				<rect x="370.387" y="138.615" style="fill:#28D1B8;" width="39.779" height="9.667"/>
				<rect x="423.024" y="138.615" style="fill:#28D1B8;" width="39.779" height="9.667"/>
				<rect x="475.661" y="138.615" style="fill:#28D1B8;" width="39.779" height="9.667"/>
			</g>
			<rect x="528.299" y="138.615" style="fill:#F2CF31;" width="19.889" height="9.667"/>
		</g>
		<g>
			<g>
				<g>
					<polygon style="fill:#28D1B8;" points="601.611,200.847 506.611,200.847 500.96,221.51 501.136,166.775 601.611,166.775 					
						"/>
					<g>
						<g>
							<rect x="529.5" y="174.331" style="fill:#FFFFFF;" width="64.107" height="3.179"/>
							<rect x="529.5" y="180.954" style="fill:#FFFFFF;" width="64.107" height="3.179"/>
							<rect x="529.5" y="187.577" style="fill:#FFFFFF;" width="24.277" height="3.179"/>
						</g>
						
							<ellipse transform="matrix(0.7071 -0.7071 0.7071 0.7071 21.5705 418.4589)" style="fill:#FFFFFF;" cx="515.91" cy="183.192" rx="8.477" ry="8.477"/>
						<g>
							<polygon style="fill:#FFFFFF;" points="564.985,185.946 565.796,188.442 568.42,188.442 566.297,189.984 567.108,192.48 
								564.985,190.937 562.862,192.48 563.673,189.984 561.55,188.442 564.174,188.442 							"/>
							<polygon style="fill:#1E2778;" points="572.893,185.946 573.704,188.442 576.328,188.442 574.205,189.984 575.016,192.48 
								572.893,190.937 570.77,192.48 571.581,189.984 569.458,188.442 572.082,188.442 							"/>
							<polygon style="fill:#1E2778;" points="580.801,185.946 581.612,188.442 584.236,188.442 582.113,189.984 582.924,192.48 
								580.801,190.937 578.678,192.48 579.489,189.984 577.366,188.442 579.99,188.442 							"/>
							<polygon style="fill:#1E2778;" points="588.709,185.946 589.52,188.442 592.144,188.442 590.021,189.984 590.832,192.48 
								588.709,190.937 586.586,192.48 587.397,189.984 585.274,188.442 587.898,188.442 							"/>
						</g>
					</g>
				</g>
				<g>
					<polygon style="fill:#28D1B8;" points="618.73,248.424 523.73,248.424 518.079,269.086 518.255,214.352 618.73,214.352 					
						"/>
					<g>
						<g>
							<rect x="546.62" y="221.908" style="fill:#FFFFFF;" width="64.107" height="3.179"/>
							<rect x="546.62" y="228.531" style="fill:#FFFFFF;" width="64.107" height="3.179"/>
							<rect x="546.62" y="235.153" style="fill:#FFFFFF;" width="24.277" height="3.179"/>
						</g>
						
							<ellipse transform="matrix(0.7071 -0.7071 0.7071 0.7071 -7.0572 444.4987)" style="fill:#FFFFFF;" cx="533.029" cy="230.768" rx="8.477" ry="8.477"/>
						<g>
							<polygon style="fill:#FFFFFF;" points="582.104,233.522 582.915,236.018 585.539,236.018 583.416,237.561 584.227,240.057 
								582.104,238.514 579.981,240.057 580.792,237.561 578.669,236.018 581.293,236.018 							"/>
							<polygon style="fill:#1E2778;" points="590.012,233.522 590.823,236.018 593.447,236.018 591.324,237.561 592.135,240.057 
								590.012,238.514 587.889,240.057 588.7,237.561 586.577,236.018 589.201,236.018 							"/>
							<polygon style="fill:#1E2778;" points="597.92,233.522 598.731,236.018 601.355,236.018 599.232,237.561 600.043,240.057 
								597.92,238.514 595.797,240.057 596.608,237.561 594.485,236.018 597.109,236.018 							"/>
							<polygon style="fill:#1E2778;" points="605.828,233.522 606.639,236.018 609.263,236.018 607.14,237.561 607.951,240.057 
								605.828,238.514 603.705,240.057 604.516,237.561 602.393,236.018 605.017,236.018 							"/>
						</g>
					</g>
				</g>
			</g>
			<g>
				<g>
					<path style="fill:#5E7EFF;" d="M454.302,234.566v-4.184c2.26-0.347,4.438-0.927,6.51-1.732l2.086,3.613
						c0.267,0.463,0.859,0.622,1.323,0.354l6.553-3.784c0.463-0.267,0.622-0.86,0.355-1.323l-2.082-3.606
						c1.757-1.414,3.355-3.011,4.769-4.769l3.606,2.082c0.463,0.267,1.055,0.109,1.323-0.354l3.784-6.553
						c0.267-0.463,0.109-1.055-0.355-1.323l-3.613-2.086c0.805-2.072,1.386-4.25,1.732-6.51h4.184c0.535,0,0.968-0.433,0.968-0.968
						v-7.567c0-0.535-0.433-0.968-0.968-0.968h-4.184c-0.347-2.26-0.927-4.438-1.732-6.51l3.613-2.086
						c0.463-0.267,0.622-0.86,0.355-1.323l-3.784-6.553c-0.267-0.463-0.86-0.622-1.323-0.354l-3.606,2.082
						c-1.414-1.757-3.012-3.355-4.769-4.769l2.082-3.606c0.267-0.463,0.109-1.055-0.355-1.323l-6.553-3.783
						c-0.463-0.267-1.055-0.109-1.323,0.354l-2.086,3.613c-2.072-0.805-4.25-1.385-6.51-1.732v-4.184
						c0-0.535-0.433-0.968-0.968-0.968h-7.567c-0.535,0-0.968,0.434-0.968,0.968v4.184c-2.26,0.347-4.438,0.927-6.51,1.732
						l-2.086-3.613c-0.267-0.463-0.86-0.622-1.323-0.354l-6.553,3.783c-0.463,0.267-0.622,0.86-0.354,1.323l2.082,3.606
						c-1.757,1.414-3.355,3.012-4.769,4.769l-3.606-2.082c-0.463-0.267-1.055-0.109-1.323,0.354l-3.784,6.553
						c-0.267,0.463-0.109,1.055,0.354,1.323l3.613,2.086c-0.805,2.072-1.386,4.251-1.733,6.51h-4.184
						c-0.535,0-0.968,0.434-0.968,0.968v7.567c0,0.535,0.434,0.968,0.968,0.968h4.184c0.347,2.26,0.927,4.438,1.733,6.51
						l-3.613,2.086c-0.463,0.267-0.622,0.86-0.354,1.323l3.784,6.553c0.267,0.463,0.859,0.622,1.323,0.354l3.606-2.082
						c1.414,1.757,3.012,3.355,4.769,4.769l-2.082,3.606c-0.267,0.463-0.109,1.055,0.354,1.323l6.553,3.784
						c0.463,0.267,1.055,0.109,1.323-0.354l2.086-3.613c2.072,0.805,4.25,1.386,6.51,1.732v4.184c0,0.535,0.434,0.968,0.968,0.968
						h7.567C453.868,235.535,454.302,235.101,454.302,234.566z M430.657,199.64c0-10.434,8.459-18.893,18.893-18.893
						c10.434,0,18.893,8.459,18.893,18.893s-8.459,18.893-18.893,18.893C439.115,218.533,430.657,210.075,430.657,199.64z"/>
					<path style="fill:#5E7EFF;" d="M449.55,196.488c1.741,0,3.152,1.412,3.152,3.153c0,1.741-1.411,3.152-3.152,3.152
						c-1.741,0-3.152-1.411-3.152-3.152C446.397,197.899,447.809,196.488,449.55,196.488z"/>
				</g>
				<g>
					<path style="fill:#5E7EFF;" d="M392.551,243.788v-2.553c1.379-0.212,2.708-0.566,3.973-1.057l1.273,2.205
						c0.163,0.283,0.524,0.379,0.807,0.216l3.999-2.309c0.283-0.163,0.379-0.525,0.216-0.807l-1.27-2.2
						c1.072-0.863,2.047-1.838,2.91-2.91l2.2,1.27c0.283,0.163,0.644,0.066,0.807-0.216l2.309-3.999
						c0.163-0.283,0.066-0.644-0.216-0.807l-2.205-1.273c0.491-1.264,0.846-2.594,1.057-3.973h2.553
						c0.326,0,0.591-0.264,0.591-0.591v-4.618c0-0.326-0.264-0.591-0.591-0.591h-2.553c-0.212-1.379-0.566-2.708-1.057-3.973
						l2.205-1.273c0.283-0.163,0.379-0.525,0.216-0.807l-2.309-3.999c-0.163-0.283-0.525-0.38-0.807-0.216l-2.2,1.27
						c-0.863-1.072-1.838-2.047-2.91-2.91l1.27-2.2c0.163-0.283,0.066-0.644-0.216-0.807l-3.999-2.309
						c-0.283-0.163-0.644-0.066-0.807,0.216l-1.273,2.205c-1.264-0.491-2.594-0.846-3.973-1.057v-2.553
						c0-0.326-0.264-0.591-0.591-0.591h-4.618c-0.326,0-0.591,0.264-0.591,0.591v2.553c-1.379,0.212-2.708,0.566-3.973,1.057
						l-1.273-2.205c-0.163-0.283-0.525-0.379-0.807-0.216l-3.999,2.309c-0.283,0.163-0.379,0.525-0.216,0.807l1.27,2.2
						c-1.072,0.863-2.047,1.838-2.91,2.91l-2.2-1.27c-0.283-0.163-0.644-0.066-0.807,0.216l-2.309,3.999
						c-0.163,0.283-0.066,0.644,0.216,0.807l2.205,1.273c-0.491,1.264-0.845,2.594-1.057,3.973h-2.553
						c-0.326,0-0.591,0.264-0.591,0.591v4.618c0,0.326,0.265,0.591,0.591,0.591h2.553c0.212,1.379,0.566,2.708,1.057,3.973
						l-2.205,1.273c-0.283,0.163-0.379,0.525-0.216,0.807l2.309,3.999c0.163,0.282,0.524,0.379,0.807,0.216l2.2-1.27
						c0.863,1.072,1.838,2.047,2.91,2.91l-1.27,2.2c-0.163,0.283-0.066,0.644,0.216,0.807l3.999,2.309
						c0.283,0.163,0.644,0.066,0.807-0.216l1.273-2.205c1.264,0.491,2.594,0.846,3.973,1.057v2.553c0,0.326,0.265,0.591,0.591,0.591
						h4.618C392.286,244.379,392.551,244.114,392.551,243.788z M378.122,222.475c0-6.367,5.162-11.529,11.529-11.529
						c6.367,0,11.529,5.162,11.529,11.529c0,6.367-5.162,11.529-11.529,11.529C383.284,234.004,378.122,228.842,378.122,222.475z"/>
					<path style="fill:#5E7EFF;" d="M391.392,222.475c0,0.962-0.78,1.741-1.741,1.741s-1.741-0.78-1.741-1.741
						c0-0.962,0.78-1.741,1.741-1.741S391.392,221.513,391.392,222.475z"/>
				</g>
			</g>
			<g>
				<rect x="372.17" y="261.733" style="fill:#5E7EFF;" width="43.097" height="52.008"/>
				<g>
					<g>
						<g>
							<circle style="fill:#FF9D1C;" cx="380.372" cy="269.338" r="2.444"/>
							<rect x="385.38" y="267.2" style="fill:#FFFFFF;" width="24.128" height="4.276"/>
						</g>
						<g>
							<circle style="fill:#F2CF54;" cx="380.372" cy="279.408" r="2.444"/>
							<rect x="385.38" y="277.27" style="fill:#FFFFFF;" width="24.128" height="4.276"/>
						</g>
					</g>
					<g>
						<g>
							<circle style="fill:#FF9D1C;" cx="380.372" cy="296.066" r="2.444"/>
							<rect x="385.38" y="293.928" style="fill:#FFFFFF;" width="24.128" height="4.276"/>
						</g>
						<g>
							<circle style="fill:#FFFFFF;" cx="380.372" cy="306.136" r="2.444"/>
							<rect x="385.38" y="303.998" style="fill:#FFFFFF;" width="24.128" height="4.276"/>
						</g>
					</g>
					
						<line style="fill:none;stroke:#FFFFFF;stroke-width:0.6667;stroke-miterlimit:10;" x1="372.17" y1="287.931" x2="415.267" y2="287.931"/>
				</g>
			</g>
			<g>
				<g>
					<g>
						<rect x="317.749" y="178.566" style="fill:#1E2778;" width="39.779" height="39.779"/>
						<polygon style="fill:#28D1B8;" points="357.528,218.345 317.749,218.345 334.216,198.852 343.669,209.592 357.528,194.142 
													"/>
						<circle style="fill:#F2CF31;" cx="329.06" cy="189.948" r="5.875"/>
						<rect x="317.749" y="229.238" style="fill:#FFFFFF;" width="39.779" height="39.779"/>
						<rect x="317.749" y="279.911" style="fill:#28D1B8;" width="39.779" height="39.779"/>
					</g>
					<g>
						<g>
							<path style="fill:#39439E;" d="M303.891,179.566v37.779h-37.779v-37.779H303.891 M304.891,178.566h-39.779v39.779h39.779
								V178.566L304.891,178.566z"/>
						</g>
						<rect x="265.112" y="229.238" style="fill:#F2CF31;" width="39.779" height="39.779"/>
						<rect x="265.112" y="279.911" style="fill:#FFFFFF;" width="39.779" height="39.779"/>
					</g>
				</g>
				<polygon style="fill:#EDFCFF;" points="352.557,187.723 356.587,199.654 359.79,196.451 363.901,200.562 365.397,199.066 
					361.285,194.955 364.488,191.752 				"/>
			</g>
		</g>
		<g>
			<g>
				<g>
					<g>
						<g>
							<path style="fill:#141B5E;" d="M372.923,333.948c-0.009-0.054-0.007-0.105-0.018-0.16c-0.179-0.879-0.563-1.705-1.089-2.43
								c-1.647-2.268-4.867-3.207-5.373-6.219c-0.135-0.805-0.219-1.618-0.323-2.428h0.111c-0.209-2.045-0.935-4.064-2.205-5.791
								c-0.488-0.736-1.102-1.403-1.713-2.11c-1.041-1.206-1.002-2.364-0.582-3.839c0.29-1.018,0.494-1.912,0.278-2.977
								c-0.179-0.879-0.563-1.705-1.089-2.43c-1.647-2.268-4.867-3.207-5.373-6.219c-0.256-1.527-0.32-3.084-0.709-4.589
								c-0.457-1.767-1.423-3.191-2.885-4.283c-2.011-1.501-4.426-2.376-6.921-2.736v34.974l4.747,11.237H372.923z"/>
							<g>
								<g>
									<g>
										<path style="fill:#E8A179;" d="M397.865,331.299c0.016-0.064,0.035-0.126,0.051-0.189c3.068,0.085,6.145-0.063,9.2-0.459
											c0.394,2.377,0.084,4.901-1.161,6.754c-2.805,0.411-5.632,0.607-8.456,0.615
											C397.376,337.331,397.495,332.809,397.865,331.299z"/>
										<g>
											<path style="fill:#E8A179;" d="M410.936,329.265c0.749,0.56,1.038,1.603,1.557,2.438
												c0.266,0.427,0.629,0.954,0.496,1.487c-0.126,0.505-0.631,0.69-1.104,0.59c-0.568-0.12-0.998-0.547-1.236-1.075
												c0.13,1.446,0.244,2.915,0.044,4.358c-0.13,0.94-0.165,1.904-1.206,2.081c-0.981,0.167-2.821-0.022-3.673-0.607
												c-1.045-0.718-1.148-2.266-1.199-3.408c-0.103-2.348,0.446-5.119,2.926-5.991c0.795-0.28,1.696-0.379,2.528-0.238
												C410.418,328.96,410.7,329.088,410.936,329.265z"/>
											<path style="fill:#E8A179;" d="M408.111,329.553l4.232,0.186c3.883,0.149,2.655,9.652-1.726,9.547l-2.838-0.124
												c-0.682-0.03-1.21-0.607-1.18-1.288c0.025-0.567,0.43-1.023,0.958-1.145c-0.531-0.158-0.909-0.657-0.884-1.235
												c0.025-0.567,0.43-1.023,0.958-1.145c-0.531-0.158-0.909-0.657-0.884-1.235c0.025-0.567,0.431-1.023,0.958-1.145
												c-0.531-0.158-0.909-0.657-0.884-1.235C406.852,330.052,407.429,329.524,408.111,329.553z"/>
											
												<rect x="408.464" y="331.165" transform="matrix(0.9999 -0.0103 0.0103 0.9999 -3.3965 4.3018)" style="fill:#FFFFFF;" width="18.167" height="4"/>
											<path style="fill:#E8A179;" d="M410.069,328.9c0.349,0.059,0.631,0.188,0.867,0.365c0.749,0.56,1.038,1.603,1.557,2.438
												c0.266,0.427,0.629,0.954,0.496,1.487c-0.126,0.504-0.631,0.69-1.104,0.59c-0.609-0.128-0.983-0.669-1.375-1.103
												c-0.351-0.388-1.219-1.049-2.732-0.696c-1.381,0.322-3.048,1.624-3.172,2.845c-0.043-2.278,0.56-4.852,2.934-5.688
												C408.335,328.859,409.236,328.759,410.069,328.9z"/>
										</g>
									</g>
								</g>
								<g>
									<path style="fill:#E8C00C;" d="M347.412,324.641c6.332-0.358,46.607,5.572,54.078,4.489
										c1.707,3.318,1.853,6.998,0.422,10.56c-4.344,0.526-45.423-2.662-46.887-2.567L347.412,324.641z"/>
								</g>
							</g>
							<path style="fill:#E8C00C;" d="M341.505,322.46h1.102c0.291,0,0.58,0.008,0.869,0.023c7.091,0.38,12.616,7.086,13.078,14.107
								c0.035,0.522,4.531,46.559,4.531,46.559h-39.163l4.427-46.559c0.235-7.858,6.357-13.721,14.362-14.111
								C340.975,322.467,341.24,322.46,341.505,322.46z"/>
							<g>
								<path style="fill:#E8A179;" d="M332.434,299.949c0-6.633,5.314-12.025,11.917-12.151c6.814-0.13,12.391,5.576,12.391,12.391
									c0,2.409,0,5.257,0,8.01c0,6.158-4.992,11.149-11.15,11.149h-0.453v4.356c0,3.034-2.46,5.494-5.494,5.494l0,0
									c-3.034,0-5.494-2.46-5.494-5.494v-7.413c0-4.564-0.369-9.138-1.402-13.584C332.543,301.82,332.434,300.897,332.434,299.949
									z"/>
								<path style="fill:#141B5E;" d="M333.93,334.448l4.828-11.004v-20.726c0.333-0.005,0.528-0.01,0.533-0.015l18.434,0.016
									v-2.531c0-6.376-4.504-12.184-10.777-13.541c-5.846-1.265-14.782,0.552-17.47,6.54c-1.491,3.32-0.588,7.333-3.59,9.859
									c-1.76,1.481-3.618,2.767-4.107,5.173c-0.216,1.065-0.012,1.959,0.278,2.977c0.42,1.476,0.458,2.634-0.582,3.839
									c-0.611,0.707-1.225,1.374-1.713,2.11c-0.096,0.131-0.166,0.276-0.256,0.411c-0.722,0.861-1.255,1.847-1.552,2.994
									c-0.389,1.505-0.453,3.062-0.71,4.589c-0.505,3.012-3.726,3.951-5.373,6.219c-0.526,0.725-0.91,1.551-1.089,2.43
									c-0.046,0.228-0.065,0.445-0.076,0.66H333.93z"/>
							</g>
							<g>
								<polygon style="fill:#FFFFFF;" points="334.957,325.069 343.528,325.069 340.996,309.486 332.425,309.486 								"/>
								<g>
									<path style="fill:#E8A179;" d="M333.542,316.357c0,0,0.798,1.864,1.571,1.841c3.005-0.089,6.776-3.419,6.776-3.419
										c0.757-0.245,4.19,5.192,0.751,8.13c-0.026,2.521-0.205,5.965-0.546,8.454c-0.699,0.027-5.161-0.717-6.605-1.293
										c-0.061-0.024-0.12-0.052-0.18-0.077c0.418-2.487,0.672-5.003,0.77-7.53c-0.024-0.02-0.047-0.04-0.071-0.06
										c-0.055-0.047-0.107-0.097-0.16-0.146c-0.05-0.047-0.101-0.093-0.148-0.142c-0.015-0.015-0.028-0.032-0.043-0.048
										c-0.748-0.591-1.523-1.253-2.055-2.021c-0.605-0.873-0.515-1.738-0.702-2.77
										C332.824,316.86,333.123,316.279,333.542,316.357z"/>
									<g>
										<path style="fill:#F2CF31;" d="M326.239,333.433c0.585-3.489,4.317-5.482,7.554-4.053c0.193,0.085,0.372,0.19,0.551,0.295
											c0.105-1.257,0.203-2.478,0.294-3.635c3.613-0.933,7.234-0.264,10.393,1.918c-1.09,10.653-0.959,29.875-6.354,35.845
											c-0.002,0.002-0.004,0.004-0.006,0.006c-2.184,4.778-6.992,2.374-8.962-0.986
											C324.529,355.65,324.475,343.949,326.239,333.433z"/>
										<path style="fill:#FFFFFF;" d="M330.857,355.218c1.602-2.86,3.041-18.612,3.87-29.177c0,0,1.395,23.295-3.354,30.291
											C331.189,355.966,331.015,355.594,330.857,355.218z"/>
									</g>
								</g>
							</g>
						</g>
					</g>
					<g>
						<g>
							<g>
								<path style="fill:#1A2242;" d="M384.558,406.142l-10.801-0.296c-2.638-0.072-4.561-1.705-4.489-4.343l0,0
									c0.072-2.638,2.255-4.201,4.893-4.129l9.98,0.36c2.638,0.072,5.337,1.683,5.264,4.321l0,0
									C389.335,404.692,387.196,406.214,384.558,406.142z"/>
							</g>
							<g>
								<g>
									<g>
										<path style="fill:#1A2242;" d="M377.405,398.97c0.008-0.301,0.259-0.538,0.56-0.53c0.301,0.008,0.538,0.259,0.53,0.56
											c-0.008,0.301-0.259,0.538-0.56,0.53C377.634,399.521,377.397,399.271,377.405,398.97z"/>
										<path style="fill:#1A2242;" d="M379.672,399.032c0.008-0.301,0.259-0.538,0.56-0.53c0.301,0.008,0.538,0.259,0.53,0.56
											c-0.008,0.301-0.259,0.538-0.56,0.53C379.901,399.583,379.663,399.333,379.672,399.032z"/>
										<path style="fill:#1A2242;" d="M381.938,399.094c0.008-0.301,0.259-0.538,0.56-0.53c0.301,0.008,0.538,0.259,0.53,0.56
											c-0.008,0.301-0.259,0.538-0.56,0.53C382.167,399.645,381.93,399.395,381.938,399.094z"/>
									</g>
									<g>
										<path style="fill:#1A2242;" d="M377.26,404.276c0.008-0.301,0.259-0.538,0.56-0.53c0.301,0.008,0.538,0.259,0.53,0.56
											c-0.008,0.301-0.259,0.538-0.56,0.53C377.489,404.828,377.252,404.578,377.26,404.276z"/>
										<path style="fill:#1A2242;" d="M379.526,404.339c0.008-0.301,0.259-0.538,0.56-0.53c0.301,0.008,0.538,0.259,0.53,0.56
											c-0.008,0.301-0.259,0.538-0.56,0.53C379.755,404.89,379.518,404.64,379.526,404.339z"/>
										<path style="fill:#1A2242;" d="M381.792,404.401c0.008-0.301,0.259-0.538,0.56-0.53c0.301,0.008,0.538,0.259,0.53,0.56
											c-0.008,0.301-0.259,0.538-0.56,0.53C382.022,404.952,381.784,404.702,381.792,404.401z"/>
									</g>
								</g>
								<g>
									<g>
										<polygon style="fill:#CAE1E1;" points="380.384,404.477 379.81,404.461 377.669,398.776 378.243,398.792 										"/>
										<polygon style="fill:#CAE1E1;" points="382.682,404.54 382.108,404.524 379.967,398.839 380.541,398.854 										"/>
									</g>
									<g>
										
											<rect x="377.592" y="398.783" transform="matrix(0.9996 0.0274 -0.0274 0.9996 11.1255 -10.1852)" style="fill:#E9FFFF;" width="0.574" height="5.625"/>
										
											<rect x="379.887" y="398.845" transform="matrix(0.9996 0.0274 -0.0274 0.9996 11.13 -10.2497)" style="fill:#E9FFFF;" width="0.574" height="5.625"/>
										
											<rect x="382.182" y="398.908" transform="matrix(0.9996 0.0274 -0.0274 0.9996 11.1326 -10.3125)" style="fill:#E9FFFF;" width="0.574" height="5.625"/>
									</g>
								</g>
							</g>
						</g>
						<g>
							<path style="fill:#1A2242;" d="M363.513,403.983l26.623-25.613c0,0-23.845,9.077-48.632,7.217
								c-16.93-1.271-34.299-14.485-44.811-12.61c-1.537,0.274-2.871,1.224-3.742,2.52l0,0c-1.379,2.051-1.227,5.294,0.407,7.149
								c9.561,10.85,26.555,19.837,32.035,22.569c1.13,0.564,2.368,0.858,3.632,0.868l28.676,0.217
								C359.867,406.315,361.952,405.484,363.513,403.983z"/>
							<path style="fill:#E8A179;" d="M363.831,395.669l9.707,3.461c1.078,0.384,1.786,1.419,1.755,2.563l0,0
								c-0.04,1.46-1.256,2.61-2.715,2.57l-8.803-0.241L363.831,395.669z"/>
							<path style="fill:#1E2778;" d="M369.658,405.368l0.623-8.459c0,0-47.229-27.968-73.324-23.976
								c-1.635,0.25-3.083,1.191-4.005,2.564l0,0c-1.419,2.11-1.371,4.909,0.198,6.91
								C298.073,388.687,323.578,402.224,369.658,405.368z"/>
						</g>
					</g>
					<g>
						<g>
							<g>
								<path style="fill:#1A2242;" d="M299.923,406.306l10.775-0.795c2.632-0.194,4.477-1.914,4.283-4.546l0,0
									c-0.194-2.632-2.447-4.093-5.079-3.898l-9.953,0.821c-2.632,0.194-5.253,1.928-5.059,4.56l0,0
									C295.084,405.08,297.291,406.501,299.923,406.306z"/>
							</g>
							<g>
								<g>
									<g>
										<path style="fill:#1A2242;" d="M306.736,398.811c-0.022-0.3-0.284-0.526-0.584-0.504c-0.3,0.022-0.526,0.284-0.504,0.584
											c0.022,0.3,0.284,0.526,0.584,0.504C306.533,399.373,306.758,399.112,306.736,398.811z"/>
										<path style="fill:#1A2242;" d="M304.475,398.978c-0.022-0.3-0.284-0.526-0.584-0.504c-0.3,0.022-0.526,0.284-0.504,0.584
											c0.022,0.3,0.284,0.526,0.584,0.504C304.272,399.54,304.497,399.279,304.475,398.978z"/>
										<path style="fill:#1A2242;" d="M302.214,399.145c-0.022-0.3-0.284-0.526-0.584-0.504c-0.3,0.022-0.526,0.284-0.504,0.584
											c0.022,0.3,0.284,0.526,0.584,0.504C302.011,399.707,302.236,399.445,302.214,399.145z"/>
									</g>
									<g>
										<path style="fill:#1A2242;" d="M307.127,404.106c-0.022-0.3-0.284-0.526-0.584-0.504c-0.3,0.022-0.526,0.284-0.504,0.584
											c0.022,0.3,0.284,0.526,0.584,0.504C306.923,404.668,307.149,404.406,307.127,404.106z"/>
										<path style="fill:#1A2242;" d="M304.866,404.273c-0.022-0.3-0.284-0.526-0.584-0.504c-0.3,0.022-0.526,0.284-0.504,0.584
											c0.022,0.3,0.284,0.526,0.584,0.504C304.663,404.835,304.888,404.573,304.866,404.273z"/>
										<path style="fill:#1A2242;" d="M302.605,404.44c-0.022-0.3-0.284-0.526-0.584-0.504c-0.3,0.022-0.526,0.284-0.504,0.584
											c0.022,0.3,0.284,0.526,0.584,0.504C302.401,405.001,302.627,404.74,302.605,404.44z"/>
									</g>
								</g>
								<g>
									<g>
										<polygon style="fill:#CAE1E1;" points="304.016,404.451 304.588,404.409 306.464,398.63 305.891,398.672 										"/>
										<polygon style="fill:#CAE1E1;" points="301.723,404.62 302.295,404.578 304.171,398.799 303.598,398.841 										"/>
									</g>
									<g>
										
											<rect x="306.098" y="398.644" transform="matrix(-0.9973 0.0737 -0.0737 -0.9973 641.5225 779.2401)" style="fill:#E9FFFF;" width="0.574" height="5.625"/>
										
											<rect x="303.808" y="398.813" transform="matrix(-0.9973 0.0735 -0.0735 -0.9973 636.8964 779.8041)" style="fill:#E9FFFF;" width="0.574" height="5.625"/>
										
											<rect x="301.518" y="398.981" transform="matrix(-0.9973 0.0735 -0.0735 -0.9973 632.3358 780.3098)" style="fill:#E9FFFF;" width="0.574" height="5.625"/>
									</g>
								</g>
							</g>
						</g>
						<g>
							<path style="fill:#E8A179;" d="M320.144,394.887l-9.536,3.906c-1.059,0.434-1.719,1.5-1.635,2.641l0,0
								c0.107,1.456,1.375,2.55,2.831,2.442l8.783-0.648L320.144,394.887z"/>
							<path style="fill:#273199;" d="M317.15,404.451l-3.142-7.809c0,0,43.717-27.596,71.887-27.559
								c1.654,0.002,3.134,1.048,4.12,2.376l0,0c1.515,2.042,1.596,4.84,0.122,6.911
								C385.508,384.872,363.034,399.179,317.15,404.451z"/>
						</g>
					</g>
				</g>
			</g>
			<g>
				<g>
					<g>
						<g>
							<g>
								<g>
									<g>
										<path style="fill:#E8A179;" d="M271.315,217.654c-0.266-0.598-0.98-0.853-1.58-0.626l-5.27,1.99l-0.013-0.023l6.176-2.602
											c0.591-0.249,0.929-0.923,0.703-1.538c-0.241-0.655-0.968-0.975-1.59-0.713l-6.473,2.728l-0.015-0.027l7.039-3.923
											c0.56-0.312,0.824-1.021,0.535-1.608c-0.308-0.627-1.064-0.866-1.654-0.537l-7.097,3.955l-0.049-0.088l5.391-3.656
											c0.531-0.36,0.733-1.09,0.396-1.651c-0.36-0.599-1.132-0.772-1.691-0.393l-6.084,4.126c0,0-3.277,0.836-4.586,2.76
											c-0.328,0.482-0.53,1.038-0.625,1.613c-3.34,2.717-6.872,5.198-10.568,7.412c1.677,2.199,2.775,3.972,4.503,5.569
											c3.289-2.211,6.98-4.935,9.958-7.583c0.135-0.002,1.542,0.792,2.833,0.063l1.109-0.618l8.003-3.021
											C271.297,219.022,271.599,218.292,271.315,217.654z"/>
										<path style="fill:#28D1B8;" d="M188.482,238.594c21.388,0.228,42.633-6.395,60.063-18.825
											c2.498,3.251,4.056,7.287,3.673,11.066c-18.758,13.859-42.096,20.958-65.393,19.905
											C185.543,246.236,186.349,242.222,188.482,238.594z"/>
									</g>
								</g>
							</g>
							<g>
								<g>
									<g>
										<g>
											<polygon style="fill:#E8A179;" points="203.679,385.683 211.96,385.683 212.127,398.522 226.132,403.451 
												226.132,406.068 203.349,406.068 204.429,403.451 											"/>
											<polygon style="fill:#1E2778;" points="212.127,398.522 226.132,403.451 226.132,406.068 203.349,406.068 
												203.349,403.451 203.891,398.522 											"/>
										</g>
										<g>
											<polygon style="fill:#E8A179;" points="164.52,385.683 172.801,385.683 170.661,398.522 184.666,403.451 
												184.666,406.068 161.883,406.068 162.963,403.451 											"/>
											<polygon style="fill:#1E2778;" points="170.661,398.522 184.666,403.451 184.666,406.068 161.883,406.068 
												161.883,403.451 163.526,398.522 											"/>
										</g>
									</g>
									<g>
										<path style="fill:#1E2778;" d="M189.486,308.545v-8.713h18.977c0,0,4.523,31.18,4.027,86.44h-9.604
											c0,0-3.687-40.973-13.328-78.237v0C189.534,308.206,189.508,308.375,189.486,308.545z"/>
										<path style="fill:#1E2778;" d="M171.161,299.833L171.161,299.833h21.538c-8.124,35.909-19.363,86.44-19.363,86.44h-9.64
											C163.697,386.273,168.605,327.921,171.161,299.833z"/>
										<path style="fill:#3A45AB;" d="M178.701,299.833h5.275c-8.124,35.909-14.549,86.44-14.549,86.44h-2.728
											C166.698,386.273,176.145,327.921,178.701,299.833z"/>
									</g>
								</g>
								<g>
									<path style="fill:#28D1B8;" d="M189.336,235.584h1.167c0.308,0,0.614,0.008,0.92,0.025
										c7.507,0.402,12.668,8.213,13.157,15.645c0.036,0.553,3.882,48.579,3.882,48.579h-37.301l2.131-49.29
										c0.249-8.319,6.729-14.526,15.205-14.938C188.776,235.591,189.056,235.584,189.336,235.584z"/>
									<g>
										<g>
											<path style="fill:#E8A179;" d="M201.501,311.669c-1.844-1.645-6.041-3.965-8.867-6.278
												c1.507-0.122,3.536-0.498,2.72-2.024c-0.777,0.61-3.469-0.483-6.011-0.605c-2.581-2.287-7.128-6.734-9.287-9.217
												c-1.553,1.689-2.885,3.761-3.938,5.404c2.004,2.077,6.197,5.985,8.709,8.069c0.304,1.364,1.204,2.708,1.984,3.664
												c1.64,2.008,3.556,3.659,5.234,5.635c0.428,0.504,1.274,0.043,1.011-0.593c-0.317-0.768-1.235-2.223-1.552-2.99
												c0.434,0.559,3.596,4.29,4.959,4.814c0.581,0.223,0.989-0.431,0.688-0.909c-1.13-1.795-2.444-3.252-3.574-5.047
												c1.823,1.483,3.666,2.939,5.569,4.323c0.57,0.415,1.165-0.28,0.826-0.831c-1.022-1.665-3.572-4.012-5.005-5.412
												c1.469,0.924,4.354,2.234,5.998,2.946C201.445,312.825,201.86,311.99,201.501,311.669z"/>
											<path style="fill:#28D1B8;" d="M177.357,240.899l-0.496,16.509c-4.779,5.383-8.437,11.029-8.144,16.905
												c0.269,2.744,11.599,16.133,19.216,24.899c-1.978,3.42-5.172,5.656-9.163,6.421
												c-7.231-8.732-21.836-22.902-22.337-31.405C155.74,262.456,167.058,249.461,177.357,240.899z"/>
											<path style="fill:#12C4AA;" d="M176.973,256.961c-4.779,5.383-8.437,11.029-8.143,16.905
												c0.269,2.744,11.599,16.133,19.216,24.899c0,0-19.999-17.443-20.5-25.946
												C167.848,264.079,176.973,256.961,176.973,256.961z"/>
										</g>
									</g>
								</g>
							</g>
							<g>
								<g>
									<path style="fill:#F2CF31;" d="M187.674,198.886c3.957-0.229,8.102,0.693,11.291,3.074
										c1.549,1.156,2.571,2.663,3.055,4.534c0.412,1.593,10.506,28.312,10.506,28.312h-24.852V198.886z"/>
									<path style="fill:#E8A179;" d="M180.53,211.752c0-7.022,5.626-12.731,12.616-12.864
										c7.213-0.138,13.118,5.903,13.118,13.118c0,2.55,0,5.565,0,8.48c0,6.519-5.285,11.803-11.804,11.803h-0.48v10.379
										c0,3.212-11.632-2.555-11.632-5.767v-7.848c0-4.832-0.39-9.674-1.484-14.381
										C180.645,213.733,180.53,212.756,180.53,211.752z"/>
									<path style="fill:#F2CF31;" d="M177.895,204.594c2.846-6.339,12.306-8.263,18.495-6.924
										c6.641,1.437,11.409,7.585,11.409,14.335v2.68h-18.51v20.12H166.63C166.63,234.805,176.937,206.725,177.895,204.594z"/>
								</g>
								<path style="fill:#E8A179;" d="M187.589,217.931c0.716,0,1.364,0.272,1.867,0.706v4.327
									c-0.503,0.434-1.15,0.706-1.867,0.706c-1.585,0-2.87-1.285-2.87-2.87S186.004,217.931,187.589,217.931z"/>
							</g>
						</g>
					</g>
				</g>
				<g>
					
						<rect x="257.027" y="188.287" transform="matrix(-0.9131 0.4078 -0.4078 -0.9131 613.0388 284.2674)" style="fill:#FFFFFF;" width="38.383" height="38.383"/>
					<path style="fill:#E8A179;" d="M256.762,215.417c0.54-0.294,1.261-0.22,1.845-0.377c0.633-0.169,1.188-0.534,1.784-0.794
						c0.31-0.135,0.791-0.394,1.136-0.334c1.088,0.19,0.785,1.112,0.381,1.642c-0.651,0.854-1.897,1.266-2.345,2.278
						c-0.016,0.035-0.014,0.068-0.022,0.103c-0.086,0.072-0.17,0.149-0.258,0.211c-0.337,0.239-0.671,0.338-0.985,0.364
						c-0.431-0.081-0.839-0.228-1.191-0.479C256.311,217.462,255.682,216.005,256.762,215.417z"/>
				</g>
			</g>
		</g>
	</g>
</g>
<g id="OBJECTS">
</g>
</svg>
